/* XPM */
static char * Media_pressed_xpm[] = {
"40 36 80 1",
" 	c None",
".	c #485354",
"+	c #485254",
"@	c #475355",
"#	c #475254",
"$	c #485355",
"%	c #475354",
"&	c #485255",
"*	c #475255",
"=	c #465153",
"-	c #626C6F",
";	c #475153",
">	c #465051",
",	c #AAAAAA",
"'	c #FFFFFF",
")	c #EEAA99",
"!	c #000000",
"~	c #5577AA",
"{	c #999999",
"]	c #D8D8D8",
"^	c #455052",
"/	c #444E50",
"(	c #444F51",
"_	c #434D4F",
":	c #424B4E",
"<	c #AA9988",
"[	c #434C4E",
"}	c #414A4C",
"|	c #888888",
"1	c #40494A",
"2	c #3F4848",
"3	c #3F4749",
"4	c #3D4647",
"5	c #3C4546",
"6	c #3C4446",
"7	c #3B4344",
"8	c #3C4345",
"9	c #3A4243",
"0	c #3B4243",
"a	c #3A4142",
"b	c #394042",
"c	c #393F40",
"d	c #393F41",
"e	c #373D3F",
"f	c #373E3E",
"g	c #363C3D",
"h	c #363C3E",
"i	c #353B3C",
"j	c #353B3B",
"k	c #34393A",
"l	c #34393B",
"m	c #333839",
"n	c #323737",
"o	c #303536",
"p	c #2F3334",
"q	c #303435",
"r	c #2F3233",
"s	c #2F3333",
"t	c #2D3131",
"u	c #2C2F30",
"v	c #2B2E2F",
"w	c #2A2D2E",
"x	c #292B2C",
"y	c #282A2A",
"z	c #272A2A",
"A	c #262828",
"B	c #272929",
"C	c #262728",
"D	c #262727",
"E	c #252626",
"F	c #232424",
"G	c #232323",
"H	c #898989",
"I	c #222223",
"J	c #212121",
"K	c #222221",
"L	c #212222",
"M	c #212122",
"N	c #212221",
"O	c #222122",
".+@#.$$%#&.%**@#&@&+*$%&$@+*%@+++.$.@@**",
"=--------------------------------------;",
">-,,,,,,,,,,,,,,,')'''''!~~,,,{{{{{{{{]^",
"/-,,,,,,,,,,,,,,')'''''''!~~{{{{{{{{{{](",
"_-,,,,,,,,,,,,,')'''''''''!~~{{{{{{{{{]_",
":-,,,,,,<~'<,,')''''''''''!~~~{{{{{{{{][",
"}-,,,,,{'~'','|''''''''''!~~~~~{{{{|{|]}",
"1-,,{,,<'!'~')~|''''''''!~,~~~~{{{{{|{]1",
"2-,{,<'<'!'~''~~|''''''!~','~~!''''''']3",
"4-<<''~<'!'!'~'~~|''''!~'',,'!|~{~{'|']4",
"5-''~'!''!'!'!''~~|''!~'',,,||'{'|'|'|]6",
"7-~!'~'!!'!'!'!~'~~|!~'!~',|~'{'{'{'|']8",
"9-'')!'<''!'!'<'''~~~~',!~|~{''|'|'|'|]0",
"a-,<'~'<<'!'~'<<{{'~~~~',|~{{{{{{{|{|']b",
"c-,,<'<{<'!'~','''''~~~~|~''''{~~~~~'!]d",
"e-,,{<<,<'!''<{''{{<,!!~|<<<)<!~~~~'!!]f",
"g-,{,{,{,'~'<{,''{<{<<<<<<<)<~!~{|'!!!]h",
"i-,,,,{,{'~<{{{''<{<<{<<<<)<~~!~{'!!'!]j",
"k-,{,{,{,<'<,{,''{<<<<<<<)<~{~!~'!!!!~]l",
"m-,,,,,{{,{{{{{''<<<<<<{'<~{{~!'!!'!~{]m",
"n-,,,{,{,{,{{{,''<<<<{{|!{{|{~'!!!!!!~]n",
"o-,~''''''''''{''<<<{{~~{{{{{'!!'!~!!!]o",
"p-,~'~,~,{~{,'{''<<<~~~{{|{|'!!!!~{~!!]q",
"r-,~',~{~'''''{''<<<<{{{{{{'!!'!~{~~~!]s",
"t-,~'~,~,{,''',{!!!!!!!!!!'!!!!~{~{~~~]t",
"u-,~',~,~{{{{'''~~~~~~~~~'!!'!!!~~~~~!]u",
"v-,~'{,{,'''''''!{{{{|{|'!!!!~!!!~~~!']v",
"w-,~''''''''''''!{{{{{{'!!'!~{~!!!~!!!]w",
"x-,,~!!!!!!!!!!!!{{|||'!!!!~|~~~!!!'!!]x",
"y-,,,,{{{{{{{{{{{||||'!!'!~|~|~~~!!!!|]z",
"A-{,,{,{,{{{{{{|{|{|'!!!!!!~~~~~!'!!||]B",
"C-,,{{{{{{{{{{|||||'!!'!~!!!~~~!'!!{{{]D",
"E-,{{{{{{{{{{|{|||'!!!!~{~!!!~!'!!{{{{]E",
"F-{{{{{{{{{||||||'!!'!~|~~~!!!'!!{{{{{]F",
"GH]]]]]]]]]]]]]]]]]]]]]]]]]]]]]]]]]]]]]I",
"JJKLLMMMNMLMNNNLJNMJMNMNJLNJNMMOMNMKJMMM"};
