/* XPM */
static char * Viewer_pressed_xpm[] = {
"40 36 238 2",
"  	c None",
". 	c #485354",
"+ 	c #485254",
"@ 	c #475355",
"# 	c #475254",
"$ 	c #485355",
"% 	c #475354",
"& 	c #485255",
"* 	c #475255",
"= 	c #465153",
"- 	c #626C6F",
"; 	c #475153",
"> 	c #465051",
", 	c #848484",
"' 	c #898989",
") 	c #D8D8D8",
"! 	c #455052",
"~ 	c #444E50",
"{ 	c #AA9789",
"] 	c #A59789",
"^ 	c #888888",
"/ 	c #A99789",
"( 	c #444F51",
"_ 	c #434D4F",
": 	c #9F9789",
"< 	c #9F988D",
"[ 	c #8B8B8B",
"} 	c #A09A92",
"| 	c #939093",
"1 	c #A09A96",
"2 	c #8A898A",
"3 	c #A0988A",
"4 	c #A09789",
"5 	c #424B4E",
"6 	c #A39789",
"7 	c #929092",
"8 	c #949090",
"9 	c #B1AEB1",
"0 	c #A09DA0",
"a 	c #A3A0A3",
"b 	c #ABA6AB",
"c 	c #9B989B",
"d 	c #A6A2A6",
"e 	c #A09C9D",
"f 	c #9D9B9D",
"g 	c #9F998E",
"h 	c #A89789",
"i 	c #434C4E",
"j 	c #414A4C",
"k 	c #A29789",
"l 	c #858485",
"m 	c #989493",
"n 	c #A89B93",
"o 	c #B4AFB4",
"p 	c #F1ACA0",
"q 	c #FFFAFF",
"r 	c #9A9798",
"s 	c #A19FA1",
"t 	c #A29C9A",
"u 	c #858585",
"v 	c #40494A",
"w 	c #968E88",
"x 	c #A39E9D",
"y 	c #9E9A9E",
"z 	c #A6A3A6",
"A 	c #AB9C93",
"B 	c #939193",
"C 	c #948D88",
"D 	c #3F4848",
"E 	c #8E8D8E",
"F 	c #9B9698",
"G 	c #8F8E8F",
"H 	c #AB9D95",
"I 	c #A19A91",
"J 	c #3F4749",
"K 	c #3D4647",
"L 	c #928F92",
"M 	c #5C7CB1",
"N 	c #9D988F",
"O 	c #3C4546",
"P 	c #999284",
"Q 	c #8E8B84",
"R 	c #AA978B",
"S 	c #969292",
"T 	c #EEAB9F",
"U 	c #ABA098",
"V 	c #8D8D95",
"W 	c #5F7786",
"X 	c #959295",
"Y 	c #A59A8F",
"Z 	c #AA978A",
"` 	c #A69588",
" .	c #3C4446",
"..	c #3B4344",
"+.	c #A29B97",
"@.	c #B0ADB0",
"#.	c #000007",
"$.	c #010101",
"%.	c #959598",
"&.	c #A39A91",
"*.	c #3C4345",
"=.	c #3A4243",
"-.	c #A99688",
";.	c #AA9C93",
">.	c #BDA48A",
",.	c #6F839E",
"'.	c #386DA6",
").	c #9F978A",
"!.	c #3B4243",
"~.	c #3A4142",
"{.	c #989184",
"].	c #8F8D8A",
"^.	c #253044",
"/.	c #9D9A9D",
"(.	c #9A999A",
"_.	c #AEA6A0",
":.	c #6180AE",
"<.	c #C19F96",
"[.	c #394042",
"}.	c #393F40",
"|.	c #928E84",
"1.	c #9C9488",
"2.	c #E3AA9C",
"3.	c #C8C6C8",
"4.	c #5F7DAE",
"5.	c #8F8C89",
"6.	c #393F41",
"7.	c #373D3F",
"8.	c #9B9890",
"9.	c #B09795",
"0.	c #030303",
"a.	c #292723",
"b.	c #37342F",
"c.	c #373E3E",
"d.	c #363C3D",
"e.	c #A0998B",
"f.	c #EBAB9E",
"g.	c #B1A39B",
"h.	c #1E1D1A",
"i.	c #738289",
"j.	c #363C3E",
"k.	c #353B3C",
"l.	c #C8A299",
"m.	c #9597A1",
"n.	c #9E9B9B",
"o.	c #6D8084",
"p.	c #353B3B",
"q.	c #34393A",
"r.	c #DFA99C",
"s.	c #B4A49E",
"t.	c #B1B3B7",
"u.	c #EAE5E6",
"v.	c #34393B",
"w.	c #333839",
"x.	c #AEA098",
"y.	c #EAE6EA",
"z.	c #323737",
"A.	c #617983",
"B.	c #E4AA9D",
"C.	c #303536",
"D.	c #8D8D93",
"E.	c #ACABAC",
"F.	c #2F3334",
"G.	c #918E8F",
"H.	c #8A8A8D",
"I.	c #303435",
"J.	c #2F3233",
"K.	c #ABA9AB",
"L.	c #F4C6BD",
"M.	c #8D8C91",
"N.	c #6B8195",
"O.	c #2F3333",
"P.	c #2D3131",
"Q.	c #B29790",
"R.	c #B3AFB3",
"S.	c #657D8F",
"T.	c #88887F",
"U.	c #99998E",
"V.	c #2C2F30",
"W.	c #8E8E8E",
"X.	c #8F8D8D",
"Y.	c #C5ACAB",
"Z.	c #5D7CAF",
"`.	c #9D978A",
" +	c #2B2E2F",
".+	c #8B8A83",
"++	c #9C998F",
"@+	c #8E8C87",
"#+	c #8D8D92",
"$+	c #9C988D",
"%+	c #999999",
"&+	c #2A2D2E",
"*+	c #898981",
"=+	c #A39B91",
"-+	c #5C7CB0",
";+	c #BEAEA6",
">+	c #929089",
",+	c #292B2C",
"'+	c #919191",
")+	c #9B998D",
"!+	c #939089",
"~+	c #A59B92",
"{+	c #918F91",
"]+	c #A49A91",
"^+	c #8F8F8F",
"/+	c #282A2A",
"(+	c #97948B",
"_+	c #A79C93",
":+	c #8C8C93",
"<+	c #5D7CAE",
"[+	c #97938B",
"}+	c #9A998E",
"|+	c #909090",
"1+	c #272A2A",
"2+	c #262828",
"3+	c #8D8C89",
"4+	c #A69C92",
"5+	c #9A989A",
"6+	c #9E9C9E",
"7+	c #9E9B9E",
"8+	c #9C9A9C",
"9+	c #908F90",
"0+	c #8A8A8A",
"a+	c #272929",
"b+	c #262728",
"c+	c #929292",
"d+	c #262727",
"e+	c #252626",
"f+	c #989898",
"g+	c #232424",
"h+	c #232323",
"i+	c #222223",
"j+	c #212121",
"k+	c #222221",
"l+	c #212222",
"m+	c #212122",
"n+	c #212221",
"o+	c #222122",
". + @ # . $ $ % # & . % * * @ # & @ & + * $ % & $ @ + * % @ + + + . $ . @ * % * ",
"= - - - - - - - - - - - - - - - - - - - - - - - - - - - - - - - - - - - - - - ; ",
"> - , ' , ' , ' , ' , ' , ' , ' , ' , ' , ' , ' , ' , ' , ' , ' , ' , ' , ' ) ! ",
"~ - { ' { ' { ' { ' { ' { ' { ' { ' ] ^ / ^ / ' / ' { ' { ' { ' { ' { ' { ' ) ( ",
"_ - , { , { , { , { , { , { , : , < [ } | 1 2 3 , 4 , { , { , { , { , { , { ) _ ",
"5 - { ' { , { ' { , { ' 6 , : 7 8 9 0 a b c b d e f g ^ : , h ^ { , { ' { , ) i ",
"j - , { , { , { , { , k l m n 9 o p p q p q p p p p c r s t u { , { , { , { ) j ",
"v - { , { , { , { , w u x c p p p p q p q p q p p o p y p z A B C , { , { ' ) v ",
"D - , { , { , { , : E F p p p p p q p q q q p o p p G p 9 p 9 H I { , { , { ) J ",
"K - { , { , { , : | c p p o p o p p q p q p 9 L p M G 9 p M H p 9 N { , { , ) K ",
"O - P { P { Q R S T p p o p 9 p H L G 9 G 9 G G M M H U V W p G X p Y Z P ` )  .",
"..- P , P , +.@.p p p o p 9 H W #.$.#.$.$.$.#.$.$.#.$.W M %.L W p 9 p &.C , ) *.",
"=.- P -.P C ;.p p o 9 >.M M #.#.,.0 H H M $.$.$.$.$.$.#.#.$.#.'.o L p o ).: ) !.",
"~.- {., P ].p p 9 H W #.$.$.W ^./.(.q q _.^.$.$.$.$.:.M M M $.$.$.W o W <., ) [.",
"}.- |.{ 1.2.p 9 H M #.#.$.M M ^.,.(.q 3.3.M $.$.M $.M 0 G M M M #.#.#.4.5.C ) 6.",
"7.- 8.;.p p >.W M V $.$.M V M #.$.$.p 3.9.M $.$.M $.M 0 0 V M M 9 M $.0.a.b.) c.",
"d.- e.f.p g.'.M L G $.M G G M $.$.$.^.M W #.$.$.M $.M G G 0 M M q 9 0 M h.i.) j.",
"k.- l.p >.W m.0 o 9 G M H G G M $.$.$.#.#.$.$.X M $.M H 9 G M M q q q 9 n.o.) p.",
"q.- r.s.'.V 9 q q q t.W 9 9 H M $.$.$.$.$.$.G 9 #.W G G H G M M q q q q u.P ) v.",
"w.- H W m.o q q q q 9 M x.G G H M $.$.$.M G M $.M V o H L G W t.q q q q y.P ) w.",
"z.- A.V 9 q q q q q q M W H 9 L G M $.$.$.$.$.M G G H 9 H G M q q q q q B.P ) z.",
"C.- D.L q q q q q q q o M o G G H G G H G 0 G G 9 9 G H X W t.q q q q p E.Q ) C.",
"F.- G.G q q q q q q q q t.W G H 9 G 9 H G H G L H o H L W V q q q q p o H.o.) I.",
"J.- K.9 q L.q L.q q q q q t.W x.G G H a G 0 H G L H L G L q q q q p 9 M.N.Q ) O.",
"P.- Q.R.9 q p q p q L.q L.q t.W G X H 0 G 9 H G L W W G q q q q p o V S.T.U.) P.",
"V.- W.X.M G 9 9 q Y.q Y.q Y.q t.9 W L W L W W '.M o p q q q q 9 0 G Z.`.U.Q ) V.",
" +- .+++@+#+W M G _.9 q 9 q 9 q o q o q p q p q p q q q p 9 0 G M L $+U.T.%+)  +",
"&+- %+T.U.*+=+E -+M G 0 ;+9 q 9 q o q 9 q o q t.q p o 0 G M M G H >+%+T.%+{.) &+",
",+- T.'+T.W.T.)+!+~+E M M W G 0 9 9 9 o 9 9 9 9 0 G M M G {+]+H .+^+T.%+T.%+) ,+",
"/+- %+T.%+T.W.T.W.T.U.(+_+:+W -+M M M M W M -+<+-+E G [+}+T.W.T.|+T.%+T.%+T.) 1+",
"2+- ^ %+^ %+^ %+^ ^+^ W.^ }+3+4+5+6+7+8+6+f 9+(.0+U.^ W.^ W.^ %+^ %+^ %+^ %+) a+",
"b+- ^ T.%+T.^ T.%+T.^ T.c+T.^ T.^+T.^ T.^+T.^ T.^ T.^+T.%+T.^ T.%+T.^ T.%+T.) d+",
"e+- ^ %+^ %+^ %+^ %+^ %+^ f+^ f+^ %+^ %+^ %+^ %+^ %+^ %+^ %+^ %+^ %+^ %+^ %+) e+",
"g+- ^ T.^ ^ ^ T.^ ^ ^ T.^ ^ ^ T.^ ^ ^ T.^ ^ ^ T.^ ^ ^ T.^ ^ ^ T.^ ^ ^ T.^ ^ ) g+",
"h+' ) ) ) ) ) ) ) ) ) ) ) ) ) ) ) ) ) ) ) ) ) ) ) ) ) ) ) ) ) ) ) ) ) ) ) ) ) i+",
"j+j+k+l+l+m+m+m+n+m+l+m+n+n+n+l+j+n+m+j+m+n+m+n+j+l+n+j+n+m+m+o+m+n+m+k+j+m+j+m+"};
