/* XPM */
static char * close_activedown_xpm[] = {
"28 28 16 1",
" 	c None",
".	c #7AB5F8",
"+	c #588DC8",
"@	c #4D74A1",
"#	c #598DC8",
"$	c #70A8E7",
"%	c #4C73A0",
"&	c #8CC1FF",
"*	c #4B729F",
"=	c #4E75A2",
"-	c #4A719E",
";	c #5385BD",
">	c #4F76A3",
",	c #5077A4",
"'	c #5384BD",
")	c #437DBF",
"............................",
"............................",
"............................",
"............................",
"............................",
"............................",
"............................",
"............................",
"............................",
"..........+@@@@@@#..........",
".........$%&&&&&&*$.........",
".........$@&&&&&&*$.........",
".........$=&&&&&&*$.........",
".........$=&&&&&&*$.........",
".........$=&&&&&&-$.........",
".........$=&&&&&&-$.........",
".........$;>,,,>@'$.........",
".........$$$$$$$$$$.........",
"............................",
"............................",
"............................",
"............................",
"............................",
"............................",
"............................",
"............................",
"............................",
"))))))))))))))))))))))))))))"};
