/* XPM */
static char * close_activeup_xpm[] = {
"28 28 11 1",
" 	c None",
".	c #7AB5F8",
"+	c #4C73A0",
"@	c #4D74A1",
"#	c #ABD2FF",
"$	c #4B729F",
"%	c #4E75A2",
"&	c #4A719E",
"*	c #4F76A3",
"=	c #5077A4",
"-	c #437DBF",
"............................",
"............................",
"............................",
"............................",
"............................",
"............................",
"............................",
"............................",
".........+@@@@@@@@+.........",
".........@########@.........",
".........@########$.........",
".........@########$.........",
".........%########$.........",
".........%########$.........",
".........%########&.........",
".........%########&.........",
".........+########+.........",
".........@@*===*@$@.........",
"............................",
"............................",
"............................",
"............................",
"............................",
"............................",
"............................",
"............................",
"............................",
"----------------------------"};
