/* XPM */
static char * iconify_activedown_xpm[] = {
"28 28 8 1",
" 	c None",
".	c #7AB5F8",
"+	c #43628E",
"@	c #6FA6E4",
"#	c #43618D",
"$	c #8CC1FF",
"%	c #4B729F",
"&	c #437DBF",
"............................",
"............................",
"............................",
"............................",
"............................",
"............................",
".......+++++++++++++++......",
".......+@@@@@@@......#......",
".......+@$$$$$@......#......",
".......+@$$$$$@......#......",
".......+@$$$$$@......#......",
".......+@$$$$$@......#......",
".......+@$$$$$@......#......",
".......+@@@@@@@......#......",
".......+.............#......",
".......#.............#......",
".......#.............#......",
".......#.............#......",
".......#.............#......",
".......%#############+......",
"............................",
"............................",
"............................",
"............................",
"............................",
"............................",
"............................",
"&&&&&&&&&&&&&&&&&&&&&&&&&&&&"};
