/* XPM */
static char * maximize_activedown_xpm[] = {
"28 28 11 1",
" 	c None",
".	c #7AB5F8",
"+	c #4D74A1",
"@	c #4E75A3",
"#	c #74ACEC",
"$	c #8CC1FF",
"%	c #4E76A4",
"&	c #79B3F6",
"*	c #78B3F5",
"=	c #79B4F7",
"-	c #437DBF",
"............................",
"............................",
"............................",
"............................",
"............................",
"............................",
".......++++++++@+++@++......",
".......+#############+......",
".......+.$$$$$$$$$$$.+......",
".......+.$$$$$$$$$$$.+......",
".......+#############+......",
".......+#...........#+......",
".......+#...........#+......",
".......+#...........#+......",
".......%#...........#+......",
".......+#...........#+......",
".......+#...........#+......",
".......+#...........#+......",
".......+#############+......",
".&.&...+++++++++++++++......",
"*&&&&&.................&&&&&",
"**********=****************=",
"==.===========.==.==========",
"............................",
"............................",
"............................",
"............................",
"----------------------------"};
