/* XPM */
static char * maximize_inactive_xpm[] = {
"28 28 8 1",
" 	c None",
".	c #63687B",
"+	c #6B7184",
"@	c #454A5A",
"#	c #868B9C",
"$	c #808596",
"%	c #585D6F",
"&	c #4F5465",
"                            ",
"                            ",
"                            ",
"                            ",
"                            ",
"      .+++++++++++++++.     ",
"      +@@@@@@@@@@@@@@@+     ",
"      +@#############@+     ",
"      +@$%%%%%%%%%%%$@+     ",
"      +@$%%%%%%%%%%%$@+     ",
"      +@#############@+     ",
"      +@+&&&&&&&&&&&+@+     ",
"      +@+&&&&&&&&&&&+@+     ",
"      +@+&&&&&&&&&&&+@+     ",
"      +@+&&&&&&&&&&&+@+     ",
"      +@+&&&&&&&&&&&+@+     ",
"      +@+&&&&&&&&&&&+@+     ",
"      +@+&&&&&&&&&&&+@+     ",
"      +@+++++++++++++@+     ",
"      +@@@@@@@@@@@@@@@+     ",
"      .+++++++++++++++.     ",
"                            ",
"                            ",
"                            ",
"                            ",
"                            ",
"                            ",
"                            "};
