/* XPM */
static char * maximize_inactive_xpm[] = {
"28 28 11 1",
" 	c None",
".	c #383C4A",
"+	c #3D4150",
"@	c #63687B",
"#	c #6B7184",
"$	c #454A5A",
"%	c #868B9C",
"&	c #808596",
"*	c #585D6F",
"=	c #4F5465",
"-	c #181C2A",
"............................",
"............................",
"............................",
"............................",
"............................",
".....+@###############@+....",
".....+#$$$$$$$$$$$$$$$#+....",
".....+#$%%%%%%%%%%%%%$#+....",
".....+#$&***********&$#+....",
".....+#$&***********&$#+....",
".....+#$%%%%%%%%%%%%%$#+....",
".....+#$#===========#$#+....",
".....+#$#===========#$#+....",
".....+#$#===========#$#+....",
".....+#$#===========#$#+....",
".....+#$#===========#$#+....",
".....+#$#===========#$#+....",
".....+#$#===========#$#+....",
".....+#$#############$#+....",
".....+#$$$$$$$$$$$$$$$#+....",
".....+@###############@+....",
".....+++++++++++++++++++....",
"............................",
"............................",
"............................",
"............................",
"............................",
"----------------------------"};
