/* XPM */
static char * shadeup_activedown_xpm[] = {
"28 28 9 1",
" 	c None",
".	c #77B1F3",
"+	c #43628E",
"@	c #43618D",
"#	c #6BA1DE",
"$	c #74AEEE",
"%	c #75AEEF",
"&	c #699ED9",
"*	c #8CC1FF",
"                            ",
"                            ",
"                            ",
"                            ",
"                            ",
"                            ",
"         .+++@@+@++@+.      ",
"         #@$$$$$$$$$@#      ",
"         #@$$$$$$$$$@#      ",
"         #@$$$$$$$$$@#      ",
"     %+++++&&&&&&$$$@#      ",
"     #+*********&$$$@#      ",
"     #+*********&$$$@#      ",
"     #+*********&$$$@#      ",
"     #+*********&$$$@#      ",
"     #+*********+@@@+#      ",
"     #+*********+#####      ",
"     #+*********+#          ",
"     #+*********+#          ",
"     #+++++++++++#          ",
"     #############          ",
"                            ",
"                            ",
"                            ",
"                            ",
"                            ",
"                            ",
"                            "};
