/* XPM */
static char * taskbar_down2_xpm[] = {
"16 38 32 1",
" 	c None",
".	c #090809",
"+	c #090909",
"@	c #090808",
"#	c #090908",
"$	c #080908",
"%	c #080909",
"&	c #080808",
"*	c #0D0D0D",
"=	c #0C0D0D",
"-	c #0D0C0D",
";	c #111111",
">	c #151515",
",	c #151615",
"'	c #151516",
")	c #161515",
"!	c #161615",
"~	c #1A191A",
"{	c #1A1919",
"]	c #19191A",
"^	c #191A1A",
"/	c #1A1A19",
"(	c #1A1A1A",
"_	c #191A19",
":	c #191919",
"<	c #1D1D1D",
"[	c #1D1D1E",
"}	c #1D1E1E",
"|	c #1E1E1D",
"1	c #1E1E1E",
"2	c #1E1D1D",
"3	c #212121",
".+@#+$.++@%+@+#&",
"****=*=****=***-",
";;;;;;;;;;;;;;;;",
">,''))!>,>')>',)",
"~{]~^/~{({_{^~]:",
"<[}|1[|<1|}}2}|[",
"3333333333333333",
"3333333333333333",
"3333333333333333",
"3333333333333333",
"3333333333333333",
"3333333333333333",
"3333333333333333",
"3333333333333333",
"3333333333333333",
"3333333333333333",
"3333333333333333",
"3333333333333333",
"3333333333333333",
"3333333333333333",
"3333333333333333",
"3333333333333333",
"3333333333333333",
"3333333333333333",
"3333333333333333",
"3333333333333333",
"3333333333333333",
"3333333333333333",
"3333333333333333",
"3333333333333333",
"3333333333333333",
"3333333333333333",
"3333333333333333",
"3333333333333333",
"3333333333333333",
"3333333333333333",
"3333333333333333",
"3333333333333333"};
