/* XPM */
static char * title_activeup_xpm[] = {
"28 28 3 1",
" 	c None",
".	c #7AB5F8",
"+	c #437DBF",
"............................",
"............................",
"............................",
"............................",
"............................",
"............................",
"............................",
"............................",
"............................",
"............................",
"............................",
"............................",
"............................",
"............................",
"............................",
"............................",
"............................",
"............................",
"............................",
"............................",
"............................",
"............................",
"............................",
"............................",
"............................",
"............................",
"............................",
"++++++++++++++++++++++++++++"};
