/* XPM */
static char * close_activedown_xpm[] = {
"14 14 8 1",
" 	c None",
".	c #233551",
"+	c #444444",
"@	c #C6C6C6",
"#	c #9AA9B8",
"$	c #B5B5B5",
"%	c #3F3F3F",
"&	c #A19DA1",
"              ",
"              ",
"              ",
"              ",
"   .......+   ",
"   .@@@@@@#   ",
"   .@$$$$%#   ",
"   .@&$&$%#   ",
"   .@$&$&%#   ",
"   .@&&&&%#   ",
"   .@%%%%%#   ",
"   +#######   ",
"              ",
"              "};
