/* XPM */
static char * close_activedown_xpm[] = {
"14 14 10 1",
" 	c None",
".	c #233551",
"+	c #6E757D",
"@	c #C6C6C6",
"#	c #B5B5B5",
"$	c #8E9BA9",
"%	c #A5A5A5",
"&	c #3F3F3F",
"*	c #949094",
"=	c #686768",
"              ",
"              ",
"              ",
"              ",
"   .......+   ",
"   .@@@@@#$   ",
"   .@%%%%&$   ",
"   .@*%*%&$   ",
"   .@%*%*&$   ",
"   .@****&$   ",
"   .=&&&&&$   ",
"   +$$$$$$$   ",
"              ",
"              "};
