/* XPM */
static char * iconify_activedown_xpm[] = {
"26 26 20 1",
" 	c None",
".	c #233551",
"+	c #7993B5",
"@	c #4775A6",
"#	c #9AA9B8",
"$	c #6785AB",
"%	c #4F7AAB",
"&	c #507BAD",
"*	c #4F79AA",
"=	c #41628E",
"-	c #8B95A0",
";	c #354256",
">	c #5C6D7E",
",	c #7C8791",
"'	c #D6D6D6",
")	c #444444",
"!	c #979497",
"~	c #AAAAAA",
"{	c #4A6E9F",
"]	c #41618E",
"..........................",
".+@+@+@+@+@+@+@+@+@+@+@+@#",
".@+@+@+@+@+@+@+@+@+@+@+@+#",
".$@$@$@$@$@$@$@$@$@$@$@$@#",
".@%@%@%@%@%@%@%@%@%@%@%@%#",
".%%%@%@%%%@%@%%%@%@%%%@%@#",
".&@&%@&%@&%@&%@&%@&%@&%@&#",
".%*%@%*%*%@%*%*%@%*%*%@%*#",
".*%*%%.............=%*%%%#",
".%*%*&.-----------;#*%*&*#",
".&%&%%.->,>,>,>,>,;#%&%%%#",
".%*%*%.-,>,>,>,>,>;#*%*%*#",
".*&*%*.->,>,>,>,>,;#&*%*&#",
".%*%*%.-,>,>,>,>,>;#*%*%*#",
".*%*&*.->,>,>,>,>,;#%*&*%#",
".%*%*&.-;;;;;;;;;;;#*%*&*#",
".***%*.''''''''''')#**%*%#",
".%*%*%.'!~!~!~!~!~)#*%*%*#",
".*****.')))))))))))#*****#",
".%*%*%.#############*%*%*#",
".************************#",
".************************#",
".*{***{%**{**%{***{%**{**#",
".{*{*{*{*{*{*{*{*{*{*{*{*#",
".=]=]=]=]=]=]=]]]=]=]=]=]#",
".#########################"};
