/* XPM */
static char * maximize_activedown_xpm[] = {
"26 26 19 1",
" 	c None",
".	c #233551",
"+	c #7993B5",
"@	c #4775A6",
"#	c #9AA9B8",
"$	c #6785AB",
"%	c #4F7AAB",
"&	c #507BAD",
"*	c #4F79AA",
"=	c #41628E",
"-	c #B6B6B6",
";	c #4D4D4D",
">	c #C4C4C4",
",	c #AEAAAE",
"'	c #818181",
")	c #999699",
"!	c #8E8B8E",
"~	c #4A6E9F",
"{	c #41618E",
"..........................",
".+@+@+@+@+@+@+@+@+@+@+@+@#",
".@+@+@+@+@+@+@+@+@+@+@+@+#",
".$@$@$@$@$@$@$@$@$@$@$@$@#",
".@%@%@%@%@%@%@%@%@%@%@%@%#",
".%%%@%@%%%@%@%%%@%@%%%@%@#",
".&@&%@&%@&%@&%@&%@&%@&%@&#",
".%*%@%*%*%@%*%*%@%*%*%@%*#",
".*%*%%.............=%*%%%#",
".%*%*&.-----------;#*%*&*#",
".&%&%%.->,>,>,>,>,;#%&%%%#",
".%*%*%.';;;;;;;;;;;#*%*%*#",
".*&*%*.-----------;#&*%*&#",
".%*%*%.-))))))))));#*%*%*#",
".*%*&*.-!)))!)))!);#%*&*%#",
".%*%*&.-)!)!)!)!)!;#*%*&*#",
".***%*.-!)!)!)!)!);#**%*%#",
".%*%*%.-'!'!'!'!'!;#*%*%*#",
".*****.';;;;;;;;;;;#*****#",
".%*%*%.#############*%*%*#",
".************************#",
".************************#",
".*~***~%**~**%~***~%**~**#",
".~*~*~*~*~*~*~*~*~*~*~*~*#",
".={={={={={={={{{={={={={#",
".#########################"};
