/* XPM */
static char * menu_inactive_xpm[] = {
"14 6 12 1",
" 	c None",
".	c #696969",
"+	c #979797",
"@	c #6C6C6C",
"#	c #7C7C7C",
"$	c #EDEDED",
"%	c #E6E6E6",
"&	c #C4C4C4",
"*	c #AEAAAE",
"=	c #656565",
"-	c #D6D6D6",
";	c #EBEBEB",
".+@@@@@@@@@@#$",
".%%%%%%%%%%%#%",
".%&&*&*&*&*&#%",
".%&*&*&*&*&*#%",
"=-###########;",
"@%;%;%$%;%;%;%"};
