/* XPM */
static char * title_active_xpm[] = {
"26 26 12 1",
" 	c None",
".	c #4775A6",
"+	c #7993B5",
"@	c #6785AB",
"#	c #4F7AAB",
"$	c #507BAD",
"%	c #4F79AA",
"&	c #4A6E9F",
"*	c #41618E",
"=	c #41628E",
"-	c #2E4262",
";	c #233551",
".+.+.+.+.+.+.+.+.+.+.+.+.+",
"+.+.+.+.+.+.+.+.+.+.+.+.+.",
".@.@.@.@.@.@.@.@.@.@.@.@.@",
"#.#.#.#.#.#.#.#.#.#.#.#.#.",
"####.#.###.#.###.#.###.#.#",
".$.$#.$#.$#.$#.$#.$#.$#.$#",
"#######$#####$#####$#####$",
"%#%#.#%#%#.#%#%#.#%#%#.#%#",
"#%#%###$#%###$#%###$#%###$",
"%#%#%$%#%#%$%#%#%$%#%#%$%#",
"#$#$###%#$###%#$###%#$###%",
"%#%#%#%#%#%#%#%#%#%#%#%#%#",
"$%$%#%$#$%#%$#$%#%$#$%#%$#",
"%#%#%#%#%#%#%#%#%#%#%#%#%#",
"#%#%$%#%#%$%#%#%$%#%#%$%#%",
"%#%#%$%#%#%$%#%#%$%#%#%$%#",
"%%%%#%#%%%#%#%%%#%#%%%#%#%",
"%#%#%#%$%#%#%$%#%#%$%#%#%$",
"%%%%%%%%%%%%%%%%%%%%%%%%%%",
"%#%#%#%#%#%#%#%#%#%#%#%#%#",
"%%%%%%%%%%%%%%%%%%%%%%%%%%",
"&%&%%%&#%%&%%#&%%%&#%%&%%#",
"%&%&%&%&%&%&%&%&%&%&%&%&%&",
"*=*=*=*=*=*=*=***=*=*=*=**",
"--------------------------",
";;;;;;;;;;;;;;;;;;;;;;;;;;"};
