/* XPM */
static char * title_inactive_xpm[] = {
"26 26 17 1",
" 	c None",
".	c #C3C3C3",
"+	c #BBBBBB",
"@	c #ABABAB",
"#	c #8F8F8F",
"$	c #8B8B8B",
"%	c #919191",
"&	c #8A8A8A",
"*	c #8E8E8E",
"=	c #8C8C8C",
"-	c #747474",
";	c #797979",
">	c #787878",
",	c #737373",
"'	c #777777",
")	c #757575",
"!	c #484848",
"..........................",
"..........................",
"+.+.+.+.+.+.+.+.+.+.+.+.+.",
".+.+.+.+.+.+.+.+.+.+.+.+.+",
"++++++++++++++++++++++++++",
"@.++.+@.++.+@.++.+@.++.+@.",
"+++++.+++++.+++++.+++++.++",
"@+@+@+@+@+@+@+@+@+@+@+@+@+",
"+@+++.+@+++.+@+++.+@+++.+@",
"@+@.@+@+@.@+@+@.@+@+@.@+@+",
"+.+++@+.+++@+.+++@+.+++@+.",
"@+@+@+@+@+@+@+@+@+@+@+@+@+",
".@+@.+.@+@.+.@+@.+.@+@.+.@",
"@+@+@+@+@+@+@+@+@+@+@+@+@+",
"+@.@+@+@.@+@+@.@+@+@.@+@+@",
"@+@.@+@+@.@+@+@.@+@+@.@+@+",
"@@+@+@@@+@+@@@+@+@@@+@+@@@",
"@+@+@.@+@+@.@+@+@.@+@+@.@+",
"@@@@@@@@@@@@@@@@@@@@@@@@@@",
"@+@+@+@+@+@+@+@+@+@+@+@+@+",
"@@@@@@@@@@@@@@@@@@@@@@@@@@",
"@@@@@+@@@@@+@@@@@+@@@@@+@@",
"@@@@@@@@@@@@@@@@@@@@@@@@@@",
"#$%$#&#$%$#&#*=$%$#$%$#&#$",
"-;->,>-;->,>')-;->-;->,>-;",
"!!!!!!!!!!!!!!!!!!!!!!!!!!"};
