/* XPM */
static char * button_active2_xpm[] = {
"26 26 40 1",
" 	c #B0BAC4",
".	c #AEB8C3",
"+	c #ADB7C2",
"@	c #AAB6C1",
"#	c #A8B4BF",
"$	c #A7B3BF",
"%	c #A5B1BD",
"&	c #A2AFBD",
"*	c #A0AEBB",
"=	c #9FADBA",
"-	c #9CABB9",
";	c #9AA9B8",
">	c #39577E",
",	c #6688AF",
"'	c #6688AE",
")	c #6788AE",
"!	c #355175",
"~	c #A8B5C0",
"{	c #5D82AC",
"]	c #5E82AC",
"^	c #5D82AD",
"/	c #314A6C",
"(	c #9FAEBC",
"_	c #547CAB",
":	c #547DAB",
"<	c #2C4363",
"[	c #98A7B9",
"}	c #4F79AA",
"|	c #95A6B7",
"1	c #4F7AAB",
"2	c #96A8B7",
"3	c #507BAD",
"4	c #4E78A8",
"5	c #4F77A8",
"6	c #4E77A8",
"7	c #4B72A1",
"8	c #4A72A1",
"9	c #47678E",
"0	c #47668E",
"a	c #233551",
" .+@#$%&*=-;;;;;;;;;;;;;;>",
" ,'),,,,'),,,,,,'),,,,'),!",
"~{]^{{{{]^{{{{{{]^{{{{]^{/",
"(_:_:_:_:_:_:_:_:_:_:_:_:<",
"[}}}}}}}}}}}}}}}}}}}}}}}}<",
"|}1}111}1}111}1}1}111}1}1<",
"|}1}1}1}1}1}1}1}1}1}1}1}1<",
"2131313131313131313131313<",
"|131313131313131313131313<",
"|131313131313131313131313<",
"|}1}1}1}1}1}1}1}1}1}1}1}1<",
"|}1}1}1}1}1}1}1}1}1}1}1}1<",
"|1}3}1}1}3}1}1}1}3}1}1}3}<",
"|}1}1}1}1}1}1}1}1}1}1}1}1<",
"|3}1}3}3}1}3}3}3}1}3}3}1}<",
"|}1}1}1}1}1}1}1}1}1}1}1}1<",
"|1}}}1}1}}}1}1}1}}}1}1}}}<",
"|}1}1}1}1}1}1}1}1}1}1}1}1<",
"|}}}}}}}}}}}}}}}}}}}}}}}}<",
"|}}}}}}}}}}}}}}}}}}}}}}}}<",
"|}1}1}1}1}1}1}1}1}1}1}1}1<",
"|}}}}}}}}}}}}}}}}}}}}}}}}<",
"|454655454655454546554546<",
"|777877777877777778777778<",
"|909000909000909090009090<",
"aaaaaaaaaaaaaaaaaaaaaaaaaa"};
