/* XPM */
static char * close_activeup_xpm[] = {
"26 26 72 1",
" 	c None",
".	c #B7BFC8",
"+	c #B0BAC5",
"@	c #A9B5C1",
"#	c #A3B0BD",
"$	c #9CABBA",
"%	c #95A6B7",
"&	c #9AA9B8",
"*	c #39577E",
"=	c #B0BAC4",
"-	c #6688AF",
";	c #6688AE",
">	c #6788AE",
",	c #355175",
"'	c #A8B5C0",
")	c #5D82AC",
"!	c #5E82AC",
"~	c #5D82AD",
"{	c #314A6C",
"]	c #9FAEBC",
"^	c #547CAB",
"/	c #547DAB",
"(	c #2C4363",
"_	c #98A7B9",
":	c #4F79AA",
"<	c #4F7AAB",
"[	c #96A8B7",
"}	c #507BAD",
"|	c #233551",
"1	c #57779C",
"2	c #FFFFFF",
"3	c #F0EFEF",
"4	c #ECECEC",
"5	c #EAEAEA",
"6	c #E7E7E7",
"7	c #444444",
"8	c #6380A3",
"9	c #F0F0F0",
"0	c #C4C4C4",
"a	c #243753",
"b	c #EFEFEF",
"c	c #BBBBBB",
"d	c #6683A6",
"e	c #273C5A",
"f	c #EAE9E9",
"g	c #ACADAC",
"h	c #ADADAC",
"i	c #ACADAD",
"j	c #6883A6",
"k	c #2B415F",
"l	c #E4E4E3",
"m	c #9E9E9E",
"n	c #9F9E9E",
"o	c #6A86A8",
"p	c #2D4566",
"q	c #6D88A9",
"r	c #57779B",
"s	c #7C94B2",
"t	c #7A92B0",
"u	c #7891B0",
"v	c #768FAE",
"w	c #758DAD",
"x	c #728CAB",
"y	c #6F8AAA",
"z	c #4E78A8",
"A	c #4F77A8",
"B	c #4E77A8",
"C	c #4B72A1",
"D	c #4A72A1",
"E	c #476D9A",
"F	c #486C9A",
"G	c #2E4262",
".+@#$%&&&&&&&&&&&&&&&&&&*.",
"=-;>----;>------;>----;>,=",
"')!~))))!~))))))!~))))!~{'",
"]^/^/^/^/^/^/^/^/^/^/^/^(]",
"_:::::::::::::::::::::::(_",
"%:<:<<<:<:<<<:<:<:<<<:<:(%",
"%:<:<:<:<:<:<:<:<:<:<:<:(%",
"[<}<}<}<}<}<}<}<}<}<}<}<([",
"%<}<}<}<}<}<}<}<}<}<}<}<(%",
"%<}<}<}<}|||||||1<}<}<}<(%",
"%:<:<:<:<|2345678:<:<:<:(%",
"%:<:<:<:<|90000|8:<:<:<:(%",
"%<:}:<:<:abcccc|d}:<:<:}(%",
"%:<:<:<:<efghgi|j:<:<:<:(%",
"%}:<:}:}:klmmnn|o<:}:}:<(%",
"%:<:<:<:<p7|||||q:<:<:<:(%",
"%<:::<:<:rstuvwxy::<:<::(%",
"%:<:<:<:<:<:<:<:<:<:<:<:(%",
"%:::::::::::::::::::::::(%",
"%:::::::::::::::::::::::(%",
"%:<:<:<:<:<:<:<:<:<:<:<:(%",
"%:::::::::::::::::::::::(%",
"%zAzBAAzAzBAAzAzAzBAAzAz(%",
"%CCCDCCCCCDCCCCCCCDCCCCC(%",
"%EEEFEEEEEFEEEEEEEFEEEEE(%",
"G|||||||||||||||||||||||||"};
