/* XPM */
static char * close_activeup_xpm[] = {
"8 8 36 1",
" 	c #233551",
".	c #57779C",
"+	c #FFFFFF",
"@	c #F0EFEF",
"#	c #ECECEC",
"$	c #EAEAEA",
"%	c #E7E7E7",
"&	c #444444",
"*	c #6380A3",
"=	c #F0F0F0",
"-	c #C4C4C4",
";	c #243753",
">	c #EFEFEF",
",	c #BBBBBB",
"'	c #6683A6",
")	c #273C5A",
"!	c #EAE9E9",
"~	c #ACADAC",
"{	c #ADADAC",
"]	c #ACADAD",
"^	c #6883A6",
"/	c #2B415F",
"(	c #E4E4E3",
"_	c #9E9E9E",
":	c #9F9E9E",
"<	c #6A86A8",
"[	c #2D4566",
"}	c #6D88A9",
"|	c #57779B",
"1	c #7C94B2",
"2	c #7A92B0",
"3	c #7891B0",
"4	c #768FAE",
"5	c #758DAD",
"6	c #728CAB",
"7	c #6F8AAA",
"       .",
" +@#$%&*",
" =---- *",
";>,,,, '",
")!~{~] ^",
"/(__:: <",
"[&     }",
"|1234567"};
