/* XPM */
static char * close_inactive_xpm[] = {
"26 26 16 1",
" 	c None",
".	c #E6E6E6",
"+	c #656565",
"@	c #C3C3C3",
"#	c #BBBBBB",
"$	c #ABABAB",
"%	c #696969",
"&	c #AEAAAE",
"*	c #C4C4C4",
"=	c #6F6F6F",
"-	c #8B8B8B",
";	c #919191",
">	c #8F8F8F",
",	c #8A8A8A",
"'	c #8E8E8E",
")	c #8C8C8C",
"........................+.",
".@@@@@@@@@@@@@@@@@@@@@@@+.",
".@#@#@#@#@#@#@#@#@#@#@#@+.",
".#@#@#@#@#@#@#@#@#@#@#@#+.",
".#######################+.",
".@##@#$@##@#$@##@#$@##@#+.",
".####@#####@#####@#####@+.",
".#$#$#$#$#$#$#$#$#$#$#$#+.",
".$###@#$###@#$###@#$###@+.",
".#$@$#$#$%%%%%%%&#$#$@$#+.",
".@###$#@#%.....#.$#@###$+.",
".#$#$#$#$%.*&*&=.#$#$#$#+.",
".$#$@#@$#%.&*&*=.#@$#$@#+.",
".#$#$#$#$%.*&*&=.#$#$#$#+.",
".$@$#$#$@%.&&&&=.$#$@$#$+.",
".#$@$#$#$%$=====.#$#$@$#+.",
".$#$#$$$#&.......$$$#$#$+.",
".#$#$@$#$#$@$#$#$@$#$#$@+.",
".$$$$$$$$$$$$$$$$$$$$$$$+.",
".#$#$#$#$#$#$#$#$#$#$#$#+.",
".$$$$$$$$$$$$$$$$$$$$$$$+.",
".$$$$#$$$$$#$$$$$#$$$$$#+.",
".$$$$$$$$$$$$$$$$$$$$$$$+.",
".$$$$$$$$$$$$$$$$$$$$$$$+.",
".-;->,>')-;->->-;->,>')-+.",
"++++++++++++++++++++++++++"};
