/* XPM */
static char * close_activedown_xpm[] = {
"26 26 58 1",
" 	c None",
".	c #233551",
"+	c #39577E",
"@	c #B7BFC8",
"#	c #41628E",
"$	c #41618E",
"%	c #355175",
"&	c #B0BAC4",
"*	c #4B72A1",
"=	c #4A72A1",
"-	c #314A6C",
";	c #A8B5C0",
">	c #4E78A8",
",	c #4F77A8",
"'	c #4E77A8",
")	c #2C4363",
"!	c #9FAEBC",
"~	c #4F79AA",
"{	c #98A7B9",
"]	c #4F7AAB",
"^	c #95A6B7",
"/	c #96A8B7",
"(	c #507BAD",
"_	c #5E748B",
":	c #C6C6C6",
"<	c #444444",
"[	c #73879B",
"}	c #90908F",
"|	c #243753",
"1	c #9C9C9B",
"2	c #9C9B9B",
"3	c #9B9B9A",
"4	c #778A9E",
"5	c #273C5A",
"6	c #ABABAA",
"7	c #AAAAAA",
"8	c #7B8DA2",
"9	c #2B415F",
"0	c #BABABA",
"a	c #B9B9B9",
"b	c #7F91A4",
"c	c #2D4566",
"d	c #8395A7",
"e	c #9AA9B8",
"f	c #98A7B6",
"g	c #95A4B4",
"h	c #92A1B2",
"i	c #8F9EAF",
"j	c #8B9CAD",
"k	c #8799AB",
"l	c #547CAB",
"m	c #547DAB",
"n	c #5D82AC",
"o	c #5E82AC",
"p	c #5D82AD",
"q	c #6688AF",
"r	c #6688AE",
"s	c #6788AE",
"........................+@",
".#$#$#$#$#$#$#$$$#$#$#$#%&",
".***=*****=*******=*****-;",
".>,>',,>,>',,>,>,>',,>,>)!",
".~~~~~~~~~~~~~~~~~~~~~~~){",
".~]~]~]~]~]~]~]~]~]~]~]~)^",
".~~~~~~~~~~~~~~~~~~~~~~~)^",
".~~~~~~~~~~~~~~~~~~~~~~~)/",
".~]~]~]~]](](](](~]~]~]~)^",
".]~~~]~]~](](](](~~]~]~~)^",
".~]~]~]~]......._~]~]~]~)^",
".(~]~(~(~.:::::<[]~(~(~])^",
".~]~]~]~].:}}}}.[~]~]~]~)^",
".]~(~]~]~|:1231.4(~]~]~()^",
".~]~]~]~]5:6677.8~]~]~]~)^",
".~]~]~]~]9:00aa.b~]~]~]~)^",
".](](](](c<.....d](](](])^",
".](](](](_efghijk](](](])^",
".](](](](](](](](](](](])^",
".~]~]~]~]~]~]~]~]~]~]~]~)^",
".~]~]]]~]~]]]~]~]~]]]~]~)^",
".~~~~~~~~~~~~~~~~~~~~~~~)^",
".lmlmlmlmlmlmlmlmlmlmlml)^",
".nopnnnnopnnnnnnopnnnnop)^",
".qrsqqqqrsqqqqqqrsqqqqrs)^",
".........................."};
