/* XPM */
static char * close_inactive_xpm[] = {
"26 26 80 1",
" 	c #E6E6E6",
".	c #656565",
"+	c #C3C3C3",
"@	c #C3C3C2",
"#	c #C2C2C2",
"$	c #C1C2C2",
"%	c #C2C1C2",
"&	c #C1C0C0",
"*	c #C1C1C1",
"=	c #C1C0C1",
"-	c #C0C0C0",
";	c #C0BFC0",
">	c #BFBFC0",
",	c #C0C0BF",
"'	c #BFBFBE",
")	c #BFBFBF",
"!	c #BFBEBF",
"~	c #BEBEBF",
"{	c #BEBDBE",
"]	c #BDBDBD",
"^	c #BDBEBE",
"/	c #BDBEBD",
"(	c #BCBDBC",
"_	c #BCBCBC",
":	c #BCBDBD",
"<	c #BDBCBC",
"[	c #BBBBBB",
"}	c #BBBCBB",
"|	c #BCBBBB",
"1	c #BABABB",
"2	c #BABABA",
"3	c #696969",
"4	c #AEAAAE",
"5	c #B9B9B9",
"6	c #B8B8B8",
"7	c #6F6F6F",
"8	c #B7B7B7",
"9	c #B6B7B7",
"0	c #C2C3C2",
"a	c #C3C2C2",
"b	c #B6B6B5",
"c	c #B6B6B6",
"d	c #B6B5B6",
"e	c #BEBEBE",
"f	c #BEBFBE",
"g	c #B5B5B5",
"h	c #B5B5B4",
"i	c #B5B4B4",
"j	c #BBBBBA",
"k	c #BABBBB",
"l	c #B4B3B3",
"m	c #B4B4B4",
"n	c #B4B3B4",
"o	c #ABABAB",
"p	c #B2B3B3",
"q	c #B2B2B2",
"r	c #B3B2B3",
"s	c #B2B2B3",
"t	c #B3B2B2",
"u	c #8B8B8B",
"v	c #B2B1B1",
"w	c #B2B1B2",
"x	c #B1B1B1",
"y	c #B2B2B1",
"z	c #B0B0B1",
"A	c #B0B1B1",
"B	c #B1B0B1",
"C	c #AFAFAF",
"D	c #AFAFB0",
"E	c #AFB0B0",
"F	c #B0AFAF",
"G	c #AFB0AF",
"H	c #AEAEAE",
"I	c #AEAFAF",
"J	c #AEAFAE",
"K	c #ADADAD",
"L	c #AEADAD",
"M	c #ACACAC",
"N	c #ACADAC",
"O	c #8A8A8A",
"                        . ",
" +++@@+++@+++@++@+++@@++. ",
" #$#%##$###$###$##$#%##$. ",
" &**=*&***&***&**&**=*&*. ",
" -;->,-;-,-;-,-;,-;->,-;. ",
" ')!~~')!~')!~')~')!~~'). ",
" {]^//{]^/{]^/{]/{]^//{]. ",
" (_:(<(_:<(_:<(_<(_:(<(_. ",
" [}}|[[}}[[}}[[}[[}}|[[}. ",
" 12112121333333341211212. ",
" 555555553     [ 5555555. ",
" 666666663 ++++7 6666666. ",
" 888898883 0##a7 8888988. ",
" bcccdbcc3 ~e'f7 bcccdbc. ",
" ghgigghg3 j2k27 ghgiggh. ",
" lmllnlml3o77777 lmllnlm. ",
" pqrstpqru       pqrstpq. ",
" vwvxyvwvyvwvyvwyvwvxyvw. ",
" zAxxBzAxBzAxBzABzAxxBzA. ",
" CDEFGCDEGCDEGCDGCDEFGCD. ",
" HHIJJHHIJHHIJHHJHHIJJHH. ",
" KKKLKKKKKKKKKKKKKKKLKKK. ",
" MMMNMMMMMMMMMMMMMMMNMMM. ",
" ooooooooooooooooooooooo. ",
" OOOOOOOOOOOOOOOOOOOOOOO. ",
".........................."};
