/* XPM */
static char * close_activedown2_xpm[] = {
"26 26 41 1",
" 	c #233551",
".	c #39577E",
"+	c #35557E",
"@	c #35547E",
"#	c #355175",
"$	c #3F6490",
"%	c #314A6C",
"&	c #426997",
"*	c #436997",
"=	c #2C4363",
"-	c #436A99",
";	c #436B9A",
">	c #446C9C",
",	c #6A86A8",
"'	c #FFFFFF",
")	c #444444",
"!	c #6D88A9",
"~	c #CECECE",
"{	c #6F8AAB",
"]	c #243753",
"^	c #BEBEBE",
"/	c #728CAB",
"(	c #FBFBFB",
"_	c #ADADAD",
":	c #AFAFAF",
"<	c #4E4E4E",
"[	c #748EAD",
"}	c #40536B",
"|	c #40526A",
"1	c #3F5269",
"2	c #7790AF",
"3	c #7B93B1",
"4	c #7992B1",
"5	c #476D9A",
"6	c #476E9A",
"7	c #50739B",
"8	c #51739B",
"9	c #50739C",
"0	c #58799E",
"a	c #58799D",
"b	c #59799D",
"                         .",
" +@+@+@+@+@+@+@@@+@+@+@++#",
" $$$$$$$$$$$$$$$$$$$$$$$$%",
" &*&*&*&*&*&&*&&*&*&*&&*&=",
" ------------------------=",
" -;-;-;-;-;-;-;-;-;-;-;--=",
" ------------------------=",
" ------------------------=",
" -;-;-;-;->;>;>;>-;-;-;--=",
" ;-;---;-;>;>;>;>--;-;---=",
" -;-;-;-;--;-;-;--;-;-;--=",
" >->-;->->      ,;->->-;;=",
" -;-;-;-;- '''')!-;-;-;--=",
" ;-;->-;-; '~~~){>-;-;->>=",
" -;-;-;-;-]'^^^)/-;-;-;--=",
" -;-;-;-;-](__:<[-;-;-;--=",
" ;>;>;>;>;]}|1|12;>;>;>;;=",
" ;>;>;>;>;3333334;>;>;>;;=",
" ;>;>;>;>;;;>;>;>;>;>;>;;=",
" -;-;-;-;---;-;-;-;-;-;--=",
" -;-;-;;;--;;-;-;-;;;-;--=",
" ------------------------=",
" 565656565656565656565655=",
" 787897777777777897777899=",
" 0a0ab0000000000ab0000abb=",
"                          "};
