/* XPM */
static char * close_inactive_xpm[] = {
"14 14 6 1",
" 	c None",
".	c #696969",
"+	c #AEAAAE",
"@	c #E6E6E6",
"#	c #C4C4C4",
"$	c #7C7C7C",
"              ",
"              ",
"              ",
"   .......+   ",
"   .      @   ",
"   . #+#+$@   ",
"   . +#+#$@   ",
"   . #+#+$@   ",
"   . ++++$@   ",
"   . $$$$$@   ",
"   +@@@@@@@   ",
"              ",
"              ",
"              "};
