/* XPM */
static char * iconify_activedown_xpm[] = {
"26 26 51 1",
" 	c #343434",
".	c #858585",
"+	c #848484",
"@	c #A7A7A7",
"#	c #8B8B8B",
"$	c #919191",
"%	c #8F8F8F",
"&	c #929292",
"*	c #939393",
"=	c #454545",
"-	c #484848",
";	c #505050",
">	c #575757",
",	c #5D5D5D",
"'	c #646464",
")	c #6B6B6B",
"!	c #8D8D8D",
"~	c #868686",
"{	c #A4A4A4",
"]	c #8E8E8E",
"^	c #949494",
"/	c #474747",
"(	c #979797",
"_	c #989898",
":	c #ACACAC",
"<	c #4D4D4D",
"[	c #A0A0A0",
"}	c #B1B1B1",
"|	c #525252",
"1	c #A9A9A9",
"2	c #ABABAB",
"3	c #B4B4B4",
"4	c #B9B9B9",
"5	c #535353",
"6	c #515151",
"7	c #BCBCBC",
"8	c #626262",
"9	c #B2B2B2",
"0	c #585858",
"a	c #C1C1C1",
"b	c #686868",
"c	c #EFEFEF",
"d	c #C6C6C6",
"e	c #6D6D6D",
"f	c #C9C9C9",
"g	c #727272",
"h	c #CDCDCD",
"i	c #959595",
"j	c #9C9C9C",
"k	c #606060",
"l	c #5F5F5F",
"                          ",
" ...+.....+.......+.....@ ",
" #######################@ ",
" $$$%$$$$$%$$$$$$$%$$$$$@ ",
" &&&&&&&&&&&&&&&&&&&&&&&@ ",
" **&*&*&*&*&*&*&*&*&*&*&@ ",
" &&&&&&&&&&&&&&&&&&&&&&&@ ",
" &&&&&&&&&&&&&&&&&&&&&&&@ ",
" **&*&*=======-;>,')!&*&@ ",
" &&&&*&=...+......~={*&&@ ",
" **&*&*=]!!]]]]]]]]=@&*&@ ",
" &&*&^&/(((__(_((__=:^&*@ ",
" **&*&*<[[[[[[[[[[[=}&*&@ ",
" &&^&*&|11111222122=3*&^@ ",
" **&*&*>:::::::::::=4&*&@ ",
" **&*&*,555555|6|66=7&*&@ ",
" ^^*^*^8999999999990a*^*@ ",
" ^^*^*^bccccccccccc0d*^*@ ",
" ^^*^*^e000000000000f*^*@ ",
" **&*&*ghhhhhhhhhhhhh&*&@ ",
" &&&&&&&&&&&&&&&&&&&&&&&@ ",
" ii(i(i(i(i(i(i(i(i(i(i(@ ",
" jjjjjjjjjjjjjjjjjjjjjjj@ ",
" {{{{{{{{{{{{{{{{{{{{{{{@ ",
" klklklklklklklllklklklkl ",
"                          "};
