/* XPM */
static char * iconify_inactive_xpm[] = {
"24 24 11 1",
" 	c None",
".	c #696969",
"+	c #6C6C6C",
"@	c #8C8C8C",
"#	c #E6E6E6",
"$	c #7C7C7C",
"%	c #AEAAAE",
"&	c #C4C4C4",
"*	c #656565",
"=	c #D6D6D6",
"-	c #EBEBEB",
"                        ",
"                        ",
"                        ",
"                        ",
"                        ",
"                        ",
"                        ",
"                        ",
"        ...+.@          ",
"        .###$#          ",
"        .#%&$#          ",
"        .#&%$#          ",
"        *=$$$-          ",
"        +#-#-#          ",
"                        ",
"                        ",
"                        ",
"                        ",
"                        ",
"                        ",
"                        ",
"                        ",
"                        ",
"                        "};
