/* XPM */
static char * iconify_activeup2_xpm[] = {
"26 26 70 1",
" 	c None",
".	c #39577E",
"+	c #B7BFC8",
"@	c #355175",
"#	c #B0BAC4",
"$	c #314A6C",
"%	c #A8B5C0",
"&	c #2C4363",
"*	c #9FAEBC",
"=	c #98A7B9",
"-	c #95A6B7",
";	c #96A8B7",
">	c #233551",
",	c #253856",
"'	c #293F5D",
")	c #2D4565",
"!	c #57789D",
"~	c #677889",
"{	c #444444",
"]	c #6381A4",
"^	c #5A6C7F",
"/	c #596C7F",
"(	c #596D7F",
"_	c #5A6D7F",
":	c #6683A6",
"<	c #243753",
"[	c #667789",
"}	c #627486",
"|	c #627385",
"1	c #637486",
"2	c #677789",
"3	c #6884A7",
"4	c #273C5A",
"5	c #69798B",
"6	c #6B7B8C",
"7	c #6B7B8D",
"8	c #6C7C8D",
"9	c #6B7C8D",
"0	c #6C7B8D",
"a	c #6A798B",
"b	c #6A86A8",
"c	c #2B415F",
"d	c #748393",
"e	c #748392",
"f	c #758393",
"g	c #6D88A9",
"h	c #2D4566",
"i	c #40536B",
"j	c #3F526B",
"k	c #40526A",
"l	c #3F5269",
"m	c #3A4C64",
"n	c #6F8AAB",
"o	c #304A6D",
"p	c #DADADA",
"q	c #DDDDDD",
"r	c #D7D7D8",
"s	c #728CAB",
"t	c #334F73",
"u	c #C4C4C4",
"v	c #ADADAD",
"w	c #748EAD",
"x	c #365479",
"y	c #AFAFAF",
"z	c #989898",
"A	c #7790AF",
"B	c #3A597F",
"C	c #7992B1",
"D	c #476C99",
"E	c #7B93B1",
".+                        ",
"@#                        ",
"$%                        ",
"&*                        ",
"&=                        ",
"&-                        ",
"&-                        ",
"&;     >>>>>>>>>>,')!     ",
"&-     >~~~~~~~~~~~{]     ",
"&-     >~^^/(^^^__~{:     ",
"&-     <[}|11111112{3     ",
"&-     45678908008a{b     ",
"&-     c8dedfdddff8{g     ",
"&-     hiiiijiklkllmn     ",
"&-     opqqpqpqprpr{s     ",
"&-     truuuuuuuuuv{w     ",
"&-     xyzzzzzzzzzz{A     ",
"&-     B{{{{{{{{{{{{C     ",
"&-     DEEEEEEEEEEEEE     ",
"&-                        ",
"&-                        ",
"&-                        ",
"&-                        ",
"&-                        ",
"&-                        ",
">>                        "};
