/* XPM */
static char * iconify_activeup_xpm[] = {
<<<<<<< HEAD
"6 6 8 1",
" 	c None",
".	c #233551",
"+	c #53687F",
"@	c #6A7A8B",
"#	c #9AA9B8",
"$	c #6D8092",
"%	c #597088",
"&	c #8695A3",
"......",
".+@+@#",
".$%$%#",
".%$%$#",
".&%&%#",
".#####"};
=======
"24 24 18 1",
" 	c None",
".	c #7993B5",
"+	c #4775A6",
"@	c #6785AB",
"#	c #4F7AAB",
"$	c #507BAD",
"%	c #4F79AA",
"&	c #233551",
"*	c #EAEAEA",
"=	c #D6D6D6",
"-	c #9F9B9F",
";	c #9AA9B8",
">	c #C4C4C4",
",	c #444444",
"'	c #AEAAAE",
")	c #4A6E9F",
"!	c #41618E",
"~	c #41628E",
".+.+.+.+.+.+.+.+.+.+.+.+",
"+@+@+@+@+@+@+@+@+@+@+@+@",
"#+#+#+#+#+#+#+#+#+#+#+#+",
"##+#+###+#+###+#+###+#+#",
"+$#+$#+$#+$#+$#+$#+$#+$#",
"#####$#####$#####$#####$",
"%#+#%#%#+#%#%#+#%#%#+#%#",
"#%###$#%###$#%###$#%###$",
"%#%$%#%#&&&&&%%$%#%#%$%#",
"#$###%#$&*==-;###%#$###%",
"%#%#%#%#&=>>,;%#%#%#%#%#",
"$%#%$#$%&='>,;#%$#$%#%$#",
"%#%#%#%#&-,,,;%#%#%#%#%#",
"#%$%#%#%,;;;;;$%#%#%$%#%",
"%#%$%#%#%$%#%#%$%#%#%$%#",
"%%#%#%%%#%#%%%#%#%%%#%#%",
"%#%#%$%#%#%$%#%#%$%#%#%$",
"%%%%%%%%%%%%%%%%%%%%%%%%",
"%#%#%#%#%#%#%#%#%#%#%#%#",
"%%%%%%%%%%%%%%%%%%%%%%%%",
")%%%)#%%)%%#)%%%)#%%)%%#",
"%)%)%)%)%)%)%)%)%)%)%)%)",
"!~!~!~!~!~!~!!!~!~!~!~!!",
"&&&&&&&&&&&&&&&&&&&&&&&&"};
>>>>>>> 6dcde17a2ee2302b13d93d738f51d3d480b3d812
