/* XPM */
static char * iconify_activeup_xpm[] = {
"26 26 101 2",
"  	c None",
". 	c #39577E",
"+ 	c #B7BFC8",
"@ 	c #B0BAC5",
"# 	c #A9B5C1",
"$ 	c #A3B0BD",
"% 	c #9CABBA",
"& 	c #95A6B7",
"* 	c #9AA9B8",
"= 	c #355175",
"- 	c #B0BAC4",
"; 	c #6688AE",
"> 	c #6788AE",
", 	c #6688AF",
"' 	c #314A6C",
") 	c #A8B5C0",
"! 	c #5E82AC",
"~ 	c #5D82AD",
"{ 	c #5D82AC",
"] 	c #2C4363",
"^ 	c #9FAEBC",
"/ 	c #547DAB",
"( 	c #547CAB",
"_ 	c #98A7B9",
": 	c #4F79AA",
"< 	c #4F7AAB",
"[ 	c #96A8B7",
"} 	c #507BAD",
"| 	c #233551",
"1 	c #253856",
"2 	c #293F5D",
"3 	c #2D4565",
"4 	c #73879B",
"5 	c #5A6C7F",
"6 	c #596C7F",
"7 	c #596D7F",
"8 	c #5A6D7F",
"9 	c #5B6D7F",
"0 	c #778A9E",
"a 	c #243753",
"b 	c #627486",
"c 	c #627385",
"d 	c #637486",
"e 	c #637586",
"f 	c #7B8DA2",
"g 	c #273C5A",
"h 	c #6B7B8C",
"i 	c #6B7B8D",
"j 	c #6C7C8D",
"k 	c #6B7C8D",
"l 	c #6C7B8D",
"m 	c #7F91A4",
"n 	c #2B415F",
"o 	c #748393",
"p 	c #748392",
"q 	c #758393",
"r 	c #8395A7",
"s 	c #2D4566",
"t 	c #7C8D9F",
"u 	c #7C8B9A",
"v 	c #7D8B9A",
"w 	c #7D8B99",
"x 	c #7D8C9A",
"y 	c #7E8C9A",
"z 	c #8798AA",
"A 	c #304A6D",
"B 	c #576A81",
"C 	c #2F425D",
"D 	c #2E415D",
"E 	c #2E415C",
"F 	c #2D405B",
"G 	c #2E405C",
"H 	c #2D3F5B",
"I 	c #8B9CAC",
"J 	c #334F73",
"K 	c #E5E6E6",
"L 	c #F0F0F0",
"M 	c #EEEFEE",
"N 	c #EBEBEB",
"O 	c #E9E8E9",
"P 	c #E3E2E2",
"Q 	c #E0E0E0",
"R 	c #DDDDDD",
"S 	c #DADADA",
"T 	c #D7D7D8",
"U 	c #444444",
"V 	c #8FA0B0",
"W 	c #365479",
"X 	c #C4C4C4",
"Y 	c #93A3B3",
"Z 	c #3A597F",
"` 	c #676767",
" .	c #96A6B6",
"..	c #3D5D85",
"+.	c #4F77A8",
"@.	c #4E78A8",
"#.	c #4E77A8",
"$.	c #4B72A1",
"%.	c #4A72A1",
"&.	c #476D9A",
"*.	c #486C9A",
". + @ # $ % & * * * * * * * * * * * * * * * * * * * ",
"= - ; > , , , , ; > , , , , , , ; > , , , , ; > , , ",
"' ) ! ~ { { { { ! ~ { { { { { { ! ~ { { { { ! ~ { { ",
"] ^ / ( / ( / ( / ( / ( / ( / ( / ( / ( / ( / ( / ( ",
"] _ : : : : : : : : : : : : : : : : : : : : : : : : ",
"] & < : < < < : < : < < < : < : < : < < < : < : < < ",
"] & < : < : < : < : < : < : < : < : < : < : < : < : ",
"] [ } < } < < | | | | | | | | | | 1 2 3 4 } } < } < ",
"] & } < } < < | 5 5 5 6 7 5 5 5 8 8 9 | 4 } } < } < ",
"] & } < } < < | 5 5 5 6 7 5 5 5 8 8 9 | 0 } } < } < ",
"] & < : < : : a b b c d d d d d d d e | f < < : < : ",
"] & < : < : : g h h i j k l j l l j j | m < < : < : ",
"] & : } : < < n o o p o q o o o q q q | r : : } : < ",
"] & < : < : : s t u v w v x y x v y y | z < < : < : ",
"] & : < : } } A B C C C D C E F G F H | I : : < : } ",
"] & < : < : : J K L M N O K P Q R S T U V < < : < : ",
"] & : : : < < W T X X X X X X X X X X U Y : : : : < ",
"] & < : < : : Z ` U U U U U U U U U U U  .< < : < : ",
"] & : : : : : ..* * * * * * * * * * * * * : : : : : ",
"] & : : : : : : : : : : : : : : : : : : : : : : : : ",
"] & < : < : < : < : < : < : < : < : < : < : < : < : ",
"] & : : : : : : : : : : : : : : : : : : : : : : : : ",
"] & +.@.#.+.+.@.+.@.#.+.+.@.+.@.+.@.#.+.+.@.+.@.#.+.",
"] & $.$.%.$.$.$.$.$.%.$.$.$.$.$.$.$.%.$.$.$.$.$.%.$.",
"] & &.&.*.&.&.&.&.&.*.&.&.&.&.&.&.&.*.&.&.&.&.&.*.&.",
"| | | | | | | | | | | | | | | | | | | | | | | | | | "};
