/* XPM */
static char * iconify_activedown_xpm[] = {
"26 26 78 1",
" 	c None",
".	c #233551",
"+	c #476D9A",
"@	c #486C9A",
"#	c #9AA9B8",
"$	c #4B72A1",
"%	c #4A72A1",
"&	c #4E78A8",
"*	c #4F77A8",
"=	c #4E77A8",
"-	c #4F79AA",
";	c #4F7AAB",
">	c #253856",
",	c #293F5D",
"'	c #2D4565",
")	c #314A6D",
"!	c #345075",
"~	c #38577C",
"{	c #5E748B",
"]	c #5A6C7F",
"^	c #596C7F",
"/	c #596D7F",
"(	c #5A6D7F",
"_	c #5B6D7F",
":	c #73879B",
"<	c #627486",
"[	c #627385",
"}	c #637486",
"|	c #637586",
"1	c #778A9E",
"2	c #507BAD",
"3	c #243753",
"4	c #6B7B8C",
"5	c #6B7B8D",
"6	c #6C7C8D",
"7	c #6B7C8D",
"8	c #6C7B8D",
"9	c #7B8DA2",
"0	c #273C5A",
"a	c #748393",
"b	c #748392",
"c	c #758393",
"d	c #7F91A4",
"e	c #2B415F",
"f	c #7C8B9A",
"g	c #7D8B9A",
"h	c #7D8B99",
"i	c #7D8C9A",
"j	c #7E8C9A",
"k	c #8395A7",
"l	c #2D4566",
"m	c #7B8DA1",
"n	c #8798AA",
"o	c #304A6D",
"p	c #2F425D",
"q	c #2E415D",
"r	c #2E415C",
"s	c #2D405B",
"t	c #2E405C",
"u	c #2D3F5B",
"v	c #8B9CAC",
"w	c #334F73",
"x	c #90908F",
"y	c #444444",
"z	c #8FA0B0",
"A	c #365479",
"B	c #C4C4C4",
"C	c #93A3B3",
"D	c #3A597F",
"E	c #96A6B6",
"F	c #3D5D85",
"G	c #547CAB",
"H	c #547DAB",
"I	c #5D82AC",
"J	c #5E82AC",
"K	c #5D82AD",
"L	c #41628E",
"M	c #41618E",
"..........................",
".+++@+++++@+++++++@+++++@#",
".$$$%$$$$$%$$$$$$$%$$$$$%#",
".&*&=**&*&=**&*&*&=**&*&=#",
".------------------------#",
".-;-;-;-;-;-;-;-;-;-;-;-;#",
".------------------------#",
".------------------------#",
".-;-;-;.......>,')!~{-;-;#",
".;---;-.]]]^/]]]((_.:;---#",
".-;-;-;.<[[}}}}}}}|.1-;-;#",
".2-;-2-345567868866.92-;-#",
".-;-;-;0abbacaaaccc.d-;-;#",
".;-2-;-efgghgijigjj.k;-2-#",
".-;-;-;lmmmmmmmmmmm.n-;-;#",
".-;-;-;oppppqprstsu.v-;-;#",
".;2;2;2wxxxxxxxxxxxyz;2;2#",
".;2;2;2ABBBBBBBBBBByC;2;2#",
".;2;2;2DyyyyyyyyyyyyE;2;2#",
".-;-;-;F#############-;-;#",
".-;-;;;-;-;;;-;-;-;;;-;-;#",
".------------------------#",
".GHGHGHGHGHGHGHGHGHGHGHGH#",
".IJKIIIIJKIIIIIIJKIIIIJKI#",
".LMLMLMLMLMLMLMMMLMLMLMLM#",
".........................#"};
