/* XPM */
static char * iconify_activedown2_xpm[] = {
"26 26 73 1",
" 	c #233551",
".	c #35557E",
"+	c #35547E",
"@	c #3F6490",
"#	c #426997",
"$	c #436997",
"%	c #436A99",
"&	c #436B9A",
"*	c #253856",
"=	c #293F5D",
"-	c #2D4565",
";	c #57789D",
">	c #697A8B",
",	c #6A7A8B",
"'	c #6381A4",
")	c #6D7E8E",
"!	c #627385",
"~	c #637486",
"{	c #6E7E8E",
"]	c #6683A6",
"^	c #446C9C",
"/	c #243753",
"(	c #728292",
"_	c #6B7B8D",
":	c #6C7C8D",
"<	c #6B7C8D",
"[	c #6C7B8D",
"}	c #738292",
"|	c #6884A7",
"1	c #273C5A",
"2	c #778696",
"3	c #748392",
"4	c #748393",
"5	c #758393",
"6	c #788696",
"7	c #6A86A8",
"8	c #2B415F",
"9	c #7C8B9A",
"0	c #7D8B9A",
"a	c #7D8B99",
"b	c #7D8C9A",
"c	c #7E8C9A",
"d	c #6D88A9",
"e	c #2D4566",
"f	c #2F425D",
"g	c #2E415D",
"h	c #2E415C",
"i	c #2D405B",
"j	c #2E405C",
"k	c #2D3F5B",
"l	c #6F8AAB",
"m	c #304A6D",
"n	c #C4C4C4",
"o	c #728CAB",
"p	c #334F73",
"q	c #90908F",
"r	c #444444",
"s	c #748EAD",
"t	c #365479",
"u	c #6F6F6F",
"v	c #7790AF",
"w	c #3A597F",
"x	c #7992B1",
"y	c #476C99",
"z	c #7B93B1",
"A	c #476D9A",
"B	c #476E9A",
"C	c #50739B",
"D	c #51739B",
"E	c #50739C",
"F	c #58799E",
"G	c #58799D",
"H	c #59799D",
"                          ",
" .+.+.+.+.+.+.+++.+.+.+...",
" @@@@@@@@@@@@@@@@@@@@@@@@@",
" #$#$#$#$#$##$##$#$#$##$##",
" %%%%%%%%%%%%%%%%%%%%%%%%%",
" %&%&%&%&%&%%&%%&%&%&%%&%%",
" %%%%%%%%%%%%%%%%%%%%%%%%%",
" %%%%%%%%%%%%%%%%%%%%%%%%%",
" %&%&%&          *=-;%%&%%",
" &%&%&% >>>>>>>>>>, '&&%%%",
" %&%&%& )!!~~~~~~~{ ]%%&%%",
" ^%^%^%/(__:<[:[[:} |^^%&&",
" %&%&%&123345444556 7%%&%%",
" &%&%&%8900a0bcb0cc d&&%^^",
" %&%&%&effffgfhijik l%%&%%",
" %&%&%&mnnnnnnnnnnn o%%&%%",
" &^&^&^pqqqqqqqqqqqrs&&^&&",
" &^&^&^tuuuuuuuuuuurv&&^&&",
" &^&^&^wrrrrrrrrrrrrx&&^&&",
" %&%&%&yzzzzzzzzzzzzz%%&%%",
" %&%&%&&%&%&&%&%&%&%&%%&%%",
" %%%%%%%%%%%%%%%%%%%%%%%%%",
" ABABABBABABBABABABABAABAA",
" CDCDECDCDECDCDEDCDECCDEEE",
" FGFGHFGFGHFGFGHGFGHFFGHHH",
"                          "};
