/* XPM */
static char * iconify_inactive_xpm[] = {
"6 6 12 1",
" 	c None",
".	c #656565",
"+	c #6C6C6C",
"@	c #6A6A6A",
"#	c #AEAEAE",
"$	c #929292",
"%	c #A6A6A6",
"&	c #EDEDED",
"*	c #979797",
"=	c #EAEAEA",
"-	c #9B9B9B",
";	c #E5E5E5",
".+.@.@",
"@#$%$&",
".$%*%=",
"@%-#-;",
".$%*%=",
"+;=;=;"};
