/* XPM */
static char * iconify_inactive_xpm[] = {
"24 24 22 1",
" 	c None",
".	c #C3C3C3",
"+	c #BBBBBB",
"@	c #ABABAB",
"#	c #656565",
"$	c #6C6C6C",
"%	c #6A6A6A",
"&	c #AEAEAE",
"*	c #929292",
"=	c #A6A6A6",
"-	c #EDEDED",
";	c #979797",
">	c #EAEAEA",
",	c #9B9B9B",
"'	c #E5E5E5",
")	c #747474",
"!	c #797979",
"~	c #787878",
"{	c #737373",
"]	c #777777",
"^	c #757575",
"/	c #484848",
"........................",
"........................",
"+.+.+.+.+.+.+.+.+.+.+.+.",
"++++++++++++++++++++++++",
"@.++.+@.++.+@.++.+@.++.+",
"+++++.+++++.+++++.+++++.",
"@+@+@+@+@+@+@+@+@+@+@+@+",
"+@+++.+@+++.+@+++.+@+++.",
"@+@.@+@+#$#%#%@.@+@+@.@+",
"+.+++@+.%&*=*-+++@+.+++@",
"@+@+@+@+#*=;=>@+@+@+@+@+",
".@+@.+.@%=,&,'+@.+.@+@.+",
"@+@+@+@+#*=;=>@+@+@+@+@+",
"+@.@+@+@$'>'>'.@+@+@.@+@",
"@+@.@+@+@.@+@+@.@+@+@.@+",
"@@+@+@@@+@+@@@+@+@@@+@+@",
"@+@+@.@+@+@.@+@+@.@+@+@.",
"@@@@@@@@@@@@@@@@@@@@@@@@",
"@+@+@+@+@+@+@+@+@+@+@+@+",
"@@@@@@@@@@@@@@@@@@@@@@@@",
"@@@@@+@@@@@+@@@@@+@@@@@+",
"@@@@@@@@@@@@@@@@@@@@@@@@",
")!)~{~)!)~{~]^)!)~{!)~]^",
"////////////////////////"};
