/* XPM */
static char * iconify_activedown_xpm[] = {
"6 6 5 1",
" 	c None",
".	c #233551",
"+	c #597088",
"@	c #8695A3",
"#	c #9AA9B8",
"......",
".+@+@#",
".@+@+#",
".+@+@#",
".@+@+#",
".#####"};
