/* XPM */
static char * leftend_inactive_xpm[] = {
"1 26 24 1",
" 	c #F0F0F0",
".	c #EFEFEF",
"+	c #EEEEEE",
"@	c #EDEDED",
"#	c #ECECEC",
"$	c #EBEBEB",
"%	c #EAEAEA",
"&	c #E9E9E9",
"*	c #E8E8E8",
"=	c #E7E7E7",
"-	c #E6E6E6",
";	c #E4E4E4",
">	c #E4E3E4",
",	c #E2E2E2",
"'	c #E0E0E0",
")	c #DFDFDF",
"!	c #DEDEDE",
"~	c #DDDDDD",
"{	c #DCDCDC",
"]	c #DBDBDB",
"^	c #DADADA",
"/	c #D9D9D9",
"(	c #D8D8D8",
"_	c #4D4D4D",
" ",
" ",
".",
"+",
"@",
"#",
"$",
"%",
"&",
"*",
"=",
"-",
";",
">",
",",
",",
"'",
")",
"!",
"~",
"{",
"]",
"^",
"/",
"(",
"_"};
