/* XPM */
static char * leftend_activedown_xpm[] = {
"1 26 25 1",
" 	c #415D83",
".	c #415E84",
"+	c #415E85",
"@	c #426087",
"#	c #436088",
"$	c #436189",
"%	c #43628A",
"&	c #43638B",
"*	c #43638C",
"=	c #44648D",
"-	c #44658F",
";	c #446790",
">	c #456791",
",	c #456792",
"'	c #456993",
")	c #466A94",
"!	c #466A95",
"~	c #466A96",
"{	c #476C97",
"]	c #476C98",
"^	c #4B6F99",
"/	c #52739A",
"(	c #5B7A9E",
"_	c #8A98A7",
":	c #233551",
" ",
".",
"+",
"@",
"#",
"$",
"%",
"&",
"*",
"=",
"-",
"-",
";",
">",
",",
"'",
")",
"!",
"~",
"{",
"]",
"^",
"/",
"(",
"_",
":"};
