/* XPM */
static char * maximize_activedown2_xpm[] = {
"26 26 60 1",
" 	c #233551",
".	c #35557E",
"+	c #35547E",
"@	c #3F6490",
"#	c #426997",
"$	c #436997",
"%	c #436A99",
"&	c #436B9A",
"*	c #253856",
"=	c #293F5D",
"-	c #2D4565",
";	c #57789D",
">	c #90908F",
",	c #444444",
"'	c #6381A4",
")	c #C4C4C4",
"!	c #6683A6",
"~	c #446C9C",
"{	c #243753",
"]	c #6884A7",
"^	c #273C5A",
"/	c #AFAFAF",
"(	c #6A86A8",
"_	c #2B415F",
":	c #9E9E9E",
"<	c #9F9E9E",
"[	c #8D8E8D",
"}	c #6D88A9",
"|	c #2D4566",
"1	c #ACADAC",
"2	c #ADADAC",
"3	c #ACADAD",
"4	c #ACACAD",
"5	c #ADACAC",
"6	c #ACACAC",
"7	c #9A9B9B",
"8	c #6F8AAB",
"9	c #304A6D",
"0	c #BBBBBB",
"a	c #A7A7A7",
"b	c #728CAB",
"c	c #334F73",
"d	c #748EAD",
"e	c #365479",
"f	c #D8D9D8",
"g	c #C1C2C1",
"h	c #7790AF",
"i	c #3A597F",
"j	c #3D3D3D",
"k	c #7992B1",
"l	c #476C99",
"m	c #7B93B1",
"n	c #476D9A",
"o	c #476E9A",
"p	c #50739B",
"q	c #51739B",
"r	c #50739C",
"s	c #58799E",
"t	c #58799D",
"u	c #59799D",
"                          ",
" .+.+.+.+.+.+.+++.+.+.+...",
" @@@@@@@@@@@@@@@@@@@@@@@@@",
" #$#$#$#$#$##$##$#$#$##$##",
" %%%%%%%%%%%%%%%%%%%%%%%%%",
" %&%&%&%&%&%%&%%&%&%&%%&%%",
" %%%%%%%%%%%%%%%%%%%%%%%%%",
" %%%%%%%%%%%%%%%%%%%%%%%%%",
" %&%&%&          *=-;%%&%%",
" &%&%&% >>>>>>>>>>>,'&&%%%",
" %&%&%& ))))))))))),!%%&%%",
" ~%~%~%{,,,,,,,,,,,,]~~%&&",
" %&%&%&^))))))))))/,(%%&%%",
" &%&%&%_:::<<:::::[,}&&%~~",
" %&%&%&|11213455467,8%%&%%",
" %&%&%&90000000000a,b%%&%%",
" &~&~&~c))))))))))/,d&&~&&",
" &~&~&~effffffffffg,h&&~&&",
" &~&~&~i,,,,,,,,,,j k&&~&&",
" %&%&%&lmmmmmmmmmmmmm%%&%%",
" %&%&%&&%&%&&%&%&%&%&%%&%%",
" %%%%%%%%%%%%%%%%%%%%%%%%%",
" nononoononoonononononnonn",
" pqpqrpqpqrpqpqrqpqrppqrrr",
" ststuststuststutstusstuuu",
"                          "};
