/* XPM */
static char * maximize_activedown_xpm[] = {
"26 26 63 1",
" 	c None",
".	c #233551",
"+	c #476D9A",
"@	c #486C9A",
"#	c #9AA9B8",
"$	c #4B72A1",
"%	c #4A72A1",
"&	c #4E78A8",
"*	c #4F77A8",
"=	c #4E77A8",
"-	c #4F79AA",
";	c #4F7AAB",
">	c #253856",
",	c #293F5D",
"'	c #2D4565",
")	c #314A6D",
"!	c #345075",
"~	c #38577C",
"{	c #5E748B",
"]	c #90908F",
"^	c #444444",
"/	c #73879B",
"(	c #C4C4C4",
"_	c #778A9E",
":	c #507BAD",
"<	c #243753",
"[	c #7B8DA2",
"}	c #273C5A",
"|	c #8F908F",
"1	c #8F9090",
"2	c #909090",
"3	c #7F91A4",
"4	c #2B415F",
"5	c #9E9E9E",
"6	c #9F9E9E",
"7	c #9E9F9E",
"8	c #8395A7",
"9	c #2D4566",
"0	c #ACADAC",
"a	c #ADADAC",
"b	c #ACADAD",
"c	c #ACACAD",
"d	c #ADACAC",
"e	c #ACACAC",
"f	c #8798AA",
"g	c #304A6D",
"h	c #BBBBBB",
"i	c #8B9CAC",
"j	c #334F73",
"k	c #365479",
"l	c #D8D9D8",
"m	c #3A597F",
"n	c #3D5D85",
"o	c #8B9CAD",
"p	c #8799AB",
"q	c #547CAB",
"r	c #547DAB",
"s	c #5D82AC",
"t	c #5E82AC",
"u	c #5D82AD",
"v	c #6688AF",
"w	c #6688AE",
"x	c #6788AE",
"..........................",
".+++@+++++@+++++++@+++++@#",
".$$$%$$$$$%$$$$$$$%$$$$$%#",
".&*&=**&*&=**&*&*&=**&*&=#",
".------------------------#",
".-;-;-;-;-;-;-;-;-;-;-;-;#",
".------------------------#",
".------------------------#",
".-;-;-.......>,')!~{;-;-;#",
".;---;.]]]]]]]]]]]^/-;---#",
".-;-;-.(((((((((((^_;-;-;#",
".:-;-:<^^^^^^^^^^^.[-:-;-#",
".-;-;-}||1]2122|2]^3;-;-;#",
".;-:-;455566555557^8-;-:-#",
".-;-;-900a0bcddceb^f;-;-;#",
".-;-;-ghhhhhhhhhhh^i;-;-;#",
".;:;:;j(((((((((((^[:;:;:#",
".;:;:;klllllllllll^3:;:;:#",
".;:;:;m^^^^^^^^^^^.8:;:;:#",
".-;-;-n#oppopopoppop;-;-;#",
".-;-;;;-;-;;;-;-;-;;;-;-;#",
".------------------------#",
".qrqrqrqrqrqrqrqrqrqrqrqr#",
".stusssstusssssstusssstus#",
".vwxvvvvwxvvvvvvwxvvvvwxv#",
".........................."};
