/* XPM */
static char * maximize_activedown_xpm[] = {
"26 26 68 1",
" 	c #343434",
".	c #353535",
"+	c #797979",
"@	c #787878",
"#	c #8B8B8B",
"$	c #919191",
"%	c #8F8F8F",
"&	c #373737",
"*	c #929292",
"=	c #3D3D3D",
"-	c #939393",
";	c #424242",
">	c #474747",
",	c #4C4C4C",
"'	c #434343",
")	c #464646",
"!	c #4B4B4B",
"~	c #4F4F4F",
"{	c #B1B1B1",
"]	c #505050",
"^	c #D9D9D9",
"/	c #D7D7D7",
"(	c #D6D6D6",
"_	c #D2D2D2",
":	c #BCBCBC",
"<	c #C5C5C5",
"[	c #C3C3C4",
"}	c #C2C2C2",
"|	c #C0C0BF",
"1	c #BEBEBE",
"2	c #BDBCBC",
"3	c #BABABA",
"4	c #B8B8B7",
"5	c #B7B6B6",
"6	c #B5B4B4",
"7	c #C0C0C0",
"8	c #949494",
"9	c #535353",
"0	c #595959",
"a	c #585858",
"b	c #555555",
"c	c #484848",
"d	c #CBCBCB",
"e	c #BFBFBF",
"f	c #BDBDBD",
"g	c #BAB9BA",
"h	c #B9B8B8",
"i	c #B6B6B5",
"j	c #C5C4C5",
"k	c #B9B9BA",
"l	c #B8B8B9",
"m	c #B9B9B8",
"n	c #B7B8B7",
"o	c #B7B7B7",
"p	c #B6B6B6",
"q	c #B5B6B5",
"r	c #B5B5B5",
"s	c #C1C1C1",
"t	c #575757",
"u	c #B3B3B3",
"v	c #5B5B5B",
"w	c #B0B0B0",
"x	c #5E5E5E",
"y	c #959595",
"z	c #979797",
"A	c #9C9C9C",
"B	c #A4A4A4",
"C	c #414141",
"                         .",
" +@+@+@+@+@+@+@@@+@+@+@@+.",
" ########################.",
" $$$%$$$$$%$$$$$$$%$$$$$$&",
" ************************=",
" *-*-*-*-*-*-*-*-*-*-*--*;",
" ************************>",
" ************************,",
" *-*-*-'''''''''')!~{*--*]",
" -***-*'^^^//(_____]:-***]",
" *-*-*-'_<[}|123456]7*--*]",
" 8*-*8*90000a0aaaaab:8**-]",
" *-*-*-c^^^//(_____]7*--*]",
" -*8*-*,_<[}|123456]:-**8]",
" *-*-*-~de1f2:gh45i]7*--*]",
" *-*-*-9jklmnopppqr]s*--*]",
" -8-8-8t1uuuuuuuuuu]:-88-]",
" -8-8-8v2wwwwwwwwww]:-88-]",
" -8-8-8x]]]]]]]]]]]]7-88-]",
" *-*-*-{:7:7:s:7:7:7:*--*]",
" *-*---*-*---*-*-*---*--*]",
" ************************]",
" yzyzyzyzyzyzyzyzyzyzyzzy]",
" AAAAAAAAAAAAAAAAAAAAAAAA]",
" BBBBBBBBBBBBBBBBBBBBBBBB]",
"                         C"};
