/* XPM */
static char * maximize_activeup_xpm[] = {
"26 26 77 1",
" 	c None",
".	c #9AA9B8",
"+	c #6688AF",
"@	c #6688AE",
"#	c #6788AE",
"$	c #5D82AC",
"%	c #5E82AC",
"&	c #5D82AD",
"*	c #547DAB",
"=	c #547CAB",
"-	c #4F79AA",
";	c #4F7AAB",
">	c #507BAD",
",	c #233551",
"'	c #253856",
")	c #293F5D",
"!	c #2D4565",
"~	c #5E748B",
"{	c #E5E6E6",
"]	c #F0F0F0",
"^	c #EEEFEE",
"/	c #EBEBEB",
"(	c #E9E8E9",
"_	c #E3E2E2",
":	c #E0E0E0",
"<	c #DDDDDD",
"[	c #DADADA",
"}	c #D7D7D8",
"|	c #444444",
"1	c #73879B",
"2	c #C4C4C4",
"3	c #778A9E",
"4	c #243753",
"5	c #676767",
"6	c #7B8DA2",
"7	c #273C5A",
"8	c #D8D9D8",
"9	c #7F91A4",
"0	c #2B415F",
"a	c #D2D3D2",
"b	c #8395A7",
"c	c #2D4566",
"d	c #CDCCCC",
"e	c #BBBBBB",
"f	c #8798AA",
"g	c #304A6D",
"h	c #C7C7C6",
"i	c #ACADAC",
"j	c #ADADAC",
"k	c #ACADAD",
"l	c #ACACAD",
"m	c #ADACAC",
"n	c #ACACAC",
"o	c #8B9CAC",
"p	c #334F73",
"q	c #C1C1C0",
"r	c #9E9E9E",
"s	c #9F9E9E",
"t	c #9E9F9E",
"u	c #365479",
"v	c #BBBBBA",
"w	c #8F908F",
"x	c #8F9090",
"y	c #90908F",
"z	c #909090",
"A	c #3A597F",
"B	c #656564",
"C	c #3D5D85",
"D	c #8B9CAD",
"E	c #8799AB",
"F	c #4F77A8",
"G	c #4E78A8",
"H	c #4E77A8",
"I	c #4B72A1",
"J	c #4A72A1",
"K	c #476D9A",
"L	c #486C9A",
"..........................",
"++@#++++@#++++++@#++++@#++",
"$$%&$$$$%&$$$$$$%&$$$$%&$$",
"*=*=*=*=*=*=*=*=*=*=*=*=*=",
"--------------------------",
";-;-;;;-;-;;;-;-;-;;;-;-;;",
";-;-;-;-;-;-;-;-;-;-;-;-;-",
">;>;>;,,,,,,,,,,')!~>;>;>;",
">;>;>;,{]^/({_:<[}|1>;>;>;",
">;>;>;,}2222222222|3>;>;>;",
";-;-;-45||||||||||,6;-;-;-",
";-;-;-788888888888|9;-;-;-",
"-;->-;0a2222222222|b-;->-;",
";-;-;-cdeeeeeeeeee|f;-;-;-",
"->-;->ghijiklmmlnk|o->-;->",
";-;-;-pqrrssrrrrrt|6;-;-;-",
"-;---;uvwxyzxzzwzy|9-;---;",
";-;-;-AB||||||||||,b;-;-;-",
"------C.DEEDEDEDEEDE------",
"--------------------------",
";-;-;-;-;-;-;-;-;-;-;-;-;-",
"--------------------------",
"FGFGHFFGFGHFFGFGFGHFFGFGHF",
"IIIIJIIIIIJIIIIIIIJIIIIIJI",
"KKKKLKKKKKLKKKKKKKLKKKKKLK",
",,,,,,,,,,,,,,,,,,,,,,,,,,"};
