/* XPM */
static char * maximize_activedown_xpm[] = {
"24 24 19 1",
" 	c None",
".	c #8695A3",
"+	c #567390",
"@	c #788793",
"#	c #607A94",
"$	c #617B95",
"%	c #272D33",
"&	c #5F7892",
"*	c #4F5D6C",
"=	c #6A747C",
"-	c #9DA8B1",
";	c #7A8895",
">	c #51667C",
",	c #8E9BA6",
"'	c #597088",
")	c #4F6378",
"!	c #4F6479",
"~	c #4F6478",
"{	c #2B3743",
".+.+.+.+.+.+.+.+.+.+.+.+",
"+@+@+@+@+@+@+@+@+@+@+@+@",
"#+#+#+#+#+#+#+#+#+#+#+#+",
"##+#+###+#+###+#+###+#+#",
"+$#+$#+$#+$#+$#+$#+$#+$#",
"#####%%%%%%%%%%%%$#####$",
"&#+#&%*=*=*=*=*=-#&#+#&#",
"#&###%;>;>;>;>;>-$#&###$",
"&#&$&%>;>;>;>;>;-#&#&$&#",
"#$###%;>;>;>;>;>-&#$###&",
"&#&#&%>;>;>;>;>;-#&#&#&#",
"$&#&$%;>;>;>;>;>-#$&#&$#",
"&#&#&%>;>;>;>;>;-#&#&#&#",
"#&$&#%;>;>;>;>;>-&#&$&#&",
"&#&$&%>;>;>;>;>;-#&#&$&#",
"&&#&#%,>,>,>,>,>-&&&#&#&",
"&#&#&%-----------$&#&#&$",
"&&&&&&&&&&&&&&&&&&&&&&&&",
"&#&#&#&#&#&#&#&#&#&#&#&#",
"&&&&&&&&&&&&&&&&&&&&&&&&",
"'&&&'#&&'&&#'&&&'#&&'&&#",
"&'&'&'&'&'&'&'&'&'&'&'&'",
")!)~)~)!)~)~)))!)~)!)~))",
"{{{{{{{{{{{{{{{{{{{{{{{{"};
