/* XPM */
static char * maximize_inactive_xpm[] = {
"12 12 16 1",
" 	c None",
".	c #6C6C6C",
"+	c #696969",
"@	c #A6A6A6",
"#	c #929292",
"$	c #E6E6E6",
"%	c #979797",
"&	c #AEAEAE",
"*	c #B2B2B2",
"=	c #EBEBEB",
"-	c #9B9B9B",
";	c #656565",
">	c #969696",
",	c #EDEDED",
"'	c #8A8A8A",
")	c #8F8F8F",
".+++++.+++++",
"+@#@#@#@#@#$",
".#@%&%*%@%&=",
"+@%@-@%@%@-$",
";#*%&%@%*%&=",
"+@%@%@%@%@%$",
"+>@%@-&-@%@,",
"+@%@%@%@%@%$",
";#@-@%@%@-@=",
"+@%@-@%@%@-$",
";'@%@%@)@%@=",
".$=$=$,$=$=$"};
