/* XPM */
static char * maximize_activeup2_xpm[] = {
"26 26 71 1",
" 	c None",
".	c #39577E",
"+	c #B7BFC8",
"@	c #355175",
"#	c #B0BAC4",
"$	c #314A6C",
"%	c #A8B5C0",
"&	c #2C4363",
"*	c #9FAEBC",
"=	c #98A7B9",
"-	c #95A6B7",
";	c #96A8B7",
">	c #233551",
",	c #253856",
"'	c #293F5D",
")	c #2D4565",
"!	c #57789D",
"~	c #E5E6E6",
"{	c #F0F0F0",
"]	c #EEEFEE",
"^	c #EBEBEB",
"/	c #E9E8E9",
"(	c #E3E2E2",
"_	c #E0E0E0",
":	c #DDDDDD",
"<	c #DADADA",
"[	c #D7D7D8",
"}	c #444444",
"|	c #6381A4",
"1	c #C4C4C4",
"2	c #6683A6",
"3	c #243753",
"4	c #8D8D8D",
"5	c #666666",
"6	c #6884A7",
"7	c #273C5A",
"8	c #6A86A8",
"9	c #2B415F",
"0	c #D2D3D2",
"a	c #6D88A9",
"b	c #2D4566",
"c	c #CDCCCC",
"d	c #BBBBBB",
"e	c #6F8AAB",
"f	c #304A6D",
"g	c #C7C7C6",
"h	c #ACADAC",
"i	c #ADADAC",
"j	c #ACADAD",
"k	c #ACACAD",
"l	c #ADACAC",
"m	c #ACACAC",
"n	c #728CAB",
"o	c #334F73",
"p	c #C1C1C0",
"q	c #9E9E9E",
"r	c #9F9E9E",
"s	c #9E9F9E",
"t	c #748EAD",
"u	c #365479",
"v	c #BBBBBA",
"w	c #8F908F",
"x	c #8F9090",
"y	c #90908F",
"z	c #909090",
"A	c #7790AF",
"B	c #3A597F",
"C	c #676767",
"D	c #7992B1",
"E	c #476C99",
"F	c #7B93B1",
".+                        ",
"@#                        ",
"$%                        ",
"&*                        ",
"&=                        ",
"&-                        ",
"&-                        ",
"&;     >>>>>>>>>>,')!     ",
"&-     >~{]^/~(_:<[}|     ",
"&-     >[1111111111}2     ",
"&-     345555555555>6     ",
"&-     7~{]^/~(_:<[}8     ",
"&-     901111111111}a     ",
"&-     bcdddddddddd}e     ",
"&-     fghihjkllkmj}n     ",
"&-     opqqrrqqqqqs}t     ",
"&-     uvwxyzxzzwzy}A     ",
"&-     BC}}}}}}}}}}}D     ",
"&-     EFFFFFFFFFFFFF     ",
"&-                        ",
"&-                        ",
"&-                        ",
"&-                        ",
"&-                        ",
"&-                        ",
">>                        "};
