/* XPM */
static char * maximize_activeup_xpm[] = {
"26 26 18 1",
" 	c #9AA9B8",
".	c #7993B5",
"+	c #4775A6",
"@	c #6785AB",
"#	c #4F7AAB",
"$	c #507BAD",
"%	c #4F79AA",
"&	c #233551",
"*	c #41628E",
"=	c #D6D6D6",
"-	c #444444",
";	c #AEAAAE",
">	c #C4C4C4",
",	c #8C8C8C",
"'	c #9E9A9E",
")	c #4A6E9F",
"!	c #344D71",
"~	c #344C71",
"                          ",
".+.+.+.+.+.+.+.+.+.+.+.+.+",
"+@+@+@+@+@+@+@+@+@+@+@+@+@",
"#+#+#+#+#+#+#+#+#+#+#+#+#+",
"+###+#+###+#+###+#+###+#+#",
"#$+$#+$#+$#+$#+$#+$#+$#+$#",
"#######$#####$#####$#####$",
"+#%#+#&&&&&&&&&&&&&*%#+#%#",
"#%#%##&===========- #%###$",
"#%#%#%&=;>;>;>;>;>- %%#%$%",
"$#$#$#&,----------- ##$###",
"#%#%#%&===========- %%#%#%",
"%#%$%#&=;;;;;;;;;;- $$%#%$",
"#%#%#%&=';;;';;;';- %%#%#%",
"%$%#%$&=;';';';';'- ##%$%#",
"#%#%#%&=';';';';';- %%#%$%",
"%#%%%#&=,',',',','- %%%#%#",
"#%#%#%&,----------- %%#%#%",
"%%%%%%&             %%%%%%",
"#%#%#%#%#%#%#%#%#%#%#%#%#%",
"#%#%#%#%#%#%#%#%#%#%#%#%#%",
"%%%%%%%%%%%%%%%%%%%%%%%%%%",
"%%)%%%)%%%)#%%)%%#)%%%)#%%",
"%)%)%)%)%)%)%)%)%)%)%)%)%)",
"!!~!!~!~!~!~!~!~!~~~!~!~!~",
"&&&&&&&&&&&&&&&&&&&&&&&&&&"};
