/* XPM */
static char * maximize_activedown_xpm[] = {
"24 24 14 1",
" 	c None",
".	c #7993B5",
"+	c #4775A6",
"@	c #6785AB",
"#	c #4F7AAB",
"$	c #507BAD",
"%	c #233551",
"&	c #41628E",
"*	c #4F79AA",
"=	c #9AA9B8",
"-	c #597088",
";	c #8695A3",
">	c #4A6E9F",
",	c #41618E",
".+.+.+.+.+.+.+.+.+.+.+.+",
"+@+@+@+@+@+@+@+@+@+@+@+@",
"#+#+#+#+#+#+#+#+#+#+#+#+",
"##+#+###+#+###+#+###+#+#",
"+$#+$#+$#+$#+$#+$#+$#+$#",
"#####%%%%%%%%%%%&$#####$",
"*#+#*%=========%=#*#+#*#",
"#*###%=-;-;-;-;%=$#*###$",
"*#*$*%=;-;-;-;-%=#*#*$*#",
"#$###%=-;-;-;-;%=*#$###*",
"*#*#*%=;-;-;-;-%=#*#*#*#",
"$*#*$%=-;-;-;-;%=#$*#*$#",
"*#*#*%=;-;-;-;-%=#*#*#*#",
"#*$*#%=-;-;-;-;%=*#*$*#*",
"*#*$*%=;-;-;-;-%=#*#*$*#",
"**#*#%=%%%%%%%%%=***#*#*",
"*#*#*%===========$*#*#*$",
"************************",
"*#*#*#*#*#*#*#*#*#*#*#*#",
"************************",
">***>#**>**#>***>#**>**#",
"*>*>*>*>*>*>*>*>*>*>*>*>",
",&,&,&,&,&,&,,,&,&,&,&,,",
"%%%%%%%%%%%%%%%%%%%%%%%%"};
