/* XPM */
static char * maximize_activedown_xpm[] = {
"26 26 71 1",
" 	c #233551",
".	c #476D9A",
"+	c #486C9A",
"@	c #9AA9B8",
"#	c #4B72A1",
"$	c #4A72A1",
"%	c #4E78A8",
"&	c #4F77A8",
"*	c #4E77A8",
"=	c #4F79AA",
"-	c #4F7AAB",
";	c #253856",
">	c #293F5D",
",	c #2D4565",
"'	c #314A6D",
")	c #345075",
"!	c #38577C",
"~	c #5E748B",
"{	c #A4A5A4",
"]	c #A4A5A5",
"^	c #A5A5A4",
"/	c #A5A5A5",
"(	c #949493",
"_	c #444444",
":	c #73879B",
"<	c #ACADAC",
"[	c #ADADAC",
"}	c #ACADAD",
"|	c #ACACAD",
"1	c #ADACAC",
"2	c #ACACAC",
"3	c #9A9B9B",
"4	c #778A9E",
"5	c #507BAD",
"6	c #243753",
"7	c #727272",
"8	c #666666",
"9	c #5B5B5B",
"0	c #7B8DA2",
"a	c #273C5A",
"b	c #C4C4C4",
"c	c #AFAFAF",
"d	c #7F91A4",
"e	c #2B415F",
"f	c #9E9E9E",
"g	c #9F9E9E",
"h	c #8D8E8D",
"i	c #8395A7",
"j	c #2D4566",
"k	c #8798AA",
"l	c #304A6D",
"m	c #BBBBBB",
"n	c #A7A7A7",
"o	c #8B9CAC",
"p	c #334F73",
"q	c #365479",
"r	c #D8D9D8",
"s	c #C1C2C1",
"t	c #3A597F",
"u	c #3D3D3D",
"v	c #3D5D85",
"w	c #8B9CAD",
"x	c #8799AB",
"y	c #547CAB",
"z	c #547DAB",
"A	c #5D82AC",
"B	c #5E82AC",
"C	c #5D82AD",
"D	c #6688AF",
"E	c #6688AE",
"F	c #6788AE",
"                          ",
" ...+.....+.......+.....+@",
" ###$#####$#######$#####$@",
" %&%*&&%&%*&&%&%&%*&&%&%*@",
" ========================@",
" =-=-=-=-=-=-=-=-=-=-=-=-@",
" ========================@",
" ========================@",
" =-=-=       ;>,')!~-=-=-@",
" -===- {{]^/]//{/(_:=-===@",
" =-=-= <<[<}|11|23_4-=-=-@",
" 5=-=5678888888889 0=5=-=@",
" =-=-=abbbbbbbbbbc_d-=-=-@",
" -=5=-efffggfffffh_i=-=5=@",
" =-=-=j<<[<}|11|23_k-=-=-@",
" =-=-=lmmmmmmmmmmn_o-=-=-@",
" -5-5-pbbbbbbbbbbc_05-5-5@",
" -5-5-qrrrrrrrrrrs_d5-5-5@",
" -5-5-t__________u i5-5-5@",
" =-=-=v@wxxwxwxwxxwx-=-=-@",
" =-=---=-=---=-=-=---=-=-@",
" ========================@",
" yzyzyzyzyzyzyzyzyzyzyzyz@",
" ABCAAAABCAAAAAABCAAAABCA@",
" DEFDDDDEFDDDDDDEFDDDDEFD@",
"                          "};
