/* XPM */
static char * maximize_activedown_xpm[] = {
<<<<<<< HEAD
"12 12 8 1",
" 	c None",
".	c #233551",
"+	c #4F5D6C",
"@	c #6A747C",
"#	c #9AA9B8",
"$	c #7A8895",
"%	c #51667C",
"&	c #8E9BA6",
"............",
".+@+@+@+@+@#",
".$%$%$%$%$%#",
".%$%$%$%$%$#",
".$%$%$%$%$%#",
".%$%$%$%$%$#",
".$%$%$%$%$%#",
".%$%$%$%$%$#",
".$%$%$%$%$%#",
".%$%$%$%$%$#",
".&%&%&%&%&%#",
".###########"};
=======
"24 24 14 1",
" 	c None",
".	c #7993B5",
"+	c #4775A6",
"@	c #6785AB",
"#	c #4F7AAB",
"$	c #507BAD",
"%	c #233551",
"&	c #41628E",
"*	c #4F79AA",
"=	c #9AA9B8",
"-	c #597088",
";	c #8695A3",
">	c #4A6E9F",
",	c #41618E",
".+.+.+.+.+.+.+.+.+.+.+.+",
"+@+@+@+@+@+@+@+@+@+@+@+@",
"#+#+#+#+#+#+#+#+#+#+#+#+",
"##+#+###+#+###+#+###+#+#",
"+$#+$#+$#+$#+$#+$#+$#+$#",
"#####%%%%%%%%%%%&$#####$",
"*#+#*%=========%=#*#+#*#",
"#*###%=-;-;-;-;%=$#*###$",
"*#*$*%=;-;-;-;-%=#*#*$*#",
"#$###%=-;-;-;-;%=*#$###*",
"*#*#*%=;-;-;-;-%=#*#*#*#",
"$*#*$%=-;-;-;-;%=#$*#*$#",
"*#*#*%=;-;-;-;-%=#*#*#*#",
"#*$*#%=-;-;-;-;%=*#*$*#*",
"*#*$*%=;-;-;-;-%=#*#*$*#",
"**#*#%=%%%%%%%%%=***#*#*",
"*#*#*%===========$*#*#*$",
"************************",
"*#*#*#*#*#*#*#*#*#*#*#*#",
"************************",
">***>#**>**#>***>#**>**#",
"*>*>*>*>*>*>*>*>*>*>*>*>",
",&,&,&,&,&,&,,,&,&,&,&,,",
"%%%%%%%%%%%%%%%%%%%%%%%%"};
>>>>>>> 6dcde17a2ee2302b13d93d738f51d3d480b3d812
