/* XPM */
static char * maximize_activeup_xpm[] = {
"26 26 79 1",
" 	c None",
".	c #9AA9B8",
"+	c #6688AF",
"@	c #6688AE",
"#	c #6788AE",
"$	c #5D82AC",
"%	c #5E82AC",
"&	c #5D82AD",
"*	c #547DAB",
"=	c #547CAB",
"-	c #4F79AA",
";	c #4F7AAB",
">	c #507BAD",
",	c #233551",
"'	c #253856",
")	c #293F5D",
"!	c #2D4565",
"~	c #57789D",
"{	c #E5E6E6",
"]	c #F0F0F0",
"^	c #EEEFEE",
"/	c #EBEBEB",
"(	c #E9E8E9",
"_	c #E3E2E2",
":	c #E0E0E0",
"<	c #DDDDDD",
"[	c #DADADA",
"}	c #D7D7D8",
"|	c #444444",
"1	c #6381A4",
"2	c #C4C4C4",
"3	c #6683A6",
"4	c #243753",
"5	c #8D8D8D",
"6	c #666666",
"7	c #6884A7",
"8	c #273C5A",
"9	c #6A86A8",
"0	c #2B415F",
"a	c #D2D3D2",
"b	c #6D88A9",
"c	c #2D4566",
"d	c #CDCCCC",
"e	c #BBBBBB",
"f	c #6F8AAB",
"g	c #304A6D",
"h	c #C7C7C6",
"i	c #ACADAC",
"j	c #ADADAC",
"k	c #ACADAD",
"l	c #ACACAD",
"m	c #ADACAC",
"n	c #ACACAC",
"o	c #728CAB",
"p	c #334F73",
"q	c #C1C1C0",
"r	c #9E9E9E",
"s	c #9F9E9E",
"t	c #9E9F9E",
"u	c #748EAD",
"v	c #365479",
"w	c #BBBBBA",
"x	c #8F908F",
"y	c #8F9090",
"z	c #90908F",
"A	c #909090",
"B	c #7790AF",
"C	c #3A597F",
"D	c #676767",
"E	c #7992B1",
"F	c #476C99",
"G	c #7B93B1",
"H	c #4F77A8",
"I	c #4E78A8",
"J	c #4E77A8",
"K	c #4B72A1",
"L	c #4A72A1",
"M	c #476D9A",
"N	c #486C9A",
"..........................",
"++@#++++@#++++++@#++++@#++",
"$$%&$$$$%&$$$$$$%&$$$$%&$$",
"*=*=*=*=*=*=*=*=*=*=*=*=*=",
"--------------------------",
";-;-;;;-;-;;;-;-;-;;;-;-;;",
";-;-;-;-;-;-;-;-;-;-;-;-;-",
">;>;>;,,,,,,,,,,')!~>;>;>;",
">;>;>;,{]^/({_:<[}|1>;>;>;",
">;>;>;,}2222222222|3>;>;>;",
";-;-;-456666666666,7;-;-;-",
";-;-;-8{]^/({_:<[}|9;-;-;-",
"-;->-;0a2222222222|b-;->-;",
";-;-;-cdeeeeeeeeee|f;-;-;-",
"->-;->ghijiklmmlnk|o->-;->",
";-;-;-pqrrssrrrrrt|u;-;-;-",
"-;---;vwxyzAyAAxAz|B-;---;",
";-;-;-CD|||||||||||E;-;-;-",
"------FGGGGGGGGGGGGG------",
"--------------------------",
";-;-;-;-;-;-;-;-;-;-;-;-;-",
"--------------------------",
"HIHIJHHIHIJHHIHIHIJHHIHIJH",
"KKKKLKKKKKLKKKKKKKLKKKKKLK",
"MMMMNMMMMMNMMMMMMMNMMMMMNM",
",,,,,,,,,,,,,,,,,,,,,,,,,,"};
