/* XPM */
static char * maximize_activeup_xpm[] = {
"26 26 79 1",
" 	c #9AA9B8",
".	c #6688AF",
"+	c #6688AE",
"@	c #6788AE",
"#	c #5D82AC",
"$	c #5E82AC",
"%	c #5D82AD",
"&	c #547DAB",
"*	c #547CAB",
"=	c #4F79AA",
"-	c #4F7AAB",
";	c #507BAD",
">	c #233551",
",	c #253856",
"'	c #293F5D",
")	c #2D4565",
"!	c #314A6D",
"~	c #345075",
"{	c #38577C",
"]	c #5E748B",
"^	c #FFFFFF",
"/	c #F0EFEF",
"(	c #ECECEC",
"_	c #EAEAEA",
":	c #E7E7E7",
"<	c #E5E4E5",
"[	c #E2E2E2",
"}	c #DEDFDF",
"|	c #DCDCDC",
"1	c #D9D9DA",
"2	c #D7D7D7",
"3	c #444444",
"4	c #73879B",
"5	c #D8D9D8",
"6	c #BBBBBB",
"7	c #778A9E",
"8	c #243753",
"9	c #7B8DA2",
"0	c #273C5A",
"a	c #7F91A4",
"b	c #2B415F",
"c	c #D2D3D2",
"d	c #C4C4C4",
"e	c #8395A7",
"f	c #2D4566",
"g	c #CDCCCC",
"h	c #8798AA",
"i	c #304A6D",
"j	c #C7C7C6",
"k	c #ACADAC",
"l	c #ADADAC",
"m	c #ACADAD",
"n	c #ACACAD",
"o	c #ADACAC",
"p	c #ACACAC",
"q	c #8B9CAC",
"r	c #334F73",
"s	c #C1C1C0",
"t	c #9E9E9E",
"u	c #9F9E9E",
"v	c #9E9F9E",
"w	c #365479",
"x	c #BBBBBA",
"y	c #8F908F",
"z	c #8F9090",
"A	c #90908F",
"B	c #909090",
"C	c #3A597F",
"D	c #656564",
"E	c #3D5D85",
"F	c #8B9CAD",
"G	c #8799AB",
"H	c #4F77A8",
"I	c #4E78A8",
"J	c #4E77A8",
"K	c #4B72A1",
"L	c #4A72A1",
"M	c #476D9A",
"N	c #486C9A",
"                          ",
"..+@....+@......+@....+@..",
"##$%####$%######$%####$%##",
"&*&*&*&*&*&*&*&*&*&*&*&*&*",
"==========================",
"-=-=---=-=---=-=-=---=-=--",
"-=-=-=-=-=-=-=-=-=-=-=-=-=",
";-;-;->>>>>>>,')!~{];-;-;-",
";-;-;->^/(_:<[}|1234;-;-;-",
";-;-;->5666666666637;-;-;-",
"-=-=-=833333333333>9-=-=-=",
"-=-=-=0555555555553a-=-=-=",
"=-=;=-bcdddddddddd3e=-=;=-",
"-=-=-=fg66666666663h-=-=-=",
"=;=-=;ijklkmnoonpm3q=;=-=;",
"-=-=-=rsttuutttttv39-=-=-=",
"=-===-wxyzABzBByBA3a=-===-",
"-=-=-=CD3333333333>e-=-=-=",
"======E FGGFGFGFGGFG======",
"==========================",
"-=-=-=-=-=-=-=-=-=-=-=-=-=",
"==========================",
"HIHIJHHIHIJHHIHIHIJHHIHIJH",
"KKKKLKKKKKLKKKKKKKLKKKKKLK",
"MMMMNMMMMMNMMMMMMMNMMMMMNM",
">>>>>>>>>>>>>>>>>>>>>>>>>>"};
