/* XPM */
static char * maximize_activeup_xpm[] = {
"24 24 18 1",
" 	c None",
".	c #7993B5",
"+	c #4775A6",
"@	c #6785AB",
"#	c #4F7AAB",
"$	c #507BAD",
"%	c #233551",
"&	c #41628E",
"*	c #4F79AA",
"=	c #D6D6D6",
"-	c #444444",
";	c #9AA9B8",
">	c #AEAAAE",
",	c #C4C4C4",
"'	c #9E9A9E",
")	c #8C8C8C",
"!	c #4A6E9F",
"~	c #41618E",
".+.+.+.+.+.+.+.+.+.+.+.+",
"+@+@+@+@+@+@+@+@+@+@+@+@",
"#+#+#+#+#+#+#+#+#+#+#+#+",
"##+#+###+#+###+#+###+#+#",
"+$#+$#+$#+$#+$#+$#+$#+$#",
"#####%%%%%%%%%%%%&#####$",
"*#+#*%==========-;*#+#*#",
"#*###%=>,>,>,>,>-;#*###$",
"*#*$*%=>>>>>>>>>-;*#*$*#",
"#$###%=>>>>>>>>>-;#$###*",
"*#*#*%=>>>>>>>>>-;*#*#*#",
"$*#*$%='>>>'>>>'-;$*#*$#",
"*#*#*%=>'>'>'>'>-;*#*#*#",
"#*$*#%='>'>'>'>'-;#*$*#*",
"*#*$*%=)')')')')-;*#*$*#",
"**#*#%)----------;**#*#*",
"*#*#*%;;;;;;;;;;;;*#*#*$",
"************************",
"*#*#*#*#*#*#*#*#*#*#*#*#",
"************************",
"!***!#**!**#!***!#**!**#",
"*!*!*!*!*!*!*!*!*!*!*!*!",
"~&~&~&~&~&~&~~~&~&~&~&~~",
"%%%%%%%%%%%%%%%%%%%%%%%%"};
