/* XPM */
static char * maximize_activeup_xpm[] = {
"26 26 139 2",
"  	c #5A5A5A",
". 	c #F0F0F0",
"+ 	c #E6E6E6",
"@ 	c #575757",
"# 	c #C3C3C3",
"$ 	c #C3C3C2",
"% 	c #545454",
"& 	c #EFEFEF",
"* 	c #C1C2C2",
"= 	c #C2C2C2",
"- 	c #C2C1C2",
"; 	c #505050",
"> 	c #EEEEEE",
", 	c #C1C1C1",
"' 	c #C1C0C1",
") 	c #C1C0C0",
"! 	c #EDEDED",
"~ 	c #C0BFC0",
"{ 	c #C0C0C0",
"] 	c #BFBFC0",
"^ 	c #C0C0BF",
"/ 	c #ECECEC",
"( 	c #BFBFBF",
"_ 	c #BFBEBF",
": 	c #BEBEBF",
"< 	c #BFBFBE",
"[ 	c #EBEBEB",
"} 	c #BDBDBD",
"| 	c #BDBEBE",
"1 	c #BDBEBD",
"2 	c #BEBDBE",
"3 	c #EAEAEA",
"4 	c #BCBCBC",
"5 	c #BCBDBD",
"6 	c #BCBDBC",
"7 	c #BDBCBC",
"8 	c #353535",
"9 	c #393939",
"0 	c #404040",
"a 	c #474747",
"b 	c #D6D6D6",
"c 	c #E9E9E9",
"d 	c #BBBCBB",
"e 	c #BCBBBB",
"f 	c #BBBBBB",
"g 	c #484848",
"h 	c #E8E8E8",
"i 	c #BABABA",
"j 	c #BABABB",
"k 	c #D7D7D7",
"l 	c #D5D5D6",
"m 	c #D3D3D3",
"n 	c #D1D1D0",
"o 	c #CFCFCF",
"p 	c #CDCCCC",
"q 	c #CACACA",
"r 	c #C8C8C7",
"s 	c #C7C5C6",
"t 	c #C4C3C3",
"u 	c #E7E7E7",
"v 	c #B9B9B9",
"w 	c #4C4C4C",
"x 	c #565656",
"y 	c #4F4F4F",
"z 	c #B8B8B8",
"A 	c #3D3D3D",
"B 	c #E4E4E4",
"C 	c #B7B7B7",
"D 	c #B6B7B7",
"E 	c #424242",
"F 	c #E4E3E4",
"G 	c #B6B6B6",
"H 	c #B6B5B6",
"I 	c #DEDEDE",
"J 	c #D0D0D0",
"K 	c #CDCDCD",
"L 	c #CCCCCC",
"M 	c #CAC9CA",
"N 	c #C9C8C8",
"O 	c #C5C5C4",
"P 	c #B6B6B5",
"Q 	c #E2E2E2",
"R 	c #B5B5B4",
"S 	c #B5B5B5",
"T 	c #B5B4B4",
"U 	c #D7D6D7",
"V 	c #C9C9CA",
"W 	c #C8C8C9",
"X 	c #C9C9C8",
"Y 	c #C7C8C7",
"Z 	c #C7C7C7",
"` 	c #C6C6C6",
" .	c #C5C5C5",
"..	c #C4C5C4",
"+.	c #C4C4C4",
"@.	c #B4B4B4",
"#.	c #B4B3B3",
"$.	c #B4B3B4",
"%.	c #525252",
"&.	c #CFCECE",
"*.	c #E0E0E0",
"=.	c #B2B2B2",
"-.	c #B3B2B3",
";.	c #B2B2B3",
">.	c #B3B2B2",
",.	c #585858",
"'.	c #B2B3B3",
").	c #DFDFDF",
"!.	c #B2B1B2",
"~.	c #B2B1B1",
"{.	c #B1B1B1",
"].	c #B2B2B1",
"^.	c #5D5D5D",
"/.	c #B0B1B1",
"(.	c #B1B0B1",
"_.	c #B0B0B1",
":.	c #DDDDDD",
"<.	c #AFAFB0",
"[.	c #AFB0B0",
"}.	c #B0AFAF",
"|.	c #AFB0AF",
"1.	c #AFAFAF",
"2.	c #DCDCDC",
"3.	c #AEAEAE",
"4.	c #AEAFAF",
"5.	c #AEAFAE",
"6.	c #DBDBDB",
"7.	c #ADADAD",
"8.	c #AEADAD",
"9.	c #DADADA",
"0.	c #ACACAC",
"a.	c #ACADAC",
"b.	c #D9D9D9",
"c.	c #ABABAB",
"d.	c #D8D8D8",
"e.	c #9C9C9C",
"f.	c #414141",
"g.	c #4D4D4D",
"h.	c #464646",
"  . + + + + + + + + + + + + + + + + + + + + + + + + ",
"@ . # # $ $ # # # $ # # # $ # # $ # # # $ $ # # # # ",
"% & * = - = = * = = = * = = = * = = * = - = = * * = ",
"; > , , ' , ) , , , ) , , , ) , , ) , , ' , ) , , , ",
"; ! ~ { ] ^ { ~ { ^ { ~ { ^ { ~ ^ { ~ { ] ^ { ~ ~ { ",
"; / ( _ : : < ( _ : < ( _ : < ( : < ( _ : : < ( ( _ ",
"; [ } | 1 1 1 2 } | 1 2 } | 1 2 } 1 2 } | 1 2 } } | ",
"; 3 4 5 6 6 7 8 8 8 8 8 8 8 8 8 8 9 0 a b 6 6 4 4 5 ",
"; c d d e e f 8 > > > / / [ + + + + + g + e f d d d ",
"; h i j j j i 8 + k l m n o p q r s t g [ j j i i j ",
"; u v v v v v w @ @ @ @ x @ x x x x x y + v v v v v ",
"; + z z z z z A > > > / / [ + + + + + g [ z z z z z ",
"; B C C C C D E + k l m n o p q r s t g + C C C C C ",
"; F G G G G H a I J o K p L M N r s O g [ G P G G G ",
"; Q R S T T S w U V W X Y Z `  . ...+.g ! T S R R S ",
"; Q @.#.#.#.$.%.&.= = = = = = = = = = g + #.#.@.@.#.",
"; *.=.-.;.;.>.,.p ( ( ( ( ( ( ( ( ( ( g + ;.'.=.=.-.",
"; ).!.~.{.{.].^.g g g g g g g g g g g g [ {.~.!.!.~.",
"; I /.{.{.{.(.b + [ + [ + ! + [ + [ + [ + {._././.{.",
"; :.<.[.}.}.|.1.<.[.|.1.<.[.|.1.<.|.1.<.[.}.1.<.<.[.",
"; 2.3.4.5.5.3.3.4.5.3.3.4.5.3.3.5.3.3.4.5.5.3.3.3.4.",
"; 6.7.7.8.7.7.7.7.7.7.7.7.7.7.7.7.7.7.7.8.7.7.7.7.7.",
"; 9.0.0.a.0.0.0.0.0.0.0.0.0.0.0.0.0.0.0.a.0.0.0.0.0.",
"; b.c.c.c.c.c.c.c.c.c.c.c.c.c.c.c.c.c.c.c.c.c.c.c.c.",
"; d.e.e.e.e.e.e.e.e.e.e.e.e.e.e.e.e.e.e.e.e.e.e.e.e.",
"f.g.h.h.h.h.h.h.h.h.h.h.h.h.h.h.h.h.h.h.h.h.h.h.h.h."};
