/* XPM */
static char * maximize_activedown2_xpm[] = {
"26 26 64 1",
" 	c #233551",
".	c #39577E",
"+	c #35557E",
"@	c #35547E",
"#	c #355175",
"$	c #3F6490",
"%	c #314A6C",
"&	c #426997",
"*	c #436997",
"=	c #2C4363",
"-	c #436A99",
";	c #436B9A",
">	c #253856",
",	c #293F5D",
"'	c #2D4565",
")	c #57789D",
"!	c #90908F",
"~	c #444444",
"{	c #6381A4",
"]	c #C4C4C4",
"^	c #6683A6",
"/	c #446C9C",
"(	c #243753",
"_	c #6884A7",
":	c #273C5A",
"<	c #AFAFAF",
"[	c #6A86A8",
"}	c #2B415F",
"|	c #9E9E9E",
"1	c #9F9E9E",
"2	c #8D8E8D",
"3	c #6D88A9",
"4	c #2D4566",
"5	c #ACADAC",
"6	c #ADADAC",
"7	c #ACADAD",
"8	c #ACACAD",
"9	c #ADACAC",
"0	c #ACACAC",
"a	c #9A9B9B",
"b	c #6F8AAB",
"c	c #304A6D",
"d	c #BBBBBB",
"e	c #A7A7A7",
"f	c #728CAB",
"g	c #334F73",
"h	c #748EAD",
"i	c #365479",
"j	c #D8D9D8",
"k	c #C1C2C1",
"l	c #7790AF",
"m	c #3A597F",
"n	c #3D3D3D",
"o	c #7992B1",
"p	c #476C99",
"q	c #7B93B1",
"r	c #476D9A",
"s	c #476E9A",
"t	c #50739B",
"u	c #51739B",
"v	c #50739C",
"w	c #58799E",
"x	c #58799D",
"y	c #59799D",
"                         .",
" +@+@+@+@+@+@+@@@+@+@+@++#",
" $$$$$$$$$$$$$$$$$$$$$$$$%",
" &*&*&*&*&*&&*&&*&*&*&&*&=",
" ------------------------=",
" -;-;-;-;-;--;--;-;-;--;-=",
" ------------------------=",
" ------------------------=",
" -;-;-;          >,')--;-=",
" ;-;-;- !!!!!!!!!!!~{;;--=",
" -;-;-; ]]]]]]]]]]]~^--;-=",
" /-/-/-(~~~~~~~~~~~~_//-;=",
" -;-;-;:]]]]]]]]]]<~[--;-=",
" ;-;-;-}|||11|||||2~3;;-/=",
" -;-;-;45565789980a~b--;-=",
" -;-;-;cdddddddddde~f--;-=",
" ;/;/;/g]]]]]]]]]]<~h;;/;=",
" ;/;/;/ijjjjjjjjjjk~l;;/;=",
" ;/;/;/m~~~~~~~~~~n o;;/;=",
" -;-;-;pqqqqqqqqqqqqq--;-=",
" -;-;-;;-;-;;-;-;-;-;--;-=",
" ------------------------=",
" rsrsrssrsrssrsrsrsrsrrsr=",
" tutuvtutuvtutuvutuvttuvv=",
" wxwxywxwxywxwxyxwxywwxyy=",
"                          "};
