/* XPM */
static char * maximize_inactive_xpm[] = {
"24 24 14 1",
" 	c None",
".	c #C3C3C3",
"+	c #BBBBBB",
"@	c #ABABAB",
"#	c #484848",
"$	c #A2A2A2",
"%	c #696969",
"&	c #FFFFFF",
"*	c #737373",
"=	c #747474",
"-	c #797979",
";	c #787878",
">	c #777777",
",	c #757575",
"........................",
"........................",
"+.+.+.+.+.+.+.+.+.+.+.+.",
"++++++++++++++++++++++++",
"@.++.+@.++.+@.++.+@.++.+",
"+++++############.+++++.",
"@+@+@#$%$%$%$%$%&+@+@+@+",
"+@+++#%$*$*$*$*$&.+@+++.",
"@+@.@#$*$*$*$*$*&+@+@.@+",
"+.+++#%$*$*$*$*$&@+.+++@",
"@+@+@#$*$*$*$*$*&+@+@+@+",
".@+@.#%$*$*$*$*$&+.@+@.+",
"@+@+@#$*$*$*$*$*&+@+@+@+",
"+@.@+#%$*$*$*$*$&@+@.@+@",
"@+@.@#$*$*$*$*$*&+@+@.@+",
"@@+@+#%$*$*$*$*$&@@@+@+@",
"@+@+@#&&&&&&&&&&&.@+@+@.",
"@@@@@@@@@@@@@@@@@@@@@@@@",
"@+@+@+@+@+@+@+@+@+@+@+@+",
"@@@@@@@@@@@@@@@@@@@@@@@@",
"@@@@@+@@@@@+@@@@@+@@@@@+",
"@@@@@@@@@@@@@@@@@@@@@@@@",
"=-=;*;=-=;*;>,=-=;*-=;>,",
"########################"};
