/* XPM */
static char * menu_inactive_xpm[] = {
"14 6 12 1",
" 	c None",
".	c #656565",
"+	c #696969",
"@	c #6C6C6C",
"#	c #8B8B8B",
"$	c #A7A7A7",
"%	c #979797",
"&	c #939393",
"*	c #E6E6E6",
"=	c #EBEBEB",
"-	c #ABABAB",
";	c #EDEDED",
".+.+.@.+.+.@.+",
"+#$%$&$#$%$&$*",
".$#$#$#$#$#$#=",
"@&-#$#-&-#$#-=",
".$#$#$#$#$#$#=",
"+*=*;*=*=*;*=*"};
