/* XPM */
static char * menu_activedown_xpm[] = {
"24 24 16 1",
" 	c None",
".	c #8695A3",
"+	c #567390",
"@	c #788793",
"#	c #607A94",
"$	c #617B95",
"%	c #5F7892",
"&	c #272D33",
"*	c #4C5E72",
"=	c #405367",
"-	c #49617A",
";	c #597088",
">	c #A5B0BA",
",	c #597189",
"'	c #597188",
")	c #2B3743",
".+.+.+.+.+.+.+.+.+.+.+.+",
"+@+@+@+@+@+@+@+@+@+@+@+@",
"#+#+#+#+#+#+#+#+#+#+#+#+",
"##+#+###+#+###+#+###+#+#",
"+$#+$#+$#+$#+$#+$#+$#+$#",
"#####$#####$#####$#####$",
"%#+#%#%#+#%#%#+#%#%#+#%#",
"#%###$#%###$#%###$#%###$",
"%#%$&&&&&&&&&&&&&&%#%$%#",
"#$##&*=*=*=*=*=*=&#$###%",
"%#%#&-;-;-;-;-;-;>%#%#%#",
"$%#%&;-;-;-;-;-;->$%#%$#",
"%#%#&.;.;.;.;.;.;>%#%#%#",
"#%$%&>>>>>>>>>>>>>#%$%#%",
"%#%$%#%#%$%#%#%$%#%#%$%#",
"%%#%#%%%#%#%%%#%#%%%#%#%",
"%#%#%$%#%#%$%#%#%$%#%#%$",
"%%%%%%%%%%%%%%%%%%%%%%%%",
"%#%#%#%#%#%#%#%#%#%#%#%#",
"%%%%%%%%%%%%%%%%%%%%%%%%",
";%%%;#%%;%%#;%%%;#%%;%%#",
"%;%;%;%;%;%;%;%;%;%;%;%;",
";,;';';,;';';;;,;';,;';;",
"))))))))))))))))))))))))"};
