/* XPM */
static char * menu_activeup_xpm[] = {
"24 24 13 1",
" 	c None",
".	c #8695A3",
"+	c #567390",
"@	c #788793",
"#	c #607A94",
"$	c #617B95",
"%	c #5F7892",
"&	c #272D33",
"*	c #597088",
"=	c #A5B0BA",
"-	c #597189",
";	c #597188",
">	c #2B3743",
".+.+.+.+.+.+.+.+.+.+.+.+",
"+@+@+@+@+@+@+@+@+@+@+@+@",
"#+#+#+#+#+#+#+#+#+#+#+#+",
"##+#+###+#+###+#+###+#+#",
"+$#+$#+$#+$#+$#+$#+$#+$#",
"#####$#####$#####$#####$",
"%#+#%#%#+#%#%#+#%#%#+#%#",
"#%###$#%###$#%###$#%###$",
"%#%$&&&&&&&&&&&&&&%#%$%#",
"#$##&*.*.*.*.*.*.=#$###%",
"%#%#&.*.*.*.*.*.*=%#%#%#",
"$%#%&*.*.*.*.*.*.=$%#%$#",
"%#%#&.*.*.*.*.*.*=%#%#%#",
"#%$%&=============#%$%#%",
"%#%$%#%#%$%#%#%$%#%#%$%#",
"%%#%#%%%#%#%%%#%#%%%#%#%",
"%#%#%$%#%#%$%#%#%$%#%#%$",
"%%%%%%%%%%%%%%%%%%%%%%%%",
"%#%#%#%#%#%#%#%#%#%#%#%#",
"%%%%%%%%%%%%%%%%%%%%%%%%",
"*%%%*#%%*%%#*%%%*#%%*%%#",
"%*%*%*%*%*%*%*%*%*%*%*%*",
"*-*;*;*-*;*;***-*;*-*;**",
">>>>>>>>>>>>>>>>>>>>>>>>"};
