/* XPM */
static char * rightend_inactive_xpm[] = {
"1 26 5 1",
" 	c #5A5A5A",
".	c #575757",
"+	c #545454",
"@	c #505050",
"#	c #414141",
" ",
".",
"+",
"@",
"@",
"@",
"@",
"@",
"@",
"@",
"@",
"@",
"@",
"@",
"@",
"@",
"@",
"@",
"@",
"@",
"@",
"@",
"@",
"@",
"@",
"#"};
