/* XPM */
static char * title_activedown_xpm[] = {
"26 26 20 1",
" 	c #334B6B",
".	c #334A6B",
"+	c #3E608B",
"@	c #3D608B",
"#	c #456B99",
"$	c #476F9E",
"%	c #4770A0",
"&	c #476F9F",
"*	c #4870A0",
"=	c #4871A1",
"-	c #4871A2",
";	c #4971A0",
">	c #4F75A1",
",	c #5075A1",
"'	c #597BA2",
")	c #587BA2",
"!	c #597BA3",
"~	c #587BA3",
"{	c #9AA9B8",
"]	c #233551",
" . . . ... . ... . . ... .",
"++++@+++++@+++++++@+++++@+",
"##########################",
"$$$$$$$$$$$$$$$$$$$$$$$$$$",
"%&%&%&%&%&%&%&%&%&%&%&%&%&",
"%&%&%%&%&%%&%&%&%&%&%&%&%&",
"&&&&&&&&&&&&&&&&&&&&&&&&&&",
"%&%&%&%&%&%&%&%&%&%&%&%&%&",
"%%%&%%&%&%%%%%%%%&%%%%%&%%",
"%%%%%&%&%&%%%%%%%%%%%%%%%%",
"%*%%%=&=&%%*%*%*%%%*%*%%%*",
"%=%=%&=&=&%=%=%=%=%=%=%=%=",
"%%%*%%&%&=%%%%%%%*%%%%%*%%",
"%%%%%&%&%&%%%%%%%%%%%%%%%%",
"%&%&%%%%%%%&%&%&%&%&%&%&%&",
"=%=%=%*%*%=%=%=%=%=%=%=%=%",
"-%-%-=====-%-%-%-%-%-%-%-%",
"-%-%-=====-%-%-%-%-%-%-%-%",
"=%=%==%=%==%=%=%=%=%=%=%=%",
"%&%&%%%%%%%%%&%&%&%%%&%&%%",
"%&%&%%&%&%%&%&%&%&%&%&%&%&",
";;;;;;;;;;;;;;;;;;;;;;;;;;",
">>,>>>>>,>>>>>>>,>>>>>,>>>",
"')'!)')'~'')'~')'''~')'!')",
"{{{{{{{{{{{{{{{{{{{{{{{{{{",
"]]]]]]]]]]]]]]]]]]]]]]]]]]"};
