/* XPM */
static char * title_xpm[] = {
"24 24 11 1",
" 	c None",
".	c #C3C3C3",
"+	c #BBBBBB",
"@	c #ABABAB",
"#	c #747474",
"$	c #797979",
"%	c #787878",
"&	c #737373",
"*	c #777777",
"=	c #757575",
"-	c #484848",
"........................",
"........................",
"+.+.+.+.+.+.+.+.+.+.+.+.",
"++++++++++++++++++++++++",
"@.++.+@.++.+@.++.+@.++.+",
"+++++.+++++.+++++.+++++.",
"@+@+@+@+@+@+@+@+@+@+@+@+",
"+@+++.+@+++.+@+++.+@+++.",
"@+@.@+@+@.@+@+@.@+@+@.@+",
"+.+++@+.+++@+.+++@+.+++@",
"@+@+@+@+@+@+@+@+@+@+@+@+",
".@+@.+.@+@.+.@+@.+.@+@.+",
"@+@+@+@+@+@+@+@+@+@+@+@+",
"+@.@+@+@.@+@+@.@+@+@.@+@",
"@+@.@+@+@.@+@+@.@+@+@.@+",
"@@+@+@@@+@+@@@+@+@@@+@+@",
"@+@+@.@+@+@.@+@+@.@+@+@.",
"@@@@@@@@@@@@@@@@@@@@@@@@",
"@+@+@+@+@+@+@+@+@+@+@+@+",
"@@@@@@@@@@@@@@@@@@@@@@@@",
"@@@@@+@@@@@+@@@@@+@@@@@+",
"@@@@@@@@@@@@@@@@@@@@@@@@",
"#$#%&%#$#%&%*=#$#%&$#%*=",
"------------------------"};
