/* XPM */
static char * title_active_xpm[] = {
"26 26 20 1",
" 	c #9AA9B8",
".	c #6688AF",
"+	c #6688AE",
"@	c #6788AE",
"#	c #5D82AC",
"$	c #5E82AC",
"%	c #5D82AD",
"&	c #547DAB",
"*	c #547CAB",
"=	c #4F79AA",
"-	c #4F7AAB",
";	c #507BAD",
">	c #4F77A8",
",	c #4E78A8",
"'	c #4E77A8",
")	c #4B72A1",
"!	c #4A72A1",
"~	c #47678E",
"{	c #47668E",
"]	c #233551",
"                          ",
"..+@....+@......+@....+@..",
"##$%####$%######$%####$%##",
"&*&*&*&*&*&*&*&*&*&*&*&*&*",
"==========================",
"-=-=---=-=---=-=-=---=-=--",
"-=-=-=-=-=-=-=-=-=-=-=-=-=",
";-;-;-;-;-;-;-;-;-;-;-;-;-",
";-;-;-;-;-;-;-;-;-;-;-;-;-",
";-;-;-;-;-;-;-;-;-;-;-;-;-",
"-=-=-=-=-=-=-=-=-=-=-=-=-=",
"-=-=-=-=-=-=-=-=-=-=-=-=-=",
"=-=;=-=-=;=-=-=-=;=-=-=;=-",
"-=-=-=-=-=-=-=-=-=-=-=-=-=",
"=;=-=;=;=-=;=;=;=-=;=;=-=;",
"-=-=-=-=-=-=-=-=-=-=-=-=-=",
"=-===-=-===-=-=-===-=-===-",
"-=-=-=-=-=-=-=-=-=-=-=-=-=",
"==========================",
"==========================",
"-=-=-=-=-=-=-=-=-=-=-=-=-=",
"==========================",
">,>,'>>,>,'>>,>,>,'>>,>,'>",
"))))!)))))!)))))))!)))))!)",
"~{~{~{~{{{~{~{{{~{~{~{{{~{",
"]]]]]]]]]]]]]]]]]]]]]]]]]]"};
