/* XPM */
static char * title_active_xpm[] = {
"24 24 11 1",
" 	c None",
".	c #7993B5",
"+	c #4775A6",
"@	c #6785AB",
"#	c #4F7AAB",
"$	c #507BAD",
"%	c #4F79AA",
"&	c #4A6E9F",
"*	c #41618E",
"=	c #41628E",
"-	c #233551",
".+.+.+.+.+.+.+.+.+.+.+.+",
"+@+@+@+@+@+@+@+@+@+@+@+@",
"#+#+#+#+#+#+#+#+#+#+#+#+",
"##+#+###+#+###+#+###+#+#",
"+$#+$#+$#+$#+$#+$#+$#+$#",
"#####$#####$#####$#####$",
"%#+#%#%#+#%#%#+#%#%#+#%#",
"#%###$#%###$#%###$#%###$",
"%#%$%#%#%$%#%#%$%#%#%$%#",
"#$###%#$###%#$###%#$###%",
"%#%#%#%#%#%#%#%#%#%#%#%#",
"$%#%$#$%#%$#$%#%$#$%#%$#",
"%#%#%#%#%#%#%#%#%#%#%#%#",
"#%$%#%#%$%#%#%$%#%#%$%#%",
"%#%$%#%#%$%#%#%$%#%#%$%#",
"%%#%#%%%#%#%%%#%#%%%#%#%",
"%#%#%$%#%#%$%#%#%$%#%#%$",
"%%%%%%%%%%%%%%%%%%%%%%%%",
"%#%#%#%#%#%#%#%#%#%#%#%#",
"%%%%%%%%%%%%%%%%%%%%%%%%",
"&%%%&#%%&%%#&%%%&#%%&%%#",
"%&%&%&%&%&%&%&%&%&%&%&%&",
"*=*=*=*=*=*=***=*=*=*=**",
"------------------------"};
