/* XPM */
static char * title_inactive_xpm[] = {
"26 26 12 1",
" 	c None",
".	c #E6E6E6",
"+	c #C3C3C3",
"@	c #BBBBBB",
"#	c #ABABAB",
"$	c #8F8F8F",
"%	c #8B8B8B",
"&	c #919191",
"*	c #8A8A8A",
"=	c #8E8E8E",
"-	c #8C8C8C",
";	c #656565",
"..........................",
"++++++++++++++++++++++++++",
"@+@+@+@+@+@+@+@+@+@+@+@+@+",
"+@+@+@+@+@+@+@+@+@+@+@+@+@",
"@@@@@@@@@@@@@@@@@@@@@@@@@@",
"#+@@+@#+@@+@#+@@+@#+@@+@#+",
"@@@@@+@@@@@+@@@@@+@@@@@+@@",
"#@#@#@#@#@#@#@#@#@#@#@#@#@",
"@#@@@+@#@@@+@#@@@+@#@@@+@#",
"#@#+#@#@#+#@#@#+#@#@#+#@#@",
"@+@@@#@+@@@#@+@@@#@+@@@#@+",
"#@#@#@#@#@#@#@#@#@#@#@#@#@",
"+#@#+@+#@#+@+#@#+@+#@#+@+#",
"#@#@#@#@#@#@#@#@#@#@#@#@#@",
"@#+#@#@#+#@#@#+#@#@#+#@#@#",
"#@#+#@#@#+#@#@#+#@#@#+#@#@",
"##@#@###@#@###@#@###@#@###",
"#@#@#+#@#@#+#@#@#+#@#@#+#@",
"##########################",
"#@#@#@#@#@#@#@#@#@#@#@#@#@",
"##########################",
"#####@#####@#####@#####@##",
"##########################",
"##########################",
"$%&%$*$=-%&%$%$%&%$*$=-%$%",
";;;;;;;;;;;;;;;;;;;;;;;;;;"};
