/* XPM */
static char * close_activeup_xpm[] = {
"22 22 60 1",
" 	c None",
".	c #B7B7B7",
"+	c #636363",
"@	c #666666",
"#	c #B2B2B2",
"$	c #B8B8B8",
"%	c #595959",
"&	c #6E6E6E",
"*	c #676767",
"=	c #6A6A6A",
"-	c #707070",
";	c #5C5C5C",
">	c #B3B3B3",
",	c #737373",
"'	c #7B7B7B",
")	c #828282",
"!	c #797979",
"~	c #6D6D6D",
"{	c #7C7C7C",
"]	c #868686",
"^	c #818181",
"/	c #767676",
"(	c #FFFEFF",
"_	c #939393",
":	c #8A8A8A",
"<	c #8E8E8E",
"[	c #878787",
"}	c #888888",
"|	c #929292",
"1	c #909090",
"2	c #969696",
"3	c #FFFFFD",
"4	c #FEFEFC",
"5	c #9B9B9B",
"6	c #989898",
"7	c #9A9A9A",
"8	c #9C9C9C",
"9	c #9D9D9D",
"0	c #959595",
"a	c #A0A0A0",
"b	c #A5A5A5",
"c	c #A7A7A7",
"d	c #787878",
"e	c #A6A6A6",
"f	c #ACACAC",
"g	c #B1B1B1",
"h	c #7D7D7D",
"i	c #8D8D8D",
"j	c #9F9F9F",
"k	c #A8A8A8",
"l	c #B0B0B0",
"m	c #999999",
"n	c #CFCFCF",
"o	c #8C8C8C",
"p	c #A1A1A1",
"q	c #A4A4A4",
"r	c #979797",
"s	c #CECECE",
"t	c #D2D2D2",
"u	c #D4D4D4",
"                      ",
"                      ",
"                      ",
"                      ",
"                      ",
"       .+    @#       ",
"      $%&*  =-;>      ",
"      ,')!~&{]^/      ",
"      (_:<[}|123      ",
"       45678893       ",
"        0abcc7        ",
"       d|efggah       ",
"      dijbkflfmh      ",
"      nomp33cqrs      ",
"       t73  3ju       ",
"        (    (        ",
"                      ",
"                      ",
"                      ",
"                      ",
"                      ",
"                      "};
