/* XPM */
static char * maximize_activeup_xpm[] = {
"22 22 30 1",
" 	c None",
".	c #696969",
"+	c #494949",
"@	c #474747",
"#	c #484848",
"$	c #535353",
"%	c #828282",
"&	c #818181",
"*	c #808080",
"=	c #7E7E7E",
"-	c #686868",
";	c #4C4C4C",
">	c #888888",
",	c #868686",
"'	c #858585",
")	c #6E6E6E",
"!	c #7A7A7A",
"~	c #787878",
"{	c #777777",
"]	c #757575",
"^	c #707070",
"/	c #767676",
"(	c #F7F8F9",
"_	c #797979",
":	c #747474",
"<	c #7B7B7B",
"[	c #848484",
"}	c #7F7F7F",
"|	c #838383",
"1	c #FFFFFF",
"                      ",
"                      ",
"                      ",
"                      ",
"     .++@@@@++@@#     ",
"     $%&*=*=%&*=-     ",
"     ;>,'%'%>,'%)     ",
"     $%!~{]^{]^/)     ",
"     $>((((((((_:     ",
"     $%        *<     ",
"     $>        [}     ",
"     $%        [|     ",
"     $%        '|     ",
"     $%        '}     ",
"     ;>,'%'%>,'%)     ",
"     @!~{]{]!~{]^     ",
"     111111111111     ",
"                      ",
"                      ",
"                      ",
"                      ",
"                      "};
