/* XPM */
static char * title_active_xpm[] = {
"17 26 63 1",
" 	c None",
".	c #FFFFFF",
"+	c #FFFFFE",
"@	c #FEFFFE",
"#	c #FEFEFF",
"$	c #FFFEFF",
"%	c #FEFEFE",
"&	c #FEFEFD",
"*	c #FEFDFD",
"=	c #FCFCFE",
"-	c #FDFDFD",
";	c #FEFDFE",
">	c #FDFEFD",
",	c #FDFDFE",
"'	c #FCFCFD",
")	c #FDFCFD",
"!	c #FDFDFC",
"~	c #FCFCFC",
"{	c #FBFBFC",
"]	c #FCFCFB",
"^	c #FCFBFC",
"/	c #FBFBFB",
"(	c #FBFAFB",
"_	c #FCFBFB",
":	c #FAFAFA",
"<	c #FAF9FA",
"[	c #FAF9F9",
"}	c #F9F9F9",
"|	c #F9F7F8",
"1	c #F8F8F8",
"2	c #F8F7F8",
"3	c #F9F8F8",
"4	c #F7F6F7",
"5	c #F7F7F7",
"6	c #F7F7F8",
"7	c #F8F7F7",
"8	c #F8F6F7",
"9	c #F7F5F6",
"0	c #F6F6F6",
"a	c #F5F4F5",
"b	c #F6F5F5",
"c	c #F6F5F6",
"d	c #F5F3F4",
"e	c #F5F4F4",
"f	c #F4F3F4",
"g	c #F5F3F3",
"h	c #F4F2F3",
"i	c #F3F2F3",
"j	c #F3F1F2",
"k	c #F2F0F1",
"l	c #F3F1F1",
"m	c #F2F1F1",
"n	c #F1F0F1",
"o	c #F1F0F0",
"p	c #F0EFF0",
"q	c #F0EFEF",
"r	c #F1EFF0",
"s	c #F0EEEF",
"t	c #F0EEEE",
"u	c #EFEDEE",
"v	c #A3A3A3",
"w	c #A3A3A5",
"x	c #303030",
".................",
"+@@#$++@@#$+@@$$+",
"%&*&%%%%&&%%&*%%%",
"=-**&;=-**>=-**&;",
".................",
"+@%+@%$++@%$+@%$+",
",**,**&;,**&,**&;",
"'-)'-)!-'-)!'-)!-",
"~{]~{]^~~{]^~{]^~",
"/(_/(_((/(_(/(_((",
"::<::<::::<:::<::",
"[}[[}[[[[}[[[}[[[",
"|12|1213|121|1213",
"45645678456745678",
"49449409494049409",
"abcabcbbabcbabcbb",
"daedaeeadaeedaeea",
"fdffdfgdfdfgfdfgd",
"hihhihiihihihihii",
"jkljklmljklmjklml",
"knkknkokknkoknkok",
"ppqppqrqppqrppqrq",
"sssssstsssstsssts",
"uuuuuuuuuuuuuuuuu",
"vvvvvvvwvvvvvvvvw",
"xxxxxxxxxxxxxxxxx"};
