/* XPM */
static char * cli_pressed_xpm[] = {
"40 36 85 1",
" 	c None",
".	c #485354",
"+	c #485254",
"@	c #475355",
"#	c #475254",
"$	c #485355",
"%	c #475354",
"&	c #485255",
"*	c #475255",
"=	c #465153",
"-	c #626C6F",
";	c #475153",
">	c #465051",
",	c #848484",
"'	c #898989",
")	c #D8D8D8",
"!	c #455052",
"~	c #444E50",
"{	c #AA9789",
"]	c #444F51",
"^	c #434D4F",
"/	c #424B4E",
"(	c #434C4E",
"_	c #414A4C",
":	c #40494A",
"<	c #FFFFFF",
"[	c #000000",
"}	c #3F4848",
"|	c #ADADAD",
"1	c #9A9B97",
"2	c #567390",
"3	c #3F4749",
"4	c #3D4647",
"5	c #3C4546",
"6	c #999284",
"7	c #3C4446",
"8	c #3B4344",
"9	c #B6B6B6",
"0	c #3C4345",
"a	c #3A4243",
"b	c #3B4243",
"c	c #3A4142",
"d	c #394042",
"e	c #393F40",
"f	c #393F41",
"g	c #373D3F",
"h	c #373E3E",
"i	c #363C3D",
"j	c #363C3E",
"k	c #353B3C",
"l	c #353B3B",
"m	c #34393A",
"n	c #34393B",
"o	c #333839",
"p	c #999999",
"q	c #323737",
"r	c #88887F",
"s	c #303536",
"t	c #2F3334",
"u	c #B2AEB6",
"v	c #303435",
"w	c #2F3233",
"x	c #2F3333",
"y	c #2D3131",
"z	c #2C2F30",
"A	c #2B2E2F",
"B	c #2A2D2E",
"C	c #292B2C",
"D	c #282A2A",
"E	c #272A2A",
"F	c #262828",
"G	c #888888",
"H	c #272929",
"I	c #262728",
"J	c #262727",
"K	c #252626",
"L	c #232424",
"M	c #232323",
"N	c #222223",
"O	c #212121",
"P	c #222221",
"Q	c #212222",
"R	c #212122",
"S	c #212221",
"T	c #222122",
".+@#.$$%#&.%**@#&@&+*$%&$@+*%@+++.$.@*%*",
"=--------------------------------------;",
">-,',',',',',',',',',',',',',',',',',')!",
"~-{'{'{'{'{'{'{'{'{'{'{'{'{'{'{'{'{'{')]",
"^-,{,{,{,{,{,{,{,{,{,{,{,{,{,{,{,{,{,{)^",
"/-{'{,{'{,{'{,{'{,{'{,{'{,{'{,{'{,{'{,)(",
"_-,{,{,{,{,{,{,{,{,{,{,{,{,{,{,{,{,{,{)_",
":-{,{<<<<<<<<<<<<<<<<<<<<<<<<<<<<<[,{'):",
"}-,{,<|[121212121212121212222<2<22[{,{)3",
"4-{,{<|[112121212121212121212<2<22[,{,)4",
"5-6{6<[[[[[[[[[[[[[[[[[[[[[[[[[[[[[{6{)7",
"8-6,{<[9999999999999999999999999<1[,{,)0",
"a-6{6<[9999999999999999999999999<1[{6{)b",
"c-6,6<[999[999999999999999999999<2[,6,)d",
"e-6{6<[99[[99[199999999999999999<1[{6{)f",
"g-666<[912[991[19999999999999999<2[666)h",
"i-666<[999[991[19999999999999999<1[66{)j",
"k-666<[999[99[199999999999999999<2[666)l",
"m-666<[9991999999999999999999999<1[666)n",
"o-p6p<[9999999999999999999999999<2[6p6)o",
"q-r66<[9999999999999999999999999<1[666)q",
"s-p6p<[9999999999999999999999999<1[6p6)s",
"t-66r<[9999999999999999999u99999<2[6r6)v",
"w-p6p<[9999999999999999999999999<1[6p6)x",
"y-rpr<[9999999999999999999999999<2[prp)y",
"z-p6p<[999999999999999u999999999<1[6p6)z",
"A-rpr<[|||||||||||||||||||||||||<2[prp)A",
"B-prp<[[[[[[[[[[[[[[[[[[[[[[[[[[[[[rp6)B",
"C-rprprprprprprprprprprprprprprprprprp)C",
"D-prprprprprprprprprprprprprprprprprpr)E",
"F-GpGpGpGpGpGpGpGpGpGpGpGpGpGpGpGpGpGp)H",
"I-GrprGrprGrprGrprGrprGrGrprprGrprGrpr)J",
"K-GpGpGpGpGpGpGpGpGpGpGpGpGpGpGpGpGpGp)K",
"L-GrGGGrGGGrGGGrGGGrGGGrGGGrGGGrGGGrGG)L",
"M')))))))))))))))))))))))))))))))))))))N",
"OOPQQRRRSRQRSSSQOSRORSRSOQSOSRRTRSRPOROR"};
