/* XPM */
static char * Mail_pressed_xpm[] = {
"40 36 207 2",
"  	c None",
". 	c #485354",
"+ 	c #485254",
"@ 	c #475355",
"# 	c #475254",
"$ 	c #485355",
"% 	c #475354",
"& 	c #485255",
"* 	c #475255",
"= 	c #465153",
"- 	c #626C6F",
"; 	c #475153",
"> 	c #465051",
", 	c #848484",
"' 	c #898989",
") 	c #000000",
"! 	c #3963A5",
"~ 	c #D8D8D8",
"{ 	c #455052",
"] 	c #444E50",
"^ 	c #AA9789",
"/ 	c #949494",
"( 	c #444F51",
"_ 	c #434D4F",
": 	c #424B4E",
"< 	c #434C4E",
"[ 	c #414A4C",
"} 	c #40494A",
"| 	c #A2A2A2",
"1 	c #7E7E86",
"2 	c #8091A3",
"3 	c #CCCBCC",
"4 	c #9D9FA2",
"5 	c #929292",
"6 	c #979CA2",
"7 	c #151215",
"8 	c #386DA6",
"9 	c #080408",
"0 	c #626062",
"a 	c #8E8D8E",
"b 	c #3D65A4",
"c 	c #151415",
"d 	c #060606",
"e 	c #0E0D0E",
"f 	c #969596",
"g 	c #36363F",
"h 	c #3F4848",
"i 	c #FFFFFF",
"j 	c #677B90",
"k 	c #878787",
"l 	c #818383",
"m 	c #939393",
"n 	c #7A8187",
"o 	c #000011",
"p 	c #8E8A8E",
"q 	c #253C65",
"r 	c #191819",
"s 	c #496CA6",
"t 	c #5C7684",
"u 	c #0B0B0B",
"v 	c #3E66A5",
"w 	c #3B64A4",
"x 	c #3F4749",
"y 	c #3D4647",
"z 	c #848483",
"A 	c #EBEBEB",
"B 	c #808284",
"C 	c #FDFDFD",
"D 	c #747F8A",
"E 	c #FFFAFF",
"F 	c #050205",
"G 	c #5773A2",
"H 	c #0D0D0D",
"I 	c #1D1C1D",
"J 	c #313031",
"K 	c #5873A5",
"L 	c #3C4546",
"M 	c #0D1A27",
"N 	c #FBFBFB",
"O 	c #0E1B29",
"P 	c #585658",
"Q 	c #7181A1",
"R 	c #6C676C",
"S 	c #4E9B52",
"T 	c #867986",
"U 	c #3C4446",
"V 	c #3B4344",
"W 	c #8C8C8C",
"X 	c #F4F4F4",
"Y 	c #768492",
"Z 	c #687D9F",
"` 	c #717986",
" .	c #51A249",
"..	c #4B3740",
"+.	c #5D76A5",
"@.	c #232223",
"#.	c #0F0F0F",
"$.	c #8C8B8C",
"%.	c #3C4345",
"&.	c #3A4243",
"*.	c #999284",
"=.	c #888A8F",
"-.	c #9E9A9E",
";.	c #B6AEB6",
">.	c #C7BAC7",
",.	c #BEB6BE",
"'.	c #A2A6B4",
").	c #181718",
"!.	c #4268A4",
"~.	c #0A0A0A",
"{.	c #5B75A2",
"].	c #3B4243",
"^.	c #3A4142",
"/.	c #5D88B6",
"(.	c #8E8679",
"_.	c #499241",
":.	c #303037",
"<.	c #0D0C0D",
"[.	c #120D0F",
"}.	c #5B75A5",
"|.	c #394042",
"1.	c #393F40",
"2.	c #AEAEB6",
"3.	c #7E8691",
"4.	c #918F91",
"5.	c #D6E1EC",
"6.	c #929192",
"7.	c #A5BDD6",
"8.	c #BEC3CF",
"9.	c #43434D",
"0.	c #5D77A2",
"a.	c #18181B",
"b.	c #183016",
"c.	c #393F41",
"d.	c #373D3F",
"e.	c #C3B1A3",
"f.	c #A6798E",
"g.	c #6A7B86",
"h.	c #EBEBEF",
"i.	c #9D918B",
"j.	c #E0DAC1",
"k.	c #9696AE",
"l.	c #4A9260",
"m.	c #767376",
"n.	c #161516",
"o.	c #101010",
"p.	c #373E3E",
"q.	c #363C3D",
"r.	c #838B99",
"s.	c #6A829C",
"t.	c #9B9782",
"u.	c #607E9E",
"v.	c #797F89",
"w.	c #353435",
"x.	c #050A04",
"y.	c #363C3E",
"z.	c #353B3C",
"A.	c #A9A277",
"B.	c #928B89",
"C.	c #4170A4",
"D.	c #534F53",
"E.	c #353B3B",
"F.	c #34393A",
"G.	c #3F3D3F",
"H.	c #4D2B2B",
"I.	c #34393B",
"J.	c #333839",
"K.	c #EFF3F7",
"L.	c #1E3A59",
"M.	c #656D78",
"N.	c #323737",
"O.	c #A7A4A7",
"P.	c #F7B2AE",
"Q.	c #040204",
"R.	c #326295",
"S.	c #303536",
"T.	c #7B7B7B",
"U.	c #AE9E59",
"V.	c #2F3334",
"W.	c #303435",
"X.	c #2F3233",
"Y.	c #2F3333",
"Z.	c #2D3131",
"`.	c #79869E",
" +	c #2C2F30",
".+	c #2B2E2F",
"++	c #2A2D2E",
"@+	c #292B2C",
"#+	c #282A2A",
"$+	c #999999",
"%+	c #272A2A",
"&+	c #262828",
"*+	c #888888",
"=+	c #272929",
"-+	c #262728",
";+	c #88887F",
">+	c #262727",
",+	c #252626",
"'+	c #232424",
")+	c #232323",
"!+	c #222223",
"~+	c #212121",
"{+	c #222221",
"]+	c #212222",
"^+	c #212122",
"/+	c #212221",
"(+	c #222122",
". + @ # . $ $ % # & . % * * @ # & @ & + * $ % & $ @ + * % @ + + + . $ . @ * % * ",
"= - - - - - - - - - - - - - - - - - - - - - - - - - - - - - - - - - - - - - - ; ",
"> - , ' , ' , ' ) ! ) ! ) ! ) ' , ) ! ) , ' , ' ) ! ) ) ) ) , ' , ' , ' , ' ~ { ",
"] - ^ ' ^ ' ! ) ! ) ! ' / ) ! ' ! ! ! ' ! ! / ' / ) ! ) ! ) ) ' ^ ' ^ ' ^ ' ~ ( ",
"_ - , ^ , ! ) ! ) ! , ^ , ^ , / , ! , ^ , ^ , / , ^ ) ! ) ! ) ) , ^ , ^ , ^ ~ _ ",
": - ^ ' ! ) ! ) ! ! / ' ! ! / ' / , / ' / , / ' ) ! / ) ! ) ! ) ) , ^ ' ^ , ~ < ",
"[ - , ! ) ! ) ! ) ! ! ! ! / , ^ , / , ^ , / , ^ , / ) ! ) ! ) ! ) ) , ^ , ^ ~ [ ",
"} - ^ ) ! ) ! ! ! ! ! | / | 1 2 3 4 5 6 7 8 9 8 0 a b c d e f g ! ) ! , ^ ' ~ } ",
"h - ) ! ) ! ) ! ) ! ! / i i j k l m n o 8 9 9 p 9 q r s t u v w ) ) ) ! , ^ ~ x ",
"y - ! ) ! ! ! ! / z i z i z A B C D o 8 9 9 E 9 p F G H f I J K / ) ) ) ^ , ~ y ",
"L - ) ! ) ! ! / ) i i i i i M N O 9 8 o 9 E E E 9 p P Q R S 8 T ) ! ) ) ! ^ ~ U ",
"V - ! , / | ! W i W i W i W X Y o 8 9 9 E E E E E o Z ` 8 8 E o  ...+.@.#.$.~ %.",
"&.- ) / *./ / ! i i i i i i =.8 -.8 9 E E E ;.E E E 9 8 >.E E ,.8 '.).!.~.{.~ ].",
"^.- ! , ! ! i W i W i W i W /.(.8 9 E E E ;.E ;.E ;.;.E E E E E o _.:.<.[.}.~ |.",
"1.- ) ! / ! ! p 2.3.4.5.6.7.` 8 9 E E E ;.E ;.;.;.E E E E ;.E E 8.8 9.0.a.b.~ c.",
"d.- / ) ! e.i f.p g.h.i.j.k.8 9 E E E ;.E ;.;.E E E E ;.;.E E E E o l.m.n.o.~ p.",
"q.- / / ) / / 8 r.s.t.u.v.8 o E E E ;.;.;.E E E E ;.;.E E ;.;.E E ,.8 f.w.x.~ y.",
"z.- / / ! ) ! ` A.B.C.f.8 9 E E E ;.;.E E E E ;.;.E E ;.;.E E E E E o ` D.o.~ E.",
"F.- / / / / ) 8 8 8 8 8 8 ,.,.;.;.,.;.;.;.;.;.;.;.;.;.;.;.;.;.;.;.;.,.;.G.H.~ I.",
"J.- / / / ) ! o E K.E E E E E E E E E E E E E E E E E E E E E E E E E E L.M.~ J.",
"N.- / / / ! ) 9 E E ;.;.E ;.E ;.E E E E E E E E E E E E E E E O.P.O.E E Q.R.~ N.",
"S.- T./ / ) ! 9 E E ;.E ;.E ;.E E E E E E E E E E E E E E E E (.O.U.E E o U.~ S.",
"V.- / / / ! ) 9 E E E E E E E E E E E E E E E E E E E E E E E 8 P.P.E E 9 8 ~ W.",
"X.- / / T./ ! 9 E E E E E E E E E E E E E E E E E E E E E E E P.P.P.E E o ` ~ Y.",
"Z.- / / / / ! o E E E E E E E E E E E p `.;.;.;.E E E E E E E E E E E E 9 8 ~ Z.",
" +- T./ T./ T.9 E E E E E E E E E E E E E E E E E E E E E E E E E E E E 9 p ~  +",
".+- / / / / / 9 E E E E E E E E E E E p (.;.p ;.;.p ;.;.;.E E E E E E E 9 8 ~ .+",
"++- ! / T.! T.9 E E E E E E E E E E E E E E E E E E E E E E E E E E E E 9 p ~ ++",
"@+- ! ! ! / ! o E E E E E E E E E E E f.`.;.;.p ;.p (.,.E E E E E E E E 9 8 ~ @+",
"#+- $+! ! ! T.9 E E E E E E E E E E E E E E E E E E E E E E E E E E E E 9 f.~ %+",
"&+- *+! ) ! ! 9 E E E E E E E E E E E E E E E E E E E E E E E E E E E E 9 8 ~ =+",
"-+- *+;+! ! ! 9 E E E E E E E E E E E E E E E E E E E E E E E E E E E E 9 ` ~ >+",
",+- *+$+*+! ) p 8 8 9 9 9 9 9 9 9 9 9 9 9 9 9 9 9 9 9 9 9 9 9 9 9 9 9 9 9 8 ~ ,+",
"'+- *+;+*+*+! ` f.p 8 p 8 p 8 p 8 p 8 p 8 p 8 p 8 p 8 p 8 p 8 p 8 p 8 p 8 p ~ '+",
")+' ~ ~ ~ ~ ~ ~ ~ ~ ~ ~ ~ ~ ~ ~ ~ ~ ~ ~ ~ ~ ~ ~ ~ ~ ~ ~ ~ ~ ~ ~ ~ ~ ~ ~ ~ ~ ~ !+",
"~+~+{+]+]+^+^+^+/+^+]+^+/+/+/+]+~+/+^+~+^+/+^+/+~+]+/+~+/+^+^+(+^+/+^+{+~+^+~+^+"};
