/* XPM */
static char * Mail_xpm[] = {
"38 34 139 2",
"  	c None",
". 	c #505050",
"+ 	c #999999",
"@ 	c #848484",
"# 	c #898989",
"$ 	c #000000",
"% 	c #3963A5",
"& 	c #D8D8D8",
"* 	c #AA9789",
"= 	c #949494",
"- 	c #A2A2A2",
"; 	c #7E7E86",
"> 	c #8091A3",
", 	c #CCCBCC",
"' 	c #9D9FA2",
") 	c #929292",
"! 	c #979CA2",
"~ 	c #151215",
"{ 	c #386DA6",
"] 	c #080408",
"^ 	c #626062",
"/ 	c #8E8D8E",
"( 	c #3D65A4",
"_ 	c #151415",
": 	c #060606",
"< 	c #0E0D0E",
"[ 	c #969596",
"} 	c #36363F",
"| 	c #FFFFFF",
"1 	c #677B90",
"2 	c #878787",
"3 	c #818383",
"4 	c #939393",
"5 	c #7A8187",
"6 	c #000011",
"7 	c #8E8A8E",
"8 	c #253C65",
"9 	c #191819",
"0 	c #496CA6",
"a 	c #5C7684",
"b 	c #0B0B0B",
"c 	c #3E66A5",
"d 	c #3B64A4",
"e 	c #848483",
"f 	c #EBEBEB",
"g 	c #808284",
"h 	c #FDFDFD",
"i 	c #747F8A",
"j 	c #FFFAFF",
"k 	c #050205",
"l 	c #5773A2",
"m 	c #0D0D0D",
"n 	c #1D1C1D",
"o 	c #313031",
"p 	c #5873A5",
"q 	c #0D1A27",
"r 	c #FBFBFB",
"s 	c #0E1B29",
"t 	c #585658",
"u 	c #7181A1",
"v 	c #6C676C",
"w 	c #4E9B52",
"x 	c #867986",
"y 	c #8C8C8C",
"z 	c #F4F4F4",
"A 	c #768492",
"B 	c #687D9F",
"C 	c #717986",
"D 	c #51A249",
"E 	c #4B3740",
"F 	c #5D76A5",
"G 	c #232223",
"H 	c #0F0F0F",
"I 	c #8C8B8C",
"J 	c #999284",
"K 	c #888A8F",
"L 	c #9E9A9E",
"M 	c #B6AEB6",
"N 	c #C7BAC7",
"O 	c #BEB6BE",
"P 	c #A2A6B4",
"Q 	c #181718",
"R 	c #4268A4",
"S 	c #0A0A0A",
"T 	c #5B75A2",
"U 	c #5D88B6",
"V 	c #8E8679",
"W 	c #499241",
"X 	c #303037",
"Y 	c #0D0C0D",
"Z 	c #120D0F",
"` 	c #5B75A5",
" .	c #AEAEB6",
"..	c #7E8691",
"+.	c #918F91",
"@.	c #D6E1EC",
"#.	c #929192",
"$.	c #A5BDD6",
"%.	c #BEC3CF",
"&.	c #43434D",
"*.	c #5D77A2",
"=.	c #18181B",
"-.	c #183016",
";.	c #C3B1A3",
">.	c #A6798E",
",.	c #6A7B86",
"'.	c #EBEBEF",
").	c #9D918B",
"!.	c #E0DAC1",
"~.	c #9696AE",
"{.	c #4A9260",
"].	c #767376",
"^.	c #161516",
"/.	c #101010",
"(.	c #838B99",
"_.	c #6A829C",
":.	c #9B9782",
"<.	c #607E9E",
"[.	c #797F89",
"}.	c #353435",
"|.	c #050A04",
"1.	c #A9A277",
"2.	c #928B89",
"3.	c #4170A4",
"4.	c #534F53",
"5.	c #3F3D3F",
"6.	c #4D2B2B",
"7.	c #EFF3F7",
"8.	c #1E3A59",
"9.	c #656D78",
"0.	c #A7A4A7",
"a.	c #F7B2AE",
"b.	c #040204",
"c.	c #326295",
"d.	c #7B7B7B",
"e.	c #AE9E59",
"f.	c #79869E",
"g.	c #888888",
"h.	c #88887F",
". . . . . . . . . . . . . . . . . . . . . . . . . . . . . . . . . . . . . + ",
". @ # @ # @ # $ % $ % $ % $ # @ $ % $ @ # @ # $ % $ $ $ $ @ # @ # @ # @ # & ",
". * # * # % $ % $ % # = $ % # % % % # % % = # = $ % $ % $ $ # * # * # * # & ",
". @ * @ % $ % $ % @ * @ * @ = @ % @ * @ * @ = @ * $ % $ % $ $ @ * @ * @ * & ",
". * # % $ % $ % % = # % % = # = @ = # = @ = # $ % = $ % $ % $ $ @ * # * @ & ",
". @ % $ % $ % $ % % % % = @ * @ = @ * @ = @ * @ = $ % $ % $ % $ $ @ * @ * & ",
". * $ % $ % % % % % - = - ; > , ' ) ! ~ { ] { ^ / ( _ : < [ } % $ % @ * # & ",
". $ % $ % $ % $ % % = | | 1 2 3 4 5 6 { ] ] 7 ] 8 9 0 a b c d $ $ $ % @ * & ",
". % $ % % % % = e | e | e f g h i 6 { ] ] j ] 7 k l m [ n o p = $ $ $ * @ & ",
". $ % $ % % = $ | | | | | q r s ] { 6 ] j j j ] 7 t u v w { x $ % $ $ % * & ",
". % @ = - % y | y | y | y z A 6 { ] ] j j j j j 6 B C { { j 6 D E F G H I & ",
". $ = J = = % | | | | | | K { L { ] j j j M j j j ] { N j j O { P Q R S T & ",
". % @ % % | y | y | y | y U V { ] j j j M j M j M M j j j j j 6 W X Y Z ` & ",
". $ % = % % 7  ...+.@.#.$.C { ] j j j M j M M M j j j j M j j %.{ &.*.=.-.& ",
". = $ % ;.| >.7 ,.'.).!.~.{ ] j j j M j M M j j j j M M j j j j 6 {.].^./.& ",
". = = $ = = { (._.:.<.[.{ 6 j j j M M M j j j j M M j j M M j j O { >.}.|.& ",
". = = % $ % C 1.2.3.>.{ ] j j j M M j j j j M M j j M M j j j j j 6 C 4./.& ",
". = = = = $ { { { { { { O O M M O M M M M M M M M M M M M M M M M O M 5.6.& ",
". = = = $ % 6 j 7.j j j j j j j j j j j j j j j j j j j j j j j j j j 8.9.& ",
". = = = % $ ] j j M M j M j M j j j j j j j j j j j j j j j 0.a.0.j j b.c.& ",
". d.= = $ % ] j j M j M j M j j j j j j j j j j j j j j j j V 0.e.j j 6 e.& ",
". = = = % $ ] j j j j j j j j j j j j j j j j j j j j j j j { a.a.j j ] { & ",
". = = d.= % ] j j j j j j j j j j j j j j j j j j j j j j j a.a.a.j j 6 C & ",
". = = = = % 6 j j j j j j j j j j j 7 f.M M M j j j j j j j j j j j j ] { & ",
". d.= d.= d.] j j j j j j j j j j j j j j j j j j j j j j j j j j j j ] 7 & ",
". = = = = = ] j j j j j j j j j j j 7 V M 7 M M 7 M M M j j j j j j j ] { & ",
". % = d.% d.] j j j j j j j j j j j j j j j j j j j j j j j j j j j j ] 7 & ",
". % % % = % 6 j j j j j j j j j j j >.f.M M 7 M 7 V O j j j j j j j j ] { & ",
". + % % % d.] j j j j j j j j j j j j j j j j j j j j j j j j j j j j ] >.& ",
". g.% $ % % ] j j j j j j j j j j j j j j j j j j j j j j j j j j j j ] { & ",
". g.h.% % % ] j j j j j j j j j j j j j j j j j j j j j j j j j j j j ] C & ",
". g.+ g.% $ 7 { { ] ] ] ] ] ] ] ] ] ] ] ] ] ] ] ] ] ] ] ] ] ] ] ] ] ] ] { & ",
". g.h.g.g.% C >.7 { 7 { 7 { 7 { 7 { 7 { 7 { 7 { 7 { 7 { 7 { 7 { 7 { 7 { 7 & ",
"+ & & & & & & & & & & & & & & & & & & & & & & & & & & & & & & & & & & & & & "};
