/* XPM */
static char * Moviemaker_icon_xpm[] = {
"56 46 14 1",
" 	c None",
".	c #010101",
"+	c #6986BE",
"@	c #9E9A9E",
"#	c #BEBABE",
"$	c #FFFFFF",
"%	c #7992B6",
"&	c #000014",
"*	c #717986",
"=	c #A69EA6",
"-	c #AEAAAE",
";	c #B6AEB6",
">	c #59A2D7",
",	c #5155FF",
"                                                        ",
"                                                        ",
"                                                        ",
"                                                        ",
"                                                        ",
"                                                        ",
"                                                        ",
"       .........................................        ",
"       .........................................        ",
"       ..++@...............................++@..@       ",
"       ..++@..+.+.+.+.+.+.+.#$#$#$#$#$#$@..++@..+       ",
"       ..@@@...+.+.+.+.+.+..$#$#$#$#$#$#$..@@@..+       ",
"       .......+.+.+.+.+.+.+.#$$$#$#$#$#$#.......+       ",
"       ........+.+.+.+.+.....+@#$#$#$#$#$.......+       ",
"       ..++@..+.+.+.+....+++$#+.@$#$#$#$#..++@..+       ",
"       ..++@...+.+.+...@+@++$$$#.@$#$#$#$..++@..+       ",
"       ..@@@..+.+.+...@+@+++$$$$$.@$#$#$#..@@@..+       ",
"       ........+.+...@+@+...+@$$$$.@$#$#$.......+       ",
"       .......+.+.+.@+@+....+++$$$#.#$#$#.......+       ",
"       ..++@...+.+..+@+...++$++@$$$++$$#$..++@..+       ",
"       ..++@..+.+..+@+@+@+@+$+++$$$#.$#$#..++@..+       ",
"       ..@@@...+.+.@+@+@+@++$+.@$$$$.#$#$..@@@..+       ",
"       .......+.+..+@%@+@+....+$$$$$.$#$#.......+       ",
"       ............+&*.+.+.....+.+.+.++++.......+       ",
"       ..++@..+.+..+=+=+@+@+#...####.----..++@..+       ",
"       ..++@...+.+.++=+@+@+++...###@.----..++@..+       ",
"       ..@@@..+.+...@+@...@+@..+###.+----..@@@..+       ",
"       ........+.+..+@+@.......@##@.-----.......+       ",
"       .......+.+.+..+@+@.....++#@.+-----.......+       ",
"       ..++@...+.+.+..+@+@+++@+@+.+------..++@..+       ",
"       ..++@..+.+.+.+..+@+@.@+@+.+-------..++@..+       ",
"       ..@@@...+.+.+.+...++++@..+++------..@@@..+       ",
"       .......+.+.+.+.+.+.....+++%*+;----.......+       ",
"       ........+.+.+.+.+.+..+++++++++----.......+       ",
"       ..++@..+.+.+.+.+.+.+.++%*>*,%++---..++@..+       ",
"       ..++@...+.+.+.+.+.+..+%,>*+%++++-@..++@..+       ",
"       ..@@@....................&&.........@@@..+       ",
"       .........................................+       ",
"       .........................................+       ",
"         ++++++++++++++++++++++++++++++++++++++++       ",
"                                                        ",
"                                                        ",
"                                                        ",
"                                                        ",
"                                                        ",
"                                                        "};
