/* XPM */
static char * SoundEditor_xpm[] = {
"38 34 79 1",
" 	c None",
".	c #505050",
"+	c #999999",
"@	c #848484",
"#	c #898989",
"$	c #E8AF72",
"%	c #FFFFFF",
"&	c #567390",
"*	c #A3A3A3",
"=	c #B6B6B6",
"-	c #A9A9A9",
";	c #9A9A9A",
">	c #888888",
",	c #8B8B8B",
"'	c #8C8B8C",
")	c #D8D8D8",
"!	c #AA9789",
"~	c #A39FA3",
"{	c #9E9B9E",
"]	c #AD9E94",
"^	c #AB9C90",
"/	c #A6A2A6",
"(	c #919091",
"_	c #AC9C91",
":	c #919191",
"<	c #ADA096",
"[	c #8E8D8E",
"}	c #AEA198",
"|	c #AEAAAE",
"1	c #AEA299",
"2	c #979497",
"3	c #B4B2B1",
"4	c #9F9C9F",
"5	c #AB9B8F",
"6	c #8E8C8E",
"7	c #B0A69F",
"8	c #B1A9A3",
"9	c #9C968D",
"0	c #B2ABA7",
"a	c #A9988C",
"b	c #999284",
"c	c #AA988B",
"d	c #ABA7A9",
"e	c #B3B2B1",
"f	c #8D8C8D",
"g	c #AA998C",
"h	c #969496",
"i	c #B3B0AD",
"j	c #898889",
"k	c #A89B95",
"l	c #9E9891",
"m	c #A6A0A3",
"n	c #000000",
"o	c #A4A0A2",
"p	c #A89B94",
"q	c #9A9B97",
"r	c #AD9B8D",
"s	c #B1B1B1",
"t	c #999892",
"u	c #88887F",
"v	c #AA988A",
"w	c #9B9B9B",
"x	c #ABA8AB",
"y	c #8C8D85",
"z	c #969792",
"A	c #999A97",
"B	c #959693",
"C	c #AAA6AA",
"D	c #8B8B83",
"E	c #DEAB74",
"F	c #989994",
"G	c #8E8E8D",
"H	c #999998",
"I	c #CEA477",
"J	c #8D8E8C",
"K	c #91918F",
"L	c #8A8A8A",
"M	c #8B8C8B",
"N	c #898980",
".....................................+",
".@#@#@#@$%&%$@#@#@#@#@*=$-;>,'#@#@#@#)",
".!#!#!#!$%&%$!#!#!#!#!~$%${]#^#!#!#!#)",
".@!@!@!@$%&%$==/!@!@!=$%&%$(_:!@!@!@!)",
".!#!#!#!$%&%%$/=#!#!#=$%&%$<[}#!#!#!@)",
".@!@!@!@$%&%&%$/!@!@!|$%&%$-12345>!@!)",
".!@!@!@!$%&%&%$=@!@!@=$%&%$=/=$=67@!#)",
".@!@!@!@$%&%&%$/!@!@!/$%&%$/=$%$84!@!)",
".!@!@!@!$%&%&%$=@!@!@=$%&%$=$%&%$=@!@)",
".90/abcd$%&%&%$/!b!b!|$%&%$/$%&%%$!b!)",
".e$=fgh=$%&%&%%$/=/=/=$%&%$=$%&%&%$ij)",
".$%$klm$%%&%&%&%$////$%%n%$|$%&%&%$op)",
".%&%$=$%&%&%n%&%$=/=$%&%n%$=$%&%&%$=/)",
".%&%$|$%&%n%n%&%%$/|$%&%n%%$$%&%&%%$/)",
".%&%%$$%&%n%n%&%&%$$$%n%n%&%%%n%&%&%$)",
".%n%&%$%n%n%n%n%&%$%$%n%n%&%&%n%n%&%$)",
".%n%&%%%n%n%n%n%&%%&%%n%n%n%&%n%n%n%%)",
".nn%n%n%n%n%n%n%n%%n%nn%n%n%n%n%n%n%n)",
".n%nn%nn%nn%nn%nn%n%nn%nn%nn%nn%nn%nn)",
".n%n%n%n%n%n%n%n%n%$%n%n%n%n%n%n%n%n%)",
".&%%%n%%%n%n%n%n%%$|$%%&%n%%%&%n%n%&%)",
".%$$%&%$%&%n%n%&%$/||$%&%n%$%&%n%n%&%)",
".$q$%&%$%&%n%&%&%$q/q$%&%n%$%&%n%&%%$)",
".//|$%$|$%%n%&%&%$|r||$%%n%$$%%&%&%$|)",
"./q/q$q/q$%n%&%%$|qsq/q$%&%$q$%&%&%$t)",
".u+u+u+u|$%&%&%$|q/v/q|$%&%$/$%&%%$|w)",
".+u+u+u+q$%&%&%$q+u+u+q$%&%$q$%&%$qxb)",
".u+u+u+u|$%&%&%$/u+u+u|$%&%$|$%&%$|y+)",
".+u+u+u+q$%&%&%$q+u+u+q$%&%$q$%&%$z+u)",
".>+>+>+>A$%&%%$qq>+>+>|$%&%$AB$%$qC>+)",
".>u+u+u+DE%&%$q/q+u+u+q$%&%$FGF$q/D+u)",
".>+>+>+>HI%&%$q>+>+>+>+q$%$BHJHKHKH>+)",
".>u>>>u>LI%&%$q>>>u>>>u/q$q{M[N##>u>>)",
"+)))))))))))))))))))))))))))))))))))))"};
