/* XPM */
static char * TextEditor_pressed_xpm[] = {
"40 36 82 1",
" 	c None",
".	c #485354",
"+	c #485254",
"@	c #475355",
"#	c #475254",
"$	c #485355",
"%	c #475354",
"&	c #485255",
"*	c #475255",
"=	c #465153",
"-	c #626C6F",
";	c #475153",
">	c #465051",
",	c #999999",
"'	c #D8D8D8",
")	c #455052",
"!	c #444E50",
"~	c #AAAAAA",
"{	c #FFFFFF",
"]	c #444F51",
"^	c #434D4F",
"/	c #888888",
"(	c #567390",
"_	c #9A9B97",
":	c #000000",
"<	c #424B4E",
"[	c #434C4E",
"}	c #414A4C",
"|	c #40494A",
"1	c #3F4848",
"2	c #3F4749",
"3	c #3D4647",
"4	c #5577AA",
"5	c #3C4546",
"6	c #EEAA99",
"7	c #3C4446",
"8	c #3B4344",
"9	c #3C4345",
"0	c #3A4243",
"a	c #3B4243",
"b	c #3A4142",
"c	c #394042",
"d	c #393F40",
"e	c #393F41",
"f	c #373D3F",
"g	c #373E3E",
"h	c #363C3D",
"i	c #363C3E",
"j	c #353B3C",
"k	c #353B3B",
"l	c #34393A",
"m	c #34393B",
"n	c #333839",
"o	c #323737",
"p	c #303536",
"q	c #2F3334",
"r	c #303435",
"s	c #2F3233",
"t	c #AA9988",
"u	c #2F3333",
"v	c #2D3131",
"w	c #2C2F30",
"x	c #2B2E2F",
"y	c #2A2D2E",
"z	c #292B2C",
"A	c #282A2A",
"B	c #272A2A",
"C	c #262828",
"D	c #272929",
"E	c #262728",
"F	c #262727",
"G	c #252626",
"H	c #232424",
"I	c #232323",
"J	c #898989",
"K	c #222223",
"L	c #212121",
"M	c #222221",
"N	c #212222",
"O	c #212122",
"P	c #212221",
"Q	c #222122",
".+@#.$$%#&.%**@#&@&+*$%&$@+*%@+++.$.@*%*",
"=--------------------------------------;",
">-,,,,,,,,,,,,,,,,,,,,,,,,,,,,,,,,,,,,')",
"!-~,{{{{{{{{{{{{{{{{{{{{{{{{{{{{{{{,~,']",
"^-,~{,/,,{(_(_(_(_(_(_(((({,,,:{,,,:,~'^",
"<-~,{/,/,{_(_(_(_(_(_(_(_({,,,:{,,,:~,'[",
"}-,~{,/,,{(_(_(_(_/,,,,,,:{,,,:{,,,:,~'}",
"|-~,~:::::::::::::::::::::::::::::::~,'|",
"1-,~{:~~~~~~~~~~~~~~~~~~~~~~~~~{/,/:,~'2",
"3-~,{:~~~:~:~::~:~::~:~::~:~~~~{,/,:~4'3",
"5-,~{:~~~~~~~~~~~~~~~~~~~~~~~~~{/44446'7",
"8-~,{:~~~::4~:~::~:4~::~:4~~~~~{4446{{'9",
"0-,~{:~~~~~~~~~~~~~~~~~~~~~~~~~446{{{{'a",
"b-~,{:~~~:4:~~~~~~~~~~~~~~~~~446{{{{6,'c",
"d-,~{:~~~~~~~~~~~~~~~~~~~~~446{{{{6,//'e",
"f-,,{:~~~::4:~:4:4~:/:/~~446{{{{6,////'g",
"h-,,{:~~~~~~~~~~~~~~~~~446{{{{6,////4:'i",
"j-,/{:~~~::~~::~::~:~~:6{{{{6,////4:::'k",
"l-,,{:~~~~~~~~~~~~~~~:{{{{6,////4:::::'m",
"n-,/{:~~~:4::~::~:~~4/{{6,////4::::::4'n",
"o-/,{:~~~~~~~~~~~~~4{/6,////4::::::4,,'o",
"p-,/{:~~~:4:~~~~~~4{6/4///4::::::,,:,/'p",
"q-/,{:~~~~~~~~~~~4{{6/:/4::::::4/,,:,,'r",
"s-,/{:~~~::4~:~~4{666t4::::::4/~,,,:,/'u",
"v-/,{:~~~~~~~~~4:tttttt::::4/~~{,,,:/,'v",
"w-,/{:~~~:~:4~4:::4444444/~~~~~{,,,:,/'w",
"x-/,{:~~~~~~~~~~/,~~~~~~~~~~~~~{,,,:/,'x",
"y-,/{:~~~~~~~~~~,//,~~~~~~~~~~~{,,,:,/'y",
"z-//{:~~~~~~~~~~~////,~~~~~~~~~{,,,://'z",
"A-,/{:~~~~~~~~~~~,/////,~~~~~~~{,,,:,/'B",
"C-//{:{{{{{{{{{{{{~~~~~~~{{{{{{{,,,://'D",
"E-//{::::::::::::::::::::::::::::::://'F",
"G-//////////////////:/:/:/:///////////'G",
"H-//,,,////////////4/:/:/:/://////////'H",
"IJ'''''''''''''''''''''''''''''''''''''K",
"LLMNNOOOPONOPPPNLPOLOPOPLNPLPOOQOPOMLOLO"};
