/* XPM */
static char * arrow_xpm[] = {
"20 67 153 2",
"  	c None",
". 	c #3C3B41",
"+ 	c #535057",
"@ 	c #413E45",
"# 	c #454249",
"$ 	c #423F46",
"% 	c #3E3B42",
"& 	c #4A474E",
"* 	c #46434A",
"= 	c #464148",
"- 	c #4C4950",
"; 	c #434047",
"> 	c #434449",
", 	c #49484E",
"' 	c #FFFFFF",
") 	c #3E3F44",
"! 	c #4C4B51",
"~ 	c #DBDCDB",
"{ 	c #DCDBDB",
"] 	c #DCDCDC",
"^ 	c #DCDCDB",
"/ 	c #DCDBDC",
"( 	c #DBDBDC",
"_ 	c #DBDCDC",
": 	c #46474C",
"< 	c #3D3C42",
"[ 	c #DBDBDB",
"} 	c #DBDADB",
"| 	c #494A4F",
"1 	c #424147",
"2 	c #DADADA",
"3 	c #DADBDA",
"4 	c #DADADB",
"5 	c #DBDADA",
"6 	c #36373C",
"7 	c #45444A",
"8 	c #D9DAD9",
"9 	c #D9D9D9",
"0 	c #D9DADA",
"a 	c #DAD9D9",
"b 	c #DAD9DA",
"c 	c #DADAD9",
"d 	c #D9D9DA",
"e 	c #45454D",
"f 	c #D9D8D9",
"g 	c #D8D9D9",
"h 	c #3D4049",
"i 	c #46454B",
"j 	c #D8D9D8",
"k 	c #D9D8D8",
"l 	c #D8D8D9",
"m 	c #040404",
"n 	c #8F8F8F",
"o 	c #979797",
"p 	c #030306",
"q 	c #D9D9D8",
"r 	c #D8D8D8",
"s 	c #3D414A",
"t 	c #444349",
"u 	c #D8D7D8",
"v 	c #D8D7D7",
"w 	c #D8D8D7",
"x 	c #D7D7D8",
"y 	c #D7D7D7",
"z 	c #D7D8D7",
"A 	c #A8A8A8",
"B 	c #030303",
"C 	c #9B9B9B",
"D 	c #969696",
"E 	c #010101",
"F 	c #A4A4A6",
"G 	c #D7D8D8",
"H 	c #3F434C",
"I 	c #434248",
"J 	c #D6D7D7",
"K 	c #BFBFBF",
"L 	c #9F9F9F",
"M 	c #020202",
"N 	c #959594",
"O 	c #BABABC",
"P 	c #D7D6D7",
"Q 	c #41444D",
"R 	c #D6D6D6",
"S 	c #D7D6D6",
"T 	c #D6D6D7",
"U 	c #9E9E9E",
"V 	c #C7C7C7",
"W 	c #D6D7D6",
"X 	c #D7D7D6",
"Y 	c #414046",
"Z 	c #D6D6D5",
"` 	c #D5D5D5",
" .	c #000000",
"..	c #0B0B0B",
"+.	c #020204",
"@.	c #D5D6D6",
"#.	c #D6D5D6",
"$.	c #3F3E46",
"%.	c #D5D5D4",
"&.	c #D4D5D5",
"*.	c #A0A0A2",
"=.	c #9D9D9D",
"-.	c #959597",
";.	c #9E9EA0",
">.	c #98989A",
",.	c #43464D",
"'.	c #47464E",
").	c #D4D4D4",
"!.	c #D4D5D4",
"~.	c #D4D4D5",
"{.	c #D5D4D4",
"].	c #44474E",
"^.	c #3B3A42",
"/.	c #D4D3D4",
"(.	c #D3D4D3",
"_.	c #D3D4D4",
":.	c #D3D3D4",
"<.	c #D3D3D3",
"[.	c #D4D3D3",
"}.	c #D4D4D3",
"|.	c #41444B",
"1.	c #4E4D55",
"2.	c #D3D3D2",
"3.	c #D3D2D3",
"4.	c #414048",
"5.	c #D2D3D2",
"6.	c #D3D2D2",
"7.	c #D2D3D3",
"8.	c #D2D2D2",
"9.	c #44444C",
"0.	c #3D3C44",
"a.	c #D1D1D1",
"b.	c #D1D1D2",
"c.	c #D2D1D2",
"d.	c #D2D2D1",
"e.	c #D2D1D1",
"f.	c #D1D2D1",
"g.	c #D1D2D2",
"h.	c #3D3D45",
"i.	c #4A4951",
"j.	c #484850",
"k.	c #3E3D45",
"l.	c #514F5A",
"m.	c #43424A",
"n.	c #424149",
"o.	c #3F3E43",
"p.	c #424146",
"q.	c #454547",
"r.	c #454449",
"s.	c #474548",
"t.	c #383639",
"u.	c #4A494E",
"v.	c #404048",
"                                        ",
"                                        ",
"                                        ",
"                                        ",
"                                        ",
"                                        ",
"                                        ",
"                                        ",
"                                        ",
"                                        ",
"                                        ",
"                                        ",
"                                        ",
"                                        ",
"                                        ",
"                                        ",
"                                        ",
"                                        ",
"                                        ",
"                                        ",
"                                        ",
"                                        ",
"                                        ",
"                                        ",
"                                        ",
"                                        ",
"                                        ",
"                                        ",
"                                        ",
"                                        ",
"                                        ",
"                                        ",
"                                        ",
"                                        ",
"                                        ",
"                                        ",
"                                        ",
"                                        ",
"                                        ",
"                                        ",
"                                        ",
"                                        ",
"                                        ",
"                                        ",
"                                        ",
"                                        ",
"                                        ",
". + @ # $ % & # * * * * * * * * = - ; > ",
", ' ' ' ' ' ' ' ' ' ' ' ' ' ' ' ' ' ' ) ",
"! ~ { ] ^ / ^ ~ ~ / ( _ _ / ~ ] ( ( { : ",
"< [ [ [ [ [ [ [ [ [ [ [ [ [ [ [ } [ [ | ",
"1 2 2 3 4 2 5 4 2 2 3 [ 2 4 2 4 2 2 2 6 ",
"7 8 9 0 a 8 b 0 b b c 2 d 2 c 9 9 b 0 e ",
"1 f g 9 9 9 9 9 9 9 9 9 9 f 9 9 g 9 9 h ",
"i f j g k l j m n 9 9 o p q r f r r l s ",
"t u v w x y z A B C D E F w x u G z u H ",
"I J y y y y y K L M M N O y y y P y y Q ",
"i R R S y T T R R U D V T R J W T X P Q ",
"Y R R Z ` Z R B m  ...E +.@.` @.#.Z R Q ",
"$.%.` ` ` &.` *.C =.-.;.>.` ` ` ` &.` ,.",
"'.).).` !.).~.!.~.).~.~.{.!.).).!.!.{.].",
"^./.(.(._.).:._.).<.[.)./.(.).(.[.}.).|.",
"1.<.<.<.<.<.2.<.<.<.3.<.<.<.<.<.<.<.<.e ",
"4.3.5.6.7.6.3.8.5.8.6.6.3.6.8.6.8.8.8.9.",
"0.a.b.c.d.8.c.d.8.e.a.f.e.e.g.d.8.a.8.h.",
"i.K K K K K K K K K K K K K K K K K K j.",
"k.l.m.n.Y 7 o.p.q.q.r.r.r.r.7 r.s.t.u.v."};
