/* XPM */
static char * close_inactive_xpm[] = {
"28 28 143 2",
"  	c None",
". 	c #E1E1E1",
"+ 	c #E0E0E0",
"@ 	c #E1E1E0",
"# 	c #E0E1E1",
"$ 	c #E0E0E1",
"% 	c #E1E0E0",
"& 	c #E0E1E0",
"* 	c #E1E0E1",
"= 	c #DFE0DF",
"- 	c #E0DFE0",
"; 	c #DFE0E0",
"> 	c #E0DFDF",
", 	c #DFDFDF",
"' 	c #E0E0DF",
") 	c #DEDFDF",
"! 	c #DFDEDF",
"~ 	c #DFDFDE",
"{ 	c #DEDEDE",
"] 	c #DEDFDE",
"^ 	c #DFDEDE",
"/ 	c #DEDEDF",
"( 	c #DEDDDE",
"_ 	c #DEDEDD",
": 	c #DDDEDE",
"< 	c #DDDDDE",
"[ 	c #DDDDDD",
"} 	c #DEDDDD",
"| 	c #DDDEDD",
"1 	c #DCDDDD",
"2 	c #DDDCDD",
"3 	c #DCDDDC",
"4 	c #DCDCDC",
"5 	c #DDDDDC",
"6 	c #DCDCDD",
"7 	c #DDDCDC",
"8 	c #DBDCDC",
"9 	c #DBDCDB",
"0 	c #DCDBDC",
"a 	c #DCDBDB",
"b 	c #DCDCDB",
"c 	c #C4C4C5",
"d 	c #A1A1A1",
"e 	c #C4C4C4",
"f 	c #DBDBDC",
"g 	c #DBDBDB",
"h 	c #D0CFCF",
"i 	c #A0A0A0",
"j 	c #EDEDED",
"k 	c #EEEEEE",
"l 	c #DBDADB",
"m 	c #DADADA",
"n 	c #DBDADA",
"o 	c #DADADB",
"p 	c #DADBDA",
"q 	c #EFEFEF",
"r 	c #DBDBDA",
"s 	c #D9D9DA",
"t 	c #DADAD9",
"u 	c #D9DAD9",
"v 	c #DAD9D9",
"w 	c #D9DADA",
"x 	c #D9D9D9",
"y 	c #F0F0F0",
"z 	c #F1F1F1",
"A 	c #DAD9DA",
"B 	c #D9D8D9",
"C 	c #D8D9D9",
"D 	c #F2F2F2",
"E 	c #D9D8D8",
"F 	c #D8D8D8",
"G 	c #D8D9D8",
"H 	c #D9D9D8",
"I 	c #F4F4F4",
"J 	c #D8D8D9",
"K 	c #D7D8D7",
"L 	c #D7D7D8",
"M 	c #D7D7D7",
"N 	c #D8D7D8",
"O 	c #D8D7D7",
"P 	c #D8D8D7",
"Q 	c #F5F5F5",
"R 	c #D7D8D8",
"S 	c #D7D7D6",
"T 	c #D6D7D7",
"U 	c #F6F6F6",
"V 	c #9F9F9F",
"W 	c #D7D6D7",
"X 	c #D6D6D6",
"Y 	c #D6D7D6",
"Z 	c #D7D6D6",
"` 	c #F7F7F7",
" .	c #D6D6D7",
"..	c #D6D5D5",
"+.	c #D5D5D6",
"@.	c #D6D6D5",
"#.	c #BEBDBD",
"$.	c #A2A2A2",
"%.	c #BDBDBD",
"&.	c #D6D5D6",
"*.	c #D5D6D6",
"=.	c #D5D6D5",
"-.	c #D5D5D5",
";.	c #D5D5D4",
">.	c #D4D5D5",
",.	c #D4D5D4",
"'.	c #D5D4D5",
").	c #D5D4D4",
"!.	c #D4D4D4",
"~.	c #D4D4D5",
"{.	c #D4D4D3",
"].	c #D4D3D4",
"^.	c #D3D4D4",
"/.	c #D3D4D3",
"(.	c #D3D3D4",
"_.	c #D3D3D3",
":.	c #D4D3D3",
"<.	c #D3D3D2",
"[.	c #D3D2D3",
"}.	c #D2D3D3",
"|.	c #D3D2D2",
"1.	c #D2D2D2",
"2.	c #D2D3D2",
"3.	c #D2D1D1",
"4.	c #D2D2D1",
"5.	c #D1D1D1",
"6.	c #D1D1D2",
"7.	c #D2D1D2",
"8.	c #D1D2D1",
"9.	c #D1D2D2",
"0.	c #D1D0D0",
"a.	c #D0D1D1",
"b.	c #D1D0D1",
"c.	c #D0D1D0",
"d.	c #D0D0D0",
"e.	c #D0D0D1",
"f.	c #CFCFCF",
"g.	c #D0CFD0",
"h.	c #CFD0D0",
"i.	c #CFD0CF",
"j.	c #D0D0CF",
"k.	c #CFCFD0",
"l.	c #C5C5C5",
". . . . . . . . . . . . . . . . . . . . . . . . . . . . ",
"+ @ # + $ + % & + + % $ $ @ % % & + + + + * # % @ % % + ",
"+ = - ; - ; ; + + > ; = > ; , + = + ' + + > > + ; ' ; ; ",
", ) , , , , , , , , , , , , , , ! , ~ , , , , , , , , , ",
"{ { { ] { ^ ] { / ^ , { / ^ ) ] { { / ^ ] / ^ / / ] { ] ",
"{ ( { ( { _ ( : ( < { : _ ( : ( { < { : [ _ } [ _ < : | ",
"[ [ [ [ [ 1 [ [ [ [ [ [ [ [ [ [ [ [ [ [ [ 2 [ [ [ 1 [ [ ",
"3 4 5 6 5 2 5 7 4 1 4 7 2 2 3 3 [ 6 4 4 5 3 2 6 6 4 5 4 ",
"8 4 9 0 9 9 a 4 b c d d d d d d d d e 4 f f a 4 f 8 4 0 ",
"g g g g g g g g h i j j k k k j j j i h l g g g g g g g ",
"m n o m m m m p h i j k q q q k j j i h m m m g r m r m ",
"s t u v w u x w h d q y z z z y q j i h x A w m w A u m ",
"x x x x x B C x h d q z D D D z q k i h C x x x x x x x ",
"E F G H F B G C h d z D I I I D z q i h F F J F F F J G ",
"K L M L K N O P h d z I Q Q Q I z q i h R K N F O O L F ",
"M M M M S T M M h d z I Q U Q I z q V h W M M M M M M M ",
"S X Y T X X X Z h d z I U ` U I z q V h  .S W X X W T X ",
"X ..+.X X X X @.h #.d $.$.$.$.$.d i %.h &.@.X *.X @.=.X ",
"-.-.;.-.-.;.-.-.h h h h h h h h h h h h -.>.-.-.,.-.-.-.",
",.'.).!.~.!.!.-.,.!.~.,.~.!.~.~.).,.!.!.,.,.).~.).).'.,.",
"{.].^.{./.]././.^.!.(.^.!._.:.!.]./.!./.:.{.!._.^.!.!.:.",
"_._._.<._._._._._._.<._._._.[._._._._._._._._._._._.}._.",
"<.|.1.}.2.[.2.|.}.|.[.1.2.1.|.|.[.|.1.|.1.1.1.2.1.1.1.2.",
"1.3.1.4.3.5.6.7.4.1.7.4.1.3.5.8.3.3.9.4.1.5.1.4.8.7.1.7.",
"0.a.5.5.5.5.5.a.5.5.5.5.5.5.5.5.5.5.5.5.a.5.5.b.5.5.a.5.",
"c.d.b.c.c.d.d.d.d.0.c.c.e.b.d.e.c.0.0.d.0.c.e.b.d.e.d.e.",
"f.g.d.f.g.d.d.h.i.j.i.j.i.g.d.j.i.d.d.h d.k.h.d.d.g.h h ",
"l.l.l.l.l.l.l.l.l.l.l.l.l.l.l.l.l.l.l.l.l.l.l.l.l.l.l.l."};
