/* XPM */
static char * close_activeup_xpm[] = {
"28 28 136 2",
"  	c None",
". 	c #7AB5F8",
"+ 	c #7AB5F7",
"@ 	c #79B5F8",
"# 	c #7AB4F8",
"$ 	c #79B5F7",
"% 	c #7AB4F7",
"& 	c #79B4F7",
"* 	c #79B4F6",
"= 	c #7AB4F6",
"- 	c #79B3F6",
"; 	c #78B3F6",
"> 	c #79B4F5",
", 	c #78B3F5",
"' 	c #78B4F6",
") 	c #79B3F5",
"! 	c #79B2F5",
"~ 	c #78B3F4",
"{ 	c #78B2F5",
"] 	c #79B2F4",
"^ 	c #78B2F4",
"/ 	c #77B2F4",
"( 	c #78B1F4",
"_ 	c #78B2F3",
": 	c #77B2F3",
"< 	c #77B1F3",
"[ 	c #77B2F2",
"} 	c #78B1F3",
"| 	c #77B1F2",
"1 	c #76B1F2",
"2 	c #76B0F2",
"3 	c #77B0F2",
"4 	c #77B1F1",
"5 	c #76B0F1",
"6 	c #76B1F1",
"7 	c #76AFF1",
"8 	c #76B0F0",
"9 	c #76AFF0",
"0 	c #75B0F0",
"a 	c #75AFF0",
"b 	c #75AFEF",
"c 	c #588DC8",
"d 	c #4D74A1",
"e 	c #598DC8",
"f 	c #76AFEF",
"g 	c #76AEF0",
"h 	c #75AEEF",
"i 	c #75AEEE",
"j 	c #6BA1DE",
"k 	c #4C73A0",
"l 	c #ABD2FF",
"m 	c #4B729F",
"n 	c #75AFEE",
"o 	c #74AEEE",
"p 	c #74ADEE",
"q 	c #74AEED",
"r 	c #74ADED",
"s 	c #75ADEE",
"t 	c #75AEED",
"u 	c #73ACEC",
"v 	c #74ACED",
"w 	c #73ADED",
"x 	c #74ADEC",
"y 	c #73ACED",
"z 	c #74ACEC",
"A 	c #73ADEC",
"B 	c #73ACEB",
"C 	c #74ACEB",
"D 	c #4E75A2",
"E 	c #73ABEC",
"F 	c #72ABEB",
"G 	c #73ABEA",
"H 	c #73ABEB",
"I 	c #72ACEB",
"J 	c #72ABEA",
"K 	c #72AAEA",
"L 	c #72AAE9",
"M 	c #73ABE9",
"N 	c #4A719E",
"O 	c #71AAE9",
"P 	c #72A9E9",
"Q 	c #72A9E8",
"R 	c #72AAE8",
"S 	c #71A9E8",
"T 	c #71AAE8",
"U 	c #49709D",
"V 	c #71A9E7",
"W 	c #71A8E7",
"X 	c #70A8E7",
"Y 	c #5385BD",
"Z 	c #4F76A3",
"` 	c #5077A4",
" .	c #5384BD",
"..	c #70A9E7",
"+.	c #70A8E6",
"@.	c #70A7E6",
"#.	c #70A8E5",
"$.	c #6FA7E6",
"%.	c #70A7E5",
"&.	c #70A6E4",
"*.	c #6FA6E4",
"=.	c #6FA7E5",
"-.	c #6FA7E4",
";.	c #70A6E5",
">.	c #6FA6E5",
",.	c #70A7E4",
"'.	c #6FA6E3",
").	c #6EA7E4",
"!.	c #6EA6E3",
"~.	c #6EA6E4",
"{.	c #6EA7E3",
"].	c #6FA5E3",
"^.	c #6EA5E3",
"/.	c #6EA5E2",
"(.	c #6FA5E2",
"_.	c #6EA4E2",
":.	c #6DA5E2",
"<.	c #6EA5E1",
"[.	c #6DA4E2",
"}.	c #6DA4E1",
"|.	c #6EA4E1",
"1.	c #6DA3E1",
"2.	c #6DA4E0",
"3.	c #6EA4E0",
"4.	c #6DA3E0",
"5.	c #6CA4DF",
"6.	c #6CA3E0",
"7.	c #6DA3DF",
"8.	c #6CA3DF",
"9.	c #6CA2DF",
"0.	c #6CA2DE",
"a.	c #6CA3DE",
"b.	c #6BA2DE",
"c.	c #6CA1DE",
"d.	c #6BA1DD",
"e.	c #437DBF",
". . . . + . . . . . . . + @ . . . . . # . . . # $ % + + ",
"& & & % & $ & * % % & $ % $ & & & = & & + * * & & & $ & ",
"- * * ; ; * - * > , * ' - * ; ; * * ' - - * ) - - - * > ",
") , , , , , ! ) ~ { ) ~ ) { { , { , , , , ] { { ^ , , , ",
"^ ^ / / ^ ( ^ ( _ ^ _ ^ ^ ^ / ^ / ^ ^ / / ^ ( ^ _ ^ ^ : ",
"< [ < : } < : < : < < < < < < < < < | < < [ | < < } < < ",
"1 | | 2 3 2 2 2 2 1 4 3 5 | 1 3 6 1 3 | 1 3 4 2 2 2 3 3 ",
"5 7 5 7 5 8 8 5 5 9 9 9 5 5 5 5 5 9 8 5 7 5 5 7 9 5 7 7 ",
"0 9 a a a a 9 a b c d d d d d d d d e a f g a a f b f a ",
"h h h h i h h b j k l l l l l l l l m j h n i h i i h h ",
"i o p o o o o o j d l l l l l l l l m j q i p r s p p t ",
"r r u r v r r v j d l l l l l l l l m j w r x y r v x r ",
"z A B u C u u A j D l l l l l l l l m j B z z C u B E u ",
"F G H F I H H H j D l l l l l l l l m j B H H F G H H J ",
"K L K J M M K K j D l l l l l l l l N j J K K J J K K K ",
"O L L P L O Q L j D l l l l l l l l N j P L L L O R L L ",
"Q S S S S T S S j d l l l l l l l l U j S S S S S V V S ",
"W V X V V W X X j Y d Z ` ` ` Z d m  .j ..W W X ..W X X ",
"+.+.+.+.+.@.+.@.j j j j j j j j j j j j +.@.#.@.@.+.+.$.",
"%.&.%.*.=.%.=.-.;.>.-.=.;.%.>.=.%.,.>.=.=.=.=.>.%.>.=.=.",
"'.*.*.-.-.*.'.'.).*.!.*.~.!.~.{.'.*.*.*.*.*.{.*.*.*.*.*.",
"].^.^.^.^.^.^.].].^./.!.!.].!.!.^.^.^.].^.^.^.].!.^.^.(.",
"_.:.<.:.[././._._././._././.<./._.<._././.[.:.[._./.[./.",
"}.}.}.|.}.}.}.1.1.}.}.}.}.2.3.}.}.}.}.4.2.}.}.}.|.1.2.4.",
"4.5.4.4.6.2.4.4.4.4.4.4.4.4.6.6.4.6.7.6.6.4.6.4.6.6.7.8.",
"8.9.8.9.9.9.9.8.8.8.0.8.9.8.8.9.9.a.0.9.9.9.0.9.9.9.9.8.",
"b.b.b.b.c.d.b.j 0.c.0.b.b.j b.j 0.0.c.j 0.b.b.c.b.b.j b.",
"e.e.e.e.e.e.e.e.e.e.e.e.e.e.e.e.e.e.e.e.e.e.e.e.e.e.e.e."};
