/* XPM */
static char * iconify_activeup_xpm[] = {
"28 28 129 2",
"  	c None",
". 	c #7AB5F8",
"+ 	c #7AB5F7",
"@ 	c #79B5F8",
"# 	c #7AB4F8",
"$ 	c #79B5F7",
"% 	c #7AB4F7",
"& 	c #79B4F7",
"* 	c #79B4F6",
"= 	c #7AB4F6",
"- 	c #79B3F6",
"; 	c #78B3F6",
"> 	c #79B4F5",
", 	c #78B3F5",
"' 	c #78B4F6",
") 	c #79B3F5",
"! 	c #79B2F5",
"~ 	c #78B3F4",
"{ 	c #78B2F5",
"] 	c #79B2F4",
"^ 	c #78B2F4",
"/ 	c #77B2F4",
"( 	c #78B1F4",
"_ 	c #78B2F3",
": 	c #77B2F3",
"< 	c #77B1F3",
"[ 	c #77B2F2",
"} 	c #78B1F3",
"| 	c #4D74A1",
"1 	c #4F76A3",
"2 	c #4E75A3",
"3 	c #76B1F2",
"4 	c #77B1F2",
"5 	c #76B0F2",
"6 	c #77B0F2",
"7 	c #6BA1DE",
"8 	c #77B1F1",
"9 	c #76B0F1",
"0 	c #76B1F1",
"a 	c #76AFF1",
"b 	c #76AFF0",
"c 	c #76B0F0",
"d 	c #75B0F0",
"e 	c #75AFF0",
"f 	c #ABD2FF",
"g 	c #76AFEF",
"h 	c #76AEF0",
"i 	c #75AFEF",
"j 	c #75AEEF",
"k 	c #75AEEE",
"l 	c #5178A5",
"m 	c #75AFEE",
"n 	c #74AEEE",
"o 	c #74ADEE",
"p 	c #74AEED",
"q 	c #75ADEE",
"r 	c #75AEED",
"s 	c #74ADED",
"t 	c #73ACEC",
"u 	c #74ACED",
"v 	c #73ADED",
"w 	c #74ADEC",
"x 	c #74ACEC",
"y 	c #73ADEC",
"z 	c #73ACEB",
"A 	c #74ACEB",
"B 	c #73ABEC",
"C 	c #72ABEB",
"D 	c #73ABEA",
"E 	c #73ABEB",
"F 	c #72ACEB",
"G 	c #72ABEA",
"H 	c #72AAEA",
"I 	c #72AAE9",
"J 	c #73ABE9",
"K 	c #4E76A4",
"L 	c #72ABE9",
"M 	c #71AAE9",
"N 	c #72A9E9",
"O 	c #71AAE8",
"P 	c #72AAE8",
"Q 	c #72A9E8",
"R 	c #71A9E8",
"S 	c #71A9E7",
"T 	c #71A8E7",
"U 	c #70A8E7",
"V 	c #70A9E7",
"W 	c #70A9E6",
"X 	c #71A8E6",
"Y 	c #70A8E6",
"Z 	c #70A7E6",
"` 	c #70A7E5",
" .	c #6FA8E6",
"..	c #70A8E5",
"+.	c #6FA7E6",
"@.	c #70A6E4",
"#.	c #6FA6E4",
"$.	c #6FA7E5",
"%.	c #6FA7E4",
"&.	c #70A6E5",
"*.	c #6FA6E5",
"=.	c #70A7E4",
"-.	c #6FA6E3",
";.	c #6FA5E3",
">.	c #6EA5E3",
",.	c #6EA6E3",
"'.	c #6FA5E2",
").	c #6EA4E2",
"!.	c #6DA5E2",
"~.	c #6EA5E1",
"{.	c #6DA4E2",
"].	c #6EA5E2",
"^.	c #6DA4E1",
"/.	c #6EA4E1",
"(.	c #6DA3E1",
"_.	c #6DA4E0",
":.	c #6EA4E0",
"<.	c #6DA3E0",
"[.	c #6CA4DF",
"}.	c #6CA3E0",
"|.	c #6DA3DF",
"1.	c #6CA3DF",
"2.	c #6CA2DF",
"3.	c #6CA2DE",
"4.	c #6CA3DE",
"5.	c #6BA2DE",
"6.	c #6CA1DE",
"7.	c #6BA1DD",
"8.	c #437DBF",
". . . . + . . . . . . . + @ . . . . . # . . . # $ % + + ",
"& & & % & $ & * % % & $ % $ & & & = & & + * * & & & $ & ",
"- * * ; ; * - * > , * ' - * ; ; * * ' - - * ) - - - * > ",
") , , , , , ! ) ~ { ) ~ ) { { , { , , , , ] { { ^ , , , ",
"^ ^ / / ^ ( ^ ( _ ^ _ ^ ^ ^ / ^ / ^ ^ / / ^ ( ^ _ ^ ^ : ",
"< [ < : } < | | | 1 | | | | | 2 | | | 2 | | | < < } < < ",
"3 4 4 5 6 7 | 5 5 3 8 6 9 4 3 6 0 3 6 4 3 6 | 7 5 5 6 6 ",
"9 a 9 a 9 7 | 9 | | | | | | | 9 9 b c 9 a 9 | 7 b 9 a a ",
"d b e e e 7 | e | f f f f f | e b b e e g h | 7 g i g e ",
"j j j j k 7 l i | f f f f f | j i j j j j m | 7 k k j j ",
"k n o n n 7 | n | f f f f f | o n k o k p k | 7 q o o r ",
"s s t s u 7 | u | f f f f f | u s s u s v s | 7 s u w s ",
"x y z t A 7 | y | f f f f f | t t B t t z x | 7 t z B t ",
"C D E C F 7 | E | | | | | | | E E z C E z E | 7 D E E G ",
"H I H G J 7 K H H H H G G H D G G G L G G H | 7 G H H H ",
"M I I N I 7 | I O I M P I M I M I I P I N I | 7 M P I I ",
"Q R R R R 7 | R R R R S R R R R R R R R R R | 7 R S S R ",
"T S U S S 7 | U V V W T U V U U X Y U Y V T | 7 V T U U ",
"Y Y Y Y Y 7 | Z Y Y Z ` Z Z Y  .Y Z ..Z Y Z | 7 Z Y Y +.",
"` @.` #.$.7 | %.&.*.%.$.&.` *.$.` =.*.$.$.$.| 7 ` *.$.$.",
"-.#.#.%.%.7 | | | | | | | | | | | | | | | | | 7 #.#.#.#.",
";.>.>.>.>.7 7 7 7 7 7 7 7 7 7 7 7 7 7 7 7 7 7 7 ,.>.>.'.",
").!.~.!.{.].].).).].].).].].~.].).~.).].].{.!.{.).].{.].",
"^.^.^./.^.^.^.(.(.^.^.^.^._.:.^.^.^.^.<._.^.^.^./.(._.<.",
"<.[.<.<.}._.<.<.<.<.<.<.<.<.}.}.<.}.|.}.}.<.}.<.}.}.|.1.",
"1.2.1.2.2.2.2.1.1.1.3.1.2.1.1.2.2.4.3.2.2.2.3.2.2.2.2.1.",
"5.5.5.5.6.7.5.7 3.6.3.5.5.7 5.7 3.3.6.7 3.5.5.6.5.5.7 5.",
"8.8.8.8.8.8.8.8.8.8.8.8.8.8.8.8.8.8.8.8.8.8.8.8.8.8.8.8."};
