/* XPM */
static char * iconify_activedown_xpm[] = {
"28 28 124 2",
"  	c None",
". 	c #7AB5F8",
"+ 	c #7AB5F7",
"@ 	c #79B5F8",
"# 	c #7AB4F8",
"$ 	c #79B5F7",
"% 	c #7AB4F7",
"& 	c #79B4F7",
"* 	c #79B4F6",
"= 	c #7AB4F6",
"- 	c #79B3F6",
"; 	c #78B3F6",
"> 	c #79B4F5",
", 	c #78B3F5",
"' 	c #78B4F6",
") 	c #79B3F5",
"! 	c #79B2F5",
"~ 	c #78B3F4",
"{ 	c #78B2F5",
"] 	c #79B2F4",
"^ 	c #78B2F4",
"/ 	c #77B2F4",
"( 	c #78B1F4",
"_ 	c #78B2F3",
": 	c #77B2F3",
"< 	c #77B1F3",
"[ 	c #77B2F2",
"} 	c #78B1F3",
"| 	c #77B1F2",
"1 	c #76B1F2",
"2 	c #76B0F2",
"3 	c #77B0F2",
"4 	c #43628E",
"5 	c #77B1F1",
"6 	c #76B0F1",
"7 	c #76AFF1",
"8 	c #76B0F0",
"9 	c #6BA1DE",
"0 	c #699ED9",
"a 	c #76AFF0",
"b 	c #43618D",
"c 	c #75B0F0",
"d 	c #75AFF0",
"e 	c #8CC1FF",
"f 	c #76AFEF",
"g 	c #75AFEF",
"h 	c #75AEEF",
"i 	c #75AEEE",
"j 	c #74AEEE",
"k 	c #74ADEE",
"l 	c #74AEED",
"m 	c #74ADED",
"n 	c #75ADEE",
"o 	c #75AEED",
"p 	c #73ACEC",
"q 	c #74ACED",
"r 	c #73ADED",
"s 	c #73ACED",
"t 	c #74ADEC",
"u 	c #74ACEC",
"v 	c #73ADEC",
"w 	c #73ACEB",
"x 	c #74ACEB",
"y 	c #73ABEC",
"z 	c #72ABEB",
"A 	c #73ABEA",
"B 	c #73ABEB",
"C 	c #72ACEB",
"D 	c #72ABEA",
"E 	c #72AAEA",
"F 	c #72AAE9",
"G 	c #73ABE9",
"H 	c #72ABE9",
"I 	c #71AAE9",
"J 	c #72A9E9",
"K 	c #71AAE8",
"L 	c #72AAE8",
"M 	c #72A9E8",
"N 	c #71A9E8",
"O 	c #71A9E7",
"P 	c #71A8E7",
"Q 	c #70A8E7",
"R 	c #70A9E7",
"S 	c #70A9E6",
"T 	c #71A8E6",
"U 	c #70A8E6",
"V 	c #70A7E6",
"W 	c #70A7E5",
"X 	c #6FA8E6",
"Y 	c #70A8E5",
"Z 	c #6FA7E6",
"` 	c #70A6E4",
" .	c #6FA6E4",
"..	c #6FA7E5",
"+.	c #4B729F",
"@.	c #6FA6E5",
"#.	c #6FA6E3",
"$.	c #6FA7E4",
"%.	c #6FA5E3",
"&.	c #6EA5E3",
"*.	c #6EA5E2",
"=.	c #6EA6E3",
"-.	c #6FA5E2",
";.	c #6EA4E2",
">.	c #6DA5E2",
",.	c #6EA5E1",
"'.	c #6DA4E2",
").	c #6DA4E1",
"!.	c #6EA4E1",
"~.	c #6DA3E1",
"{.	c #6DA4E0",
"].	c #6EA4E0",
"^.	c #6DA3E0",
"/.	c #6CA4DF",
"(.	c #6CA3E0",
"_.	c #6DA3DF",
":.	c #6CA3DF",
"<.	c #6CA2DF",
"[.	c #6CA2DE",
"}.	c #6CA3DE",
"|.	c #6BA2DE",
"1.	c #6CA1DE",
"2.	c #6BA1DD",
"3.	c #437DBF",
". . . . + . . . . . . . + @ . . . . . # . . . # $ % + + ",
"& & & % & $ & * % % & $ % $ & & & = & & + * * & & & $ & ",
"- * * ; ; * - * > , * ' - * ; ; * * ' - - * ) - - - * > ",
") , , , , , ! ) ~ { ) ~ ) { { , { , , , , ] { { ^ , , , ",
"^ ^ / / ^ ( ^ ( _ ^ _ ^ ^ ^ / ^ / ^ ^ / / ^ ( ^ _ ^ ^ : ",
"< [ < : } < : < : < < < < < < < < < | < < [ | < < } < < ",
"1 | | 2 3 2 2 4 4 4 4 4 4 4 4 4 4 4 4 4 4 4 5 2 2 2 3 3 ",
"6 7 6 7 6 8 9 4 0 0 0 0 0 0 0 6 6 a 8 6 7 b 9 7 a 6 7 7 ",
"c a d d d d 9 4 0 e e e e e 0 d a a d d f b 9 d f g f d ",
"h h h h i h 9 4 0 e e e e e 0 h g h h h h b 9 h i i h h ",
"i j k j j j 9 4 0 e e e e e 0 k j i k i l b 9 m n k k o ",
"m m p m q m 9 4 0 e e e e e 0 q m m q m r b 9 s m q t m ",
"u v w p x p 9 4 0 e e e e e 0 p p y p p w b 9 x p w y p ",
"z A B z C B 9 4 0 0 0 0 0 0 0 B B w z B w b 9 z A B B D ",
"E F E D G G 9 4 E E E D D E A D D D H D D b 9 D D E E E ",
"I F F J F I 9 b K F I L F I F I F F L F J b 9 F I L F F ",
"M N N N N K 9 b N N N O N N N N N N N N N b 9 N N O O N ",
"P O Q O O P 9 b R R S P Q R Q Q T U Q U R b 9 Q R P Q Q ",
"U U U U U V 9 b U U V W V V U X U V Y V U b 9 V V U U Z ",
"W ` W  ...W 9 +.b b b b b b b b b b b b b 4 9 @.W @.....",
"#. . .$.$. .9 9 9 9 9 9 9 9 9 9 9 9 9 9 9 9 9  . . . . .",
"%.&.&.&.&.&.&.%.%.&.*.=.=.%.=.=.&.&.&.%.&.&.&.%.=.&.&.-.",
";.>.,.>.'.*.*.;.;.*.*.;.*.*.,.*.;.,.;.*.*.'.>.'.;.*.'.*.",
").).).!.).).).~.~.).).).).{.].).).).).^.{.).).).!.~.{.^.",
"^./.^.^.(.{.^.^.^.^.^.^.^.^.(.(.^.(._.(.(.^.(.^.(.(._.:.",
":.<.:.<.<.<.<.:.:.:.[.:.<.:.:.<.<.}.[.<.<.<.[.<.<.<.<.:.",
"|.|.|.|.1.2.|.9 [.1.[.|.|.9 |.9 [.[.1.9 [.|.|.1.|.|.9 |.",
"3.3.3.3.3.3.3.3.3.3.3.3.3.3.3.3.3.3.3.3.3.3.3.3.3.3.3.3."};
