/* XPM */
static char * maximize_activeup_xpm[] = {
"28 28 122 2",
"  	c None",
". 	c #7AB5F8",
"+ 	c #7AB5F7",
"@ 	c #79B5F8",
"# 	c #7AB4F8",
"$ 	c #79B5F7",
"% 	c #7AB4F7",
"& 	c #79B4F7",
"* 	c #79B4F6",
"= 	c #7AB4F6",
"- 	c #79B3F6",
"; 	c #78B3F6",
"> 	c #79B4F5",
", 	c #78B3F5",
"' 	c #78B4F6",
") 	c #79B3F5",
"! 	c #79B2F5",
"~ 	c #78B3F4",
"{ 	c #78B2F5",
"] 	c #79B2F4",
"^ 	c #78B2F4",
"/ 	c #77B2F4",
"( 	c #78B1F4",
"_ 	c #78B2F3",
": 	c #77B2F3",
"< 	c #77B1F3",
"[ 	c #77B2F2",
"} 	c #78B1F3",
"| 	c #4D74A1",
"1 	c #4E75A3",
"2 	c #76B1F2",
"3 	c #77B1F2",
"4 	c #76B0F2",
"5 	c #77B0F2",
"6 	c #6BA1DE",
"7 	c #ABD2FF",
"8 	c #76B0F1",
"9 	c #76AFF1",
"0 	c #76AFF0",
"a 	c #75B0F0",
"b 	c #75AFF0",
"c 	c #76AFEF",
"d 	c #75AFEF",
"e 	c #75AEEF",
"f 	c #75AEEE",
"g 	c #74AEEE",
"h 	c #74ADEE",
"i 	c #75ADEE",
"j 	c #75AEED",
"k 	c #74ADED",
"l 	c #73ACEC",
"m 	c #74ACED",
"n 	c #73ADED",
"o 	c #73ACED",
"p 	c #74ADEC",
"q 	c #74ACEC",
"r 	c #73ADEC",
"s 	c #73ACEB",
"t 	c #74ACEB",
"u 	c #73ABEC",
"v 	c #72ABEB",
"w 	c #73ABEA",
"x 	c #73ABEB",
"y 	c #72ACEB",
"z 	c #72ABEA",
"A 	c #72AAEA",
"B 	c #72AAE9",
"C 	c #73ABE9",
"D 	c #4E76A4",
"E 	c #72ABE9",
"F 	c #71AAE9",
"G 	c #72A9E9",
"H 	c #71AAE8",
"I 	c #72AAE8",
"J 	c #72A9E8",
"K 	c #71A9E8",
"L 	c #71A9E7",
"M 	c #71A8E7",
"N 	c #70A8E7",
"O 	c #70A9E7",
"P 	c #70A9E6",
"Q 	c #71A8E6",
"R 	c #70A8E6",
"S 	c #70A7E6",
"T 	c #70A7E5",
"U 	c #6FA8E6",
"V 	c #70A8E5",
"W 	c #6FA7E6",
"X 	c #70A6E4",
"Y 	c #6FA6E4",
"Z 	c #6FA7E5",
"` 	c #6FA7E4",
" .	c #70A6E5",
"..	c #6FA6E5",
"+.	c #70A7E4",
"@.	c #6FA6E3",
"#.	c #6FA5E3",
"$.	c #6EA5E3",
"%.	c #6EA6E3",
"&.	c #6FA5E2",
"*.	c #6EA4E2",
"=.	c #6DA5E2",
"-.	c #6EA5E1",
";.	c #6DA4E2",
">.	c #6EA5E2",
",.	c #6DA4E1",
"'.	c #6EA4E1",
").	c #6DA3E1",
"!.	c #6DA4E0",
"~.	c #6EA4E0",
"{.	c #6DA3E0",
"].	c #6CA4DF",
"^.	c #6CA3E0",
"/.	c #6DA3DF",
"(.	c #6CA3DF",
"_.	c #6CA2DF",
":.	c #6CA2DE",
"<.	c #6CA3DE",
"[.	c #6BA2DE",
"}.	c #6CA1DE",
"|.	c #6BA1DD",
"1.	c #437DBF",
". . . . + . . . . . . . + @ . . . . . # . . . # $ % + + ",
"& & & % & $ & * % % & $ % $ & & & = & & + * * & & & $ & ",
"- * * ; ; * - * > , * ' - * ; ; * * ' - - * ) - - - * > ",
") , , , , , ! ) ~ { ) ~ ) { { , { , , , , ] { { ^ , , , ",
"^ ^ / / ^ ( ^ ( _ ^ _ ^ ^ ^ / ^ / ^ ^ / / ^ ( ^ _ ^ ^ : ",
"< [ < : } < | | | | | | | | | 1 | | | 1 | | | < < } < < ",
"2 3 3 4 5 6 | 7 7 7 7 7 7 7 7 7 7 7 7 7 7 7 | 6 4 4 5 5 ",
"8 9 8 9 8 6 | 7 7 7 7 7 7 7 7 7 7 7 7 7 7 7 | 6 0 8 9 9 ",
"a 0 b b b 6 | 7 7 7 7 7 7 7 7 7 7 7 7 7 7 7 | 6 c d c b ",
"e e e e f 6 | 7 7 7 7 7 7 7 7 7 7 7 7 7 7 7 | 6 f f e e ",
"f g h g g 6 | | | | | | | | | | | | | | | | | 6 i h h j ",
"k k l k m 6 | m m k k n k m o m k k m k n k | 6 k m p k ",
"q r s l t 6 | r q s l q l t q l l u l l s q | 6 l s u l ",
"v w x v y 6 | x w x x x x v v x x s v x s x | 6 w x x z ",
"A B A z C 6 D A A A A z z A w z z z E z z A | 6 z A A A ",
"F B B G B 6 | B H B F I B F B F B B I B G B | 6 F I B B ",
"J K K K K 6 | K K K K L K K K K K K K K K K | 6 K L L K ",
"M L N L L 6 | N O O P M N O N N Q R N R O M | 6 O M N N ",
"R R R R R 6 | S R R S T S S R U R S V S R S | 6 S R R W ",
"T X T Y Z 6 | `  ...` Z  .T ..Z T +...Z Z Z | 6 T ..Z Z ",
"@.Y Y ` ` 6 | | | | | | | | | | | | | | | | | 6 Y Y Y Y ",
"#.$.$.$.$.6 6 6 6 6 6 6 6 6 6 6 6 6 6 6 6 6 6 6 %.$.$.&.",
"*.=.-.=.;.>.>.*.*.>.>.*.>.>.-.>.*.-.*.>.>.;.=.;.*.>.;.>.",
",.,.,.'.,.,.,.).).,.,.,.,.!.~.,.,.,.,.{.!.,.,.,.'.).!.{.",
"{.].{.{.^.!.{.{.{.{.{.{.{.{.^.^.{.^./.^.^.{.^.{.^.^./.(.",
"(._.(._._._._.(.(.(.:.(._.(.(._._.<.:._._._.:._._._._.(.",
"[.[.[.[.}.|.[.6 :.}.:.[.[.6 [.6 :.:.}.6 :.[.[.}.[.[.6 [.",
"1.1.1.1.1.1.1.1.1.1.1.1.1.1.1.1.1.1.1.1.1.1.1.1.1.1.1.1."};
