/* XPM */
static char * shadeup_activeup_xpm[] = {
"28 28 118 2",
"  	c None",
". 	c #7AB5F8",
"+ 	c #7AB5F7",
"@ 	c #79B5F8",
"# 	c #7AB4F8",
"$ 	c #79B5F7",
"% 	c #7AB4F7",
"& 	c #79B4F7",
"* 	c #79B4F6",
"= 	c #7AB4F6",
"- 	c #79B3F6",
"; 	c #78B3F6",
"> 	c #79B4F5",
", 	c #78B3F5",
"' 	c #78B4F6",
") 	c #79B3F5",
"! 	c #79B2F5",
"~ 	c #78B3F4",
"{ 	c #78B2F5",
"] 	c #79B2F4",
"^ 	c #78B2F4",
"/ 	c #77B2F4",
"( 	c #78B1F4",
"_ 	c #78B2F3",
": 	c #77B2F3",
"< 	c #77B1F3",
"[ 	c #77B2F2",
"} 	c #78B1F3",
"| 	c #4A6E9B",
"1 	c #76B1F2",
"2 	c #77B1F2",
"3 	c #76B0F2",
"4 	c #77B0F2",
"5 	c #6BA1DE",
"6 	c #77B1F1",
"7 	c #76B0F1",
"8 	c #76B1F1",
"9 	c #76AFF1",
"0 	c #76B0F0",
"a 	c #76AFF0",
"b 	c #75B0F0",
"c 	c #75AFF0",
"d 	c #4D74A1",
"e 	c #76AFEF",
"f 	c #75AFEF",
"g 	c #75AEEF",
"h 	c #75AEEE",
"i 	c #74AEEE",
"j 	c #74ADEE",
"k 	c #ABD2FF",
"l 	c #74AEED",
"m 	c #74ADED",
"n 	c #75ADEE",
"o 	c #75AEED",
"p 	c #73ACEC",
"q 	c #74ACED",
"r 	c #73ADED",
"s 	c #73ACED",
"t 	c #74ADEC",
"u 	c #74ACEC",
"v 	c #73ADEC",
"w 	c #73ACEB",
"x 	c #74ACEB",
"y 	c #73ABEC",
"z 	c #72ABEB",
"A 	c #73ABEA",
"B 	c #73ABEB",
"C 	c #72ABEA",
"D 	c #72AAEA",
"E 	c #72AAE9",
"F 	c #72ABE9",
"G 	c #71AAE9",
"H 	c #72A9E9",
"I 	c #72AAE8",
"J 	c #72A9E8",
"K 	c #71A9E8",
"L 	c #71A9E7",
"M 	c #71A8E7",
"N 	c #70A8E7",
"O 	c #70A9E7",
"P 	c #70A8E6",
"Q 	c #70A7E6",
"R 	c #70A8E5",
"S 	c #6FA7E6",
"T 	c #70A7E5",
"U 	c #70A6E4",
"V 	c #6FA6E4",
"W 	c #6FA7E5",
"X 	c #6FA6E5",
"Y 	c #6FA6E3",
"Z 	c #6FA7E4",
"` 	c #6EA7E3",
" .	c #6FA5E3",
"..	c #6EA5E3",
"+.	c #6EA6E3",
"@.	c #6FA5E2",
"#.	c #6EA4E2",
"$.	c #6DA5E2",
"%.	c #6EA5E1",
"&.	c #6DA4E2",
"*.	c #6EA5E2",
"=.	c #6DA4E1",
"-.	c #6EA4E1",
";.	c #6DA3E1",
">.	c #6DA4E0",
",.	c #6EA4E0",
"'.	c #6DA3E0",
").	c #6CA4DF",
"!.	c #6CA3E0",
"~.	c #6DA3DF",
"{.	c #6CA3DF",
"].	c #6CA2DF",
"^.	c #6CA2DE",
"/.	c #6CA3DE",
"(.	c #6BA2DE",
"_.	c #6CA1DE",
":.	c #6BA1DD",
"<.	c #437DBF",
". . . . + . . . . . . . + @ . . . . . # . . . # $ % + + ",
"& & & % & $ & * % % & $ % $ & & & = & & + * * & & & $ & ",
"- * * ; ; * - * > , * ' - * ; ; * * ' - - * ) - - - * > ",
") , , , , , ! ) ~ { ) ~ ) { { , { , , , , ] { { ^ , , , ",
"^ ^ / / ^ ( ^ ( _ ^ _ ^ ^ ^ / ^ / ^ ^ / / ^ ( ^ _ ^ ^ : ",
"< [ < : } < : < < | | | | | | | | | | | | | < < < } < < ",
"1 2 2 3 4 3 3 3 5 | 6 4 7 2 1 4 8 1 4 2 1 | 5 3 3 3 4 4 ",
"7 9 7 9 7 0 0 7 5 | a a 7 7 7 7 7 a 0 7 9 | 5 9 a 7 9 9 ",
"b a c c c c a c 5 d a c a c c c a a c c e | 5 c e f e c ",
"g g g g g | | | | | | | | | | | | | g g g | 5 g h h g g ",
"h i j i 5 | k k k k k k k k k k k | j h l | 5 m n j j o ",
"m m p m 5 | k k k k k k k k k k k | q m r | 5 s m q t m ",
"u v w p 5 | k k k k k k k k k k k | p p w | 5 x p w y p ",
"z A B z 5 | k k k k k k k k k k k | z B w | 5 z A B B C ",
"D E D C 5 | k k k k k k k k k k k | F C C | 5 C C D D D ",
"G E E H 5 | k k k k k k k k k k k | I E H | 5 E G I E E ",
"J K K K 5 | k k k k k k k k k k k | d | | | 5 K K L L K ",
"M L N L 5 | k k k k k k k k k k k | 5 5 5 5 5 N O M N N ",
"P P P P 5 | k k k k k k k k k k k | 5 Q P Q R Q Q P P S ",
"T U T V 5 | k k k k k k k k k k k | 5 W W W W X T X W W ",
"Y V V Z 5 | | | | | | | | | | | | | 5 V V V ` V V V V V ",
" .......5 5 5 5 5 5 5 5 5 5 5 5 5 5 5  ....... .+.....@.",
"#.$.%.$.&.*.*.#.#.*.*.#.*.*.%.*.#.%.#.*.*.&.$.&.#.*.&.*.",
"=.=.=.-.=.=.=.;.;.=.=.=.=.>.,.=.=.=.=.'.>.=.=.=.-.;.>.'.",
"'.).'.'.!.>.'.'.'.'.'.'.'.'.!.!.'.!.~.!.!.'.!.'.!.!.~.{.",
"{.].{.].].].].{.{.{.^.{.].{.{.].]./.^.].].].^.].].].].{.",
"(.(.(.(._.:.(.5 ^._.^.(.(.5 (.5 ^.^._.5 ^.(.(._.(.(.5 (.",
"<.<.<.<.<.<.<.<.<.<.<.<.<.<.<.<.<.<.<.<.<.<.<.<.<.<.<.<."};
