/* XPM */
static char * taskbar2_xpm[] = {
"18 30 136 2",
"  	c None",
". 	c #FFFFFF",
"+ 	c #FEFFFF",
"@ 	c #FDFEFF",
"# 	c #FAFCFE",
"$ 	c #F9FAFD",
"% 	c #F8F9FD",
"& 	c #F7F8FC",
"* 	c #F6F8FA",
"= 	c #FEFEFF",
"- 	c #FDFFFF",
"; 	c #F9FCFE",
"> 	c #F9FAFE",
", 	c #FAFCFD",
"' 	c #FAFAFD",
") 	c #FAFAFE",
"! 	c #FCFCFE",
"~ 	c #F7F8FA",
"{ 	c #F8F8FA",
"] 	c #F8F8FC",
"^ 	c #F7F9FC",
"/ 	c #F5F5F8",
"( 	c #F4F5F8",
"_ 	c #F5F6F8",
": 	c #F4F5F9",
"< 	c #F4F6F9",
"[ 	c #F5F6F9",
"} 	c #F5F5F9",
"| 	c #F2F2F6",
"1 	c #F1F2F6",
"2 	c #F1F3F6",
"3 	c #F2F3F6",
"4 	c #F1F3F7",
"5 	c #F2F3F7",
"6 	c #EFF0F4",
"7 	c #EEF0F4",
"8 	c #EFF0F3",
"9 	c #EFF1F4",
"0 	c #F0F0F4",
"a 	c #F0F1F4",
"b 	c #EFF1F5",
"c 	c #EDEEF1",
"d 	c #ECEEF2",
"e 	c #EDEDF2",
"f 	c #ECEDF2",
"g 	c #EDEEF2",
"h 	c #EDEDF1",
"i 	c #EDEEF3",
"j 	c #E9EBEF",
"k 	c #EAEBF0",
"l 	c #EAEBEF",
"m 	c #E9EBF0",
"n 	c #EAECF0",
"o 	c #E9ECEF",
"p 	c #E7E8EE",
"q 	c #E6E9ED",
"r 	c #E6E8ED",
"s 	c #E6E9EE",
"t 	c #E7E9EE",
"u 	c #E7E9ED",
"v 	c #E7E8ED",
"w 	c #D6D9E2",
"x 	c #D7D9E1",
"y 	c #D7D9E2",
"z 	c #D7DAE2",
"A 	c #D7D9E3",
"B 	c #D7DAE3",
"C 	c #D8DAE3",
"D 	c #DADBE3",
"E 	c #D9DCE3",
"F 	c #DADCE3",
"G 	c #D9DBE3",
"H 	c #D9DCE4",
"I 	c #DADCE4",
"J 	c #D4D7DF",
"K 	c #D4D6DF",
"L 	c #D4D7DE",
"M 	c #D5D7DF",
"N 	c #D3D4DC",
"O 	c #D3D5DE",
"P 	c #D0D3DA",
"Q 	c #D1D3D9",
"R 	c #D0D3D9",
"S 	c #D1D3DA",
"T 	c #CED1D7",
"U 	c #CED1D8",
"V 	c #CFD1D8",
"W 	c #CFD1D7",
"X 	c #CED2D8",
"Y 	c #CBCFD5",
"Z 	c #CBCED6",
"` 	c #CBCED5",
" .	c #CBCFD6",
"..	c #CCCFD5",
"+.	c #CCCED5",
"@.	c #CCCFD6",
"#.	c #CCCED6",
"$.	c #C8CBD3",
"%.	c #C8CBD4",
"&.	c #C7CCD3",
"*.	c #C7CCD4",
"=.	c #C7CBD3",
"-.	c #C8CCD3",
";.	c #C8CCD4",
">.	c #C8CDD4",
",.	c #C4C8D3",
"'.	c #C5C8D3",
").	c #C5CAD3",
"!.	c #C6CAD3",
"~.	c #C6C8D3",
"{.	c #C2C5D0",
"].	c #C2C6D1",
"^.	c #C3C5D1",
"/.	c #C3C6D1",
"(.	c #C2C5D1",
"_.	c #C3C6D2",
":.	c #C2C6D2",
"<.	c #C0C3CF",
"[.	c #C1C3CF",
"}.	c #C1C4CF",
"|.	c #C1C4D0",
"1.	c #BDC1CD",
"2.	c #BEC2CC",
"3.	c #BEC2CD",
"4.	c #BDC2CD",
"5.	c #BEC1CD",
"6.	c #BEC1CC",
"7.	c #BFC2CE",
"8.	c #BBBFCA",
"9.	c #BBBFCB",
"0.	c #BCBFCA",
"a.	c #BCBFCB",
"b.	c #BBC0CB",
"c.	c #BCC0CB",
"d.	c #B9BDC8",
"e.	c #6B6B6B",
". . . . . . . . . . . + @ # $ % & * ",
". . . . . . . . . . . . . . . . . . ",
". . . . . . . . . . . . . . . . . . ",
". . . . . . . . . . . . . . . . . . ",
"@ @ @ = @ - @ = @ @ = + = = + = = + ",
"; > , ; $ , ' ) , , # # # # # , ! # ",
"~ ~ ~ ~ ~ ~ ~ { { ~ & ] ] & & ] ^ ] ",
"/ / ( / _ : / < / ( _ [ [ } _ [ [ _ ",
"| 1 2 1 2 3 3 3 4 5 3 5 3 3 3 3 3 3 ",
"6 7 8 6 6 6 6 6 9 0 9 9 0 6 9 9 a b ",
"c d e f d d g g h e d d d i d g i g ",
"j j k l k m k n m l k m o k n k n n ",
"p q r s t u v p s v t v t t t t t t ",
"j k l j k l k m k n m l k m o k n k ",
"w x y y y y z y z A y y y y y z B C ",
"D E E E F G F H F F E F I I F I F I ",
"w x y y y y z y z A y y y y y z B C ",
"J J K J L J J K M J M M J M M J J M ",
"N N N N N N N N N N N N N N O N N N ",
"P Q Q Q R Q S Q S S S S S S Q S S S ",
"T T U T U T V T U U V T U U V W X T ",
"Y Z Z ` Z  ... .+.@. .#.@.Y #. .#.@.",
"$.%.$.&.*.=.&.-.;.;.-.;.-.;.;.;.>.;.",
",.'.'.'.'.).'.).!.).).'.).'.~.~.).).",
"{.].].^./.].(.^.]._././.].].:.].:./.",
"<.[.<.<.[.<.<.[.<.[.[.[.[.}.[.}.|.}.",
"1.2.3.4.5.2.5.6.3.2.3.5.5.3.3.3.7.3.",
"8.8.9.8.9.9.0.9.a.8.9.9.b.0.a.9.c.a.",
"d.d.d.d.d.d.d.d.d.d.d.d.d.d.d.d.d.d.",
"e.e.e.e.e.e.e.e.e.e.e.e.e.e.e.e.e.e."};
