/* XPM */
static char * taskbar_xpm[] = {
"18 30 127 2",
"  	c None",
". 	c #EEEEEE",
"+ 	c #EDEEEE",
"@ 	c #EDEDEE",
"# 	c #EBECED",
"$ 	c #EBEBED",
"% 	c #EAEBEC",
"& 	c #EAEBEB",
"* 	c #E1E1E1",
"= 	c #E0E0E0",
"- 	c #E1E0E0",
"; 	c #E0E1E0",
"> 	c #E0E0E1",
", 	c #E1E1E0",
"' 	c #E1E0E1",
") 	c #E0E1E1",
"! 	c #DFE0E0",
"~ 	c #E0DFDF",
"{ 	c #DFE0DF",
"] 	c #DFDFDF",
"^ 	c #E0E0DF",
"/ 	c #DFDEDF",
"( 	c #DFDFDE",
"_ 	c #DFDEDE",
": 	c #DEDFDE",
"< 	c #DEDEDE",
"[ 	c #DEDEDF",
"} 	c #DEDFDF",
"| 	c #DEDEDD",
"1 	c #DEDDDE",
"2 	c #DDDEDE",
"3 	c #DDDDDE",
"4 	c #DDDDDD",
"5 	c #DEDDDD",
"6 	c #DCDDDD",
"7 	c #DDDCDD",
"8 	c #DDDDDC",
"9 	c #DDDCDC",
"0 	c #DCDCDC",
"a 	c #DCDDDC",
"b 	c #DCDCDD",
"c 	c #DBDCDB",
"d 	c #DCDBDB",
"e 	c #DCDCDB",
"f 	c #DCDBDC",
"g 	c #DBDBDC",
"h 	c #DBDCDC",
"i 	c #DBDBDB",
"j 	c #DBDADB",
"k 	c #DADADA",
"l 	c #DADBDA",
"m 	c #DADADB",
"n 	c #DBDADA",
"o 	c #D9DAD9",
"p 	c #D9D9D9",
"q 	c #D9DADA",
"r 	c #DAD9D9",
"s 	c #DAD9DA",
"t 	c #DADAD9",
"u 	c #D9D9DA",
"v 	c #D9D8D9",
"w 	c #D8D9D9",
"x 	c #D8D9D8",
"y 	c #D9D8D8",
"z 	c #D8D8D9",
"A 	c #D8D8D8",
"B 	c #D9D9D8",
"C 	c #D8D7D8",
"D 	c #D8D7D7",
"E 	c #D8D8D7",
"F 	c #D7D7D8",
"G 	c #D7D7D7",
"H 	c #D7D8D7",
"I 	c #D7D8D8",
"J 	c #D6D7D7",
"K 	c #D7D6D7",
"L 	c #D6D6D6",
"M 	c #D7D6D6",
"N 	c #D6D6D7",
"O 	c #D6D7D6",
"P 	c #D7D7D6",
"Q 	c #D6D6D5",
"R 	c #D5D5D5",
"S 	c #D5D6D6",
"T 	c #D5D5D6",
"U 	c #D6D5D6",
"V 	c #D5D6D5",
"W 	c #D5D5D4",
"X 	c #D4D5D5",
"Y 	c #D4D4D4",
"Z 	c #D4D5D4",
"` 	c #D4D4D5",
" .	c #D5D4D4",
"..	c #D4D3D4",
"+.	c #D3D4D3",
"@.	c #D3D4D4",
"#.	c #D3D3D4",
"$.	c #D3D3D3",
"%.	c #D4D3D3",
"&.	c #D4D4D3",
"*.	c #D3D3D2",
"=.	c #D3D2D3",
"-.	c #D2D3D2",
";.	c #D3D2D2",
">.	c #D2D3D3",
",.	c #D2D2D2",
"'.	c #D1D1D1",
").	c #D1D1D2",
"!.	c #D2D1D2",
"~.	c #D2D2D1",
"{.	c #D2D1D1",
"].	c #D1D2D1",
"^.	c #D1D2D2",
"/.	c #D0D1D1",
"(.	c #D0D0D0",
"_.	c #D1D0D0",
":.	c #D0D1D0",
"<.	c #D0D0D1",
"[.	c #D1D0D1",
"}.	c #CFD0D0",
"|.	c #CFD0CF",
"1.	c #D0D0CF",
"2.	c #D0CFD0",
"3.	c #D0CFCF",
"4.	c #CFCFD0",
"5.	c #C8C8C8",
"6.	c #B2B2B2",
". . . . . . . . . . . + @ # $ $ % & ",
"* * * * * * * * * * * * * * * * * * ",
"= - ; = = - > > , - - ; = = = = ' ) ",
"! ! = = ~ ! { ~ ! ] = { = ^ = = ~ ~ ",
"] ] ] ] ] ] ] ] ] ] ] / ] ( ] ] ] ] ",
"_ : < [ _ ] < [ _ } : < < [ _ : [ _ ",
"| 1 2 1 3 < 2 | 1 2 1 < 3 < 2 4 | 5 ",
"6 4 4 4 4 4 4 4 4 4 4 4 4 4 4 4 7 4 ",
"7 8 9 0 6 0 9 7 7 a a 4 b 0 0 8 a 7 ",
"c d 0 e f e c c f g h h f c 0 g g d ",
"i i i i i i i i i i i i i i i j i i ",
"k k l m k n m k k l i k m k m k k k ",
"o p q r o s q s s t k u k t p p s q ",
"v w p p p p p p p p p p v p p w p p ",
"v x w y z x y y A z A A B A v A A z ",
"C D E F G H F G E E E F E F C I H C ",
"J G G G G G G G G G G G G G G K G G ",
"L L M G N N L L G L M N L J O N P K ",
"L L Q R Q L S T S S U V S R S U Q L ",
"W R R R X R W R R R X R R R R R X R ",
"Y Y R Z Y ` Z ` Y ` `  .Z Y Y Z Z  .",
"..+.+.@.Y #.@.Y $.%.Y ..+.Y +.%.&.Y ",
"$.$.$.$.$.*.$.$.$.=.$.$.$.$.$.$.$.$.",
"=.-.;.>.;.=.,.-.,.;.;.=.;.,.;.,.,.,.",
"'.).!.~.,.!.~.,.{.'.].{.{.^.~.,.'.,.",
"'.'./.'.'.'.'.'.'.'.'.'.'.'.'./.'.'.",
"(.(.(.(._.:.:.<.[.(.<.:._._.(._.:.<.",
"(.(.}.|.1.|.1.|.2.(.1.|.(.(.3.(.4.}.",
"5.5.5.5.5.5.5.5.5.5.5.5.5.5.5.5.5.5.",
"6.6.6.6.6.6.6.6.6.6.6.6.6.6.6.6.6.6."};
