/* XPM */
static char * title_inactive_xpm[] = {
"28 28 125 2",
"  	c None",
". 	c #E1E1E1",
"+ 	c #E0E0E0",
"@ 	c #E1E1E0",
"# 	c #E0E1E1",
"$ 	c #E0E0E1",
"% 	c #E1E0E0",
"& 	c #E0E1E0",
"* 	c #E1E0E1",
"= 	c #DFE0DF",
"- 	c #E0DFE0",
"; 	c #DFE0E0",
"> 	c #E0DFDF",
", 	c #DFDFDF",
"' 	c #E0E0DF",
") 	c #DEDFDF",
"! 	c #DFDEDF",
"~ 	c #DFDFDE",
"{ 	c #DEDEDE",
"] 	c #DEDFDE",
"^ 	c #DFDEDE",
"/ 	c #DEDEDF",
"( 	c #DEDDDE",
"_ 	c #DEDEDD",
": 	c #DDDEDE",
"< 	c #DDDDDE",
"[ 	c #DDDDDD",
"} 	c #DEDDDD",
"| 	c #DDDEDD",
"1 	c #DCDDDD",
"2 	c #DDDCDD",
"3 	c #DCDDDC",
"4 	c #DCDCDC",
"5 	c #DDDDDC",
"6 	c #DCDCDD",
"7 	c #DDDCDC",
"8 	c #DBDCDC",
"9 	c #DBDCDB",
"0 	c #DCDBDC",
"a 	c #DCDBDB",
"b 	c #DCDCDB",
"c 	c #DBDBDC",
"d 	c #DBDBDB",
"e 	c #DBDADB",
"f 	c #DADADA",
"g 	c #DBDADA",
"h 	c #DADADB",
"i 	c #DADBDA",
"j 	c #DBDBDA",
"k 	c #D9D9DA",
"l 	c #DADAD9",
"m 	c #D9DAD9",
"n 	c #DAD9D9",
"o 	c #D9DADA",
"p 	c #D9D9D9",
"q 	c #DAD9DA",
"r 	c #D9D8D9",
"s 	c #D8D9D9",
"t 	c #D9D8D8",
"u 	c #D8D8D8",
"v 	c #D8D9D8",
"w 	c #D9D9D8",
"x 	c #D8D8D9",
"y 	c #D7D8D7",
"z 	c #D7D7D8",
"A 	c #D7D7D7",
"B 	c #D8D7D8",
"C 	c #D8D7D7",
"D 	c #D8D8D7",
"E 	c #D7D8D8",
"F 	c #D7D7D6",
"G 	c #D6D7D7",
"H 	c #D7D6D7",
"I 	c #D6D6D6",
"J 	c #D6D7D6",
"K 	c #D7D6D6",
"L 	c #D6D6D7",
"M 	c #D6D5D5",
"N 	c #D5D5D6",
"O 	c #D6D6D5",
"P 	c #D5D5D5",
"Q 	c #D5D6D6",
"R 	c #D6D5D6",
"S 	c #D5D6D5",
"T 	c #D5D5D4",
"U 	c #D4D5D5",
"V 	c #D4D5D4",
"W 	c #D5D4D5",
"X 	c #D5D4D4",
"Y 	c #D4D4D4",
"Z 	c #D4D4D5",
"` 	c #D4D4D3",
" .	c #D4D3D4",
"..	c #D3D4D4",
"+.	c #D3D4D3",
"@.	c #D3D3D4",
"#.	c #D3D3D3",
"$.	c #D4D3D3",
"%.	c #D3D3D2",
"&.	c #D3D2D3",
"*.	c #D2D3D3",
"=.	c #D3D2D2",
"-.	c #D2D2D2",
";.	c #D2D3D2",
">.	c #D2D1D1",
",.	c #D2D2D1",
"'.	c #D1D1D1",
").	c #D1D1D2",
"!.	c #D2D1D2",
"~.	c #D1D2D1",
"{.	c #D1D2D2",
"].	c #D1D0D0",
"^.	c #D0D1D1",
"/.	c #D1D0D1",
"(.	c #D0D1D0",
"_.	c #D0D0D0",
":.	c #D0D0D1",
"<.	c #CFCFCF",
"[.	c #D0CFD0",
"}.	c #CFD0D0",
"|.	c #CFD0CF",
"1.	c #D0D0CF",
"2.	c #D0CFCF",
"3.	c #CFCFD0",
"4.	c #C5C5C5",
". . . . . . . . . . . . . . . . . . . . . . . . . . . . ",
"+ @ # + $ + % & + + % $ $ @ % % & + + + + * # % @ % % + ",
"+ = - ; - ; ; + + > ; = > ; , + = + ' + + > > + ; ' ; ; ",
", ) , , , , , , , , , , , , , , ! , ~ , , , , , , , , , ",
"{ { { ] { ^ ] { / ^ , { / ^ ) ] { { / ^ ] / ^ / / ] { ] ",
"{ ( { ( { _ ( : ( < { : _ ( : ( { < { : [ _ } [ _ < : | ",
"[ [ [ [ [ 1 [ [ [ [ [ [ [ [ [ [ [ [ [ [ [ 2 [ [ [ 1 [ [ ",
"3 4 5 6 5 2 5 7 4 1 4 7 2 2 3 3 [ 6 4 4 5 3 2 6 6 4 5 4 ",
"8 4 9 0 9 9 a 4 b 0 b 9 9 0 c 8 8 0 9 4 c c a 4 c 8 4 0 ",
"d d d d d d d d d d d d d d d d d d d d e d d d d d d d ",
"f g h f f f f i h f g h f f i d f h f h f f f d j f j f ",
"k l m n o m p o n m q o q q l f k f l p p q o f o q m f ",
"p p p p p r s p p p p p p p p p p r p p s p p p p p p p ",
"t u v w u r v s t x v t t u x u u w u r u u x u u u x v ",
"y z A z y B C D z A y z A D D D z D z B E y B u C C z u ",
"A A A A F G A A A A A A A A A A A A A A H A A A A A A A ",
"F I J G I I I K A L L I I A I K L I G J L F H I I H G I ",
"I M N I I I I O P O I Q N Q Q R S Q P Q R O I Q I O S I ",
"P P T P P T P P P U P T P P P U P P P P P U P P V P P P ",
"V W X Y Z Y Y P V Y Z V Z Y Z Z X V Y Y V V X Z X X W V ",
"`  ...` +. .+.+...Y @...Y #.$.Y  .+.Y +.$.` Y #...Y Y $.",
"#.#.#.%.#.#.#.#.#.#.%.#.#.#.&.#.#.#.#.#.#.#.#.#.#.#.*.#.",
"%.=.-.*.;.&.;.=.*.=.&.-.;.-.=.=.&.=.-.=.-.-.-.;.-.-.-.;.",
"-.>.-.,.>.'.).!.,.-.!.,.-.>.'.~.>.>.{.,.-.'.-.,.~.!.-.!.",
"].^.'.'.'.'.'.^.'.'.'.'.'.'.'.'.'.'.'.'.^.'.'./.'.'.^.'.",
"(._./.(.(._._._._.].(.(.:./._.:.(.].]._.].(.:./._.:._.:.",
"<.[._.<.[._._.}.|.1.|.1.|.[._.1.|._._.2._.3.}._._.[.2.2.",
"4.4.4.4.4.4.4.4.4.4.4.4.4.4.4.4.4.4.4.4.4.4.4.4.4.4.4.4."};
