/* XPM */
static char * close_inactive_xpm[] = {
"28 28 5 1",
" 	c None",
".	c #405B76",
"+	c #6D8DB2",
"@	c #38526C",
"#	c #547291",
"............................",
"............................",
"............................",
"............................",
"............................",
"............................",
"............................",
"............................",
".........++++++++++.........",
".........+@@@@@@@@+@........",
".........+@#######+@........",
".........+@#######+@........",
".........+@#######+@........",
".........+@#######+@........",
".........+@#######+@........",
".........+@#######+@........",
".........+@#######+@........",
".........++++++++++@........",
"..........@@@@@@@@@@........",
"............................",
"............................",
"............................",
"............................",
"............................",
"............................",
"............................",
"............................",
"............................"};
