/* XPM */
static char * close_activeup_xpm[] = {
"28 28 6 1",
" 	c None",
".	c #4D6985",
"+	c #A8C2E0",
"@	c #405B76",
"#	c #2B435C",
"$	c #5F7B9A",
"............................",
"............................",
"............................",
"............................",
"............................",
"............................",
"............................",
"............................",
".........++++++++++.........",
"........@+########+#........",
"........@+#$$$$$$$+#........",
"........@+#$$$$$$$+#........",
"........@+#$$$$$$$+#........",
"........@+#$$$$$$$+#........",
"........@+#$$$$$$$+#........",
"........@+#$$$$$$$+#........",
"........@+#$$$$$$$+#........",
"........@++++++++++#........",
"........@@##########........",
"............................",
"............................",
"............................",
"............................",
"............................",
"............................",
"............................",
"............................",
"############################"};
