/* XPM */
static char * iconify_inactive_xpm[] = {
"28 28 6 1",
" 	c None",
".	c #405B76",
"+	c #6D8DB2",
"@	c #38526C",
"#	c #4D6A88",
"$	c #45607C",
"............................",
"............................",
"............................",
"............................",
"............................",
"......+++++++++++++++++.....",
"......+@@@@@@@+@@@@@@@+@....",
"......+@######+@$$$$$$+@....",
"......+@######+@$$$$$$+@....",
"......+@######+@$$$$$$+@....",
"......+@######+@$$$$$$+@....",
"......+@######+@$$$$$$+@....",
"......+@######+@$$$$$$+@....",
"......+++++++++@$$$$$$+@....",
"......+@@@@@@@@@$$$$$$+@....",
"......+@$$$$$$$$$$$$$$+@....",
"......+@$$$$$$$$$$$$$$+@....",
"......+@$$$$$$$$$$$$$$+@....",
"......+@$$$$$$$$$$$$$$+@....",
"......+@$$$$$$$$$$$$$$+@....",
"......+++++++++++++++++@....",
".......@@@@@@@@@@@@@@@@@....",
"............................",
"............................",
"............................",
"............................",
"............................",
"............................"};
