/* XPM */
static char * iconify_activeup_xpm[] = {
"28 28 8 1",
" 	c None",
".	c #4D6985",
"+	c #A8C2E0",
"@	c #405B76",
"#	c #88A6C9",
"$	c #2B435C",
"%	c #6683A2",
"&	c #587592",
"............................",
"............................",
"............................",
"............................",
"............................",
"......+++++++++@#######.....",
"......+$$$$$$$+$$$$$$$#$....",
"......+$%%%%%%+$&&&&&&#$....",
"......+$%%%%%%+$&&&&&&#$....",
"......+$%%%%%%+$&&&&&&#$....",
"......+$%%%%%%+$&&&&&&#$....",
"......+$%%%%%%+$&&&&&&#$....",
"......+$%%%%%%+$&&&&&&#$....",
"......+++++++++$&&&&&&#$....",
".......$$$$$$$$$&&&&&&#$....",
"......#@&&&&&&&&&&&&&&#$....",
"......#$&&&&&&&&&&&&&&#$....",
"......#$&&&&&&&&&&&&&&#$....",
"......#$&&&&&&&&&&&&&&#$....",
"......#$&&&&&&&&&&&&&&#$....",
"......#################$....",
".......$$$$$$$$$$$$$$$$$....",
"............................",
"............................",
"............................",
"............................",
"............................",
"$$$$$$$$$$$$$$$$$$$$$$$$$$$$"};
