/* XPM */
static char * iconify_activedown_xpm[] = {
"28 28 7 1",
" 	c None",
".	c #4D6985",
"+	c #A8C2E0",
"@	c #92AFD0",
"#	c #2B435C",
"$	c #6E8AA9",
"%	c #7691AF",
"............................",
"............................",
"............................",
"............................",
"............................",
"......+++++++++@@@@@@@@.....",
"......+#######+#######@#....",
"......+#$$$$$$+#%%%%%%@#....",
"......+#$$$$$$+#%%%%%%@#....",
"......+#$$$$$$+#%%%%%%@#....",
"......+#$$$$$$+#%%%%%%@#....",
"......+#$$$$$$+#%%%%%%@#....",
"......+#$$$$$$+#%%%%%%@#....",
"......+++++++++#%%%%%%@#....",
"......@#########%%%%%%@#....",
"......@#%%%%%%%%%%%%%%@#....",
"......@#%%%%%%%%%%%%%%@#....",
"......@#%%%%%%%%%%%%%%@#....",
"......@#%%%%%%%%%%%%%%@#....",
"......@#%%%%%%%%%%%%%%@#....",
"......@@@@@@@@@@@@@@@@@#....",
".......#################....",
"............................",
"............................",
"............................",
"............................",
"............................",
"############################"};
