/* XPM */
static char * shadeup_activedown_xpm[] = {
"28 28 7 1",
" 	c None",
".	c #4D6985",
"+	c #A0BAD8",
"@	c #2B435C",
"#	c #6B87A3",
"$	c #A8C2E0",
"%	c #7590AF",
"............................",
"............................",
"............................",
"............................",
"............................",
".........+++++++++++++......",
".........+@@@@@@@@@@@+@.....",
".........+@##########+@.....",
".........+@##########+@.....",
".....$$$$+$$$$$$$$###+@.....",
".....$@@@@@@@@@@@$@##+@.....",
".....$@%%%%%%%%%%$@##+@.....",
".....$@%%%%%%%%%%$@##+@.....",
".....$@%%%%%%%%%%$@##+@.....",
".....$@%%%%%%%%%%$@##+@.....",
".....$@%%%%%%%%%%$@##+@.....",
".....$@%%%%%%%%%%$++++@.....",
".....$@%%%%%%%%%%$@@@@@.....",
".....$@%%%%%%%%%%$@.........",
".....$@%%%%%%%%%%$@.........",
".....$$$$$$$$$$$$$@.........",
"......@@@@@@@@@@@@@.........",
"............................",
"............................",
"............................",
"............................",
"............................",
"@@@@@@@@@@@@@@@@@@@@@@@@@@@@"};
