/* XPM */
static char * shadeup_activeup_xpm[] = {
"28 28 6 1",
" 	c None",
".	c #4D6985",
"+	c #88A6C9",
"@	c #2B435C",
"#	c #A8C2E0",
"$	c #5F7B9A",
"............................",
"............................",
"............................",
"............................",
"............................",
".........+++++++++++++......",
".........+@@@@@@@@@@@+@.....",
".........+@..........+@.....",
".........@@..........+@.....",
".....#############...+@.....",
".....#@@@@@@@@@@@#@..+@.....",
".....#@$$$$$$$$$$#@..+@.....",
".....#@$$$$$$$$$$#@..+@.....",
".....#@$$$$$$$$$$#@..+@.....",
".....#@$$$$$$$$$$#@..+@.....",
".....#@$$$$$$$$$$#@..+@.....",
".....#@$$$$$$$$$$#@+++@.....",
".....#@$$$$$$$$$$#@@@@@.....",
".....#@$$$$$$$$$$#@.........",
".....#@$$$$$$$$$$#@.........",
".....#############@.........",
"......@@@@@@@@@@@@@.........",
"............................",
"............................",
"............................",
"............................",
"............................",
"@@@@@@@@@@@@@@@@@@@@@@@@@@@@"};
