/* XPM */
static char * title_activeup_xpm[] = {
"28 28 3 1",
" 	c None",
".	c #4D6985",
"+	c #2B435C",
"............................",
"............................",
"............................",
"............................",
"............................",
"............................",
"............................",
"............................",
"............................",
"............................",
"............................",
"............................",
"............................",
"............................",
"............................",
"............................",
"............................",
"............................",
"............................",
"............................",
"............................",
"............................",
"............................",
"............................",
"............................",
"............................",
"............................",
"++++++++++++++++++++++++++++"};
