/* XPM */
static char * iconify_activedown_xpm[] = {
"28 28 4 1",
" 	c None",
".	c #43628E",
"+	c #507BAD",
"@	c #43618D",
"                            ",
"                            ",
"                            ",
"                            ",
"                            ",
"                            ",
"       ...............      ",
"       .+++++++      @      ",
"       .+     +      @      ",
"       .+     +      @      ",
"       .+     +      @      ",
"       .+     +      @      ",
"       .+     +      @      ",
"       .+++++++      @      ",
"       .             @      ",
"       @             @      ",
"       @             @      ",
"       @             @      ",
"       @             @      ",
"       .@@@@@@@@@@@@@.      ",
"                            ",
"                            ",
"                            ",
"                            ",
"                            ",
"                            ",
"                            ",
"                            "};
