/* XPM */
static char * maximize_activedown_xpm[] = {
"28 28 3 1",
" 	c None",
".	c #506A8E",
"+	c #6384AE",
"                            ",
"                            ",
"                            ",
"                            ",
"                            ",
"                            ",
"       ...............      ",
"       .+++++++++++++.      ",
"       .+           +.      ",
"       .+           +.      ",
"       .+++++++++++++.      ",
"       .+           +.      ",
"       .+           +.      ",
"       .+           +.      ",
"       .+           +.      ",
"       .+           +.      ",
"       .+           +.      ",
"       .+           +.      ",
"       .+++++++++++++.      ",
"       ...............      ",
"                            ",
"                            ",
"                            ",
"                            ",
"                            ",
"                            ",
"                            ",
"                            "};
