/* XPM */
static char * title_activeup_xpm[] = {
"28 28 3 1",
" 	c None",
".	c #7F9FC7",
"+	c #30415B",
"............................",
"............................",
"............................",
"............................",
"............................",
"............................",
"............................",
"............................",
"............................",
"............................",
"............................",
"............................",
"............................",
"............................",
"............................",
"............................",
"............................",
"............................",
"............................",
"............................",
"............................",
"............................",
"............................",
"............................",
"............................",
"............................",
"............................",
"++++++++++++++++++++++++++++"};
