/* XPM */
static char * title_inactive_xpm[] = {
"28 28 3 1",
" 	c None",
".	c #363A42",
"+	c #2A2E35",
"............................",
"............................",
"............................",
"............................",
"............................",
"............................",
"............................",
"............................",
"............................",
"............................",
"............................",
"............................",
"............................",
"............................",
"............................",
"............................",
"............................",
"............................",
"............................",
"............................",
"............................",
"............................",
"............................",
"............................",
"............................",
"............................",
"............................",
"++++++++++++++++++++++++++++"};
