/* XPM */
static char * close_activeup_xpm[] = {
"28 28 2 1",
" 	c None",
".	c #E2E2E2",
"                            ",
"                            ",
"                            ",
"                            ",
"                            ",
"                            ",
"         ..       ..        ",
"         ...     ...        ",
"          ...   ...         ",
"           ... ...          ",
"            .....           ",
"             ...            ",
"            .....           ",
"           ... ...          ",
"          ...   ...         ",
"         ...     ...        ",
"         ..       ..        ",
"                            ",
"                            ",
"                            ",
"                            ",
"                            ",
"                            ",
"                            ",
"                            ",
"                            ",
"                            ",
"                            "};
