/* XPM */
static char * shadeup_inactive_xpm[] = {
"28 28 119 2",
"  	c None",
". 	c #E1E1E1",
"+ 	c #E0E0E0",
"@ 	c #E1E1E0",
"# 	c #E0E1E1",
"$ 	c #E0E0E1",
"% 	c #E1E0E0",
"& 	c #E0E1E0",
"* 	c #E1E0E1",
"= 	c #DFE0DF",
"- 	c #E0DFE0",
"; 	c #DFE0E0",
"> 	c #E0DFDF",
", 	c #DFDFDF",
"' 	c #E0E0DF",
") 	c #DEDFDF",
"! 	c #DFDEDF",
"~ 	c #DFDFDE",
"{ 	c #DEDEDE",
"] 	c #DEDFDE",
"^ 	c #DFDEDE",
"/ 	c #DEDEDF",
"( 	c #DEDDDE",
"_ 	c #DEDEDD",
": 	c #DDDEDE",
"< 	c #DDDDDE",
"[ 	c #9A9C9E",
"} 	c #DDDDDD",
"| 	c #DDDEDD",
"1 	c #DCDDDD",
"2 	c #CFCFD0",
"3 	c #DDDCDD",
"4 	c #DCDDDC",
"5 	c #DCDCDC",
"6 	c #DDDDDC",
"7 	c #DCDCDD",
"8 	c #DDDCDC",
"9 	c #DBDCDC",
"0 	c #DBDCDB",
"a 	c #DCDBDC",
"b 	c #DCDBDB",
"c 	c #DCDCDB",
"d 	c #DBDBDC",
"e 	c #DBDBDB",
"f 	c #DBDADB",
"g 	c #DADADA",
"h 	c #DBDADA",
"i 	c #DADADB",
"j 	c #F2F2F2",
"k 	c #DBDBDA",
"l 	c #D9D9DA",
"m 	c #DADAD9",
"n 	c #D9DAD9",
"o 	c #DAD9D9",
"p 	c #D9DADA",
"q 	c #D9D9D9",
"r 	c #DAD9DA",
"s 	c #D8D9D9",
"t 	c #D9D8D8",
"u 	c #D8D8D8",
"v 	c #D8D9D8",
"w 	c #D9D9D8",
"x 	c #D9D8D9",
"y 	c #D8D8D9",
"z 	c #D7D8D7",
"A 	c #D7D7D8",
"B 	c #D7D7D7",
"C 	c #D8D7D8",
"D 	c #D7D8D8",
"E 	c #D8D7D7",
"F 	c #D7D7D6",
"G 	c #D7D6D7",
"H 	c #D6D6D6",
"I 	c #D6D7D6",
"J 	c #D6D7D7",
"K 	c #D6D5D5",
"L 	c #D5D5D6",
"M 	c #D6D6D5",
"N 	c #D5D6D5",
"O 	c #D5D5D5",
"P 	c #D5D5D4",
"Q 	c #D4D5D5",
"R 	c #D4D5D4",
"S 	c #D5D4D5",
"T 	c #D5D4D4",
"U 	c #D4D4D4",
"V 	c #D4D4D5",
"W 	c #D4D4D3",
"X 	c #D4D3D4",
"Y 	c #D3D4D4",
"Z 	c #D3D4D3",
"` 	c #D4D3D3",
" .	c #D3D3D3",
"..	c #D3D3D2",
"+.	c #D2D3D3",
"@.	c #D3D2D2",
"#.	c #D2D2D2",
"$.	c #D2D3D2",
"%.	c #D3D2D3",
"&.	c #D2D1D1",
"*.	c #D2D2D1",
"=.	c #D1D1D1",
"-.	c #D1D1D2",
";.	c #D2D1D2",
">.	c #D1D2D1",
",.	c #D1D2D2",
"'.	c #D1D0D0",
").	c #D0D1D1",
"!.	c #D1D0D1",
"~.	c #D0D1D0",
"{.	c #D0D0D0",
"].	c #D0D0D1",
"^.	c #CFCFCF",
"/.	c #D0CFD0",
"(.	c #CFD0D0",
"_.	c #CFD0CF",
":.	c #D0D0CF",
"<.	c #D0CFCF",
"[.	c #C5C5C5",
". . . . . . . . . . . . . . . . . . . . . . . . . . . . ",
"+ @ # + $ + % & + + % $ $ @ % % & + + + + * # % @ % % + ",
"+ = - ; - ; ; + + > ; = > ; , + = + ' + + > > + ; ' ; ; ",
", ) , , , , , , , , , , , , , , ! , ~ , , , , , , , , , ",
"{ { { ] { ^ ] { / ^ , { / ^ ) ] { { / ^ ] / ^ / / ] { ] ",
"{ ( { ( { _ ( : ( < [ [ [ [ [ [ [ [ [ [ [ [ [ } _ < : | ",
"} } } } } 1 } } } 2 [ } } } } } } } } } } 3 [ 2 } 1 } } ",
"4 5 6 7 6 3 6 8 5 2 [ 8 3 3 4 4 } 7 5 5 6 4 [ 2 7 5 6 5 ",
"9 5 0 a 0 0 b 5 c 2 [ 0 0 a d 9 9 a 0 5 d d [ 2 d 9 5 a ",
"e e e e e e [ [ [ [ [ [ [ [ [ [ [ [ [ e f e [ 2 e e e e ",
"g h i g g 2 [ j j j j j j j j j j j [ i g g [ 2 k g k g ",
"l m n o p 2 [ j j j j j j j j j j j [ q q r [ 2 p r n g ",
"q q q q q 2 [ j j j j j j j j j j j [ q s q [ 2 q q q q ",
"t u v w u 2 [ j j j j j j j j j j j [ x u u [ 2 u u y v ",
"z A B A z 2 [ j j j j j j j j j j j [ C D z [ 2 E E A u ",
"B B B B F 2 [ j j j j j j j j j j j [ B G B [ 2 B B B B ",
"F H I J H 2 [ j j j j j j j j j j j [ [ [ [ [ 2 H G J H ",
"H K L H H 2 [ j j j j j j j j j j j [ 2 2 2 2 2 H M N H ",
"O O P O O 2 [ j j j j j j j j j j j [ 2 O Q O O R O O O ",
"R S T U V 2 [ j j j j j j j j j j j [ 2 R R T V T T S R ",
"W X Y W Z 2 [ [ [ [ [ [ [ [ [ [ [ [ [ 2 ` W U  .Y U U ` ",
" . . ... .2 2 2 2 2 2 2 2 2 2 2 2 2 2 2  . . . . . .+. .",
"..@.#.+.$.%.$.@.+.@.%.#.$.#.@.@.%.@.#.@.#.#.#.$.#.#.#.$.",
"#.&.#.*.&.=.-.;.*.#.;.*.#.&.=.>.&.&.,.*.#.=.#.*.>.;.#.;.",
"'.).=.=.=.=.=.).=.=.=.=.=.=.=.=.=.=.=.=.).=.=.!.=.=.).=.",
"~.{.!.~.~.{.{.{.{.'.~.~.].!.{.].~.'.'.{.'.~.].!.{.].{.].",
"^./.{.^./.{.{.(._.:._.:._./.{.:._.{.{.<.{.2 (.{.{./.<.<.",
"[.[.[.[.[.[.[.[.[.[.[.[.[.[.[.[.[.[.[.[.[.[.[.[.[.[.[.[."};
