/* XPM */
static char * cli_icon_xpm[] = {
"44 36 17 1",
" 	c None",
".	c #FFFFFF",
"+	c #B6B6B6",
"@	c #567390",
"#	c #9A9B97",
"$	c #000000",
"%	c #A2A2A2",
"&	c #B0A9A2",
"*	c #9A9A90",
"=	c #DAD3CC",
"-	c #929290",
";	c #56738C",
">	c #CCCCCC",
",	c #AEA5A2",
"'	c #A6A2A6",
")	c #A9A9A9",
"!	c #A7A5A9",
"...........................................+",
".@#@@.#@#@#@#@#@#@#@#@#@@@@@@@@@@@.@@@$.@@@$",
".#@#@.##@#@#@#@#@#@#@#@#@#@#@#@@@@.@@@$.@@@$",
".@#@@.#@#@#@#@#@#@#@#@#@#@#@@@@@@$.@@@$.@@@$",
"+$$$$$$$$$$$$$$$$$$$$$$$$$$$$$$$$$$$$$$$$$$$",
".$%%&%&%&%&%&%&%&%&%&%&%&%&%&%&%&%&%&%&.###$",
".$&&%&%&%&%&%&%&%&%&%&%&%&%&%&%&%&%&%&%.#@#$",
".$%%&%&%&%&%&%&%&%&%&%&%&%&%&%&%&%&%&%&.@#@$",
".$&&%&$&%&%&%&%&%&%&%&%&%&%&%&%&%&%&%&%.#@#$",
".$&&&$$&&$*&&&&===&&&&&&&&&&&&&&&&&&&&&.@#@$",
".$&&-;$&%*$*%&%=>=%&%&%&%&%&%&%&%&%&%&%.#@@$",
".$&&&&$&&*$*&&&===&&&&&&&&&&&&&&&&&&&&&.@#@$",
".$&&%&$&%$-&%&%=>=%&%&%&%&%&%&%&%&%&%&%.#@@$",
".$&&&&*&&&&&&&&===&&&&&&&&&&&&&&&&&&&&&.@#@$",
".$&&&&&&&&&&&&&&&&&&&&&&&&&&&&&&&&&&&&&.#@@$",
".$&&&&&&&&&&&&&&&&&&&&&&&&&&&&&&&&&&&&&.@#@$",
".$&&&&&&&&&&&&&&&&&&&&&&&&&&,&&&,&&&&&&.#@@$",
".$&&&&&&&&&&&&&&&&&&&&,&&&&&&&&&&&&&&&&.@'@$",
".$))&)&)&)&)&)&)&)&)&)&)&)&)&)&)&)&)&)&.'@@$",
".$&&&&&&&&&&&&&&&&&&&&&&&&&&&&&&&&&&&&&.@@@$",
".$))&)&)&)&)&)&)&),)&)&)&)&)&)&)&)&)&),.'@@$",
".$&&)&)&)&)&)&!&)&)&)&)&)&)&)&)&)&)&)&).@@@$",
".$))&)&)&)&)&)&)&)&)&)&)&)&)&)&)&)&)&)&.'@@$",
".$&&&&&&&&,&&&&&&&&&&&&&,&&&&,&&&&,&&&&.@@@$",
".$))&)&)&)&)&)&)&)&)&)&)&)&)&)&)&)&)&)&.#@@$",
".$&&)&)&)&)&)&)&)&)&)&)&)&)&)&)&)&)&)&).@@@$",
".$))&)&)&)&)&)&)&)&)&)&)&)&)&)&)&)&)&)&.@@@$",
".$&&)&)&)&)&)&)&)&),)&)&)&)&)&)&)&)&)&).@@@$",
".$))&)&!&)&)&)&)&)&)&)&)&)&)&)&)&)&)&)&.@@@$",
".$)))))))))))))!))))))))))!)))))))))))).@@@$",
".$)))))))))))))))))))))))))))))!))))))).@@@$",
".$)))))))))!))))))))))))))))))))))))))).@@@$",
".$))&)&)&)&)&)&)&)&)&),)&)&)&)&)&)&)&)&.@@@$",
".$)))))))))))))))))))))))))))))))))))!).@@@$",
".$......................................@@@$",
".$$$$$$$$$$$$$$$$$$$$$$$$$$$$$$$$$$$$$$$$$$$"};
