/* XPM */
static char * TextEditor_icon_xpm[] = {
"56 46 19 1",
" 	c None",
".	c #FFFFFF",
"+	c #6986BE",
"@	c #9E9A9E",
"#	c #010101",
"$	c #717986",
"%	c #BEBABE",
"&	c #000014",
"*	c #AEAAAE",
"=	c #F7B2AE",
"-	c #7992B6",
";	c #C7BAC7",
">	c #DFBA8E",
",	c #5155FF",
"'	c #79869E",
")	c #A69EA6",
"!	c #BEC3BE",
"~	c #BEC3CF",
"{	c #AEAEB6",
"                                                        ",
"                                                        ",
"                                                        ",
"                                                        ",
"                                                        ",
"      ...........................................       ",
"      .+@++.@+@+@+@+@+@+@+@+@+++++++++++.+++#.+++#      ",
"      .@+@+.@@+@+@+@+@+@+@+@+@+@+@+@++++.+++#.+++#      ",
"      .+@++.@+@+@+@+@+@+@+@+@+@+@+$++++#.+++#.+++#      ",
"      %##########################&&###############      ",
"      .#%%%%%%%%%%%%%%%%%%%%%%%%%%%%%%%%%%%%%.@@@#      ",
"      .#%%%%%%%%%%%%%%%%%%%%%%%%%%%%%%%%%%%%%.@+@#      ",
"      .#%%%%%%%%%%%%%%%%%%%%%%%%%%%%%%%%%%%%%.+@+#      ",
"      .#%%%%%%%%%%%%%%%%%%%%%%%%%%%%%%%%%%%%%.@+@#      ",
"      .#%%%#+#%##%#+#+#+%#+#%##%#%#%##%#+%%%%.+@+#      ",
"      .#%%%%%%%%%%%%%%%%%%%%%%%%%%%%%%%%%%%%%.@++#  *+  ",
"      .#%%%#%#+%##%#%##%#+%##%#%##%#%##%#%%%%.+@+#%++=  ",
"      .#%%%%%%%%%%%%%%%%%%%%%%%%%%%%%%%%%%%%%.@++++=..  ",
"      .#%%%##+%##%#+#%#%##%#%##%#+%##%#+%%%%%.+++=....  ",
"      .#%%%%%%%%%%%%%%%%%%%%%%%%%%%%%%%%%%%%%++=....=*  ",
"      .#%%%#+#%#%##%+#+%%%%%%%%%%%%%%%%%%%%++=....=*@@  ",
"      .#%%%%%%%%%%%%%%%%%%%%%%%%%%%%%%%%%++=....=*@@@@  ",
"      .#%%%##+%##%##%#+##%#%#+#+%#@#@%%++=....=*@@@@+#  ",
"      .#%%%%%%%%%%%%%%%%%%%%%%%%%%%%%++=....=*@@@@+###  ",
"      .#%%%##%##%#%##%##%#%##%##%#%%#=....=*@@@@+#####  ",
"      .#%%%%%%%%%%%%%%%%%%%%%%%%%%%#....=*@@@@+######   ",
"      .#%%%#+#%+%##%#%##%+#%##%#%%+@..=*@@@@+######     ",
"      .#%%%%%%%%%%%%%%%%%%%%%%%%%+.@=*@@@@+######+      ",
"      .#%%%#+#%##%#%%%%%%%%%%%%%+.=@+@@@+######++#      ",
"      .#%%%%%%%%%%%%%%%%%%%%%%%+..=@#@+######+@++#      ",
"      .#%%%##+%#%#+#%##%+#%#%%$.===*-######+@%+++#      ",
"      .#%%%%%%%%%%%%%%%%%%%%;$&*>**>*####+@%%.+++#      ",
"      .#%%%#%##%##%##%+#%#+%+&&#$,-'$++)%%%%%.+++#      ",
"      .#%%%%%%%%%%%%%%%%%%;%%%%%!!!~~~%%%%%%%.+++#      ",
"      .#%%%#+#%#%+#%#%%%%%%%%%%%%%%%%%%%%%%%%.+$+&      ",
"      .#%%%%%%%%%%%%%%%%%%%%%%){%%%%%%%%%%%%%.+++#      ",
"      .#%%%%%%%%%%%%%%%%%%%;%%*@@*%%%%%%%%%%%.+++#      ",
"      .#%%%%%%%%%%%%%%%%%%%%%%%@@@@{%%%%%%%%%.+++#      ",
"      .#%%%%%%%%%%%%%%%%%%%%%%%*@@@@@*%;%%%%%.+++#      ",
"      .#........................%%%%%%%.......+++#      ",
"       ###########################################      ",
"                                @@#@#@#@#               ",
"                                 +@#@#@#@#              ",
"                                  +@#@#@#@#             ",
"                                   +@+@+@+@             ",
"                                                        "};
