/* XPM */
static char * Viewer_icon_xpm[] = {
"56 46 20 1",
" 	c None",
".	c #BEB6BE",
"+	c #C7BAC7",
"@	c #F7B2AE",
"#	c #FFFAFF",
"$	c #9E9A9E",
"%	c #A69EA6",
"&	c #6986BE",
"*	c #AEA6AE",
"=	c #AEAEB6",
"-	c #9696AE",
";	c #717986",
">	c #000014",
",	c #030304",
"'	c #DFBA8E",
")	c #386DA6",
"!	c #7992B6",
"~	c #AEB2CF",
"{	c #BEC3CF",
"]	c #B6AEB6",
"                                                        ",
"                                                        ",
"                                                        ",
"                                                        ",
"                                                        ",
"                                                        ",
"                                                        ",
"                                                        ",
"                                                        ",
"                                                        ",
"                                                        ",
"                      .+@@#@#@@@@..                     ",
"                    .@@@@#@#@#@@+@+@.                   ",
"                  +@@@@@#@###@+@@$@.@.                  ",
"                ..@@+@+@@#@#@.%@&$.@&*@                 ",
"               +@@@+@.@*%$.$.$$&&*=-;@$*@               ",
"              .@@@+@.*;>,>,,,>,,>,;&=%;@.@              ",
"             *@@+.'&&>>$***&,,,,,,>>,>)+%@+             ",
"            *@@.*;>,,;&%$##*&,,,,!&&&,,,;+;@            ",
"           *@@.*&>>,&&&$$###&,,&,&*$&&&>>>&%%           ",
"          *@@';&-,,&-&>,,@#@&,,&,&**-&&.&,,,,,$         ",
"         *@@.)&%$,&$$&,,,&&;>,,&,&$$*&&#.*&,&&;$        ",
"        *@@';~*+.$&*$$&,,,>>,,*&,&*.$&&###.*&>&&$       ",
"       *.@+)-.###{;..*&,,,,,,$.>;$$*$&&#####.$&,,&      ",
"      *+@*;~+####.&]$$*&,,,&$&,&-+*%$;{#####.$&&        ",
"      .@#;-.######&;*.%$&,,,,,&$$*.*$&#####@+-;         ",
"     $@#&-%#######+&+$$*$$*$*$$..$**;{####@.$&          ",
"     *@.$%$########{;$*.$.*$*$%*+*%;-####@+-;           ",
"      @+...#########{;]$$*]$**$%*%$%####@.-;            ",
"        @@+.#@#@#####{;$***$.*$%;;$####@+-;             ",
"          $&$..#@#@#@#{.;%;%;;)&+@####.*$&              ",
"             ;&$*.#.#.#+#+#@#@#@###@.*$&%               ",
"               &&$*..#.#+#.#+#{#@+*$&&$                 ",
"                 $&&;$*...+....*$&&$%                   ",
"                    -;&&&&&;&&&&$$%*                    ",
"                                                        ",
"                                                        ",
"                                                        ",
"                                                        ",
"                                                        ",
"                                                        ",
"                                                        ",
"                                                        ",
"                                                        ",
"                                                        ",
"                                                        "};
