/* XPM */
static char * web_xpm[] = {
"44 40 35 1",
" 	c None",
".	c #3963A5",
"+	c #8E8A8E",
"@	c #030304",
"#	c #9E9A9E",
"$	c #000011",
"%	c #BEB6BE",
"&	c #A6798E",
"*	c #79869E",
"=	c #000000",
"-	c #898989",
";	c #848484",
">	c #949494",
",	c #AA9789",
"'	c #A2A2A2",
")	c #FFFFFF",
"!	c #848483",
"~	c #567382",
"{	c #567381",
"]	c #8C8C8C",
"^	c #999284",
"/	c #AD9B8D",
"(	c #B6AEB6",
"_	c #717986",
":	c #AEA671",
"<	c #C3B1A3",
"[	c #9A9384",
"}	c #9696AE",
"|	c #867986",
"1	c #AEB2CF",
"2	c #A69EA6",
"3	c #AE9E59",
"4	c #8E8679",
"5	c #7B7B7B",
"6	c #050A10",
"                  .+.+.+.                   ",
"               ..........@.@.               ",
"             .@#+#.$.$.%&*.+@@@             ",
"           =.=.=.=-;=.=;-;-=.====           ",
"         .=.=.->=.-...-..>->=.=.==          ",
"        .=.=.;,;,;>;.;,;,;>;,=.=.==         ",
"       .=.=..>-..>->;>->;>-=.>=.=.==        ",
"      .=.=.=....>;,;>;,;>;,;>=.=.=.==       ",
"      =.=.....'>')')'>'>'>'>'.===>=.=.      ",
"     =.=.=.=..>))!>!>!>!~!>!.=.{=..===      ",
"    ..=....>!)!)!)!)!>!>!>!>=.=>==.>===     ",
"    .=.=..>=)))))=)=>=>=>=>=>=.=.=.=.==     ",
"    @.;>'.])])])])])]>]>]>]>].=.=.=.=.==    ",
"   ..=>^>>.))))))>)/>>>/>>>/>=.=.=.=.=.=    ",
"   +@.;..)])])])])])]>]>]>]>=.=.=.=.====    ",
"   +(=.>..)>)>)>)>>>>>>>>>>>.=.=.=.=.=.==   ",
"  ._:>=.<).)~)/)[)[)/>/>/>/>=.=.=.=.=.===   ",
"  }|1>>=>>>>>>>>>>>>>>>>>>>>.=.=.=.===.==   ",
"  .++>>.=.>>/>)>)>>>/>>>/>>>/.=.=.=.=.===   ",
"  .+}>>>>=.=.=>>>>>>>>>>>>>>>>.=.===.=.==   ",
"  ._2>>>=.=.=.=.>>>>>>>>>>>>.>.>.>.======   ",
"  ._3>>>.=.=.=.=.>>>>>>>>>>>>.>....=.=.==   ",
"  .}45>>=.=.=.=.=5=>>5>>>5.>.5.>....=====   ",
"   *&>>>.=.=.=.=.=.=.>>>>>>>>.......=.===   ",
"   ._>>5>.=.=.=.=.=.=.=5.5.5.>....=.====    ",
"   .3>>>>..=.=.=.=.=.=>>>.>.>........===    ",
"    .5>5>5>.=.=.=.=.=5.5.5.5....=.=.=.==    ",
"    $>>>>>>>.=.=.=.=.>>.>.>........====     ",
"    ..>5.5.5=.=.=.=..5.5.5.5..=.=.=.=.=     ",
"     ...>.5>.=.=.=5>>...>........=====      ",
"      ...5.5=.=.=5.5.5.5....=.=.=.=.=6      ",
"      .=..5..=.=..5............======       ",
"       ....5=.=5.5.5......=.=.=.=.==        ",
"        .=...=..........=....======         ",
"         .....=......=....=.=.=.==          ",
"           .$..........$.$.@$@@@@           ",
"             .$.$.$.$.$.$.$.@@@             ",
"               $.$.$.$.$.$@@@               ",
"                  $.$.$.$                   ",
"                                            "};
