/* XPM */
static char * Document_xpm[] = {
"22 17 12 1",
" 	c None",
".	c #FFFFFF",
"+	c #AAAAAA",
"@	c #000000",
"#	c #959595",
"$	c #999999",
"%	c #777777",
"&	c #5577AA",
"*	c #7B7B7B",
"=	c #FFAA99",
"-	c #AFAFAF",
";	c #3B67A2",
"....................+@",
".##$$$$$$$$$$$$$%$%%&@",
".##$$$$%$%$%$%$%$%$%%@",
".##$.............%%%&@",
".##$..++.........&%%%@",
".#*$..==%.=+++...@%%&@",
".##%.............@%%%@",
".##$..%+++++.+...@%%&@",
".##%..+.+.+.+....@%%%@",
".#*$..++++.+.+...@%%&@",
".##%..+.+.+++...+@%%%@",
".#*$..++++.+..%+%@%%&@",
".##%..+.+.+...&%@@%%%@",
".#*$.........+@@@&%%&@",
".##%&@@@@@@@@@@&&%%%%@",
"-;*%&%&%&%&%&%&%&%&%&@",
"@@@@@@@@@@@@@@@@@@@@@@"};
