/* XPM */
static char * Document_icon_xpm[] = {
"16 17 7 1",
" 	c None",
".	c #FFFFFF",
"+	c #AAAAAA",
"@	c #5577AA",
"#	c #FFAA99",
"$	c #777777",
"%	c #000000",
"                ",
"                ",
"                ",
" .............  ",
" ..++.........@ ",
" ..##$.#+++...% ",
" .............% ",
" ..$+++++.+...% ",
" ..+.+.+.+....% ",
" ..++++.+.+...% ",
" ..+.+.+++...+% ",
" ..++++.+..$+$% ",
" ..+.+.+...@$%% ",
" .........+%%%@ ",
" @%%%%%%%%%%@@  ",
"                ",
"                "};
