/* XPM */
static char * Execute_icon_xpm[] = {
"19 16 9 1",
" 	c None",
".	c #7B7B7B",
"+	c #000000",
"@	c #FFFFFF",
"#	c #AFAFAF",
"$	c #3B67A2",
"%	c #959595",
"&	c #AA907C",
"*	c #FFA997",
"                   ",
"        ..         ",
"       .++.        ",
"  ... .+@@+. ...   ",
" ..++..+@#+..++.   ",
" .+@@++@..@+$@@+   ",
" .$#.@@.++.@@.#+   ",
" %.+@.+.##.+.#$+   ",
" %.+@+&@@@@&+#++   ",
" ++@..@*##.#$$@.++ ",
" @@.+.@#++.$.+.@@+ ",
" ##.+.@#++.$$+.##+ ",
" +$@$.@....$$$#$+  ",
" .$+@+&#$$$$+$+$   ",
" .$$++++++++++$    ",
"                   "};
