/* XPM */
static char * Shell_xpm[] = {
"22 17 11 1",
" 	c None",
".	c #FFFFFF",
"+	c #AAAAAA",
"@	c #000000",
"#	c #AFAFAF",
"$	c #959595",
"%	c #999999",
"&	c #777777",
"*	c #5577AA",
"=	c #7B7B7B",
"-	c #3B67A2",
"....................+@",
".#$%%%%%%%%%%%%%%%&&*@",
".#.................%&@",
".#.**.************@&*@",
".#.@@&*@*@*@*@*@*@@%&@",
".#.@++++++++++++++*&*@",
".$.@+@&++.++++++++@%&@",
".#.@+@&@+.++++++++*&*@",
".$.@+@&++.++++++++@%&@",
".#.@++++++++++++++*&*@",
".$.@++++++++++++++@%&@",
".#.@++++++++++++++*&*@",
".$.@..............@%&@",
".#.@@@@@@@@@@@@@@@@&*@",
".$$&%&%&%&%&%&%&%&%&&@",
"#=-&*&*&*&*&*&*&*&*&*@",
"@@@@@@@@@@@@@@@@@@@@@@"};
