/* XPM */
static char * Terminal_icon_xpm[] = {
"19 16 7 1",
" 	c None",
".	c #7B7B7B",
"+	c #959595",
"@	c #FFFFFF",
"#	c #3B67A2",
"$	c #AFAFAF",
"%	c #000000",
"                   ",
"   ............+   ",
"   .@@@@@@@@@@#.   ",
"   .@########$%.   ",
"   .@#@.#%%%#$%.   ",
"   .@#.%%%%%#$%.   ",
"   .@##%%%%%#$%.   ",
"   .@########$%.   ",
"   .$$$$$$$$$$%.   ",
"   .#%%%%%%%%%%.   ",
" .@@@@@@@@@@@@@@$. ",
" .@$$$$$$$$$$$$$#. ",
" .@.#.#.#.#%%#.$%. ",
" .$$$$$$$$$$$$..%# ",
" .%%%%%%%%%%%%%%%# ",
"                   "};
