/* XPM */
static char * Viewer_icon_xpm[] = {
"22 15 9 1",
" 	c None",
".	c #AFAFAF",
"+	c #FFA997",
"@	c #959595",
"#	c #7B7B7B",
"$	c #3B67A2",
"%	c #000000",
"&	c #FFFFFF",
"*	c #AA907C",
"                      ",
"       .+++++++.      ",
"     .+++++@+@+++.    ",
"    .+@#$%%%%%$@@+.   ",
"   .+#$%$@&$%%$$%$+.  ",
"  .+$#%#%$&$$%@#$$%*# ",
" .+$@@$#%%%$#%##$+@$$ ",
" +$@&&$#$%%%%#@#@&&@  ",
" $#&&&@$##*#@#*#&&+%  ",
" @@+&&&@$#@#@*#&&+%   ",
" #$$$+&&@$$##@&+#%    ",
"    $%$++&+&+&.$%     ",
"     #$%%%%%%%%$      ",
"         $$$$$        ",
"                      "};
