/* XPM */
static char * Calculator_xpm[] = {
"38 34 10 1",
" 	c None",
".	c #505050",
"+	c #999999",
"@	c #AAAAAA",
"#	c #D8D8D8",
"$	c #5577AA",
"%	c #000000",
"&	c #888888",
"*	c #FFFFFF",
"=	c #EEAA99",
".....................................+",
".+@+@+@+@+@+@+@+@+@+@+@+@+@+@+@+@+@+@#",
".@@@@@@@@@@@@@@@@@@@@@@@@@@@@@@@@@@@@#",
".+@+@+@+@$%%%%%%%%%%%%%%%%$+@+@+@+@+@#",
".@@@+@@@+$$%%%%%%%%%%%%%%$$@+@@@+@@@+#",
".+@+@+@+@$&&*@@&@@&@&@@*@&$+@+@+@+@+@#",
".@+@@@+@@$%%%%%%%%%%%%%%%%$@@@+@@@+@@#",
".+@+@+@+@$%$&%%%%%%%%%%%%%$+@+@+@+@+@#",
".@+@+@+@+$%%%%%%%%%%%%%%%%$@+@+@+@+@+#",
".+@+@+@+@$%$$$$$$$$$$$$$$%$+@+@+@+@+@#",
".++@+++@+$%&@@@@@@@@@@@@&%$@+++@+++@+#",
".+@+@+@+@$%&*@@@@@@@&&$@&%$+@+@+@+@+@#",
".++++++++$%&*@@@@@&@&&&@&%$++++++++++#",
".+@+@+@+@$%&&$$$$$$$$$$$$%$+@+@+@+@+@#",
".++++++++$$%%%%%%%%%%%%%%$$++++++++++#",
".+++@+++@$****************$+@+++@+++@#",
".++++++++$*@&*@&*@&*@&*@&*$++++++++++#",
".++++++++$****************$++++++++++#",
".++++++++$*@&*@&*@&*@&*@&*$++++++++++#",
".&+++&+++$****************$++&+++&+++#",
".++++++++$*$%*$%*$%*==*==*$++++++++++#",
".++&+++&+$*%%*%%*%%*=@*=@*$&+++&+++&+#",
".++++++++$****************$++++++++++#",
".&+&+&+&+$*$%*$%*$%*&&*&&*$&+&+&+&+&+#",
".++++++++$*%%*%%*%%*&$*&$*$++++++++++#",
".&+&+&+&+$****************$&+&+&+&+&+#",
".+&+++&++$*$%*$%*$%*&&*&&*$+++&+++&++#",
".&+&+&+&+$*%%*%%*%%*&$*&$*$&+&+&+&+&+#",
".+&+&+&+&$****************$+&+&+&+&+&#",
".&+&+&+&+$%%%%%%%%%%%%%%%%$&+&+&+&+&+#",
".&&+&&&+&&$$$$$$$$$$$$$$$$&+&&&+&&&+&#",
".&+&+&+&+&+&+&+&+&+&+&+&+&+&+&+&+&+&+#",
".&&&&&&&&&&&&&&&&&&&&&&&&&&&&&&&&&&&&#",
"+#####################################"};
