/* XPM */
static char * cli_xpm[] = {
"38 34 17 1",
" 	c None",
".	c #505050",
"+	c #999999",
"@	c #848484",
"#	c #898989",
"$	c #D8D8D8",
"%	c #AA9789",
"&	c #FFFFFF",
"*	c #000000",
"=	c #ADADAD",
"-	c #9A9B97",
";	c #567390",
">	c #999284",
",	c #B6B6B6",
"'	c #88887F",
")	c #B2AEB6",
"!	c #888888",
".....................................+",
".@#@#@#@#@#@#@#@#@#@#@#@#@#@#@#@#@#@#$",
".%#%#%#%#%#%#%#%#%#%#%#%#%#%#%#%#%#%#$",
".@%@%@%@%@%@%@%@%@%@%@%@%@%@%@%@%@%@%$",
".%#%@%#%@%#%@%#%@%#%@%#%@%#%@%#%@%#%@$",
".@%@%@%@%@%@%@%@%@%@%@%@%@%@%@%@%@%@%$",
".%@%&&&&&&&&&&&&&&&&&&&&&&&&&&&&&*@%#$",
".@%@&=*-;-;-;-;-;-;-;-;-;;;;&;&;;*%@%$",
".%@%&=*--;-;-;-;-;-;-;-;-;-;&;&;;*@%@$",
".>%>&*****************************%>%$",
".>@%&*,,,,,,,,,,,,,,,,,,,,,,,,,&-*@%@$",
".>%>&*,,,,,,,,,,,,,,,,,,,,,,,,,&-*%>%$",
".>@>&*,,,*,,,,,,,,,,,,,,,,,,,,,&;*@>@$",
".>%>&*,,**,,*-,,,,,,,,,,,,,,,,,&-*%>%$",
".>>>&*,-;*,,-*-,,,,,,,,,,,,,,,,&;*>>>$",
".>>>&*,,,*,,-*-,,,,,,,,,,,,,,,,&-*>>%$",
".>>>&*,,,*,,*-,,,,,,,,,,,,,,,,,&;*>>>$",
".>>>&*,,,-,,,,,,,,,,,,,,,,,,,,,&-*>>>$",
".+>+&*,,,,,,,,,,,,,,,,,,,,,,,,,&;*>+>$",
".'>>&*,,,,,,,,,,,,,,,,,,,,,,,,,&-*>>>$",
".+>+&*,,,,,,,,,,,,,,,,,,,,,,,,,&-*>+>$",
".>>'&*,,,,,,,,,,,,,,,,,,,),,,,,&;*>'>$",
".+>+&*,,,,,,,,,,,,,,,,,,,,,,,,,&-*>+>$",
".'+'&*,,,,,,,,,,,,,,,,,,,,,,,,,&;*+'+$",
".+>+&*,,,,,,,,,,,,,,,),,,,,,,,,&-*>+>$",
".'+'&*=========================&;*+'+$",
".+'+&*****************************'+>$",
".'+'+'+'+'+'+'+'+'+'+'+'+'+'+'+'+'+'+$",
".+'+'+'+'+'+'+'+'+'+'+'+'+'+'+'+'+'+'$",
".!+!+!+!+!+!+!+!+!+!+!+!+!+!+!+!+!+!+$",
".!'+'!'+'!'+'!'+'!'+'!'!'+'+'!'+'!'+'$",
".!+!+!+!+!+!+!+!+!+!+!+!+!+!+!+!+!+!+$",
".!'!!!'!!!'!!!'!!!'!!!'!!!'!!!'!!!'!!$",
"+$$$$$$$$$$$$$$$$$$$$$$$$$$$$$$$$$$$$$"};
