/* XPM */
static char * filemanager_small_xpm[] = {
"38 34 9 1",
" 	c None",
".	c #FFFFFF",
"+	c #AAAAAA",
"@	c #999999",
"#	c #EEAA99",
"$	c #AA9988",
"%	c #888888",
"&	c #000000",
"*	c #5577AA",
".....................................+",
".@#+++++++$$$$$$$$$$$$$$$$$$$$%%$$$%%&",
".++&&&&&&&&&&&&&&&&&&&&&&&&&&&&&&&&&$&",
".@#+++++$$$$$$$$$$$$$$$$$$$$%$%%$%$%%&",
".+...............+$................+$&",
".@.**%*%%%%$$$$$$&$.*%****%$%$%%.%$&%&",
".+.*%***$%%%&&..&&+.*$%*$%*$%%...$.&$&",
".@.*%%%%%%%@@@@+&&$.*%%%%%%@@@@@.%@&%&",
".+.****%**$%%&@@&&$.*%***&&%%%@&.&&&$&",
".@.%%%%%%%@@@@@+&&$.*%%%%%@@@@@&.&&&%&",
".+.*%****$%&&@@@&&+.&$%%&$%%@@@&.&&&$&",
".@.%%%%%%@@@@@++&&$.%%%%%@@@@@+&.&&&%&",
".+.*%****$&$%%@+&&$.&&&$%%%%@@@&.&&&$&",
".@.%%%%%@@@@@+++&&$.%%%%@@@@@++&.&&&%&",
".+.%%&&%%$&$%%@+&&$.&$%%%%@@@@@&.&&&$&",
".@.%%%%@@@@+++++&&$.%%%@@@@@+++&.&&&%&",
".+.%%&%&&@@@@@++&&$.&$%%&%&%&&+&.&&&$&",
".@.%%%@@@@@++++#@&$.%%@@@@@++++&.&&&%&",
".+.%%&&&%&&@@+++@&$.&$&$%%&$%%+&.&&&$&",
".@.%%@@@@@++++##@&$.%@@@@@++++#&.&&&%&",
".+.%&$&&$%%@++++@&$.&%&&$%%&&++&.&&&$&",
".@.%@@@@@++++###&&$.@@@@@++++##&.&&&%&",
".+.%%&&%&&%&&++#@&$.&$%%%&&&$%%&.%&&%&",
".@.@@@@@+++++###&&$.@@@@++++###&.&&&%&",
".+.%%&&%&&++++##@&$.&$%%%+++++#@.%@&$&",
".@+&&&&&&&&&&&&&&&$+&&&&&&&&&&&&&&&&%&",
".+$++++++++$+$+$$$$$$$$$$$$$$$$%%$%$%&",
".@.....$....$....$....$....%......&%%&",
".+.&&&&+&&&&$&&&&$&&&&$&&&&$&&&&&&&%%&",
".@#$$$$$$$$$$$$$$$$$$%$%%%%%%%%%%%%%%&",
".+.....+....+....$....$....$......&%%&",
".@.&&&&$&&&&$&&&&$&&&&%&&&&%&&&&&&&%%&",
".@$+++++++$+$$$$$$$$$$$$$$$$$$%$%$%%%&",
"+&&&&&&&&&&&&&&&&&&&&&&&&&&&&&&&&&&&&&"};
