/* XPM */
static char * Help_xpm[] = {
"38 34 17 1",
" 	c None",
".	c #505050",
"+	c #999999",
"@	c #898989",
"#	c #848484",
"$	c #D8D8D8",
"%	c #AA9789",
"&	c #FFFFFF",
"*	c #3B67A2",
"=	c #959595",
"-	c #AFAFAF",
";	c #7B7B7B",
">	c #FFA997",
",	c #999284",
"'	c #000000",
")	c #88887F",
"!	c #888888",
".....................................+",
".@#@#@#@#@#@#@#@#@#@#@#@@#@#@#@##@#@#$",
".@%&&&&&&&&&&&&&&&&&&&&&&&&*=@%@%@%@%$",
".%#&&-&=&-&-&-&-&-&-&-&-&-&&*%#%#%#%#$",
".@%&-&;&;&-&;&;&;&-&-&-&;&;&&*=@%@%@%$",
".%#&&;&;&;&;&-;*******;-&;&;&&*==%#%#$",
".#%&-&;&;&;&;*;&&&&&&&-;;&;&;&&*=#%#%$",
".%#&&-&;&-&;*&&->->->->&*;&;&-&&*%#%#$",
".#%&-&-&;&-*&>->->->->->-*-&;&-&&*=#%$",
".%,&&-&-&-*&>->->->->->->*&-&-&;&&*%,$",
".#%&-&-&-&*&->-;''''->->-';&-&;&;&-#%$",
".%,&&;&-&-*&>->'*;;;*->->'&-&;&;&-;%,$",
".#,&-&;&-&*&->;*;--*&>->**;&-&;&-&*#,$",
".%,&&-&;&;&*&-';--*&>->-'*&;&-&-&;*%,$",
".,,&-&-&;&;&**;--*&>->-'*-;&;&-&;&',,$",
".,,&&-&;&;&-&---*&>->-'*--&;&-&-&;*,,$",
".,,&-&;&;&-&-&-*&>->-'*---;&;&;&-&',,$",
".,,&&;&;&-&;&-;&>->-'*----&;&;&;&-*,,$",
".,+&-&;&-&;&=&*&->-'*---;&;&-&;&-&',+$",
".,,&&;&-&;&;&-*->-;';---&;&-&;&-&;*,,$",
".,+&-&-&;&;&=&;***'*---&;&-&;&-&;&',+$",
".,)&&-&;&;&;&=&-***---&-&-&;&-&;&;*,)$",
".,+&-&;&;&;&=&-*&>**-&-&-&;&;&;&;&',+$",
".+)&&-&;&;&-&=*&>->';-&-&;&;&;&;&;*+)$",
".,+=&&-&;&-&-&*&->;';--&;&;&;&;&-&',+$",
".+)+)&&-&-&-&-;;>;**;-&;&;&;&;&-&-*+)$",
".)+)+=&&-&;&;&-;***;--;&-&;&;&;&-&')+$",
".+)+)+)&&-&;&-&-----&;&;&-&;&;&;&-*+)$",
".)+)+)+=&&-&-&-&---&;&;&-&-&;&;&;&')+$",
".+!+!+!+!&--&-&-&-&;&;&-&;&-&;&;&;*+!$",
".)+)+)+)+=-'''''''''''''''''''''''')+$",
".+!+!+!+!==************************+!$",
".)!)!)!)!)!)!)!)!)!)!)!)!)!)!)!)!)!)!$",
"+$$$$$$$$$$$$$$$$$$$$$$$$$$$$$$$$$$$$$"};
