/* XPM */
static char * Mail_xpm[] = {
"38 34 137 2",
"  	c None",
". 	c #FFFFFF",
"+ 	c #949494",
"@ 	c #848484",
"# 	c #898989",
"$ 	c #000000",
"% 	c #3963A5",
"& 	c #AA9789",
"* 	c #A2A2A2",
"= 	c #7E7E86",
"- 	c #8091A3",
"; 	c #CCCBCC",
"> 	c #9D9FA2",
", 	c #929292",
"' 	c #979CA2",
") 	c #151215",
"! 	c #386DA6",
"~ 	c #080408",
"{ 	c #626062",
"] 	c #8E8D8E",
"^ 	c #3D65A4",
"/ 	c #151415",
"( 	c #060606",
"_ 	c #0E0D0E",
": 	c #969596",
"< 	c #36363F",
"[ 	c #677B90",
"} 	c #878787",
"| 	c #818383",
"1 	c #939393",
"2 	c #7A8187",
"3 	c #000011",
"4 	c #8E8A8E",
"5 	c #253C65",
"6 	c #191819",
"7 	c #496CA6",
"8 	c #5C7684",
"9 	c #0B0B0B",
"0 	c #3E66A5",
"a 	c #3B64A4",
"b 	c #848483",
"c 	c #EBEBEB",
"d 	c #808284",
"e 	c #FDFDFD",
"f 	c #747F8A",
"g 	c #FFFAFF",
"h 	c #050205",
"i 	c #5773A2",
"j 	c #0D0D0D",
"k 	c #1D1C1D",
"l 	c #313031",
"m 	c #5873A5",
"n 	c #0D1A27",
"o 	c #FBFBFB",
"p 	c #0E1B29",
"q 	c #585658",
"r 	c #7181A1",
"s 	c #6C676C",
"t 	c #4E9B52",
"u 	c #867986",
"v 	c #8C8C8C",
"w 	c #F4F4F4",
"x 	c #768492",
"y 	c #687D9F",
"z 	c #717986",
"A 	c #51A249",
"B 	c #4B3740",
"C 	c #5D76A5",
"D 	c #232223",
"E 	c #0F0F0F",
"F 	c #8C8B8C",
"G 	c #999284",
"H 	c #888A8F",
"I 	c #9E9A9E",
"J 	c #B6AEB6",
"K 	c #C7BAC7",
"L 	c #BEB6BE",
"M 	c #A2A6B4",
"N 	c #181718",
"O 	c #4268A4",
"P 	c #0A0A0A",
"Q 	c #5B75A2",
"R 	c #5D88B6",
"S 	c #8E8679",
"T 	c #499241",
"U 	c #303037",
"V 	c #0D0C0D",
"W 	c #120D0F",
"X 	c #5B75A5",
"Y 	c #AEAEB6",
"Z 	c #7E8691",
"` 	c #918F91",
" .	c #D6E1EC",
"..	c #929192",
"+.	c #A5BDD6",
"@.	c #BEC3CF",
"#.	c #43434D",
"$.	c #5D77A2",
"%.	c #18181B",
"&.	c #183016",
"*.	c #C3B1A3",
"=.	c #A6798E",
"-.	c #6A7B86",
";.	c #EBEBEF",
">.	c #9D918B",
",.	c #E0DAC1",
"'.	c #9696AE",
").	c #4A9260",
"!.	c #767376",
"~.	c #161516",
"{.	c #101010",
"].	c #838B99",
"^.	c #6A829C",
"/.	c #9B9782",
"(.	c #607E9E",
"_.	c #797F89",
":.	c #353435",
"<.	c #050A04",
"[.	c #A9A277",
"}.	c #928B89",
"|.	c #4170A4",
"1.	c #534F53",
"2.	c #3F3D3F",
"3.	c #4D2B2B",
"4.	c #EFF3F7",
"5.	c #1E3A59",
"6.	c #656D78",
"7.	c #A7A4A7",
"8.	c #F7B2AE",
"9.	c #040204",
"0.	c #326295",
"a.	c #7B7B7B",
"b.	c #AE9E59",
"c.	c #79869E",
"d.	c #999999",
"e.	c #888888",
"f.	c #88887F",
". . . . . . . . . . . . . . . . . . . . . . . . . . . . . . . . . . . . . + ",
". @ # @ # @ # $ % $ % $ % $ # @ $ % $ @ # @ # $ % $ $ $ $ @ # @ # @ # @ # $ ",
". & # & # % $ % $ % # + $ % # % % % # % % + # + $ % $ % $ $ # & # & # & # $ ",
". @ & @ % $ % $ % @ & @ & @ + @ % @ & @ & @ + @ & $ % $ % $ $ @ & @ & @ & $ ",
". & # % $ % $ % % + # % % + # + @ + # + @ + # $ % + $ % $ % $ $ @ & # & @ $ ",
". @ % $ % $ % $ % % % % + @ & @ + @ & @ + @ & @ + $ % $ % $ % $ $ @ & @ & $ ",
". & $ % $ % % % % % * + * = - ; > , ' ) ! ~ ! { ] ^ / ( _ : < % $ % @ & # $ ",
". $ % $ % $ % $ % % + . . [ } | 1 2 3 ! ~ ~ 4 ~ 5 6 7 8 9 0 a $ $ $ % @ & $ ",
". % $ % % % % + b . b . b c d e f 3 ! ~ ~ g ~ 4 h i j : k l m + $ $ $ & @ $ ",
". $ % $ % % + $ . . . . . n o p ~ ! 3 ~ g g g ~ 4 q r s t ! u $ % $ $ % & $ ",
". % @ + * % v . v . v . v w x 3 ! ~ ~ g g g g g 3 y z ! ! g 3 A B C D E F $ ",
". $ + G + + % . . . . . . H ! I ! ~ g g g J g g g ~ ! K g g L ! M N O P Q $ ",
". % @ % % . v . v . v . v R S ! ~ g g g J g J g J J g g g g g 3 T U V W X $ ",
". $ % + % % 4 Y Z `  ...+.z ! ~ g g g J g J J J g g g g J g g @.! #.$.%.&.$ ",
". + $ % *.. =.4 -.;.>.,.'.! ~ g g g J g J J g g g g J J g g g g 3 ).!.~.{.$ ",
". + + $ + + ! ].^./.(._.! 3 g g g J J J g g g g J J g g J J g g L ! =.:.<.$ ",
". + + % $ % z [.}.|.=.! ~ g g g J J g g g g J J g g J J g g g g g 3 z 1.{.$ ",
". + + + + $ ! ! ! ! ! ! L L J J L J J J J J J J J J J J J J J J J L J 2.3.$ ",
". + + + $ % 3 g 4.g g g g g g g g g g g g g g g g g g g g g g g g g g 5.6.$ ",
". + + + % $ ~ g g J J g J g J g g g g g g g g g g g g g g g 7.8.7.g g 9.0.$ ",
". a.+ + $ % ~ g g J g J g J g g g g g g g g g g g g g g g g S 7.b.g g 3 b.$ ",
". + + + % $ ~ g g g g g g g g g g g g g g g g g g g g g g g ! 8.8.g g ~ ! $ ",
". + + a.+ % ~ g g g g g g g g g g g g g g g g g g g g g g g 8.8.8.g g 3 z $ ",
". + + + + % 3 g g g g g g g g g g g 4 c.J J J g g g g g g g g g g g g ~ ! $ ",
". a.+ a.+ a.~ g g g g g g g g g g g g g g g g g g g g g g g g g g g g ~ 4 $ ",
". + + + + + ~ g g g g g g g g g g g 4 S J 4 J J 4 J J J g g g g g g g ~ ! $ ",
". % + a.% a.~ g g g g g g g g g g g g g g g g g g g g g g g g g g g g ~ 4 $ ",
". % % % + % 3 g g g g g g g g g g g =.c.J J 4 J 4 S L g g g g g g g g ~ ! $ ",
". d.% % % a.~ g g g g g g g g g g g g g g g g g g g g g g g g g g g g ~ =.$ ",
". e.% $ % % ~ g g g g g g g g g g g g g g g g g g g g g g g g g g g g ~ ! $ ",
". e.f.% % % ~ g g g g g g g g g g g g g g g g g g g g g g g g g g g g ~ z $ ",
". e.d.e.% $ 4 ! ! ~ ~ ~ ~ ~ ~ ~ ~ ~ ~ ~ ~ ~ ~ ~ ~ ~ ~ ~ ~ ~ ~ ~ ~ ~ ~ ~ ! $ ",
". e.f.e.e.% z =.4 ! 4 ! 4 ! 4 ! 4 ! 4 ! 4 ! 4 ! 4 ! 4 ! 4 ! 4 ! 4 ! 4 ! 4 $ ",
"+ $ $ $ $ $ $ $ $ $ $ $ $ $ $ $ $ $ $ $ $ $ $ $ $ $ $ $ $ $ $ $ $ $ $ $ $ $ "};
