/* XPM */
static char * media_small_xpm[] = {
"38 34 9 1",
" 	c None",
".	c #FFFFFF",
"+	c #000000",
"@	c #AAAAAA",
"#	c #EEAA99",
"$	c #5577AA",
"%	c #999999",
"&	c #AA9988",
"*	c #888888",
".....................................+",
".@@@@@@@@@@@@@@@.#.....+$$@@@%%%%%%%%+",
".@@@@@@@@@@@@@@.#.......+$$%%%%%%%%%%+",
".@@@@@@@@@@@@@.#.........+$$%%%%%%%%%+",
".@@@@@@&$.&@@.#..........+$$$%%%%%%%%+",
".@@@@@%.$..@.*..........+$$$$$%%%%*%*+",
".@@%@@&.+.$.#$*........+$@$$$$%%%%%*%+",
".@%@&.&.+.$..$$*......+$.@.$$+.......+",
".&&..$&.+.+.$.$$*....+$..@@.+*$%$%.*.+",
"...$.+..+.+.+..$$*..+$..@@@**.%.*.*.*+",
".$+.$.++.+.+.+$.$$*+$.+$.@*$.%.%.%.*.+",
"...#+.&..+.+.&...$$$$.@+$*$%..*.*.*.*+",
".@&.$.&&.+.$.&&%%.$$$$.@*$%%%%%%%*%*.+",
".@@&.&%&.+.$.@.....$$$$*$....%$$$$$.++",
".@@%&&@&.+..&%..%%&@++$*&&&#&+$$$$.+++",
".@%@%@%@.$.&%@..%&%&&&&&&&#&$+$%*.++++",
".@@@@%@%.$&%%%..&%&&%&&&&#&$$+$%.++.++",
".@%@%@%@&.&@%@..%&&&&&&&#&$%$+$.++++$+",
".@@@@@%%@%%%%%..&&&&&&%.&$%%$+.++.+$%+",
".@@@%@%@%@%%%@..&&&&%%*+%%*%$.++++++$+",
".@$..........%..&&&%%$$%%%%%.++.+$++++",
".@$.$@$@%$%@.%..&&&$$$%%*%*.++++$%$+++",
".@$.@$%$.....%..&&&&%%%%%%.++.+$%$$$++",
".@$.$@$@%@...@%++++++++++.++++$%$%$$$+",
".@$.@$@$%%%%...$$$$$$$$$.++.+++$$$$$++",
".@$.%@%@.......+%%%%*%*.++++$+++$$$+.+",
".@$............+%%%%%%.++.+$%$+++$++++",
".@@$++++++++++++%%***.++++$*$$$+++.+++",
".@@@@%%%%%%%%%%%****.++.+$*$*$$$++++*+",
".%@@%@%@%%%%%%*%*%*.++++++$$$$$+.++**+",
".@@%%%%%%%%%%*****.++.+$+++$$$+.++%%%+",
".@%%%%%%%%%%*%***.++++$%$+++$+.++%%%%+",
".%%%%%%%%%******.++.+$*$$$+++.++%%%%%+",
".+++++++++++++++++++++++++++++++++++++"};
