/* XPM */
static char * monitor_small_xpm[] = {
"38 34 7 1",
" 	c None",
".	c #FFFFFF",
"+	c #949494",
"@	c #ADADAD",
"#	c #000000",
"$	c #3963A5",
"%	c #7B7B7B",
".....................................+",
".@@@@@@@@@@@@@@@@@@@@@@@@@@@@@@@@@@@@#",
".@$..............................$@@@#",
".@$...@.@.@.@.@.@.@.@.@.@.@.@.@.@#@@@#",
".@$..%%%%%%%%%%%%%%%%%%%%%%%%%@@@#@@@#",
".@$..%$$$$$$$$$$$$$$$$$$$$$$$$.@@#@@@#",
".@$..%$%%@@+@@@+@@@+@@@+@%%%%$.%@#@@@#",
".@$..%$%+@@@@@+@+@+@+@+@%@%@%$.@@#$@@#",
".@$..%$+@@@@@+@+@+@+@+@+@+@%%$.%@#$@@#",
".@$..%$@@@+@+@+@+@+@+@%@+@%@%%.@@#$@@#",
".@$..%$+@@@+@+@+@+++@+++@++%@$.%@#$@@#",
".@$..%$@@@+@+@+@+@+@+@+@%@%@%%.@@#$@@#",
".@$..%$+@+@+@++++++++++++%+%+$.%@#$@@#",
".@$..%$@@@+@+@+@+@+@+@%@%@%@%%.@@#$@@#",
".@$..%$@@+@++++++++++++%+%+%%$.%@#$@@#",
".@$..%$@+@+@+@+++@++%@%+%@%+%%.@@#$@@#",
".@$..%$@@+@++++++++++++%+%%%%$.%@#$@@#",
".@$..%$@+@+@++++++%+%+%+%+%%$%.@@#$@@#",
".@$..%$@++@++++++++++++%%%%%%$.%@#$@@#",
".@$..%$+++%+++%+%+%+%+%+%%%%$%.@@#$@@#",
".@$..%$%+++++++++++++%%%%%%$%$.%@#$@@#",
".@$..%$%$%$%$%$%$%$%$%$%$%$%$%.@@#$@@#",
".@$..%.........................%@#$@@#",
".@$..@.@.@.@.@.@.@.@.@.@.....@.@@#$@@#",
".@$..@@.$.@.@.@.@.@.@.@.@.%%@.@.@#$@@#",
".@$............................@@#$@@#",
".@$$$$%%%%%%%%%%%%%%%%@@@%%%%$#$#$$@@#",
".@@@@$.@.@.$.$.$.$.$.@%$%@.$.$$$$$$@@#",
".@@@@$..@.@.@.@.@.@.@.@.@.@..#$@@@@@@#",
".@@@@$$#$#$#$#$#$#$#$#$#$#$#$$$@@@@@@#",
".@@@@@@@$$$$$$$$$$$$$$$$$$$$$$$@@@@@@#",
".@@@@@@@@@@@@@@@@@@@@@@@@@@@@@@@@@@@@#",
".@@@@@@@@@@@@@@@@@@@@@@@@@@@@@@@@@@@@#",
"+#####################################"};
