/* XPM */
static char * Monitor_xpm[] = {
"38 34 10 1",
" 	c None",
".	c #505050",
"+	c #999999",
"@	c #ADADAD",
"#	c #D8D8D8",
"$	c #3963A5",
"%	c #FFFFFF",
"&	c #000000",
"*	c #7B7B7B",
"=	c #949494",
".....................................+",
".@@@@@@@@@@@@@@@@@@@@@@@@@@@@@@@@@@@@#",
".@$%%%%%%%%%%%%%%%%%%%%%%%%%%%%%%$@@@#",
".@$%%%@%@%@%@%@%@%@%@%@%@%@%@%@%@&@@@#",
".@$%%*************************@@@&@@@#",
".@$%%*$$$$$$$$$$$$$$$$$$$$$$$$%@@&@@@#",
".@$%%*$**@@=@@@=@@@=@@@=@****$%*@&@@@#",
".@$%%*$*=@@@@@=@=@=@=@=@*@*@*$%@@&$@@#",
".@$%%*$=@@@@@=@=@=@=@=@=@=@**$%*@&$@@#",
".@$%%*$@@@=@=@=@=@=@=@*@=@*@**%@@&$@@#",
".@$%%*$=@@@=@=@=@===@===@==*@$%*@&$@@#",
".@$%%*$@@@=@=@=@=@=@=@=@*@*@**%@@&$@@#",
".@$%%*$=@=@=@============*=*=$%*@&$@@#",
".@$%%*$@@@=@=@=@=@=@=@*@*@*@**%@@&$@@#",
".@$%%*$@@=@============*=*=**$%*@&$@@#",
".@$%%*$@=@=@=@===@==*@*=*@*=**%@@&$@@#",
".@$%%*$@@=@============*=****$%*@&$@@#",
".@$%%*$@=@=@======*=*=*=*=**$*%@@&$@@#",
".@$%%*$@==@============******$%*@&$@@#",
".@$%%*$===*===*=*=*=*=*=****$*%@@&$@@#",
".@$%%*$*=============******$*$%*@&$@@#",
".@$%%*$*$*$*$*$*$*$*$*$*$*$*$*%@@&$@@#",
".@$%%*%%%%%%%%%%%%%%%%%%%%%%%%%*@&$@@#",
".@$%%@%@%@%@%@%@%@%@%@%@%%%%%@%@@&$@@#",
".@$%%@@%$%@%@%@%@%@%@%@%@%**@%@%@&$@@#",
".@$%%%%%%%%%%%%%%%%%%%%%%%%%%%%@@&$@@#",
".@$$$$****************@@@****$&$&$$@@#",
".@@@@$%@%@%$%$%$%$%$%@*$*@%$%$$$$$$@@#",
".@@@@$%%@%@%@%@%@%@%@%@%@%@%%&$@@@@@@#",
".@@@@$$&$&$&$&$&$&$&$&$&$&$&$$$@@@@@@#",
".@@@@@@@$$$$$$$$$$$$$$$$$$$$$$$@@@@@@#",
".@@@@@@@@@@@@@@@@@@@@@@@@@@@@@@@@@@@@#",
".@@@@@@@@@@@@@@@@@@@@@@@@@@@@@@@@@@@@#",
"+#####################################"};
