/* XPM */
static char * music_xpm[] = {
"38 34 11 1",
" 	c None",
".	c #505050",
"+	c #999999",
"@	c #AAAAAA",
"#	c #D8D8D8",
"$	c #EEAA99",
"%	c #FFFFFF",
"&	c #5577AA",
"*	c #000000",
"=	c #AA9988",
"-	c #888888",
".....................................+",
".@@@@@@@@@@@@@@@@@@@@@@@@@@@@@@@@@@@@#",
".@@@@@@@@@@@@@@@@@@@@@@@@@@@@@$%%%%@@#",
".@@@@@@@@@@@@@@@@@@@@@@@@@$%%%%@&&**@#",
".@+@@@+@@@+@@@+@@@+@@@$%%%%@&&******@#",
".@@@@@@@@@@@@@@@@@$%%%%@&&*******&@*=#",
".@+@+@+@+@+@+@$%%%%@&&********&@%%@*=#",
".@@@@@@+@@$%%%%@&&*******@*&%%%@&*&*=#",
".@+@+@+$%%%@&&********&@%@*@@&****&*=#",
".+@@@+%%@&********&@%%%%@&********@*=#",
".@+@+@%******@*&@%%%@&***&****&&==%*=#",
".+@+@@%***&@%%*@@&*******&*&======%*=#",
".@+@+@%*&%%%@&*******&&==%*======@%*=#",
".%%%%%%*&@&**&*&&@%%%%%%%%*%%%%%%%%*%#",
".*****%******&***********%********%**#",
".=====%***&&=============%*=======%*=#",
".=====%*&================%*=======%*=#",
".+++++%*========+++++++++%*=++++++%*=#",
".%%%%%%*%%%%%%%%%%%%%%%%%%*%%%%%%%%*%#",
".*****%******************%*****@@&***#",
".=====%*===============%%%*===%@****&#",
".=====%*=============%%@&&*==%@*****&#",
".+++++%*=++++===++++%%&****&+%&*****&#",
".%%%%%%*%%%%%%%%%%%%%&*****&%%&****&%#",
".**@@-&*************@******&&&@&**&&*#",
".=%@****&===========@&****&==========#",
".%%*****&============@&&&&===========#",
".%&*****&=+++===++++++======+++++++++#",
".%&****&%%%%%%%%%%%%%%%%%%%%%%%%%%%%%#",
".@@***&&*****************************#",
".=@@@@===============================#",
".====================================#",
".====================================#",
"+#####################################"};
