/* XPM */
static char * paint_small_xpm[] = {
"38 34 8 1",
" 	c None",
".	c #FFFFFF",
"+	c #000000",
"@	c #AAAAAA",
"#	c #999999",
"$	c #5577AA",
"%	c #EEAA99",
"&	c #888888",
".....................................+",
".@#@#@#@#@#@#@#@#@#@#@#@#@#@#@#@#@#@#+",
".@@@@@@@@@@@@@@@@@@@@@@@@@@@@@@@@@@@@+",
".@#@#@#@#@#@#@#@#@#@#@#@#@#@#@#@#@#@#+",
".#@@@#@@@#@@@#@@@#@@@#@@@#$@@#@@@#@@@+",
".@#@#@#@#@#@#@#@#@#@#@#@$%$@#@#@#@#@#+",
".@@#@@@#@@@#@@@#@@@#@@@$%@$#@@@#@@@#@+",
".@#@#@#@#@#@#@#@#@#@#@$%#$#@#@#@#@#@#+",
".#@#@#@#@#@#@#@#@#@#@$%#@$@#@#@#@#@#@+",
".@#@#@#@#@#@#@#@#@#@$%#@+@#@#@#@#@#@#+",
".###@###@###@###@$$$%##+$$+#@###@###@+",
".@#@#@#@#@#@#@#$$.$%#@+@.@#+$@#@#@#@#+",
".#############$#.+%##+#.#.###+#######+",
".@#@#@#@#@#@#$#.+%#@+@.@%@.@#@+@#@#@#+",
".#########.....+%##+#.#####.###+#####+",
".@###@#$...##@+%#@+#.@%##@$#.@##+@###+",
".#####$..##$$+%##+#.#.##$$#.#$###+###+",
".######.####+%##+#.#.#.#.#.#$$+$##+##+",
".####$..$##+%##+#.#.#.#.#.#.$+$+##+$#+",
".#&###..#$+.##+#.#.#.#.#.#.#.$$$.#$+#+",
".#####..###$$$#.#####.#.#%###.#.%##+#+",
".###&##..#.#.#.#&$$$$#.#%##%&#.#.#$$&+",
".#######....#.#.#$$$$$###%%##.#.#$+##+",
".#&#&#&#$#.....%.%&$$$.#&#&#.#.#$+&#&+",
".#####$##$$###....#.#.#.#.#.###$+####+",
".#&#&$%#$+&#&#$#&#&#&#&#&#&#&$+$&#&#&+",
".##&$#$$+$#&###&###&$$$$$$+$+$#&###&#+",
".$$$&$$+$#&#&#&#&#&#&#&#&#&#&#&#&#&#&+",
".&#$$$$&#&#&#&#&#&#&#&#&#&#&#&#&#&#&#+",
".#&#&#&#&#&#&#&#&#&#&#&#&#&#&#&#&#&#&+",
".&&&#&&&#&&&#&&&#&&&#&&&#&&&#&&&#&&&#+",
".#&#&#&#&#&#&#&#&#&#&#&#&#&#&#&#&#&#&+",
".&&&&&&&&&&&&&&&&&&&&&&&&&&&&&&&&&&&&+",
"++++++++++++++++++++++++++++++++++++++"};
