/* XPM */
static char * graphics_small_xpm[] = {
"38 34 9 1",
" 	c None",
".	c #FFFFFF",
"+	c #999999",
"@	c #AAAAAA",
"#	c #AA9988",
"$	c #5577AA",
"%	c #000000",
"&	c #888888",
"*	c #EEAA99",
".....................................+",
".@@@@+@@##$$$%$%%%%$%%%%%%$%$##@@@@@@%",
".@+@+@+##$$%%$$$%$%%%%%$%%%%%%##+@+@+%",
".@@+@@@#$&$$$$%%%%%%%@%%%%%%%%%#@@@+@%",
".@+@+@#$&%$$%%$%%%$$%%$%%%%%$%%%#@+@+%",
".+@@@#$$$%$%%$$$%%$%%%%%%%%%%%%%$#@@@%",
".@+@+#$$$$$$$%$$%%%%$%$%%%%%%%%%%#+@+%",
".+@+#$%%%%$$$$%%%%%%%%%%%%%$$%%$%$#+@%",
".@+@#$$$$$%$$$$%%$$$%%%%$%%$$$$$%%#@+%",
".+@@#$$$$$%$%%$$$$$$$$%%%%%%$$%%%%&@+%",
".@+#&$$$$$$@$%$$$%$%$%$$%%%$$$%$%%$#+%",
".++#&$$&$$$$%$$%$$$%$$%$%%%$%%$$$%$#+%",
".@+#&$$&$&$&&&%&+%++%++$%%%$$$$$$%$#+%",
".++#&&&&&&&&&&$&+@%@%@%%%%+@$@$$$%$#+%",
".++#&+@++@@@@+$+++++%$$%%%+$++$$$%$#+%",
".++#+@@@@.@@@@.@@@@@+@+%%$$$$$$&&%$#+%",
".++#+@@@@+@++$++$+$$$%%%%&&$$$$$&%$#+%",
".+++#@$$*$$$$$$$$$$$$$%%%$$&$&$&$%&@+%",
".+++#@@@@@$$+$$$$$$$$$%%%$$$$$$$$%#+&%",
".+++#*@@$*@*.@@@@@@@@+%%%+&$$+&+%$#++%",
".+&+&#@***@@*@**+*@@@$%%+@+++++$%&@+&%",
".+++&#*@*******@*@*@@$%%@+@+&+&%&#+++%",
".+&+&+#*.***.**.**.*.%%*.@*+@@%&&+&+&%",
".+++++&#******..*..*.%%$....$$&++++++%",
".+&+&+&#&......*..*@@%%%%%&.%+&+&+&+&%",
".&+++&++#$@......$$%%%%%%%&@$&+++&+++%",
".+&+&+&+&#$$**@@$%%%%%%%%+&@$+&+&+&+&%",
".&+&+&+&+&##$*%%%%%%%%%%+&&&&&+&+&+&+%",
".+&+&+&+&+&&#.%$%%%%%$%$&+&$$+&+&+&+&%",
".&+&&&+&&&+&&@$@$%%%#@%&&&&%$&+&+&&&+%",
".+&+&+&+&+&+&@$&@$%$&@$$&+@%$+&+&+&+&%",
".&&&&&&&&&&&&&&&&$%&&.%$&&.$$&&&&&&&&%",
".+&+&+&+&+&+&+&+&@%&&@$$&+&+&+&&&+&+&%",
"+%%%%%%%%%%%%%%%%%%%%%%%%%%%%%%%%%%%%%"};
