/* XPM */
static char * Paint2_xpm[] = {
"38 34 11 1",
" 	c None",
".	c #505050",
"+	c #999999",
"@	c #AAAAAA",
"#	c #AA9988",
"$	c #5577AA",
"%	c #000000",
"&	c #D8D8D8",
"*	c #888888",
"=	c #FFFFFF",
"-	c #EEAA99",
".....................................+",
".@@@@+@@##$$$%$%%%%$%%%%%%$%$##@@@@@@&",
".@+@+@+##$$%%$$$%$%%%%%$%%%%%%##+@+@+&",
".@@+@@@#$*$$$$%%%%%%%@%%%%%%%%%#@@@+@&",
".@+@+@#$*%$$%%$%%%$$%%$%%%%%$%%%#@+@+&",
".+@@@#$$$%$%%$$$%%$%%%%%%%%%%%%%$#@@@&",
".@+@+#$$$$$$$%$$%%%%$%$%%%%%%%%%%#+@+&",
".+@+#$%%%%$$$$%%%%%%%%%%%%%$$%%$%$#+@&",
".@+@#$$$$$%$$$$%%$$$%%%%$%%$$$$$%%#@+&",
".+@@#$$$$$%$%%$$$$$$$$%%%%%%$$%%%%*@+&",
".@+#*$$$$$$@$%$$$%$%$%$$%%%$$$%$%%$#+&",
".++#*$$*$$$$%$$%$$$%$$%$%%%$%%$$$%$#+&",
".@+#*$$*$*$***%*+%++%++$%%%$$$$$$%$#+&",
".++#**********$*+@%@%@%%%%+@$@$$$%$#+&",
".++#*+@++@@@@+$+++++%$$%%%+$++$$$%$#+&",
".++#+@@@@=@@@@=@@@@@+@+%%$$$$$$**%$#+&",
".++#+@@@@+@++$++$+$$$%%%%**$$$$$*%$#+&",
".+++#@$$-$$$$$$$$$$$$$%%%$$*$*$*$%*@+&",
".+++#@@@@@$$+$$$$$$$$$%%%$$$$$$$$%#+*&",
".+++#-@@$-@-=@@@@@@@@+%%%+*$$+*+%$#++&",
".+*+*#@---@@-@--+-@@@$%%+@+++++$%*@+*&",
".+++*#-@-------@-@-@@$%%@+@+*+*%*#+++&",
".+*+*+#-=---=--=--=-=%%-=@-+@@%**+*+*&",
".+++++*#------==-==-=%%$====$$*++++++&",
".+*+*+*#*======-==-@@%%%%%*=%+*+*+*+*&",
".*+++*++#$@======$$%%%%%%%*@$*+++*+++&",
".+*+*+*+*#$$--@@$%%%%%%%%+*@$+*+*+*+*&",
".*+*+*+*+*##$-%%%%%%%%%%+*****+*+*+*+&",
".+*+*+*+*+**#=%$%%%%%$%$*+*$$+*+*+*+*&",
".*+***+***+**@$@$%%%#@%****%$*+*+***+&",
".+*+*+*+*+*+*@$*@$%$*@$$*+@%$+*+*+*+*&",
".****************$%**=%$**=$$********&",
".+*+*+*+*+*+*+*+*@%**@$$*+*+*+***+*+*&",
"+&&&&&&&&&&&&&&&&&&&&&&&&&&&&&&&&&&&&&"};
