/* XPM */
static char * Search_xpm[] = {
"38 34 11 1",
" 	c None",
".	c #505050",
"+	c #999999",
"@	c #AAAAAA",
"#	c #D8D8D8",
"$	c #000000",
"%	c #888888",
"&	c #5577AA",
"*	c #FFFFFF",
"=	c #AA9988",
"-	c #EEAA99",
".....................................+",
".+@+@+@+@+@+@+@+@+@+@+@+@+@+@+@+@+@+@#",
".@@@@@@@@@@@@@@@@@@@@@@@@@@@@@@@@@@@@#",
".+@+@+@+@+@+@+@+@+@+@+@+@+@+@+@+@+@+@#",
".@+@@@+@@@+@@@+@@@+@@@+@@@+@@@+@@@+@@#",
".+@+@+@+@+@+@+@+@+@+@+@+@+@+@+@+@+@+@#",
".@@@+@@@@@@@@@$$$$$$$$@@@@@@@@@@@@@@+#",
".+@+@+@+@+@+$$%$$$$$$%$$@+@+@@@+@+@+@#",
".@+@+@+@@@@$%$$&&&&&&$$%$@@@@@@@@@@@+#",
".+@+@+@+@+$$$&&&&&&&&&&$$$@+@+@+@+@+@#",
".@+++@+@@$$$&&&&@@+@@&&&&$$@@@+@@@+++#",
".+@+@+@+$%$&&&@**+@+@+@&&$%$@+@+@+@+@#",
".++++++@$$&&++*@++**+++@++$$+++@+++++#",
".+@+@+@$%$&+@+@+@*$$$+@+@+$%$+@+@+@+@#",
".++++++$$&&$++**$++++$+++$+$$++++++++#",
".+@+++@$$&@+$*@$@**+@+$+@$@$$&@+@+@++#",
".++++++$$&++$++$*+++++$+++$$$&+++++++#",
".++++++$$&+%$+%$+%++%+$%++%$$&++%++++#",
".++++++$$&++$++$++++++$++++$$&+++++++#",
".++%+++$$&+%$+%$+%%%%%+%%$%$$&%%%%+%+#",
".++++++$%$+$++++$++++$&++$$%$&+++++++#",
".%++++%%$$+%%%+%+$$$+%+%%%$$&&%%+%+++#",
".+++++++$%$+++%+++%+&+%++$%$&+%+++%++#",
".%+%+%+%+$$%+%+%+%&%+%+%$$$&&%+%+%+%+#",
".+++++++%&$$$+%+%+%+%+%$$$$$%+%+%+%++#",
".%+%+%+%+%&$%$$%+%+%+$$%$$=-$%+%+%+%+#",
".+++%++%%+%&$$%$$$$$$%$$&$&=$$$%%+%+%#",
".%+%+%+%+%+%&&$$$$$$$$&&&&$$**=$+%+%+#",
".+%+%+%%%%%%%%&&&&&&&&&&&&&$&=*=$%%+%#",
".%+%+%+%%%%%%%%%&&&&&&%%%&&$$&=*=$%%+#",
".+%%%+%%%%%%%%%%%%%%%%%%%%&&$$&=*=$%%#",
".%+%+%+%+%+%+%+%+%+%+%+%+%+%+%+%+%+%+#",
".%%%%%%%%%%%%%%%%%%%%%%%%%%%%%%%%%%%%#",
"+#####################################"};
