/* XPM */
static char * TextEditor_xpm[] = {
"38 34 13 1",
" 	c None",
".	c #505050",
"+	c #999999",
"@	c #D8D8D8",
"#	c #AAAAAA",
"$	c #FFFFFF",
"%	c #888888",
"&	c #567390",
"*	c #9A9B97",
"=	c #000000",
"-	c #5577AA",
";	c #EEAA99",
">	c #AA9988",
".....................................+",
".++++++++++++++++++++++++++++++++++++@",
".#+$$$$$$$$$$$$$$$$$$$$$$$$$$$$$$$+#+@",
".+#$+%++$&*&*&*&*&*&*&&&&$+++=$+++=+#@",
".#+$%+%+$*&*&*&*&*&*&*&*&$+++=$+++=#+@",
".+#$+%++$&*&*&*&*%++++++=$+++=$+++=+#@",
".#+#===============================#+@",
".+#$=#########################$%+%=+#@",
".#+$=###=#=#==#=#==#=#==#=####$+%+=#-@",
".+#$=#########################$%----;@",
".#+$=###==-#=#==#=-#==#=-#####$---;$$@",
".+#$=#########################--;$$$$@",
".#+$=###=-=#################--;$$$$;+@",
".+#$=#####################--;$$$$;+%%@",
".++$=###==-=#=-=-#=%=%##--;$$$$;+%%%%@",
".++$=#################--;$$$$;+%%%%-=@",
".+%$=###==##==#==#=##=;$$$$;+%%%%-===@",
".++$=###############=$$$$;+%%%%-=====@",
".+%$=###=-==#==#=##-%$$;+%%%%-======-@",
".%+$=#############-$%;+%%%%-======-++@",
".+%$=###=-=######-$;%-%%%-======++=+%@",
".%+$=###########-$$;%=%-======-%++=++@",
".+%$=###==-#=##-$;;;>-======-%#+++=+%@",
".%+$=#########-=>>>>>>====-%##$+++=%+@",
".+%$=###=#=-#-===-------%#####$+++=+%@",
".%+$=##########%+#############$+++=%+@",
".+%$=##########+%%+###########$+++=+%@",
".%%$=###########%%%%+#########$+++=%%@",
".+%$=###########+%%%%%+#######$+++=+%@",
".%%$=$$$$$$$$$$$$#######$$$$$$$+++=%%@",
".%%$===============================%%@",
".%%%%%%%%%%%%%%%%%%=%=%=%=%%%%%%%%%%%@",
".%%+++%%%%%%%%%%%%-%=%=%=%=%%%%%%%%%%@",
"+@@@@@@@@@@@@@@@@@@@@@@@@@@@@@@@@@@@@@"};
