/* XPM */
static char * Books_xpm[] = {
"22 17 9 1",
" 	c None",
".	c #FFFFFF",
"+	c #000000",
"@	c #959595",
"#	c #7B7B7B",
"$	c #3B67A2",
"%	c #AFAFAF",
"&	c #FFA997",
"*	c #AA907C",
".....................+",
".@@@@@@@@@@@@@@@@@@@#+",
".@.$##.$@@@#@#@#@#@#@+",
"..+@@.$+@@@%&$&$@@#@#+",
".$**.$++@@@&.+.$@.$&%+",
"....@+++%%%.%@.$@.$%&+",
".&%%$++$#.$...@+@.+@.+",
".&%%$++$$&$%&%$+@...&+",
".*#$++$%.%$.&%$+@&%#$+",
".&%%$+++++$&*$++@.%#$+",
".*#$++$#%&$.&@$+@%*$++",
".*#$++$#%%$&*$++@.%#$+",
".&%%$+++$$$.&%$+@.%#$+",
".&%%$+$#%&$.&%$+@%*$++",
".&%%$+++++$.&%$+@.%#$+",
"%%%#$+$#%%$&*$++@%*$$+",
"++++++++++++++++++++++"};
