/* XPM */
static char * Mail_xpm[] = {
"22 17 9 1",
" 	c None",
".	c #FFFFFF",
"+	c #000000",
"@	c #959595",
"#	c #3B67A2",
"$	c #7B7B7B",
"%	c #AA907C",
"&	c #AFAFAF",
"*	c #FFA997",
".....................+",
".@@@@@##+#+###$@@@$@$+",
".@@@$#++#$%$$+++$$@$@+",
".@@$##+#$&&%$$+++$$$$+",
".@@##+#$**&&%#+#++@$@+",
".@$++#$$..*&%$#+#+#@$+",
".@##+&&*..&#$+$+$$@@@+",
".@#$#&&&*&&#.....%#$$+",
".@#%##$&&&%+.....@$+@+",
".@#%$+#+#$%#.$@@...#$+",
".@#$%#+#++$+.$@@@..+@+",
".@$#%$#+##$#.$*@@..#$+",
".$@#$%##+$$+.$@*@*.+$+",
".@@$#$#+#$#+.......#$+",
".$@@$##+###+++++++++$+",
"&$#$#$###+#+#+###$#$#+",
"++++++++++++++++++++++"};
