/* XPM */
static char * Reload_xpm[] = {
"22 17 10 1",
" 	c None",
".	c #FFFFFF",
"+	c #AFAFAF",
"@	c #000000",
"#	c #959595",
"$	c #999999",
"%	c #777777",
"&	c #7B7B7B",
"*	c #3B67A2",
"=	c #FFAA99",
"....................+@",
".###$$$$$$$$$$$$$%#&*@",
".###$$$$%$%$%$%$%$&#&@",
".###$$$$$$$%$.$%$%&&*@",
".#&#$$%$%$%$%..$%$&#&@",
".###$.........=.%%#&*@",
".###*.==========.%&#&@",
".###**@*@*@@@==@*%%&*@",
".#&#%$%%.%%%*=@*%%%#&@",
".###$%$..%%%*@*%%%&&*@",
".#&#%$.=.........%&#&@",
".##&$.===========*%&*@",
".#&#%*@==@@@@@*@**%%&@",
".###$%*@=**%*%%%%%%%*@",
".#&#%$%*@*%%%%%%%%%%%@",
"+*&*%*%*%*%*%*%*%*&**@",
"@@@@@@@@@@@@@@@@@@@@@@"};
