/* XPM */
static char * Reload_icon_xpm[] = {
"14 17 7 1",
" 	c None",
".	c #FFFFFF",
"+	c #999999",
"@	c #FFAA99",
"#	c #777777",
"$	c #3B67A2",
"%	c #000000",
"              ",
"              ",
"              ",
"         .+   ",
"         ..+  ",
"+.........@.# ",
"$.@@@@@@@@@@. ",
"$$%$%$%%%@@%$ ",
"  ##.   $@%$# ",
"  +..###$%$#  ",
" +.@......... ",
"+.@@@@@@@@@@.$",
" $%@@%%%%%%%$$",
"  $%@$####### ",
"   $%$        ",
"              ",
"              "};
