/* XPM */
static char * Terminal_xpm[] = {
"22 17 7 1",
" 	c None",
".	c #FFFFFF",
"+	c #AFAFAF",
"@	c #000000",
"#	c #959595",
"$	c #7B7B7B",
"%	c #3B67A2",
"....................+@",
".+##$$$$$$$$$$$$#$#$%@",
".+##$..........%$#$#$@",
".+##$.%%%%%%%%+@$$$$%@",
".+$#$.%.$%@@@%+@$#$#$@",
".+##$.%$@@@@@%+@$$#$%@",
".###$.%%@@@@@%+@$#$#$@",
".+##$.%%%%%%%%+@$$$$%@",
".#$#$++++++++++@$#$#$@",
".+##$%@@@@@@@@@@$$$$%@",
".#$..............+$#$@",
".+$.+++++++++++++%$$%@",
".#$.$%$%$%$%@@%$+@$$$@",
".+$++++++++++++$$@%$%@",
".#$@@@@@@@@@@@@@@@%$$@",
"+$$%%%%%%%%%%%%%%%%$%@",
"@@@@@@@@@@@@@@@@@@@@@@"};
