/* XPM */
static char * Viewer_xpm[] = {
"22 17 9 1",
" 	c None",
".	c #FFFFFF",
"+	c #AFAFAF",
"@	c #000000",
"#	c #959595",
"$	c #7B7B7B",
"%	c #FFA997",
"&	c #3B67A2",
"*	c #AA907C",
"....................+@",
".##################$#@",
".######+%%%%%%%+##$#$@",
".####+%%%%%#%#%%%+#$$@",
".###+%#$&@@@@@&##%+#$@",
".##+%$&@&#.&@@&&@&%+#@",
".#+%&$@$@&.&&@#$&&@*$@",
".+%&##&$@@@&$@$$&%#&&@",
".%&#..&$&@@@@$#$#..#@@",
".&$...#&$$*$#$*$..%@$@",
".##%...#&$#$#*$..%@$$@",
".$&&&%..#&&$$#.%$@$$$@",
".#$$&@&%%.%.%.+&@$$#$@",
".###$$&@@@@@@@@&$$$$$@",
".#$#$#$$$&&&&&$$$#$$$@",
"+$&$&$&$&$&$&$&$&$&$&@",
"@@@@@@@@@@@@@@@@@@@@@@"};
