/* XPM */
static char * Window_xpm[] = {
"22 17 8 1",
" 	c None",
".	c #FFFFFF",
"+	c #000000",
"@	c #999999",
"#	c #5577AA",
"$	c #777777",
"%	c #AAAAAA",
"&	c #AFAFAF",
".....................+",
".@@@@@@@@@@@@@@@@@@@@+",
".@..................@+",
".@.################+$+",
".@.+++++++++++++++++@+",
".@.+%%%%%...%...%%.+$+",
".@.+%%%%%.##+.##+%.+@+",
".@.+%%%%%%+++%+++%.+$+",
".@.+%%%%%%%%%...%%.+@+",
".@.+%%%%%%%%%.##+%.+$+",
".@.+%%%%%%%%%%+++%.+@+",
".@.+%...%...%%%%%%.+$+",
".@.+%.##+.##+%%%%%.+@+",
".@.+%%+++%+++%%%%%.+$+",
".$.+++++++++++++++++@+",
"&$#$#$#$#$#$#$#$#$#$#+",
"++++++++++++++++++++++"};
