/* XPM */
static char * image_name[] = {
"56 46 12 1",
" 	c #FFFFFFFFFFFF",
".	c #BEBEBABABEBE",
"X	c #010101010101",
"o	c #AEAEAAAAAEAE",
"O	c #C7C7BABAC7C7",
"+	c #69698686BEBE",
"@	c #9E9E9A9A9E9E",
"#	c #717179798686",
"$	c #000000001414",
"%	c #F7F7B2B2AEAE",
"&	c #BEBEC3C3BEBE",
"*	c #A6A69E9EA6A6",
"                                                       .",
" ......................................................X",
" ......................................................X",
" ......................................................X",
" o...o...o...o...o...o...o...o...o...o...o...o...o...o.X",
" .....O...O...O...O...O...O...O...O...O...O......O..O..X",
" o.o.o.+XXXXXXXXXXXXXXXX+o.o.o.o.o.o.o.o.o.o.o.o.o.o.o.X",
" .....o++XXXXXXXXXXXXXX++.....o.......o.......o.......oX",
" o.o.o.+@@ ..@..@.@.. .@+o.o.o.o.o.o.o.o.o.o.o.o.o.o.o.X",
" ...o..+XXXXXXXXXXXXXXXX+@..o...o...o...o...o...o. Xo..X",
" o.o.o.+X+@XXXXXXXXXXXXX+@.o.o.o.o.o.o.o.o.o.o.o. .+.o.X",
" .o...o+XXXXXXXXXXXXXXXX+@o...o.o.o...o.o.o.. +X  X...oX",
" o.o.o.+X++++++++++++++X+@.o.o.o.o.o.o.o.o.o .++XX.o.o.X",
" .o.o.o+X@............@X+@o.o.o.o.o.o.o.o.o. ++++X+.o.oX",
" o.o.o.+X@ .......@@+.@X+@.o.o.o.o.o.o.o.o.. #++++Xo.o.X",
" oo.ooo+X@ .....@.@@@.@X+@o.ooo.ooo.ooo.oo. + +++X+.oooX",
" o.o.o.+X@@+++#++++++++X+@.o.o.o.o.o.o.o.. ..+O.X+.o.o.X",
" oooooo++XXXXX$$XXXXXXX++@oooooooooooooo. ..+.+XoooooooX",
" o.o.o.+                +@.o.o.o.o.o.o.. ..X+..+.o.o.o.X",
" oooooo+ .@ .@ .@ .@ .@ +@oooooooooooo. ..X+ .XooooooooX",
" ooo.oo+                +@oo.ooo.o X.. ..X+o .+o.ooo.ooX",
" oooooo+ .@ .@ .@ .@ .@ +@ooooooooo X ..X+o .XoooooooooX",
" oooooo+                +@ooooooooo. ..X+oo .+oooooooooX",
" oooooo+ +X +X +X %% %% +@oooooooo. ..X+oo .XooooooooooX",
" @ooo@o+ XX XX XX %& %& +@ooo@ooo. ..XX +@ .+@ooo@ooo@oX",
" oooooo+                +@ooooooo%..X+  X .XoooooooooooX",
" oo@o@o+ +X +X +X @@ @@ +@o@o@o@o .X+@ X+ .+o@o@ooo@o@oX",
" oooooo+ XX XX XX @+ @+ #@ooo. X .X+oooo .X+oooooooooooX",
" @o@o@o+                +*o@o X .X+@o@o@ .+ X@o@o@o@o@oX",
" oooooo+ +X +X +X @@ @@ +@oooo .X+ooooo .Xoo XoooooooooX",
" @o@o@o+ XX XX XX @+ @+ +@o@o .X+@o@o@o .+o@o@o@o@o@o@oX",
" o@ooo@+                +@@o .X+oo@ooo .Xo@ooo@ooo@ooo@X",
" @o@o@o+XXXXXXXXXXXXXXXX+@o@ X+@o@o@o@ .+@o@o@o@o@o@o@oX",
" o@o@o@@++++++++++++++++@@@oX+@o@o@o@ .X@o@o@o@o@o@o@o@X",
" @o@o@o@@@@@@@@@@@@@@@@@@@oXo@o@o@o@o .+o@o@o@o@o@o@o@oX",
" @@o@@@@@@@@@@@@@@@@@@@@@@+o@@@o@@@o .Xo@@@o@@@o@@@o@@@X",
" @o@o@o@o@o@o@o@o@o@o@o@o@o@o@o@o@o@ .+@o@o@o@o@o@o@o@oX",
" @@@@@@@@@@@@@@@@@@@@@@@@@@@@@@@@@@ .X@@@@@@@@@@@@@@@@@X",
" @o@o@o@o@o@o@o@o@o@o@o@o@o@o@o@o@o .+o@o@o@o@o@o@o@o@oX",
" @@@@@@@@@@@@@@@@@@@@@@@@@@@@@@@@@ .X@@@@@@@@@@@@@@@@@@X",
" @@@o@@@o@@@o@@@o@@@o@@@o@@@o@@@o@ Xo@@@o@@@o@@@o@@@o@@X",
" @@@@@@@@@@@@@@@@@@@@@@@@@@@@@@@@@X@@@@@@@@@@@@@@@@@@@@X",
" @o@@@@@@@o@@@@@@@o@@@@@@@o@@@@@@@@@@@@@@@o@@@@@@@o@@@@X",
" @@@@@@@@@@@@@@@@@@@@@@@@@@@@@@@@@@@@@@@@@@@@@@@@@@@@@@X",
" @@@@@@@@@@@@@@@@@@@@@@@@@@@@@@@@@@@@@@@@@@@@@@@@@@@@@@X",
".XXXXXXXXXXXXXXXXXXXXXXXXXXXXXXXXXXXXXXXXXXXXXXXXXXXXXXX"};
