/* XPM */
static char *Chart[] = {
/* width height ncolors chars_per_pixel */
"56 46 14 1",
/* colors */
"` c #000000",
"a c #9A9B97",
"b c #FFE7BE",
"c c #A48182",
"d c #567390",
"e c #B6B6B6",
"f c #AEAAAE",
"g c #75818D",
"h c #A6A2A6",
"i c #4C4DB7",
"j c #E8AF72",
"k c #C1C3C9",
"l c #FFFFFF",
"m c #B2AEB6",
/* pixels */
"llllllllllllllllllllllllllllllllllllllllllllllllllllllle",
"leeeeeeeeeeeeeeeeeeeeeeeeeeeeeeeeeeeeeeeeeeeeeeeeeeeeee`",
"leeeeeeeeeeeeeeeeeeeeeeeeeeeeeeeeeeeeeeeeeeeeeeeeeeeeee`",
"leeeeeeeeeeeeeeeeeeeeeeeeeeeeeeeeeeeeeeeeeeeeeeeeeeeeee`",
"lheeeheeeheeeheeeheeeheeeheeeheeeheeeheeeheeeheeeheeehe`",
"leeeeeeeeeeeeeeeeeeeeeeeeeeeeeeeeeeeeeeeeeeeeeeeeeeeeee`",
"lhehehehehehehehehehehehehehehehehehehehehehehehehehehe`",
"leeeeeheeeeeadddeeeeeeadddddddddaaeeeeheeeeeeeheeeeeeeh`",
"lheheheheheddhhmdhehaddhhmhmhmhhadddahehehehehehehehehe`",
"leeeheeehe`amhmhedee`lmheamheamhmhhaddaeheeeheeeheeehee`",
"lhehehehe`hmhmaehmdh``lmhmhkaehmaehmhhddehehehehehehehe`",
"leheeehm`hmakhehmhkd```jkamhmakheheamhmhdeheeeheheheeeh`",
"lheheheddkaeamakhmhmd```lmhmhmamhmakhmaehdkhehehehehehe`",
"leheheh`kjejejmjljljl````jmjmhkamjeamhkamfdeheheheheheh`",
"lhehehe`dddddddddddhe`````jmamakamakhmhmhmdhmhehehehehe`",
"lhhehhh``d`d`d`d`d`da``````amjmamjmhmamheahdhhhehhhehhh`",
"lhehehe`d`d`d`d`d`d`d```````aadddigdddddddd`ehehehehehe`",
"lhhhhhh``d``aaaahaaaaaaaaaahdjkddgdddgihddd`hhhhhhhhhhh`",
"lhehehed````aaaaaaaaaaaaaaadkjjjkdddddgdigd`ehehehehehe`",
"lhhhhhhhhhh`aaaaaaaaaaaaaahdjjjjjjkdddddgd``hhhhhhhhhhh`",
"lhhhehhhehh`aaaaaaaaaaaaaadkjjjjjjjjkddddd``ehhhehhhehh`",
"lhhhhhhhhhh`daaaaaaaaaaaahdjjjbjjjjjjjedd```hhhhhhhhhhh`",
"lhhhhhhhhhh``aaaaaaaaaaaadkjjjjjjjjjjjjje```hhhhhhhhhhh`",
"lhhhhhhhhhh```haaaaaaaaahdjjjjjjbjjjbjjjj```hhhhhhhhhhh`",
"lahhhahhhahd```ehaaaaaaadkjjjjjjjjjjjjjjh``dhahhhahhhah`",
"lhhhhhhhhhhd````dehaaaahdjjjjjjjjjjjjjjfh``hhhhhhhhhhhh`",
"lhhahahahhhad`````eeeehhejjbjjjjjljjmhaha`dhhahahhhahah`",
"lhhhhhhhhhhhh``````deelllllllljljhfjajaha`hhhhhhhhhhhhh`",
"lahahahahahaha```````dddhahahajhjhhaaajc`ahahahahahahah`",
"lhhhhhhhhhhhhhh```````ddhfajhjaaaajaha``hhhhhhhhhhhhhhh`",
"lahahahahahahahad``````dfhaahafjajad``dhhahahahahahahah`",
"lhahhhahhhahhhahhhd````dajajajahd```dhhhhhahhhahhhahhha`",
"lahahahahahahahahahahdd`````````ddfafahahahahahahahahah`",
"lhahahahahahahahahahahahahahahahhhahahahahahahahahahaha`",
"lahahahahahahahahahahahahahahahaeeeeeeeeeeeeeeeeeeeeeah`",
"laahaaahaaahaaahaaahaaahaaahaaahejejeeeeeeeeeeeeeeeeeda`",
"lahahahahahahahahahahahahahahahael`d`deeeeeeeeeeeeeeedh`",
"laaaaaaaaaaaaaaaaaaaaaaaaaaaaaaaeeddddeedaddaadaaeeeeda`",
"lahahahahahahahahahahahahahahahaeleeedeeeeeeeeeeeeeeedh`",
"laaaaaaaaaaaaaaaaaaaaaaaaaaaaaaaeeddddmkdadaaddadaaeeda`",
"laaahaaahaaahaaahaaahaaahaaahaaaeljjjdeekeeeeekeeeeeeda`",
"laaaaaaaaaaaaaaaaaaaaaaaaaaaaaaaeeddddekdaadahdaeeeeeda`",
"lahaaaaaaahaaaaaaahaaaaaaahaaaaaeeeeeeeekememmkemeeeeda`",
"laaaaaaaaaaaaaaaaaaaaaaaaaaaaaaaaddddddddddddddddddddda`",
"laaaaaaaaaaaaaaaaaaaaaaaaaaaaaaaahahahaaahaaaaahaaaahaa`",
"e```````````````````````````````````````````````````````"
};
