/* XPM */
static char * image_name[] = {
"56 46 18 1",
" 	c #FFFFFFFFFFFF",
".	c #BEBEB6B6BEBE",
"X	c #010101010101",
"o	c #C7C7BABAC7C7",
"O	c #AEAEA6A6AEAE",
"+	c #9E9E9A9A9E9E",
"@	c #69698686BEBE",
"#	c #F7F7B2B2AEAE",
"$	c #A6A69E9EA6A6",
"%	c #717179798686",
"&	c #38386D6DA6A6",
"*	c #000000001818",
"=	c #B6B6AEAEB6B6",
"-	c #A6A679798E8E",
";	c #EFEFF3F3F7F7",
":	c #96969696AEAE",
">	c #BEBEC3C3CFCF",
",	c #AEAEAEAEB6B6",
"                                                       .",
" ......................................................X",
" .o.o.o.o.o.o.o.o.o.o.o.o.o.o.o.o.o.o.o.o.o.o.o.o.o.o.oX",
" ......................................................X",
" O.o.Oo.oO.o.Oo.oO.o.Oo.oO.o.Oo.oO.o.Oo.oO.o.Oo.oO..oO.X",
" o.....................................................X",
" O.OoO.O.OoO.O.O.o.o..o..o.o..o..o.o..o..o.OoO.O.OoO.OoX",
" .o...O.o...o.Oo..+X+.O@X@+X+X+X@@X@+X+@O.....O.o...o.OX",
" O.O.OoO.O.O.O.O..X X.O+++++++++++++++++Oo.O.OoO.O.O.O.X",
" ...O...O..oO..o..X X.o....................oO...O.o.O..X",
" O.OoO.OoO.O..+XXXX XO@X@O+XXXXX+O+XXXXX+.oO.O.O.O.O.OoX",
" oO...O.O.O.o.X.    X.X X.X.    XoX.   .X.O...OoO.O.o.OX",
" O.OoO.O.O.O..X @X@ XOX XOX XXXX+OX XXX X..OoO.O.OoO.O.X",
" .O.O.O.OoO.O.X X.X X.X X.X X@@@..X X.XXX.O.O.O.O.O.O.OX",
" O.O.OoO.O.Oo.X X.X XOX XOX.   .XOX X.....oO.OoO.O.O.O.X",
" OO.OOO.OOO.O.X X.X XOX XO.@@XX XOX XoXXX.O.OOO.OOOoOOOX",
" O.OoO.OoO.O..X @X@ XOX XO+XXXX XOX XXX X..OoO.O.O.O.O.X",
" OOOOOOOOOOOO.X.    XOX XOX    .XOX.   .X.OOOOOOOOOOOOOX",
" O.O.O.O.O.O.o+XXXXX+O@X@O+XXXXX+O+XXXXX+.oO.O.OoO.O.O.X",
" OOOOOOOOOOOOO...........................OOOOOOOOOOOOOOX",
" OOO.OOOoOOOOOOOOOOOOOOOOOOOOOOOOOOOOOOOOOOO.OOO.OOOoOOX",
" OOOOOOOOOOOOOOOOOOOOOOOOOOOOOOOOOOOOOOOOOOOOOOOOOOOOOOX",
" OOOOOOOOOOOOOOOOOo.o#.#o#.## # # #o.OO.OOO.OOO.OOOOOOOX",
" OOOOOOOOOOOOOOOo##. + + @ $## # . # #oO#OOoOO#.OOOOOOOX",
" +OOO+OOO+OOO+.#    @ @ @ @ # # . @ .   . .#. oOO+OOO+OX",
" OOOOOOOOOOOO#       . @ @ $## . @ + . . #   .OOOOOOOOOX",
" OO+O+O+OOO+# # #       . @ # . % + . . #    #...OO+O+OX",
" OOOOOOOOOO# # # # # #   . +#. @ . . # # #   oOOOOOOOOOX",
" +O+O+O+O+. # # # # # #       # . # #         OOO+O+O+OX",
" OOOOOOOOO# . . . . . .  .XXX. # #           .#OOOOOOOOX",
" +O+O+O+O+ + + + + . .  .@OOO@. # # # # # # #.OoO+O+O+OX",
" O+OO$+OO+# @ % . .      .@@%. .#.#. . . . . @+OOO+OOO+X",
" +O+O+O+O+#  @ .    . O #     # .#o..o..o#. .@++O+O+O+OX",
" O+O+O+$+++      . @ % % @.# O # .#...o... o@&+O+O+$+O+X",
" +O+O+O+O+O&  . @ @ @ @ @.. O O # .#o...# .%*=$+O+$+O+OX",
" ++O+++O++$=@  . @ @ @ @.. + O O # .#.#  +@XO++O+++O+++X",
" +$+O-O+O+$+O@.   . @;@.. + O O O #    .@X@O$+O+O+O+O+$X",
" ++++:+++++++O+@.. # # # . . O O O #>%XX@+O++++++:-++++X",
" +O+O+O-O+O+O+OO+@@@..,.O.O.O.O.O.@XX@:,OO++$+O+$$O+O+OX",
" +:-++++:+++++++O,O:@@X@XXXXXXXX@X@+OOO++++++:-++++++++X",
" +++O+++O+-:$+++O++OO,OOOOOOOOOOOOOO++++O+++O+++O-:+$++X",
" +++++:-++++++++++++++++++++++++++++++++++:-+++++++++++X",
" +O+-:++++O++-:+++$+++++++O+++++++$+++:+-:O+:+-:++O+-:+X",
" ++++++++:-++:++++++++++++++++++++++:-++++++++++:-+++++X",
" ++++++-:++++++-:++++-:++++-:+++++++++++++++-:++++:++++X",
".XXXXXXXXXXXXXXXXXXXXXXXXXXXXXXXXXXXXXXXXXXXXXXXXXXXXXXX"};
