/* XPM */
static char * image_name[] = {
"56 46 26 1",
" 	c #FFFFFAFAFFFF",
".	c #BEBEB6B6BEBE",
"X	c #080804040808",
"o	c #C7C7BABAC7C7",
"O	c #A7A7A4A4A7A7",
"+	c #B6B6AEAEB6B6",
"@	c #DFDFBABA8E8E",
"#	c #EFEFF3F3F7F7",
"$	c #CFCFC7C7CFCF",
"%	c #BEBEC3C3CFCF",
"&	c #9E9E9A9A9E9E",
"*	c #717179798686",
"=	c #69698686BEBE",
"-	c #000000001414",
";	c #F7F7B2B2AEAE",
":	c #A6A69E9EA6A6",
">	c #51515555FFFF",
",	c #38386D6DA6A6",
"<	c #96969696AEAE",
"1	c #DFDFAEAE6969",
"2	c #AEAE61616161",
"3	c #A6A679798E8E",
"4	c #AEAEB2B2CFCF",
"5	c #5959A2A2D7D7",
"6	c #79799292B6B6",
"7	c #8E8E8A8A8E8E",
"                                                       .",
" ......................................................X",
" .o.o.o.o.o.o.o.o.o.o.o.o.o.o.o.o.o.o.o.o.o.o.o.o.o.o.oX",
" ......................................................X",
" Oo.oO.o.Oo.oO.o.XXX.Oo.oO.o.Oo.oO.o.Oo.oO.o.Oo.oO.o.O.X",
" .......o.......X..oX.......o.......o.......o........o.X",
" OoO.OoO.O.OoO.OXO.O.o.XXX.OXXXX.OXO.OXOoO.O.OoO.OoO.O.X",
" ...o.....o...o.X.o...X.o.X.X...X.Xo..X....o....o...o..X",
" .o...o.o...o...X...o.X...X.X.o.X..X.X.o.o...o....o...oX",
" O..oO..O.o.O.o.XoO.X.X..oX.XXXXOo..XoO...O...OoO...O..X",
" .....o..o+.o...oXXX.o.XXX..X...o..oX..o.o.o.o...o.o.o.X",
" O.Oo.+@O+@..+@.O.O.O...O.OoX.O...OXO+@.O..+@.O+@.O...OX",
" ...@+....+O..+......@+o.....o.@+........@+.+......@+..X",
"#@.O.O.OO.O$OoO  X@.O%O.O.@.O.O.O+@.O.O.&%OoO+@.O.O.O.OX",
" .O...@o.O...O *=*-O  XO...O.@+..O...@+O...O.o+O.@+..O.X",
" O$@.O.OO+@.O ;-=-=-*=*XO  XO$O+@.Oo&%@.O+@.O.Oo:$O.O+@X",
" .O+O$O.$OoO ;;;-= =-=-=X*=*-   XO$O.O+O$O.@.O.@.O.O$O.X",
" O.@.O$&@.O ;;;  X===-= =-=-=X>**XO$O.@oOoO.OoO.O.@+@.OX",
" O@+O@Oo@& ;;; .  X===X===-= =X=-=X@@:O@+@O@+@O@OOoO@&.X",
" O.O.Oo&O ;;; . .  X==*X===X===-=$*XO+:oOo:oOoOoOoOoOoOX",
" O@:@o@O ;;; . O &  X===-===X===X*,=-@@:@:.@O@O@O@OOo@OX",
" O.OoO+ ;;; . O & .  -===X===X===-==*X&oO+OoOoO+OoO;O+OX",
" OO@OO ;;; . O O . O  X===X===X===-===XO@O@OOO;O@OO@O@OX",
" O;:O ;;; . O & . O & #====X===-===-==*X@O:;O@&;O+@:O.OX",
" OO@ ;;; . O : . O &  X=====X==*-===-===-@@::O@:OOO@O@OX",
" @O *&; . O & . O &  X=X<#==*X===X===-=,*X:@O@:O@O;::@OX",
" OO *=<  O O . O &  X=X . X==- ===X===-===-O:+O@OO&1:@:X",
" OO ==*&  & . & &  X=X ..O -=X X==X#===-==*X2;O3@@OOO::X",
" O+O *==:  . O &  X=X ..OOO X.O X=X X==X.===-O@O:@3;:@OX",
" OOO+ ==*&  & &  X=X ....O&.XOO& X.O -*X 4=*X+3+3o2OOO:X",
" O@OOO *==<  &  X=X .= ...&X..OO.XOOO -oO +=-O@@:O+@OO@X",
" :O&@&+ ==*&   X=X .X-* +@X ...&X..O&.X@O& -OO&:&@3O3@&X",
" O@:&:OO *==: X*=& .XX- OXX* .@X ...&X..OO+XO:O@::@:::OX",
" &OOOOO&: 5,=*==-=X .X..XXX- :X-* +@X o..OXOOO:OO:&+3@:X",
" OO:OOOOO: *5>==X==X..OX .X..XXX- OXX* .@-OOOOO:OOO:O::X",
" OOOO3@&:O: ,6===X==X&-*X..OX .X..XX-- OXOO3@OO3@3OOO:OX",
" @3&OO&&OO&& =====X=X=X==X:X*-..OX .X..X:&OO3&:O:O&3OO&X",
" &O3OOO3O::O&#=====X=*=-=-*-==X:-*X..OXOOOOOOOOOOOOO&@&X",
" &&O&3:&&&&&&& ===X=====X===-=X=X==X:XO&&&3&&3&3&3&&3&&X",
" &:&OOO&&OOO&O&&XX&#===X=====X===-*X&@&:OOO:&&OOOO&@&O&X",
" &O&3:&:3&&&:&&&&&&&<-X& ===X=====-:&7&&3&&&O3&&3:&3:&&X",
" &&&&&&&&&&&&&&&&&&&&&&&&<XX&#===X&&&&&&&&:3&&&:&&&&&&&X",
" &&&&3&:&&3&&&&&&&&&&&&&&&&&&&<XX&&&&&&&&&&&&&&3&&&&&&&X",
" &3&&&&3&&&&&&3&&&&&&&&&&&&&&&&&&&&&&&&3&&3&&&&&&&&3&&&X",
" &&&&&&&&&&3:&:&3<&3<&&&&&&&&&&&&&&3<&&:&&&&3:&&&3:<&&&X",
".XXXXXXXXXXXXXX-XXXXXXXXXXXXXXXXXXXXXXXXXXXXXXXXX-XXXXXX"};
