/* XPM */
static char *crossfire[] = {
/* width height ncolors chars_per_pixel */
"56 46 12 1",
/* colors */
"` c #000000",
"a c #9A9B97",
"b c #FFE7BE",
"c c #567390",
"d c #B6B6B6",
"e c #AEAAAE",
"f c #75818D",
"g c #A6A2A6",
"h c #E8AF72",
"i c #C1C3C9",
"j c #FFFFFF",
"k c #B2AEB6",
/* pixels */
"jjjjjjjjjjjjjjjjjjjjjjjjjjjjjjjjjjjjjjjjjjjjjjjjjjjjjjjd",
"jdddddddddddddddddddddddddddddddddddddddddddddddddddddd`",
"jgddddddddddddddddddddddddddddd``aaaaaadaaaaaadaaaa``dd`",
"jdddddddddddddddddddddddddddddd``````````````````````dd`",
"jdgdddadddddadddadddadddadddadd`cdcdcdccc``dcdcdcdhc`dd`",
"jgddddddddddddddddddddddddddddd`dhjcdcccc`dcjcdccchc`dd`",
"jdgdgdgdgdgdgdgdgdgdgdgdgdgdgdg`cjccccccc``jcccccchc`ag`",
"jgdddddgdddddgdddddddgdddddddgd`dchcccccc`dcccccchcc`aa`",
"jdgdgdgdgdgdg```gdgdgdgdgdgdgdg`cdhcccccc``dccccchcc`aa`",
"jgdddgdddddgd`jj``dgdddgdddgddd``cchccccc`dccccchcc``aa`",
"jggdgdgdgdgdg`jjjj`dgdgdgdgdgdga`acchcccc``cccchccc`aaa`",
"jgdgdddgdgddd`jjjjj`dgdgdgdddgdg``ccchhcc`dcchhccc``aaa`",
"jggdgdgdgdgd`djjjjj`gdgdgdgdgdgd`a```cchh``hhccc``c`aaa`",
"jgdgdgdgc`dg`djjjjjj`gdgdgdg```d``cic```````````cc``aaa`",
"jggdgdgd`hc`ajjjjjjj`dgdgdg`jd`da`dcicicc`dcicicic`aaag`",
"jgggdgggdc`ajjjkd````gdggg`jjd`ag`cjccccc``jcjcccc`aaad`",
"jagdgdgdg`ajjja``aaagdgdg`jjd`aad`dcccccc`kcjccccc`aaag`",
"jgggggg``ajjja`aaaaagggg`jjd`aaad``dccccc``jccccc``aaag`",
"jgg````ddjjja`hcaaadgdg`jjd`aaadda`cccccc`dcccccc`aaaag`",
"jga`jjjjjjja`hhhcggggg`jjd`aaagggg`cccccc``jccccc`aaagg`",
"jgg`jjjjjjd`achhhcedg`jjd`aaaggdgga`ccccc`kccccc`aaaggg`",
"jggg`jjjjjd`aafhhhcg`jjd`aaaggggggg`ccccc``jcccc`aaaggg`",
"jggg`jjjjj`aaaachhh`jjd`aaaggggggggg`cccc`dcccc`gaagggg`",
"jgggg`jjjj`aaaaafh`jjd`aaaggggggggggg`ccc``dcc`aaaagggg`",
"jgagaa``jj`aaaaaa`jjd`aaagggggggagggag`ca`dcc`aaaaagagg`",
"jgggaaaa```aagga`j`d`caaggggggggggggggg``````aaaaaggggg`",
"jaggaaaaaaag`ga`jjd`caccggagggagggagagaga``aaaaaagagaga`",
"jagggaaaaaa``g`j`d`aacacccggagggggggggggaagaaaagggggggg`",
"jgagagggagag``jjd`aaacchcccgggagagagagagaaaaaaagagagaga`",
"jaggggaggggg``jd`aaagecfchcgagggggggggjhggaaagggggggggg`",
"jgagagagaga`````aaaaaacchcagagagagagajccchagagagagagaga`",
"jagagggagag`j`````gaaaaccagggagggagggajhgagggagggagggag`",
"jaagagagag````aa`gagaaaaaaagagagagagaghhggagagagagagaga`",
"jagagaga````aaaagggagaaaaagagagagagagahhhagagagagagagag`",
"jaagagag`g`aaaagagagagagagagagagagagaghhhgagagagagagaga`",
"jaaagaaag``aaagaaagaaagaaagaaagaaagaajjjaagaaagaaagaaag`",
"jaagagagaaaaagagagagagagagagagagagagjhhhhgheagagagagaga`",
"jaaaaaaaaaaaaaaaaaaaaaaaaaaaaaaaaaaajhhhhhgaaaaaaaaaaaa`",
"jaagagagagagagagagagagagagagagagagajhhhhhhehagagagagaga`",
"jaaaaaaaaaaaaaaaaaaaaaaaaaaaaaaaaaajhhhbhhhgaaaaaaaaaaa`",
"jaaaagaaaaagaaagaaagaaagaaagaaagaaahhhhhhhhhaaagaaagaaa`",
"jaaaaaaaaaaaaaaaaaaaaaaaaaaaaaaaaaaahhhhheaaaaaaaaaaaaa`",
"jaagaaaaagaaaaaaagaaaaaaagaaaaaaagaaahhhhhaaaaaaagaaaaa`",
"jaaaaaaaaaaaaaaaaaaaaaaaaaaaaaaaaaaaaaaaaaaaaaaaaaaaaaa`",
"jaaaaaaaaaaaaaaaaaaaaaaaaaaaaaaaaaaaaaaaaaaaaaaaaaaaaaa`",
"d```````````````````````````````````````````````````````"
};
