/* XPM */
static char * image_name[] = {
"56 46 18 1",
" 	c #FFFFFAFAFFFF",
".	c #BEBEB6B6BEBE",
"X	c #010101010101",
"o	c #C7C7BABAC7C7",
"O	c #AEAEA6A6AEAE",
"+	c #69698686BEBE",
"@	c #717179798686",
"#	c #EFEFF3F3F7F7",
"$	c #38386D6DA6A6",
"%	c #5959A2A2D7D7",
"&	c #AEAEAEAEB6B6",
"*	c #F7F7B2B2AEAE",
"=	c #9E9E9A9A9E9E",
"-	c #A6A69E9EA6A6",
";	c #000000001818",
":	c #AEAEB2B2CFCF",
">	c #96969696AEAE",
",	c #A6A679798E8E",
"                                                       .",
" ......................................................X",
" .o.o.o.o.o.o.o.o.o.o.o.o.o.o.o.o.o.o.o.o.o.o.o.o.o.o.oX",
" ......................................................X",
" O.o.Oo.oO.o.Oo.oO.o.Oo.oO.o.Oo.oO.o.Oo.oO.o.Oo.oO.o.O.X",
" o........      ......................    ............oX",
" O.OoO.OoO ++++X+++++++++++++++++++++ ++++XO.OoO.OoO.O.X",
" .o...o... ++++X+++++++++++++++++++++ +XX+X.o...o....o.X",
" O.O.O.O.O ++++X++@+++@+++@+++@+++@++ +X +XO.O.O.O.O.O.X",
" .O...Oo.. +@++X+++++++++++++++++++++#++++Xo..Oo..Oo..OX",
" O.OoO.O.O ++++X+++++++++++++++++++++ ++++XO.O.O.O.O.O.X",
" .O.O.O.O. ++++X+++++++++++++++++++++#++++X.OoO.OoO.OoOX",
" OoO.OoO.O ++++X+++$%$++$%$++$%$+++++#++++XO.O.O.O.O.O.X",
" .O.OOO.O&#++++X+++++++%++++%++++%$++ +@++X.OOO.OOOoOOOX",
" O.O.O.O.O ++++X+++++++$++++$++++++++#++++XOoO.OoO.O.O.X",
" OOOOOOOOO#++++X+++++++++++++++++++++#++++XOOOOOOOOOOOOX",
" O.O.OoO.O ++++X++$%+++++++++++++++++#++++XO.O.O.O.O.O.X",
" OOOOOOOOO#++++X+++++@$%+++@++%$+@%++#++++XOOOOOOOOOOOOX",
" O.OoO.O.O +@++X++++++++++%$%$++++$++#++++XO.O.O.OoO.OoX",
" OOOOOOOOO +++++# ###   ##          #+++++XOOOOOOOOOOOOX",
" OOO.OOO.O +++++++++++++++++++++++++++++++XO.OOOoOOO.OOX",
" OOOOOOOO&#+++++++++++++++++++++++++++++++XOOOOOOOOOOOOX",
" OOOOOOOOO +++++++++++++++++++++++########          OOOX",
" OOOOOOOOO#%$+%$%+@+++%$+++++%$++# ***************** OOX",
" =OOO=OOO= ++++++++++$+%++$%$++++#*******************XOX",
" OOOOOOOOO +++++++###  # #      X **      -X-      **XOX",
" OO=OOO=O= +@++++#              X+ **     XXX     **XOOX",
" OOOOOOOOO +$%$++               X+ **     XXX     **;OOX",
" =O=O=O=O= ++++++# .+++. . . . .X++ **    XXX    **XO-OX",
" O=OOO=OO& ++++++ . ++@   .   . X+@ **    XXX    **XOO=X",
" =O=O=O=O= ++++++# .+++. . . . .X+++ **   XXX   **X-O=OX",
" OOO=OOO=O#++++++ ..+++.........;++@ **   =X=   **XO=OOX",
" =O=-=O=O= ++++++#..+@+. ... .o.X++++ **  .X.  **;O-O=OX",
" O=O=O=OOO#++++@+ .:+++...o.o...X++++  **  =  **XO=O=O=X",
" =O=O=-=O= +++%++#.&+++&.O.O.OoOX++++  ** =X= **;-O=O=OX",
" ==O=O=O=&#+++$++ &O&&&OOOOOOOOOX++++ @ **XXX**X=O=O=O=X",
" =-=O=O=O=O ++++; O=O>>=&=O=O=O=X+++X + **-X=**;O=O=-=OX",
" =--===O===&XXXXX XXXXXXXXXXXXXXXXXXXO;X ** **XO===O===X",
" =O=O,O>O=O=O=O=O=O=O=O=O=O=O=O=O=O-O=O= *****;-O=-=O=OX",
" ====>=================================== ***X=========X",
" ===--O=-===-=O=O===O=O=O===O=O=O===O=O=O=X;XOO=-===-=OX",
" >,=====-,=================================-====->,====X",
" =O==,O==>O===-==,O>=,O>==--==-===-===--==O===-===O-==OX",
" =====>=====>,==>====>==,==>,==>,==>,==================X",
" ===O==,O=,-O=-=O===--==O-==O-==O-==O-==--==O=,>O=,>O==X",
".XXXXXXXXXXXXXXXXXXXXXXXXXXXXXXXXXXXXXXXXXXXXXXXXXXXXXXX"};
