/* XPM */
static char * image_name[] = {
"56 46 16 1",
" 	c #FFFFFAFAFFFF",
".	c #BEBEB6B6BEBE",
"X	c #010101010101",
"o	c #C7C7BABAC7C7",
"O	c #AEAEA6A6AEAE",
"+	c #69698686BEBE",
"@	c #F7F7B2B2AEAE",
"#	c #000000001818",
"$	c #717179798686",
"%	c #AEAEAEAEB6B6",
"&	c #AEAEB2B2CFCF",
"*	c #9E9E9A9A9E9E",
"=	c #A6A69E9EA6A6",
"-	c #38386D6DA6A6",
";	c #A6A679798E8E",
":	c #96969696AEAE",
"                                                       .",
" ......................................................X",
" .o.o.o.o.o.o.o.o.o.o.o.o.o.o.o.o.o.o.o.o.o.o.o.o.o.o.oX",
" ......................................................X",
" O.o.Oo.oO.o.Oo.oO.o.Oo.oO.o.Oo.oO.o.Oo.o+X+.Oo.oO.o.O.X",
" o......................................X.@+.........o.X",
" O.OoO.O.O.OoO.O.O.OoO.O.O.OoO.O.O.OoO.X.@++.OoO.O.O.O.X",
" .....Oo..o...Oo..o...Oo..o...Oo..o..OX.@+X+..O..o.o..OX",
" OoO.O.O.O.OoO.O.O.OoO.O.O.OoO.O.O.OOX.@+X+O.O.O.O.O.OoX",
" ...O.o.O.o.O.o.O.o.O...Oo..O.o.O.oOX.@+#$..O.o.Oo..O..X",
" O.OoO.OoO.O.O.O.+.O.OoO.O.O.O.O.OOX.@+#+%&OoO.O.O.OoO.X",
" .O...O.O.O...O.+ +.o.O.O.Oo..O.OOX.@+X+*.O...OoO.O...OX",
" OoO.O.O.O.OoO.$   +.O.OoO.O.OoOOX.@+#+*.OoO.O.O.OoO.O.X",
" .O.OoO.OoO.O.+     $.O.O.O.O.O*X@@+X+*.O.O.OoO.O.O.OoOX",
" O.O.O.O.O.Oo+       +.O.OoO.O*X@@=X+*.O.O.O.O.OoO.O.O.X",
" OO.OOOoOOO.+     .   +oOOO.O=X@@*X+*OOoOOOoOOO.OOO.OOOX",
" O.O.O.O.O.+     . .   +.O.O*X@@=+#*.O.O.O.O.OoO.O.O.O.X",
" OOOOOOOO%$     .   .   +OO*X @*+X*OOOOOOOOOOOOOOOOOOOOX",
" O.OoO.Oo-     . . . .   +*X @=+#*.O.O.O.O.OoO.O.OoO.O.X",
" OOOOOOO+     . + .   .  .X @*+X*OOOOOOOOOOOOOOOOOOOOOOX",
" OOO.OO+     . XX. . . ..X @*+X*.OOO.OOOoOOOO***OOOO.OOX",
" OOOOO+     . X .   .  .X@@*+X*OOOOOOOOOO********OOOOOOX",
" OOOO+     . X . . . ..X  *+X+OOOOOOOO**********OOOOOOOX",
" OOO+     . X .   . .++XX++X. +OOO***********OOOOOOOOOOX",
" *O+     . X . . . .+@  XXX.   +**********=OOOOOO*OOO*OX",
" O+     . ...   .  +@.X++X  ....X******O=OOOOOOOOOOOOOOX",
" O     .  +. . . ..+ X.+X+.......X**=*=O=OO*O*O*OOO*O*OX",
" O    .   X   .   +@ .+XX....o.   -OOOOOOOOOOOOOOOOOOOOX",
" *   . . .+. . . .+ .+XX...o . .   -o*O*O*==O*O*O*O*O*OX",
" O  .   . X .   .+@+XX+..   .   .   -OO=OOOOOOOOOOOOOOOX",
" * . . .  ++ . . ++X+. . . . . . .   +O=O*O*=*O*O*O*O*OX",
" O.   .    +X..  XX   .   .   .   .   -OO=*OO=*OOO*OOO*X",
" * . . . .  .++++. . . . . . . . . .   +O=O*O==*O*O*=*OX",
" O  .           .   X   .   .   .   .   -===*O*O*=*O*O*X",
" * . . +++ . . . . X X . . . . . . .     XO=======O*O*OX",
" *.   X @ X   .   X @ X   .   .   .     X-*O***O=;*O***X",
" * . + @ @ + . . X @ @ X . . . . .     X+OO*===*O:O*O*=X",
" *   +@ + @+    X @ + @ X   .   .     X+****=;****:;***X",
" * . + @ @ + . . X @ @ + . . . .     X++**O*O:O*O*O*O*OX",
" *.   # @ X   .   + @ +   .   .     X++**:;****=;******X",
" * . . $++ . . . . + + . . . .     X++**O***O***O:**O**X",
" *  .       .   .   +   .   .     X++********:;****:;**X",
" * . . . . . . . . . . . . .     X++*:****=*;=***;O*=**X",
" *.   .   .   .   .   .   .     X++*****:;=*:****:*****X",
" **********************************************;:******X",
".XXXXXXXXXXXXXXXXXXXXXXXXXXXXXXXXXXXXXXXXXXXXXXXXXXXXXXX"};
