/* XPM */
static char * image_name[] = {
"56 46 23 1",
" 	c #FFFFFAFAFFFF",
".	c #BEBEB6B6BEBE",
"X	c #030303030404",
"o	c #C7C7BABAC7C7",
"O	c #AEAEA6A6AEAE",
"+	c #717179798686",
"@	c #69698686BEBE",
"#	c #000000001414",
"$	c #AEAEAEAEB6B6",
"%	c #EFEFF3F3F7F7",
"&	c #9E9E9A9A9E9E",
"*	c #96969696AEAE",
"=	c #F7F7B2B2AEAE",
"-	c #5959A2A2D7D7",
";	c #38386D6DA6A6",
":	c #A6A69E9EA6A6",
">	c #FFFFFFFFC7C7",
",	c #DFDFBABA8E8E",
"<	c #AEAEB2B2CFCF",
"1	c #79799292B6B6",
"2	c #FFFFFFFFD7D7",
"3	c #A6A679798E8E",
"4	c #B6B6AEAEB6B6",
"                                                       .",
" ......................................................X",
" .o.o.o.o.o.o..o.o.o.o.o.o.o..o.o.o.o.o.o.o..o.o.o.o..oX",
" .............o..............o..............o.......o..X",
" .Oo.oO.o.Oo..O.o.Oo..Oo..Oo..O.o.Oo..Oo..O...Oo..O...OX",
" o............o......o...o....o..o...o...o.o.o....o.o.oX",
" .O.OoOoO.OoO.O.OoO.O.OoO.O.O.O.O.O.O.OoO.O.O.OoO.O.O.OX",
" ..o.O...o...O.o....oO.....o.Oo..o..oO.....o.O....o..O.X",
" .O.O.O.O.OoO.O.OoO.O.OoO.O.O.O.O.O.O.OoO.O.OoO.OoO.OoOX",
" ..o..oO.o....oO.....o.O.o.o.o.O..o..o.O...o...O...o...X",
" .O.O.O.O.OoO.O.OoOoO.O.O.O.O.OoO.O.O.O.OoO.O.OoO.O.O.OX",
" O..oO..oO...O.o.O...O.o.O.o.O...Oo.oO.o.O.o.Oo..O..oO.X",
" oO.O.OoO.OoO.O.O.OoO.O.OoO.OoO.O.O.O.O.O.O.O.O.OoO.O.OX",
" O.O.O.O.O.OoO.OoO.O.OoO.O.O.O.OoOoO.OoO.OoO.OoO.O.OoO.X",
" .OoO.OoO.O.O.OoO.OoO.O.O.OoO.O.O.O.O.O.OoO.O.O.OoO.O.OX",
" OOO.OOO.OOO.OOO.OOO.OOOoOOO.OOO.OOOoOOO.OOOoOOO.OOOoOOX",
" .O.O  + @ @ + @ @ + @ @ + @ @ + @ @ + @ @ + @ @ +#.O.OX",
" OOOO @@@@@@@@@@@@@@@@@@@@@@@@@@@@@@@@@@@@@@@@@@@@@OOOOX",
" .O.O@@@@@@@@@@@@@@@@@@@@@@@@@@@@@@@@@@@@@@@@@@@@@X.O.OX",
" OOO$%@@@@@@+X@X@#+X@X@#+X@X@#+X@X@#+X@X@X$@&*&*O@@OOOOX",
" OO.O@@@@@@@@@#XXX##XXXX##XXXX##XXXX##XXXX@@*===$@X.OOOX",
" OOOO%@-;@@@@XX&========================XX.@:===O@@OOOOX",
" OOOO@@@@@@@@@:========================:&X@@&$:O&@XO&&OX",
" OOO$%@@@@@@+:========================$XOX.@@@@@@@@&&&OX",
" OOOO@@+@@@@*====                 =>==:OOX+@@@@@@@X&&&&X",
" OOO$%@@@@@*====  O O  O O  O    ====OX,X@<@@@@@@@;&&&OX",
" OOO&@@@@@1===== OO O O O  O    ====:&OO+@@@@@;-;@#:&&OX",
" OOOO @#@&.##$=  O2O  O O  O    ===:XOO#@#+X@#@X@XX&&&OX",
" O&O&O&$&=XXO=        2        ====#O,X+<*O&*&&&:&&&&&&X",
" OOOOOO:=====                 ====:OO::*&&&&&&&&&&&&&&OX",
" O&O&O&&XX$X&&.&.&.:.:.:.&.&.X:X:XXOOX:&:&&&&&&&&&&&&&&X",
" &OOO&OXXOXOX.&.&.&.&.&.&.&.OOXOXOXOO&&&&*3&&&&&&&&*3&OX",
" O&O&O&&XXXXX@X@X@X+#+#+#+#@X+#XXXX:O&&&&&&*&3*&3:&&&&&X",
" &O&O&O&O&&&&&&&&&:*:*:*:*&&&:&&:&:&&&&3&&&&&:&&&*3&&&OX",
" O&O&O&O&O&&&&&&&&&&*&&&&&:&&*&&&&&&&3&*&&3O&:&O&O&O&O&X",
" &&&:&:&O&&&&&&&&&&&&&&&&&&&&&&&&&&&&&&&&&*&O&O&O&&&O&OX",
" O&O&O&O&:&&&&3*&&&&&&&&&&&&&&&&&3&&&&:&&O&O&O&O&O&O&:&X",
" &:&&&O&&&&&&*&&&*3&:3&*3&*3&:3&&:&&:3&:3&O&&&O3&*O3&:OX",
" O&O&:::&O3*&&&&&&&*&&&&&&&&*&&&&&&3*&&:&O&:&O*O&O&O*:&X",
" &&&O&&&&&:&O3&*3&&&O&*&&&&&:&&*3&&:O&&*&&&&O&&&&&&&O&&X",
" O&::3*O&:&O&:&O::::&&3O&:&O:&&O:O*:&&&:&O3O:3*O&:::&&&X",
" &&&&&&:3&&&&&&&&&&&&&:*&&&&*3&&&&&&:3&&&:*&*&:3&&&&&&&X",
" O&:::&&&O&:&:&3*O&:&O&&3O&::O&&3O&:&O*&3O&O&O&&*O3O&::X",
" &&&&&&&&*3&&:&&&:3:&*3&&:&&&&&&:*&:&&&&*&&&&&&&&&*&:&&X",
" &&::3*O&&:O&3*O&&*O&&&O*&3O&&34&&&O&3:::&&:&3*O&&&O&&&X",
".XXXXXXXXXXXXXXXXXXXXXXXXX#X#X#X#XXXXXXXXXXX#XXXXXXXXXXX"};
