/* XPM */
static char * image_name[] = {
"56 46 29 1",
" 	c #FFFFFFFFFFFF",
".	c #B6B6AEAEB6B6",
"X	c #030303030404",
"o	c #A6A69E9EA6A6",
"O	c #8E8E8A8A8E8E",
"+	c #38386D6DA6A6",
"@	c #9E9E9A9A9E9E",
"#	c #BEBEB6B6BEBE",
"$	c #A7A7A4A4A7A7",
"%	c #000000001111",
"&	c #A6A679798E8E",
"*	c #797986869E9E",
"=	c #8E8E86867979",
"-	c #AEAEAEAEB6B6",
";	c #AEAEB2B2CFCF",
":	c #717179798686",
">	c #96969696AEAE",
",	c #AEAE9E9E5959",
"<	c #BEBEC3C3CFCF",
"1	c #EFEFF3F3F7F7",
"2	c #5151A2A24949",
"3	c #AEAEA6A67171",
"4	c #C7C7BABAC7C7",
"5	c #AEAE61616161",
"6	c #69698686BEBE",
"7	c #717175757171",
"8	c #51515555FFFF",
"9	c #F7F7B2B2AEAE",
"0	c #868679798686",
"                                                       .",
" ......................................................X",
" ...............oOO+O+O+O+OO@o.........................X",
" .......#.....OO++++++++++X+X++$........#....#....#....X",
" o..#o...o.#O++X@O@+%+%+#&*+OXXX+$.#.$...o...o...$...$.X",
" ..........OX+%+X+X.O%+X=*&OX+XXXX$...........-#.......X",
" @#@-$.@#@+X+X+o@%+O+++&++#*=X+X+XX@.@.@#@#@#@.@.$.$.@#X",
" .-#..@..+X+%+@.O...;+:#&$=*&&%+%+XX>#@.-.-#..@.......@X",
" @.@.@.@+%+X++#O++O..#;O-*$*X+:X+X+XX@.@#@#@.@;@#@.@.@.X",
" ..#@..+X+%+%++++&O.....O;:,OOX+%+%+XX@.@..;@...@..#@..X",
" @.@.@OX+X+++++&:# . ..O.O.:#O+XXXOX+X+>.@.@.@#@.@.>.@#X",
" #@.;.X+%+%+%++#  ........>&O+X+OX++XX%+@.@...>.@;@...@X",
" @.@.++%++++&<1. . . ..O.O.2#%+XOXX+OXXX.@.>#@.@.@.@#>.X",
" .@.o+X+%++O-     . ......&;O&O+X+%+%+XX+.@.@.@.@.@.@.@X",
" @;@*X+o@O+& . . . . ....O.O.O+%+X+X+X+%X@#@.>#@.@.@.>#X",
" @@.++X@o.#+      . ......:3:&X+X+%+%+X+X+>.@@@.@o@.o@@X",
" @.OOX+O++ - . . . . ..O.O.*4X+%+X+X+%XXX+.@.@.>.@.@.@.X",
" @>5O.%+-++ . . . ....;...O.O+X+%+%+X+X+XX@@@>@@@@>@o@@X",
" @.+:3$X+; + . . . . ..O.O.O.X+X+%+%+%+%XX.@.@.o4@.@.>.X",
" o@>O-O.%..-#............-@5O+%+%+%+XXX+XX@>@@@@@@>@@@@X",
" @@+OO.OOX+&*.. . ...#.O.O.*;O+X+X+%+X+%XX@o.o&>4@@o.@oX",
" o@+O>O..O%+%+X......-#.&*O:OOO+OOOO&=@5O@2:3:o@@@o@@@@X",
" @@+:o.O.X+X+X+%+O.O.O.O.*.O&+:+&1   1  1   1X>@@o@&o@@X",
" @o+O,>@O+X+%+%+X+-##.OO:,O&2&+O*            X@oo@@o>@@X",
" O@+:O:o>X+%+X+X+%&X.O.O;:*+&+:+&            X$@:2$@@2>X",
" >o+OOO*@+%+X+%+%+X+X+&OOO:@65++=  O..*...   X@oo$>o$ooX",
" @@5+:+OO:+X+%+X+X+%+X++*+O+O+o+:            X@@$>@2>:oX",
" @@6+OO*&,++X+X+%+X+%+X:OO+*+:++O  O.+..O.O  Xo@@@@$@o@X",
" 2$2&+&+*&:O+%+%+X+X+%O+3+:+O+++:            X@@@oo2&=@X",
" oo$o%5*&OO:&+%+X+%+X+>:+&+&++%:,  O..O.O..  X++@o>o@o@X",
" &@O>+++*+&+OX+X+%+X++O+O+>+:%  :            X  +@@7o:oX",
" @:@@@%++7+O:+%+%+XO*&+++:++X  oO  &..O.+..  X .1%,o@oOX",
" O@*@*=+++:+O%+X+%O+&+:+&++%  ..O            X@ . X:o,>X",
" $:@=@@+%++O++%+%++:++++++%  ..@X............X@* . %:@*X",
" *o*@Oo=++++&%+X@+O+&++++%# ..++++++++++++++++++.   XO@X",
" :,o:,*@&+%+++%+++++++8++O                     .....XOOX",
" O>:o:>O>@+++++%++++++X++&   . . . . . . # # . .. ..XO>X",
" O&2OO&3:&&++%++++8+++++%&  . . .#*OOOOO*OO*OO.  . #X5OX",
" Oo&>:>:>*>*>++%+%+X+%+%+:   . . -O. 9> .@ .@@. . ..XOoX",
" **&2>:3O:,:&O&+%+X+%+%+XO  . . ..:&9+@.X@.X>@.  . O%,*X",
" O,:;5*&>*O>@*O&@++%+%+%+:#  . . #              . .+X:*X",
" &:O&@2*:O&OO*O*&O:,:&OOO+.-...-#.-...............OX+OOX",
" *>O&:o&2&@:*,:**Oo&*,::>O++X+X+X+X+X+X+X+X+X+X+X+X++O&X",
" &2*:>:*&*O*O:O*=>:O>:O>:,:&OOOOOOOO:=*&OOOOOOOOOOOO:O*X",
" &&@:03&O*O&:>OO&*O*:,&:>:>O&:>5OO:OOO&O*:O&*,:>56,&*O:%",
".%XX%%X%XXXXXXXXXXXXX%XXXXXXXXXXXXXXXXXXXXXXXXXXXXXXXXXX"};
