/* XPM */
static char * image_name[] = {
"56 46 14 1",
" 	c #FFFFFFFFFFFF",
".	c #BEBEBABABEBE",
"X	c #010101010101",
"o	c #AEAEAAAAAEAE",
"O	c #9E9E9A9A9E9E",
"+	c #69698686BEBE",
"@	c #F7F7B2B2AEAE",
"#	c #717179798686",
"$	c #000000001414",
"%	c #C7C7BABAC7C7",
"&	c #BEBEC3C3CFCF",
"*	c #EFEFF3F3F7F7",
"=	c #DFDFBABA8E8E",
"-	c #BEBEC3C3BEBE",
"                                                       .",
" ......................................................X",
" ......................................................X",
" ......................................................X",
" o...o...o...o...o...o...o...o...o...o...o...o...o...o.X",
" ....                                             .....X",
" o.o. ............................................XO.o.X",
" .... .                   oo                     .X+..oX",
" o.o. . ++++++++++++++++++Xo +++++++++++++++++++X.X+.o.X",
" ...o ..XXXXXXXXXXXXXXXXXXXooXXXXXXXXXXXXXXXXXXXX.X+o..X",
" o.o. .                   ..                    ..X+.o.X",
" .o.. . ..................X. ...................X.X+..oX",
" o.o. . . @ @ @...........X. .@ @ @.............X.X+.o.X",
" .o.o . ..................X. ...................X.X+o.oX",
" o.o. . .  @ @ ...........X. .@ @ @ ............X.X+.o.X",
" oo.o . ..................X. ...................X.X+oooX",
" o.o. . . @ @ ............X. .#$X+X++....%..X+X+X.X+.o.X",
" oooo . .........%...%....X. .&........%........X.X+oooX",
" o.o. . .XX#$+X.......X+X+X. .#$+X+.........X+X+X.X+.o.X",
" oooo . ...&..............X. .&%................X.X+oooX",
" ooo. . .X+XX++.......X+X+X. .+XX+X++.......X+X+X.X+.ooX",
" oooo . ..................X. ...................X.X+oooX",
" oooo . .XX+X+..%..%..X+X+X. .+XX+X+%..%....X+X+X.X+oooX",
" oooo . ..................X. ...................X.X+oooX",
" Oooo . .X+X+X+.......X+X+X. .+X+X+X+.......X+X+X.X+oOoX",
" oooo . ..................X. .............%.....X.X+oooX",
" ooOo ..XXXXXXXXXXXXXXXXXXX..XXXXXXXXXXXXXXXXXXXX.X+oOoX",
" oooo .                   ..                    ..X+oooX",
" OoOo . XXXXXXXXXXXXXXXXX.X. XXXXXXXXXXXXXXXXXX.X.X+oOoX",
" oooo . XOOOOOOOOOOOOOOOO X. XOOOOOOOOOOOOOOOOO X.X+oooX",
" OoOo . .                 X. .                  X.X+oOoX",
" oOoo ..XXXXXXXXXXXXXXXXXXX..XXXXXXXXXXXXXXXXXXXX.X+ooOX",
" OoOo .     .     .     .     .     .     .     ..X+oOoX",
" oOoO . XXXXX*=oooX O=ooX*=oooX ++++X ....X @@@@X.X+OoOX",
" OoOo ..XXXXXoXXXXXoX$XXXoXXXXXoXXXXXoXXXXXoXXXXX.X+oOoX",
" OOoO .     o     o     o     o     o     o     ..X+OOOX",
" OoOo . XXXXX #+#+X @@@@X o=oo$ ++++X @@@@X @@@@X.X+oOoX",
" OOOO ..XXXXX.$$$$X.X$XXX.XX$XX.XXXXX.XXXXX.XX$XX.X+OOOX",
" OoOo ...................-........................X+oOoX",
" OOOOOXXXXXXXXXXXXXXXXXXXXXXXXXXXXXXXXXXXXXXXXXXXXX+OOOX",
" OOOoOO+++++++++++++++++++++++++++++++++++++++++++++oOOX",
" OOOOOOOOOOOOOOOOOOOOOOOOOOOOOOOOOOOOOOOOOOOOOOOOOOOOOOX",
" OOOOOOOOOOOOOOOOOOOOOOOOOOOOOOOOOOOOOOOOOOOOOOOOOOOOOOX",
" OOOOOOOOOOOOOOOOOOOOOOOOOOOOOOOOOOOOOOOOOOOOOOOOOOOOOOX",
" OOOOOOOOOOOOOOOOOOOOOOOOOOOOOOOOOOOOOOOOOOOOOOOOOOOOOOX",
".XXXXXXXXXXXXXXXXXXXXXXXXXXXXXXXXXXXXXXXXXXXXXXXXXXXXXXX"};
