/* XPM */
static char * image_name[] = {
"56 46 12 1",
" 	c #FFFFFFFFFFFF",
".	c #BEBEBABABEBE",
"X	c #010101010101",
"o	c #AEAEAAAAAEAE",
"O	c #69698686BEBE",
"+	c #9E9E9A9A9E9E",
"@	c #A6A69E9EA6A6",
"#	c #717179798686",
"$	c #AEAEAEAEB6B6",
"%	c #000000001414",
"&	c #CFCFC7C7CFCF",
"*	c #79799292B6B6",
"                                                       .",
" ......................................................X",
" ......................................................X",
" ......................................................X",
" o...o...o...o...o...o...o...o...o...o...o...o...o...o.X",
" ......................................................X",
" o.o.o.o.o.o.o.o.o.o.o.o.o.o.o.o.o.o.o.o.o.o.o.o.o.o.o.X",
" .....                                           o....oX",
" o.o.o O+OO +O+O+O+O+O+O+O+O+OOOOOOOOOOO OOOX OOOX.o.o.X",
" ...o. +O+O ++O+O+O+O+O+O+O+O+O+O+O@O#OO OOOX OOOX..o..X",
" o.o.o O+OO +O+O+O+O+O+O+O+O+O+#$#OOOOOX OOOX OOOX.o.o.X",
" .o....XXXXXXXXXXXXXXXXXXXXXXXX%X%%XX%XXXXXXXXXXXXo...oX",
" o.o.o X                                      +++X.o.o.X",
" .o.o. X                                    X +O+Xo.o.oX",
" o.o.o X                               ..O..X O+OX.o.o.X",
" oo.oo X           XO           O      . O .X +O+Xo.oooX",
" o.o.o X           OO. . . . . O O     OOOOOX O+OX.o.o.X",
" ooooo X          .O.           O      ..O..X +OOXoooooX",
" o.o.o X          X X                  . O .X O+OX.o.o.X",
" ooooo X         .O O.                 OOOOOX +OOXoooooX",
" ooo.o X         X   X                 ..O..X O+OXoo.ooX",
" ooooo X        .O O O.                . O .X +OOXoooooX",
" ooooo X        O. X  X                OOOOOX O+OXoooooX",
" ooooo X        X .O. O.               .&#..X +OOXoooooX",
" +ooo+ X       +. X X .O       O       . O .X O+OXooo+oX",
" ooooo X       X .O O. X      O O     XXXXXXX +OOXoooooX",
" oo+o+ X      .O O   O O.      O              OOOXo+o+oX",
" ooooo X      O. XXXXX .O                     +OOXoooooX",
" +o+o+ X      X         X     .               OOOXo+o+oX",
" ooooo X     .O OXXXXXO O.                    +*OXoooooX",
" +o+o+ X     X  X     X .X   .         O      OOOXo+o+oX",
" o+ooo X    .X O.     .O X.           O O     +OOX+ooo+X",
" +o+o+ X    X  X       X .X .       .  O      OOOXo+o+oX",
" o+o+o X   O.  .O     O.  O.    . .           #OOX+o+o+X",
" +o+o+ X  OXXXXXXO   OXXXO.XO .               OOOXo+o+oX",
" ++o++ X                   OO                 OOOX+o+++X",
" +o+o+ X                                      OOOXo+o+oX",
" +++++ X                                      OOOX+++++X",
" +o+o+ XXXXXXXXXXXXXXXXXXXXXXXXXXXXXXXXXXXXXXXXXXXo+o+oX",
" ++++++++++++++++++++++++++++++++++++++++++++++++++++++X",
" +++o+++o+++o+++o+++o+++o+++o+++o+++o+++o+++o+++o+++o++X",
" ++++++++++++++++++++++++++++++++++++++++++++++++++++++X",
" +o+++++++o+++++++o+++++++o+++++++o+++++++o+++++++o++++X",
" ++++++++++++++++++++++++++++++++++++++++++++++++++++++X",
" ++++++++++++++++++++++++++++++++++++++++++++++++++++++X",
".XXXXXXXXXXXXXXXXXXXXXXXXXXXXXXXXXXXXXXXXXXXXXXXXXXXXXXX"};
