/* XPM */
static char * image_name[] = {
"56 46 24 1",
" 	c #FFFFFFFFFFFF",
".	c #BEBEBABABEBE",
"X	c #070705050808",
"o	c #AEAEAAAAAEAE",
"O	c #9E9E9A9A9E9E",
"+	c #F7F7B2B2AEAE",
"@	c #69698686BEBE",
"#	c #717179798686",
"$	c #A6A69E9EA6A6",
"%	c #DFDFBABA8E8E",
"&	c #BEBEC3C3BEBE",
"*	c #868679798686",
"=	c #B6B6AEAEB6B6",
"-	c #79799292B6B6",
";	c #000000001414",
":	c #AEAEAEAEB6B6",
">	c #C7C7BABAC7C7",
",	c #CFCFC7C7CFCF",
"<	c #96969696AEAE",
"1	c #AEAEB2B2CFCF",
"2	c #BEBEC3C3CFCF",
"3	c #5959A2A2D7D7",
"4	c #38386D6DA6A6",
"5	c #51515555FFFF",
"                                                       .",
" ......................................................X",
" ......................................................X",
" ..................................oo..................X",
" o...o...o...o...o...o...o...o...o.ooo...o...o...o...o.X",
" .................................OooO.................X",
" o.o.o.o.o.o.o.o.o.o.o.o.o.o.o.o.O..+OOo.o.o.o.o.o.o.o.X",
" .....o.......o.......o.......oooo+++.OO......o.......oX",
" o.o.o.o.o.o.o.o.o.o.o.o.oOo.ooOO+ +X+OOOo.o.o.o.o.o.o.X",
" ...o...o...o...o...o...o.OOOOOO.+ X@ +.OOO.o...o...o..X",
" o.o.o.o.o.o.o.o.o.o.o.o.oO+o..+ .Xo#@o+...OOOOo.o.o.o.X",
" .o...o.o.o...o.o.o...o.oOO+X+ X.XXo.XX @ +.o.O.o.o...oX",
" o.o.o.o.o.o.o.o.o.o.o.$Ooo+XXXXXoo%ooXXX@O...Oo.o.o.o.X",
" .o.o.o.o.o.o.o.o.o.oOOOoo&+X@@#o.@#@*ooXXXX@ oOo.o.o.oX",
" o.o.o.o.o.o.ooooo$OOOoo..+XXo.=%#@@@@-@oo%X .oOOo.o.o.X",
" oo.ooo.ooo.oo$OOoooooo..++X.#@##@@;@;@@@#:#.+.oOoo.oooX",
" o.o.o.o.o.ooOO+O@+++...+X;#.@@@;@;@;@X@@@=@X ..oO.o.o.X",
" ooooooooooooOO+ XX  .+++ Xo=@@;@;@X@;@;@@#oX.+.oOoooooX",
" o.o.o.o.ooOOO@+XOXXXOX @Xoo*@;@;@X@X*;@X@@.X$@oOO.o.o.X",
" oooooooooOOo+@XX%oooXX Xo>#@;@X@X@X@;@;@@*oX@+oOooooooX",
" oooooooo$OO@+XXo##-#=XXoo#@;@X@X@X@X@X@*@>=X .+Oooo.ooX",
" oooOOOOOO+>+@#=-@@;@#oo.@-;@X@X@X@X@X@@@>o;X +oOooooooX",
" ooO..+.++@ @X@.#@;@;@-##@;@X@X@XXX@X@X@@=XX#+&oOooooooX",
" oOO@@@@@XXXX;=@@;@;@;@@@@@X@X@X@X@X@;@*oXX  +.oOooooooX",
" oOO...+@++@ #;o-@;@@@@>=@@@X@X-X@X@X@X@#>oXO+.oOooooOoX",
" ooOOOOo+o.++ XX.@#-@.oXo%@X@X@X@X@X-X@;@#oXX +oOooooooX",
" ooooOOOOOoo+++:Xo=o%XXXXo#@;@X@X@X@X@X@;@.oX#+.OOoooOoX",
" oooooooooOO.&,#$XXXX<# X;1#-X@X@X@X@X@;@@*oX +.oOoooooX",
" OoOoOoOoooooo.+;++#++ + Xo#@@X@X@X@X@X@X@@=X +&oOoOoOoX",
" oooooooooooOO:X+.:@+.&+ XX>@@@X@X@X@X@;@#%oX +.oOoooooX",
" OoOoOoOoOoOoOOo:..++2..+; Xo@@-X@X@X@-#34>;# +.oOoOoOoX",
" oOoooOoooOoooOOOo:.==..&+ ;#%=#@@#-@-53#.o;@@+.oOOoooOX",
" OoOoOoOoOoOoOoOOOOoOOOoo.+:;@Xoo@@@@@%o+oX ++&.OOoOoOoX",
" oOoOoOoOoOoOoOoOoOoOOOOoo.+XO;XX%;@ooXXX;#@+..oOoOoOoOX",
" OoOoOoOoOoOoOoOoOoOoOoOOOo+X++ X;ooX  X +@++,=OOOoOoOoX",
" OOoOOOoOOOoOOOoOOOoOOOOOO.+++. XX-#  +++++&=oOOOOOoOOOX",
" OoOoOoOoOoOoOoOoOoOoOoOoOO=.=.++ X@++ &&++&=OOOoOoOoOoX",
" OOOOOOOOOOOOOOOOOOOOOOOOOOOOo:&++;;++....&.oOOOOOOOOOOX",
" OoOoOoOoOoOoOoOoOoOoOoOoOOOOOO=:+.++&.oOOOOOOoOoOoOoOoX",
" OOOOOOOOOOOOOOOOOOOOOOOOOOOOOOOo&++=.oOOOOOOOOOOOOOOOOX",
" OOOoOOOoOOOoOOOoOOOoOOOoOOOoOOOO=:.ooOOOOOOoOOOoOOOoOOX",
" OOOOOOOOOOOOOOOOOOOOOOOOOOOOOOOOOooOOOOOOOOOOOOOOOOOOOX",
" OoOOOOOOOoOOOOOOOoOOOOOOOoOOOOOOOOOOOOOOOoOOOOOOOoOOOOX",
" OOOOOOOOOOOOOOOOOOOOOOOOOOOOOOOOOOOOOOOOOOOOOOOOOOOOOOX",
" OOOOOOOOOOOOOOOOOOOOOOOOOOOOOOOOOOOOOOOOOOOOOOOOOOOOOOX",
".XXXXXXXXXXXXXXXXXXXXXXXXXXXXXXXXXXXXXXXXXXXXXXXXXXXXXXX"};
