/* XPM */
static char * image_name[] = {
"56 46 30 1",
" 	c #FFFFFFFFFFFF",
".	c #B6B6AEAEB6B6",
"X	c #010101010101",
"o	c #BEBEB6B6BEBE",
"O	c #9E9E9A9A9E9E",
"+	c #AEAEAEAEB6B6",
"@	c #AEAEB2B2CFCF",
"#	c #96969696AEAE",
"$	c #A6A69E9EA6A6",
"%	c #38386D6DA6A6",
"&	c #000000001111",
"*	c #8E8E8A8A8E8E",
"=	c #797986869E9E",
"-	c #F7F7B2B2AEAE",
";	c #AEAEA6A6AEAE",
":	c #A6A679798E8E",
">	c #AEAE61616161",
",	c #8E8E86867979",
"<	c #717179798686",
"1	c #AEAE9E9E5959",
"2	c #C7C7BABAC7C7",
"3	c #CFCFC7C7CFCF",
"4	c #868679798686",
"5	c #5151A2A24949",
"6	c #717175757171",
"7	c #696969697171",
"8	c #69698686BEBE",
"9	c #79799292B6B6",
"0	c #EFEFF3F3F7F7",
"q	c #AEAEA6A67171",
"                                                       .",
" ......................................................X",
" ......................................................X",
" .....o..o..o..o..o..o..o..o..o..o..o..o..o..o..o..o...X",
" Oo..O...O...O...O...O...O...O...O...O...O...O...O...OoX",
" ......+o...+......+o...+......+o...+......+o...+......X",
" O.OoOoO.OoOoOoO+OoO.OoOoOoO+OoO.OoOoOoO+OoO.OoOoOoOoO.X",
" .+o.+O+o.+..@O.o.+o..O+..+o.oO+o.+..@O.o....@O...+.+.OX",
" Oo#.$.$.OoO.O.$.Oo#.O@OoO.#.O.#.OoO.O.$.O@O.O.O.#oOo#.X",
" ...O...O...O...O...$...#...O...O...O...O...$...O...O..X",
" O.O.Oo#.O.#.O.O.#.O.O.O.O.O.Oo#.O.#.$.$.$.O.O.#.O.O.OoX",
" .#o..O.O.$..%X&XX%*..O.O.#o..O.O.O...O.O.O..oO.OoO...OX",
" $.O.$.#.O.O.X    .%X&%=.O.O.#o#.O.OoO.#.O.#.O.O.#.O.#.X",
" .O.O.O.#.O.OX%    -  ;%&X%=$.O.#.O. %O.OoO.O.#.O.#.O.OX",
" O.#.#.OoO.#.%X - - :=- - .%X&%=oO.#%X&%.#.Oo#.OoO.#.$.X",
" OO.OOO.OOO.O$X% - %%%XX -o-..;%&X%%;%XXX%$.OOO.OOO.OOOX",
" O.OoO.#oO.#.O%&- >%  .%Xo-......;,%&XX*X&%$.O.#.O.OoO.X",
" O#OOOOOOOOO$OOX%-<%O  o%X...XX.O.OoO%&*%X%OOOOOOOO#OOOX",
" O.O.O.O.$.O.Oo%X%-&%..O%&..X* X%O.O$,**%&X$.$.O.#.O.$oX",
" O$#OO#OOOOOOO#$X&--&%%%X%.XX X* XO1;*O%%XXOOOOOO$OOOOOX",
" OOO2O$:3OO$.OO$%X%o-X&&%.XXXXX X* X:O%&XXX$.O$O.$:$.OOX",
" O$OOOO##:O#OOOOOXX-.-...X* X*XXX *XX%%XXX%O$OO$$#$OO#OX",
" OOO$O$O$O$O$O$O$%X%-o..XX *X&*X XX%%%&XXX%OO:$<.OOO$O$X",
" $OO+4$OO@4$#:OOOOXX:...X XX XXXX&%%-%%XX%$O$#$$OO#$OOOX",
" 5#$#5+OO5+$O5+OO<%&%..O%XX X* XOX%-  *%%*OOO5+#O5;#O5#X",
" $$O$$OO$OOO$#O$$$OXX*O.$%XXX *XXo%% -..$OOO$#OOO#OO;$OX",
" OO5;445##O5;6$1:#O%X%.$.O%X XX%%%&%%o-..O$5#5;5#$O5$<$X",
" O$$O#;$$O$$$#:#O$O$X&%.$oO%X&%%-%%&%>O-O.#$$$$$O$$#O$OX",
" 5$:#5$<#5;6O5;<$=O1%XX*.O;,%X%- -:%*<$#oO.$O$O<$1<:#>OX",
" ;#:$$$O$$O$$O$O#O %OX&%O1O*$%%% -.o#$OOO.O.O$##<#$##$OX",
" :O5;6O:O7$1O<#1O=%&%%XX*$>O%%&%>o-.OO$14$.O:#$$;5$6$5+&",
" *:$$$5OO$4:$#*:O$*%X&X&%<O%X&X&%*$-O.#$OO#.#.OOO$:$#$*X",
" =O*O:#:*1#*#,O=O,O*%XX%*1%&XXXX%*$OoO.OO<$OOOOOOOO1$:#X",
" O=O8$*O=O=#*81O=$<#*XXX&&XXXXX%*OOO#.O.#:1OO.O$:OO*<O*X",
" 1*=O19=$*#1O18:O5;*O*%%XXXX%%O*$*O$OO.O#O#4$O#O#O5;$1*X",
" <*O==*O=1<#<:5O=:*O=:*O***;*=:@5<1OOOO.O3;<1$OO,:.<$<=X",
" 1O1*,O*O=#<$*;:O=O*O5@:O>$=O*O4$<#<OO#OOOO#*4OO5;:$1#*X",
"0O<<=:==:1<1=:*=<1*:*:<1==*,*>*=:O<<1$O$O.OO$Oq#$<O<#<*X",
" *$1#*O1#<#<;*O=$=#5;:#<#1<#O=O=O*$=$<OO:$#OO<$<O#<$1<#X",
"0q<:<1=<==:q===:1,=:6=**<*=:**<1=:***:5$$#O4$O#$:<;<<#*X",
"0<<##<#*;=5:$6*=<8>*#=*5@:,=O=1:==*<$*:=#O5;#5;4$**q#<*X",
" ****,=:**<:*==1**O<q*<:*<*<,:<=**:5=>=*5$$#19,#$<#<4**X",
" *O*>91<=*;=*<*<#*#1<*#:<1#*=:=1<*$:<9=,:*#6$*#*O1<O>#*X",
" <1<q<:5<18>5**q<1==:*:54#<1<q<=:5=>O,*<*,=$<O1#<:5*==*X",
" *<$<#*::=*#:<$:=<=>=,:<$:=#<**=#:;<*<O=#<*1#<***O:O1<>&",
".&X&&XX&&X&X&&XXX&X&XX&&X&XXX&&XXXX&&&&XXX&&X&&XXX&XX&&X"};
