/* XPM */
static char *ImageProcessing[] = {
/* width height ncolors chars_per_pixel */
"56 46 12 1",
/* colors */
"` c #000000",
"a c #9A9B97",
"b c #567390",
"c c #B6B6B6",
"d c #AEAAAE",
"e c #75818D",
"f c #A6A2A6",
"g c #4C4DB7",
"h c #E8AF72",
"i c #C1C3C9",
"j c #FFFFFF",
"k c #B2AEB6",
/* pixels */
"jjjjjjjjjjjjjjjjjjjjjjjjjjjjjjjjjjjjjjjjjjjjjjjjjjjjjjjc",
"jcccccccccccccccfaaaaaaaaafcccccccccccccccccccccccccccc`",
"jccccccccccccfaaabbb``fkbaaaafccccccccccccccccccccccccc`",
"jccccccccccfaab`````f``c``fbbaafccccccccccccccccccccccc`",
"jfcccfcccfaab````f`fahb````f``baafcccfcccfcccfcccfcccfc`",
"jcccccccfafb`f``f``fjdb``f``f```bafcccccccccccccccccccc`",
"jfcfcfcfa`h``````fhbkfb`k`f``f````afcfcfcfcfcfcfcfcfcfc`",
"jcccccfa````f``f`khhaegh``d``af`fb`afcfcccccccfcccccccf`",
"jfcfcfa`f```c````fbhbbe``````d``f``bafcfcfcfcfcfcfcfcfc`",
"jcccfab````f`````bhhhfb```````h``ff``accfcccfcccfcccfcc`",
"jfcfab```fdf``````kda````ff```ia```h`bafcfcfcfcfcfcfcfc`",
"jcfca``f`ff`````````df```fdh``hah`f`a`acfcfcccfcfcfcccf`",
"jfcab``dhh``hahhhhhjjjjjhhhhhfhda`````bacfcfcfcfcfcfcfc`",
"jcfa`b`f```````fhhhhhhhhhb```````h`````afcfcfcfcfcfcfcf`",
"jfaba`````````````fhahfb```````````c`bbaafcfcfcfcfcfcfc`",
"jfa````ahhfdfd`````adab`````hhhhh```h``baffcfffcfffcfff`",
"jfa`bhhahhfahaf`dh`ffh````bdahhhffd`afjbbfcfcfcfcjbfcfc`",
"jfbf`db````````bkk`hhd```````````bff`fjc`affffffjc`ffff`",
"jabh````d```h``````hhf```hf```hd`````fjcbbcfcfccja`fcfc`",
"jabd`fdbb```````fd`hhf````````````bf`fjcc`fffffjca`ffff`",
"jabahafhfdh``dhf``dhhdb``dhf```hhhkhhdkjcbbfcfcjab`fcff`",
"jabbbahaf``f```fffhhhdbb`ff`fd`dhhhdfbfjcc`fffjca`bffff`",
"ja`b`fadhffffffdfaajjfhhf`````fhhhhfbbdjccbbfcjaa`bffff`",
"jab`fbhfhfffffd`hh`jjhhh`hhfhhhhhhhhbdbfjcc`fjcab`fffff`",
"jaf``dabkhhffafffdf```hfhhhhhhhhhhkf```fjccbcjaa`bfffaf`",
"jaffkbfkbhhhffd``````````hhhfhhkhhfa`dffjccbjcaa`bfffff`",
"jfa````fdahhhaf`hahah`hhhhhkhafhdab`bb`fcjcbjaab`ffafaf`",
"jfa````bhdafff`faf````hd`hhhfhhfaab````bfjbjcaa`bffffff`",
"jaafdf``fahahaf``````````hhhhadaab`dfdbffjbjaab`fafafaf`",
"jffa`````bafa````````````````aaab`b````affjcaa`bfffffff`",
"jafabbb```kh`h`fdff```hhhhhfdaab``````bafcjaj``bfafafaf`",
"jfadf``````aaadf`f````hfhdaffffb`fd```bffjca``b`ffafffa`",
"jafaadhfh```hahah``````afafafab```bdf`afcjaaa`a`bafafaf`",
"jfafaa````````ahhhdf`````fafb````````affjcaa`bcb`fafafa`",
"jafafaabbbb```dhahhf````fbbbb`b`bbb`aafcjaab`bcc`bfafaf`",
"jaafaaaa``````aa`fd````d`k``d``````aacjjaaa`a`cjbb`baaa`",
"jafafafaadbbb```h```````f`f```bbb`fafjcaaaa`a`ccccb`baf`",
"jaaaaaaaaf``````aahbbbbbb`d``````aaajca``aab`bcc``cb`aa`",
"jafafafafaafbbbb```bdhkdb```bb`baafaja`bbjaa`cc`bbjc`af`",
"jaaaaaaaaaaaff```bb``ibb`bbb`baaaaaaja`bcjaa`cc`bcjc`aa`",
"jaaafaaafaaafaaaa``bdbb`b`aaaaaafaaajcajjaab`bccjjcb`aa`",
"jaaaaaaaaaaaaaaaaaaaaffaaaaaaaaaaaaaaccaaab`b`bcccb`baa`",
"jafaaaaaaafaaaaaaafaaaaaaafaaaaaaafaaab````babb````baaa`",
"jaaaaaaaaaaaaaaaaaaaaaaaaaaaaaaaaaaaaaaaaaaaaaaaaaaaaaa`",
"jaaaaaaaaaaaaaaaaaaaaaaaaaaaaaaaaaaaaaaaaaaaaaaaaaaaaaa`",
"c```````````````````````````````````````````````````````"
};
