/* XPM */
static char * image_name[] = {
"56 46 28 1",
" 	c #FFFFFFFFFFFF",
".	c #B6B6AEAEB6B6",
"X	c #030303030404",
"o	c #8E8E8A8A8E8E",
"O	c #BEBEB6B6BEBE",
"+	c #9E9E9A9A9E9E",
"@	c #38386D6DA6A6",
"#	c #F7F7B2B2AEAE",
"$	c #A6A679798E8E",
"%	c #AEAE9E9E5959",
"&	c #8E8E86867979",
"*	c #717179798686",
"=	c #797986869E9E",
"-	c #96969696AEAE",
";	c #AEAEAEAEB6B6",
":	c #AEAEB2B2CFCF",
">	c #AEAEA6A6AEAE",
",	c #AEAE61616161",
"<	c #000000001414",
"1	c #A6A69E9EA6A6",
"2	c #868679798686",
"3	c #AEAEA6A67171",
"4	c #C7C7BABAC7C7",
"5	c #717175757171",
"6	c #5151A2A24949",
"7	c #69698686BEBE",
"8	c #79799292B6B6",
"9	c #EFEFF3F3F7F7",
"                                                       .",
" ......................................................X",
" ......................................................X",
" ........oooooooooooooooooooooooooooooooooooooo...O....X",
" +.O.+OooXXXXXXXXXXXXXXXXXXXXXXXXXXXXXXXXXXXXXXoo+...+OX",
" .....o@X+#                                  #+X@o..O..X",
" +O+Oo@X#                                      #X@$+.+.X",
" ...o@X# #%&oo*%=$=ooo*%=$=ooo*%=$=ooo*%=$&oo&# #X@o.O+X",
" +.-oX. #$;;..:>.....O;;.....O;;.....O;:>.O..;o# .Xo.-.X",
" ...oX# +......................................+ #Xo+..X",
" +.+oX$ +.-.o@@@@@@@@@@@@@@@@@@@@@@@@@@@@@@o.+.+ ,Xo.+.X",
" .+.o@X##o.+oXX<X<X<X<X<X<X<X<X<X<X<X<<X<<Xo-O,##<@o..+X",
" +.-.oX, =++o@XXXXXXXXXXXXXXXXXXXXXXXXXXXX@o.+o ,Xo+.+.X",
" .1.-o@X#.2+.@X@X@XXXXXXXXXXXXXXXXXXXX@X@X@+-o#O<@o.+.+X",
" +.+.+oX$#3+1o@<@<@@@@@@o.#$@@@@@@@@@@<@<@o1+o#,XoO+.-.X",
" ++.+-o@X.:*++@@@@@o=$oo.# #*oo=$ooo$@@@@@++o.#<@o-.+++X",
" +.+.+.oXo#,-1*@@@<$++++. , :++1++++=<@$@o++=O%<o1O+.+.X",
" ++-++-o@X.4*--@$@@@*1++O#o##.+++1-o@@o@=o+o..<@=++-++1X",
" +.+.1.+oXo.o-%+@$@<%-++. %* .+++++=Xo$*o+*%>oX$.+.+.+.X",
" 1+++++-o@X-.@+$*-*@@*++.#$@##.+11o@@5=@+o,-.X@=+1++-++X",
" +1+.+1+.oX@&$==oo*.Xo1+: @@@ .++15Xo>%$===.@Xo+.++1.++X",
" ++111+++o@X>1@o-@>o@@%+.#@@@##.1*@@%o@=+@&><@%1++1+11+X",
" ++-++1+-+oX@&+o,o%11<*>. <@<@ .+%<>1o*ooo1@X*-o+1++1++X",
" +1+1-$+1+o@X>+@$+@>o@@o.#@<@X##>@@&+@o-@1%X@o1+1+1$+1+X",
" 6-++6;-+61oX@&oooo,>.Xo. X@X@@#:X>O,+$=%1@<oo1++6>-161X",
" 1>+1-+1-11o@X>o@+o@.O@@.#@.<O#.@@.O@15@+$<@o-+->-++1-+X",
" +-61,-61++5$X@%*o1o%;.<.#  @@ .XO.o1o+oo@Xo+616>-+6151X",
" +11---11+11*@<oo@o-@.#@@..#.X#O@.#@o+@5$X@o1111$o-1+>+X",
" %+*+61$+%+*1%<@-21+1$.#X,>. @#@.#,1-+o=@Xoo+51*-5+516+X",
" 2++111o1$1-1*@<@o@++@##@@o1>#O@##@++@o@X@o++++-+>+1111X",
" *>o+&+*-=+o+ooX@o@-++$ #<o&$>@.#,1++@@@<o+2161%$=+2+o+X",
" -$++7%>++o++-o@<@o@1:,# oXXX<, #=+.@o@<@$6+11$++1%+1+*X",
" o+=+&+*1%+*-2-oX@@@++;+  # # # $>.1@@@<o$1$-o+&7&7$+%+X",
" +%+o+o-$7o1=>,o@<@@@1.=.      :*O.@*@<@68o+oo$+$>5+o1*X",
" =+*+o+o+%8,-=+=oX@@@O1.o,=%*ooo.+1@@@<o>$+=1&o=+o1=+o-X",
" oo+o$o+o*&-+&=>*@<@@@............@@@<@o$&=>5ooo%*%+*%oX",
" o-=+=+=+&+o+o+%+$<@<@o.....O....o<@<Xo$+*1%o=1=1+oo1*-X",
"9$$&%oo$6oo*%*o*o=@<@<@ooo=ooooooX@X<@$6*%=$o=+3**-*%=oX",
" =+=8$-o1$-37$+=1ooXX@X@X@X@X@<@X@<XXo;$;$-&8,-*13+2-$+X",
" =$&%=oo*o+*o&=o+,o@X<XXXXXXXXXXXXXX@$o**oo*==ooo*=$oo=X",
" ===8$=*1o5o1=o=+=*3@XXXXXXXXXXXXXX@o==*;o=3+ooo-%*=-o=X",
" =,o$6=o=,o$6*&$6-o+*o@@@@@@@@@@@@*o=,o+*%5=$=oo*o=o&=oX",
" %ooo&oo%*-o+$+*,o-o=o$$*o$=oo$=oooo*-==o*1=&oo&o=-=$*3X",
"9=o==$o=$+o=$1*3o=$*%*=o+=o*$o*o=$*ooo*%=ooo*o*$6$o$6o*X",
" oo%$==,85=$=,8&o%=o$=o*oo*-6$=*o-%*+*o,*-%$=6>$*1*o$o-X",
".XX<XXXX<XXXXX<XXXX<XXXXXXXX<<X<XXX<XX<<XX<X<<X<XXXXXXXX"};
