/* XPM */
static char *Man[] = {
/* width height ncolors chars_per_pixel */
"56 46 9 1",
/* colors */
"` c #000000",
"a c #9A9B97",
"b c #B6B6B6",
"c c #AEAAAE",
"d c #A6A2A6",
"e c #E8AF72",
"f c #C1C3C9",
"g c #FFFFFF",
"h c #B2AEB6",
/* pixels */
"gggggggggggggggggggggggggggggggggggggggggggggggggggggggb",
"gbfbbfbbfbbfbbfbbfbbfbbfbbfbbfbbfbbfbbfbbfbbfbbfbbfbbfb`",
"gbbfbbfbbfbbfbbfbbfbbfbbfbbfbbfbbfbbfbbfbbfbbfbbfbbfbbf`",
"gbbfbbbbbfbbbbbfbbbbbfbbbbbfbbbbbfbbbbbfbbbbbfbbbbbfbfb`",
"gcfbfcbbbcbbbbfbbhbfbcfbbbbbbcfbfcbbbbfbbhbfbcfbbbbbbcb`",
"gbfefbffbfbf``````bfbbfeffbbfbfefbfbbfebfbbbfbbfbbffbfb`",
"gcfcfcfcfcf``cbcb``cfcbhfcfc```hf``cfcfcbcbcfcfcfcbcbcf`",
"gfebfbdeffb`b````b``fecfb````````````bcfef`````feffefbc`",
"gcfhbcbcbcf```````b`fhfc``b`````bc`````cf```b```fcbcfcb`",
"gbbbcbbfcbb````b````cb`````b`````b`````f``b`c```cfbfcbf`",
"gcfcbcfcbcfc``bc`b`c``bc```c``````b````c`c`c`c``bcecbcb`",
"gfcbfbcbcfcbfbcbcbc```c````````````````bcbcfb`c`cfhbfbc`",
"ghbcbcfcbcbc``bbfc``````````bcbcbcbcbcb```bcbc`cbcbcbcf`",
"gbcfcbcbcbc````bcb`````bcbcb```````````````fc`cfcbcfcbc`",
"gcbcbcbcbc`cb``cbc``bcf`````fcbcfcbcfcbcbcbcbcbcbcbcbcb`",
"gccbccbbc````c``ccc````bcccb``````````c````fcccbccheccc`",
"ghbcfcbcf`````b``cf`bcb```````````````bc`````cbcfcbhfcb`",
"gcccccccc```c``cc````````cc`````ccc```ccc`cc``ccccccccc`",
"gcbcbcehfcbcfcbc``````````````````````bc````b``cbcbcbcb`",
"gccccchccccccccc```````cc```````cc```ccccc```c`cccbcccc`",
"gcccfcccbcccbcccfcccb`c``c`c`````c```cccf````c`cfcccfcc`",
"gcccccccccccccc```c`c`c`c``c`````````cccccc``c`cccccccc`",
"gcccccccccccc````c``c``cc``c`````````ccc`c``c``cccccccc`",
"gcccccbccbch```cc``c`cc```````````c``cb`c```c`ccccccccc`",
"gacccdcccccc``c``a```ac`````c```````cacc`acc``cccacccac`",
"gcccccccccc```c```c`ccc`c`c`c`````c``cccc```cccbccccccc`",
"gccccacccbc``a``````cd``c````a```c`a``bacccdcabaccbccdc`",
"gccccccccccc`````c`c``c``c```c`cc```ccccccccbcccccccccc`",
"gahacccaccca`c`dcab````a`d``````````cacdbacacdcccacaccc`",
"gcccccccccccc`cbcc`````b``c```````````ccccccccccccccccc`",
"gacccccccacccacacd``````c`c``a``c`c``c`ccdbacccacabacac`",
"gcacccachcaccccc``a`````c``c``a``ca```a`ccacccaccccccca`",
"gabdcacacacacac```b``````a``c``a````c`c``abdcababacacac`",
"gcacccacaccccc`````c`````b``d````c`c`c`````babacacababa`",
"gacacacabacah```c``a``````c``c``c`c``a```a``cacabdcacac`",
"gcacaaccacab`````a``a`````a```a``a`c`a```c``cadhadacaca`",
"gahccacacac```````c`c``````a``c```b``c````c``dcacdcdcac`",
"gdaaadacaca```````a``a`````a```a`a``a`a```a``daddadaadd`",
"gacacacaca`````````d`a`````d````b```c``a``b```cacdcccac`",
"gaadadadda`````````c``a`````c````a`a```a```a``dadaaadda`",
"gaddcaaacd`````````a``d`````c`````a`````c``a```dcddacad`",
"gdaadaddda`````````a```a````d```````````a``a```aadaadda`",
"gahadaaaad`````````a```d`````a```````````a``a``daacdaad`",
"gadadaddddadaaaaaaadcaadaaacdacdaadcaaadacddaddaddadada`",
"gadaadadaadaddcacddadddaddaaadaddaaddddddaaadaddadadada`",
"f```````````````````````````````````````````````````````"
};
