/* XPM */
static char *Moduleplayer[] = {
/* width height ncolors chars_per_pixel */
"56 46 13 1",
/* colors */
"` c #000000",
"a c #9A9B97",
"b c #FFE7BE",
"c c #567390",
"d c #B6B6B6",
"e c #AEAAAE",
"f c #75818D",
"g c #A6A2A6",
"h c #4C4DB7",
"i c #E8AF72",
"j c #C1C3C9",
"k c #FFFFFF",
"l c #B2AEB6",
/* pixels */
"kkkkkkkkkkkkkkkkkkkkkkkkkkkkkkkkkkkkkkkkkkkkkkkkkkkkkkkd",
"kdddddddddddddddddddddddddddddddddddddddddddddddddddddd`",
"kdddddddddddddddddddddddddddddddddddddddddddddddddddddd`",
"kdddddddddddddddddddddddddddddddddddddddddddddddddddddd`",
"kgdddgdddgdddgdddgdddgdddgdddgdddgdddgdddgdddgdddgdddgd`",
"kdddddddddddddddddddddddddddddddddddddddddddddddddddddd`",
"kgdgdgdgdgdgdgdgdgdgdgdgdgdgdgdgdgdgdgdgdgdgdgdgdgdgdgd`",
"kdddddgddgaaaaaaaaaakikikikaaaaaaaaaaaaaaaaaaaadddddddg`",
"kgdgdgdgdgaagaaagaaaikikikiagaaagaaagaaagaaagaagdgdgdgd`",
"kdddgdddggaaaaaaaaaaiiiiiiiaaaaaaaaaaaaaaaaaaaadgdddgdd`",
"kgdgdgdgdggaaaaaaaaaiiiiiiiagaaagaaagaaagaaaaaagdgdgdgd`",
"kdgdddgdggaaaaaaaaaaijijijiaaaaaaaaaaaaaaaaaaaadgdgdddg`",
"kgdgdgdgdgaagagagagaiiiiiiiaaagaaagaaagaaaaagaggdgdgdgd`",
"kdgdgdgdggaaaaaaaaaalidglidgaaagaaagaaagaaaaaaadgdgdgdg`",
"kgdgdgdgdggagaaagaaaiiiiiiiagaaaaaaaaaaaaagagaaelgdgdgd`",
"kggdgggdggaaaaaaaaaaaaagaaaaaaaaaaaaaaaaaaaaaaalgggdggg`",
"kgdgdgdgdgiiiiiiiagaiiiiiiiaaaiiiiiiiaaaaaaaaaggdgdgdgd`",
"kgggggggggaaaaaaagagaaaaaaagaaaaaaaaaaiagagaiaggggggggg`",
"kgdgdgdgdgiiiiiiiaaaiiiiiiiaaaiiiiiiiaaaaaaaaaaelgdgdgd`",
"kgggggggggcccccccaiacccccccagecccccccaiaaigaiaggggggggg`",
"kgggdgggdaiiiiiiilaaiiiiiiigaiiiiiiiilaaijililielgggdgg`",
"kgggggggggccccccfaggcccccccaggccccccciaeccfhcccgggggggg`",
"kggggggggaidijijiliaijijijiigaijijijieaiijidbjieggggggg`",
"kgggggggggcccccccaaecccccccaglccccccciagcccccccgggggggg`",
"kagggagggagggegleiaaieeeeglglgalegleegaigeeeeleegagggag`",
"kggggggggecfhccccaglcccccccialccccccciaecccccccgggggggg`",
"kggagagagageglllgelaegglglegligglllggelggegeggeggggagag`",
"kggggggggecccccccaigcccccccgagcccccccgagcccccccgggggggg`",
"kagagagagaggegeeeelaegeeeegelgegggegleligegeeggggagagag`",
"kgggggggggccccccciajccccccclglcccccccgajcccccccgggggggg`",
"kagagagagaaaaagggglggggaaggglagaaaaggadeaagagaaagagagag`",
"kgagggagggccccccclajcccccccdadccccccclglcccccccgggaggga`",
"kagagagagaaaaaaaggdeagagaagajgagaagggelaggaaagaagagagag`",
"kgagagagagccccccclldccccccclajccccccclldcccccccgagagaga`",
"kagagagagaacacacgelgacgcgcgglgacgcgcgadgacgcgcaagagagag`",
"kaagaaagaaccccccclljccccccclljcccccccdljcccccccgaaagaaa`",
"kagagagagacccccccjlgccccccceldcccccccjlgcccccccagagagag`",
"kaaaaaaaaa```````dlj```````dlj```````llj```````aaaaaaaa`",
"kagagagagacccccccccccccccccccccccccccccccccccccagagagag`",
"kaaaaaaaaa`````````````````````````````````````aaaaaaaa`",
"kaaagaaagaaagaaagaaagaaagaaagaaagaaagaaagaaagaaagaaagaa`",
"kaaaaaaaaaaaaaaaaaaaaaaaaaaaaaaaaaaaaaaaaaaaaaaaaaaaaaa`",
"kagaaaaaaagaaaaaaagaaaaaaagaaaaaaagaaaaaaagaaaaaaagaaaa`",
"kaaaaaaaaaaaaaaaaaaaaaaaaaaaaaaaaaaaaaaaaaaaaaaaaaaaaaa`",
"kaaaaaaaaaaaaaaaaaaaaaaaaaaaaaaaaaaaaaaaaaaaaaaaaaaaaaa`",
"d```````````````````````````````````````````````````````"
};
