/* XPM */
static char * image_name[] = {
"56 46 13 1",
" 	c #FFFFFFFFFFFF",
".	c #BEBEBABABEBE",
"X	c #010101010101",
"o	c #AEAEAAAAAEAE",
"O	c #69698686BEBE",
"+	c #9E9E9A9A9E9E",
"@	c #79799292B6B6",
"#	c #000000001414",
"$	c #717179798686",
"%	c #A6A69E9EA6A6",
"&	c #B6B6AEAEB6B6",
"*	c #5959A2A2D7D7",
"=	c #51515555FFFF",
"                                                       .",
" ......................................................X",
" ......................................................X",
" ......................................................X",
" o...o...o...o...o...o...o...o...o...o...o...o...o...o.X",
" ......................................................X",
" o.o.o.o.o.o.o.o.o.o.o.o.o.o.o.o.o.o.o.o.o.o.o.o.o.o.o.X",
" .....oXXXXXXXXXXXXXXXXXXXXXXXXXXXXXXXXXXXXXXXXX......oX",
" o.o.o.XXXXXXXXXXXXXXXXXXXXXXXXXXXXXXXXXXXXXXXXX.o.o.o.X",
" ...o..XXOO+XXXXXXXXXXXXXXXXXXXXXXXXXXXXXXXOO+XX+...o..X",
" o.o.o.XXOO+XXOXOXOXOXOXOXOX. . . . . . +XXOO+XXOo.o.o.X",
" .o...oXX+++XXXOXOXOXOXOXOXX . . . . . . XX+++XXO.o...oX",
" o.o.o.XXXXXXXOXOXOXOXOXOXOX.   . . . . .XXXXXXXOo.o.o.X",
" .o.o.oXXXXXXXXOXOXOXOXOXXXXXO+. . . . . XXXXXXXO.o.o.oX",
" o.o.o.XXOO+XXOXOXOXOXXXXOOO .OX+ . . . .XXOO+XXOo.o.o.X",
" oo.oooXXOO+XXXOXOXOXXX+O+OO   .X+ . . . XXOO+XXOoo.oooX",
" o.o.o.XX+++XXOXOXOXXX+O+OOO     X+ . . .XX+++XXOo.o.o.X",
" ooooooXXXXXXXXOXOXXX+O+OXXXO+    X+ . . XXXXXXXOooooooX",
" o.o.o.XXXXXXXOXOXOX+O+OXXXXOOO   .X. . .XXXXXXXOo.o.o.X",
" ooooooXXOO+XXXOXOXXO+OXXXOO OO+   OO  . XXOO+XXOooooooX",
" ooo.ooXXOO+XXOXOXXO+O+O+O+O OOO   .X . .XXOO+XXOooo.ooX",
" ooooooXX+++XXXOXOX+O+O+O+OO OX+    X. . XX+++XXOooooooX",
" ooooooXXXXXXXOXOXXO+@+O+OXXXXO     X . .XXXXXXXOooooooX",
" ooooooXXXXXXXXXXXXO#$XOXOXXXXXOXOXOXOOOOXXXXXXXOooooooX",
" +ooo+oXXOO+XXOXOXXO%O%O+O+O.XXX....XooooXXOO+XXO+ooo+oX",
" ooooooXXOO+XXXOXOXOO%O+O+OOOXXX...+XooooXXOO+XXOooooooX",
" oo+o+oXX+++XXOXOXXX+O+XXX+O+XXO...XOooooXX+++XXOoo+o+oX",
" ooooooXXXXXXXXOXOXXO+O+XXXXXXX+..+XoooooXXXXXXXOooooooX",
" +o+o+oXXXXXXXOXOXOXXO+O+XXXXXOO.+XOoooooXXXXXXXO+o+o+oX",
" ooooooXXOO+XXXOXOXOXXO+O+OOO+O+OXOooooooXXOO+XXOooooooX",
" +o+o+oXXOO+XXOXOXOXOXXO+O+X+O+OXOoooooooXXOO+XXO+o+o+oX",
" o+ooo+XX+++XXXOXOXOXOXXXOOOO+XXOOOooooooXX+++XXOo+ooo+X",
" +o+o+oXXXXXXXOXOXOXOXOXOXXXXXOOO@$O&ooooXXXXXXXO+o+o+oX",
" o+o+o+XXXXXXXXOXOXOXOXOXOXXOOOOOOOOOooooXXXXXXXOo+o+o+X",
" +o+o+oXXOO+XXOXOXOXOXOXOXOXOO@$*$=@OOoooXXOO+XXO+o+o+oX",
" ++o+++XXOO+XXXOXOXOXOXOXOXXO@=*$O@OOOOo+XXOO+XXO++o+++X",
" +o+o+oXX+++XXXXXXXXXXXXXXXXXXXX##XXXXXXXXX+++XXO+o+o+oX",
" ++++++XXXXXXXXXXXXXXXXXXXXXXXXXXXXXXXXXXXXXXXXXO++++++X",
" +o+o+oXXXXXXXXXXXXXXXXXXXXXXXXXXXXXXXXXXXXXXXXXO+o+o+oX",
" ++++++++OOOOOOOOOOOOOOOOOOOOOOOOOOOOOOOOOOOOOOOO++++++X",
" ++++++++++++++++++++++++++++++++++++++++++++++++++++++X",
" ++++++++++++++++++++++++++++++++++++++++++++++++++++++X",
" ++++++++++++++++++++++++++++++++++++++++++++++++++++++X",
" ++++++++++++++++++++++++++++++++++++++++++++++++++++++X",
" ++++++++++++++++++++++++++++++++++++++++++++++++++++++X",
".XXXXXXXXXXXXXXXXXXXXXXXXXXXXXXXXXXXXXXXXXXXXXXXXXXXXXXX"};
