/* XPM */
static char * image_name[] = {
"56 46 21 1",
" 	c #FFFFFFFFFFFF",
".	c #BEBEBABABEBE",
"X	c #010101010101",
"o	c #69698686BEBE",
"O	c #AEAEAAAAAEAE",
"+	c #000000001414",
"@	c #717179798686",
"#	c #F7F7B2B2AEAE",
"$	c #CFCFC7C7CFCF",
"%	c #BEBEC3C3BEBE",
"&	c #9E9E9A9A9E9E",
"*	c #FFFFE7E7BEBE",
"=	c #FFFFFFFFC7C7",
"-	c #AEAEAEAEB6B6",
";	c #BEBEC3C3CFCF",
":	c #C7C7BABAC7C7",
">	c #79799292B6B6",
",	c #A6A69E9EA6A6",
"<	c #E7E7D7D79E9E",
"1	c #D7D7D3D3D7D7",
"2	c #96969696AEAE",
"                                                       .",
" ......................................................X",
" ......................................................X",
" .....................oXXXXXXXo........................X",
" O...O...O...O...O...XXXXXXXXXXo.O...O...O...O...O...O.X",
" ...................XXXXoXooOooXooXXo..................X",
" O.O.O.O.O.O.O.O.O.XXXXXoXXXXXoooXXXXXoO.O.O.O.O.O.O.O.X",
" .....O.......O...XXXXXXXXXXXXXOXXXXXXXX......O.......OX",
" O.O.O.O.O.O.O.O.oXXXXXXXoXXXXXXoXXXXXXXoO.O.O.O.O.O.O.X",
" ...O...O...O...oXXXXXXXXXXXXXXXoXXoo.oXX...O...O...O..X",
" O.O.OoooO.O.OoXXXXXXXXXXXXXXXXXXXXoXXOoXO.O.O.O.O.O.O.X",
" .O.oXXXX+@.oXXXXXXXXXXXXXXXoooXXXXoOOXoo.O...O.O.O...OX",
" O.oXXXXXX+oXXXXXXXXXXooXXXo#####oXXXooXoO.O.O.O.O.O.O.X",
" .oXXXXXXXXXXXXXXXXXXXXXXXo###$#$#oXXXoXO.O.O.O.O.O.O.OX",
" OXXXooXXXXXXXXXXXXXXXXXXo##$.#%#..oXXXo.O.O.O.O.O.O.O.X",
" oXXXXXoXoXXXXXXXXXXXXXXo.#+XXX# .#.oXo.OOO.OOO.OOO.OO X",
" oXXXXXooXXXXXXXXXXXXXXXO#XoXXo# #%XXX.O.O.O.O.O.O.O. XX",
" XXXXoXXXXXXXXXXXXXXXXXXOXo$XX+# .oXXXOOOOOOOOOOOOOO XXX",
" XXXoXoXoXXXXXXXXoXXXXXX#%  XX####o#XX.O.O.O.O.O.O. XX.X",
" XXXXooOXXXXooXOOOoXXXoX###   ####o  oOOOOOOOOOOOO XXX&X",
" XXXXXXXXXXXXXXXXXXXoXXX.#######*#.#.o&O.OOO.OOO. XX.oXX",
" oXXXXXXXXXoXXXXXXXXXXXX###########&#.oOOOOOOOOO XXX&XXX",
" OoXXXXXXXXO.OoXoOoXoXXo##*##=###-oO#$oOOOOOOOO XX.oXXXX",
" OOXXXXoXOXXXooOooXXXooXo#=#######$##.oOOOOOOO XXX&XXXoX",
" &OOooooXoOXXXXXXXXXo##o+.####*#=... .oOO&OOO XX.oXXXooX",
" OOOOOOXXXOOoXXXXXXXo#&.X#%###;o@XXo ooOOOOO XXX&XXXXXoX",
" OO&O&oXXXXoOoXOOoXXX#$$#######+-  &oo&&OOO XX.oXXXXXXXX",
" OOOOOXXXXXXXo. oXXX+######$*###+@&o@oOOOO XXX&XXX.&.XXX",
" &O&O&XXXXXXXXXXXXXXX##%########%;.:o-O&O XX.oXXX.o&o&XX",
" OOOOoXXXoXXXXXXXXXXX###>*###=##   .oOOO XXX&XXX.&&o&ooX",
" &O&OoXXXoXXXoXXXXXXX-###X-%#######oo&O XX.oXXX&&oo&ooXX",
" O&OOoXXXOXXXoXXXoXXXo####oXX+ooooooOO XXX&XXXXoo&oooooX",
" &O&OoXXX.oXXoXXXXXXXX########%ooOO&O XX.oXXXXX&oo,X&oXX",
" O&O&oXXXoOXXXoXXXoXXX-#<1###%#$oO&O XXX&XXXXXXX&&o&o&XX",
" &O&OoXXXX.oXXXoXXXoXXo##;%##1 .o&O XX.oXXX&.&XXX&&o&XXX",
" &&O&&XXXXoOXXXXXXXXXXX###%%%%#.o& XXX&XXX&o&o&XXXooXXXX",
" &O&O&XXXX..oXXXXXXXXXXo##%$.. .o&XoooooXoo&o&o&XXXXXX.X",
" &&&&&XXXXo.oXXXXXXXXX+X###...##oXo#####oXoo&X&&&XXXXX&X",
" &O&O&XXXXX.OoXXo.OoXXXXo##%.. #o####$#%#&Xoo&o&oXXX.oXX",
" &&&&&XXXXXOooX..oXXXXXXX###.%##o####.  ..&XooooXXXX&XXX",
" &&&O&oXXXXooXo.XXoooXXXX+##%. #o##*#.#   .&Xo>XXX.oXXoX",
" &&&&&oXXXXXXXoXXooXXX$#>XX# %##>o$###%#   .oXXXXX&XXo&X",
" &O&&&&XXXXXXXXXoXXXXXXo#o+> .%#oX$%###%#. ..oXX.oXXo&&X",
" &&&&&&oXXXXXXXoXXXX.%o+o%#+# %;#@  $###%#.#.oXX&XXo&&&X",
" &&&&&&&&&&&&&&&&&&&&&&&&&&&&&&O--2&&-OO&&&&&&&&&&&&&&&X",
".XXXXXXXXXXXXXXXXXXXXXXXXXXXXXXXXXXXXXXXXXXXXXXXXXXXXXXX"};
