/* XPM */
static char *Multimedia[] = {
/* width height ncolors chars_per_pixel */
"56 46 9 1",
/* colors */
"` c #000000",
"a c #9A9B97",
"b c #567390",
"c c #B6B6B6",
"d c #AEAAAE",
"e c #A6A2A6",
"f c #E8AF72",
"g c #FFFFFF",
"h c #B2AEB6",
/* pixels */
"gggggggggggggggggggggggggggggggggggggggggggggggggggggggc",
"gcccccccccccccccccccccccccccccccccccccccccccccccccccccc`",
"gcccccccccccccccccccccccccccccccccccccccccccccccccccccc`",
"gcccccccccccccccccccccccccccccccccccccccccccccccccccccc`",
"gecccecccecccecccecccecccecccecccecccecccecccecccecccec`",
"gcccccccccccccccccccccccccccccccccccccccccccccccccccccc`",
"gececececececececececececececececececececececececececec`",
"gcccccecccccaaaaaaaaaaaaaaaaaaaaaaaaaaaaaaaacceccccccce`",
"gecececececeaaaaaaaaaaaaaaaaaaaaaaaaacgggcaacececececec`",
"gcccecccecccaaaaaaaaaaaaaaaaaaaaaaaaggggggcaecccecccecc`",
"gecececececeaabaaabaaabaaabaaabaaabggccccccacececececec`",
"gcecccecececaaaaaaaaaaaaaaaaaaaaaaggccccccbaccecececcce`",
"gecececececebaaabababaaabababaaabggcccccca`acececececec`",
"gcecececececaaaaaaaaaaaaaaaaaaaaggcccccccb`aececececece`",
"gecececececeaabababaaabababaaabggcccccccb`bacececececec`",
"geeceeeceeecaaaaaaaaaaaaaaaaaaggcccccccb`baaeeeceeeceee`",
"gecececececebababababababababggcccccccb`babacececececec`",
"geeeeeeeeeeeebaaebaaabaaebaaggcccccccb`babaaeeeeeeeeeee`",
"gecececececebabababababebebggcccccccb`bebabacececececec`",
"geeeeeeeeeeeaaabaaabaaebeaggcccccccb`bebaaabeeeeeeeeeee`",
"geeeceeeceeebababababababggcccccccb`bebebabaceeeceeecee`",
"geeeeeeeeeeeabaaabaaabaaggcccccccb`babeaabaaeeeeeeeeeee`",
"geeeeeeeeeeebabababababggcccccccb`bebabababaeeeeeeeeeee`",
"geeeeeeeeeeeabababababggcccccccb`babababababeeeeeeeeeee`",
"gaeeeaeeeaeebababababcgcccccccb`bebababababaeaeeeaeeeae`",
"geeeeeeeeeeeabbbabbbaggccccccb`bebbbabbbabbbeeeeeeeeeee`",
"geeaeaeaeeeabababababggcccccb`babebababababaeaeaeeeaeae`",
"geeeeeeeeeeebbabbbabbggccccb`babbbabbbabbbabeeeeeeeeeee`",
"gaeaeaeaeaeabababebebegfcab`bababebababababeeaeaeaeaeae`",
"geeeeeeeeeeeabbcgggcabbcb``babbbabbbebbbabbbeeeeeeeeeee`",
"gaeaeaeaeaeabacgggggcabababababababebabababaeaeaeaeaeae`",
"geaeeeaeeeaebcgghchchbbbbbbbbbbbbbbbbbbbbbbbeeaeeeaeeea`",
"gaeaeaeaeaeabgghccccabbababababababababababaeaeaeaeaeae`",
"geaeaeaeaeaebggccccca`bbbbbbbbbbbbbbbbbbbbbbaeaeaeaeaea`",
"gaeaeaeaeaeabggchchab`babbbebbbabbbabbbabbbaeaeaeaeaeae`",
"gaaeaaaeaaaebbgcccab`bbbbbbbbbbbbbbbbbbbbbbbaaaeaaaeaaa`",
"gaeaeaeaeaeabbbfaab`bbbbbbbbbabbbbbbbabbbbbbeaeaeaeaeae`",
"gaaaaaaaaaaebbbbb``bbbbbbbbbbbbbbbbbbbbbbbbbaaaaaaaaaaa`",
"gaeaeaeaeaeabbbbbbbbbbbbbbbbbbbbbbbbbbbbbbbbeaeaeaeaeae`",
"gaaaaaaaaaaaaaaaaaaaaaaaaaaaaaaaaaaaaaaaaaaaaaaaaaaaaaa`",
"gaaaeaaaeaaadaaaeaaaeaaaeaaaeaaaeaaaeaaaeaaaeaaaeaaaeaa`",
"gaaaaaaaaaaaaaaaaaaaaaaaaaaaaaaaaaaaaaaaaaaaaaaaaaaaaaa`",
"gaeaaaaaaaeaaaaaaaeaaaaaaaeaaaaaaaeaaaaaaaeaaaaaaaeaaaa`",
"gaaaaaaaaaaaaaaaaaaaaaaaaaaaaaaaaaaaaaaaaaaaaaaaaaaaaaa`",
"gaaaaaaaaaaaaaaaaaaaaaaaaaaaaaaaaaaaaaaaaaaaaaaaaaaaaaa`",
"c```````````````````````````````````````````````````````"
};
