/* XPM */
static char * image_name[] = {
"56 46 26 1",
" 	c #FFFFFAFAFFFF",
".	c #BEBEB6B6BEBE",
"X	c #010101010101",
"o	c #C7C7BABAC7C7",
"O	c #F7F7B2B2AEAE",
"+	c #9E9E9A9A9E9E",
"@	c #69698686BEBE",
"#	c #AEAEA6A6AEAE",
"$	c #717179798686",
"%	c #BEBEC3C3CFCF",
"&	c #CFCFC7C7CFCF",
"*	c #AEAEAEAEB6B6",
"=	c #B6B6AEAEB6B6",
"-	c #DFDFBABA8E8E",
";	c #BEBEC3C3BEBE",
":	c #96969696AEAE",
">	c #E7E7D7D79E9E",
",	c #A6A69E9EA6A6",
"<	c #38386D6DA6A6",
"1	c #000000001818",
"2	c #AEAEB2B2CFCF",
"3	c #51515555FFFF",
"4	c #DFDFAEAE6969",
"5	c #797986869E9E",
"6	c #A6A679798E8E",
"7	c #202020202020",
"                                                       .",
" ......................................................X",
" .o.o.o.o.O Oo.o.o.o.o.o.o.o.o.++++++++++++++++++@.o.o.X",
" ......... + O...O ............+                 .@....X",
" #.o.#o.oO @ O.oO +Oo#.o.#o.o#.+                 . @.#oX",
" o.......  @ O..  @ ..........o+   @@.@.@..@..   .  X..X",
" #.#o#.O @ X OO @ @ O#o#.#o#.#.+                 @@@@#.X",
" .o...OO @ @ OO @ X O O.o...o.#+   @.@.@..@.@     ..X.#X",
" #.#o# @ X X  @ X X O@  O#.#.#.+                    X#.X",
" ..O   @ XOXO X X X  X X   O#o.+   @$.%$.&$%$...    X..X",
" #O @@@ XOX @@ X X XX X XXX .#.+                    X#oX",
" .#.  O X X  O X @  O @O  O.o.#+   @.@@.@.@.@..     X.#X",
" #.#.OO @ X OO @##########.#.#.+                    X#.X",
" .#.#.* + @ O* @#                                   X.#X",
" #.#.#.O  $ O=O # ###.#.#.#.#.#.###XO##XX          .@#.X",
" ##o###.O @ ##*O# ##=-;#.-+-+-+-##XO##X#X         . X+#X",
" #.#.#o#.O: ##### #>#.#&#&+&#&+-#XO##X,#XXXXXXXXXX XX+.X",
" #######=O O##### #o.#-#.##-##-#XO#-X##-X@+###### XX++#X",
" #.#.#.#.*.#.#.#. #.-.#.-.#.#-#X ,,X--+#X@+#.#.# XX.@+.X",
" ################ .#o#-###-#-#X*$$X####,X@+#### XXX+X+#X",
" ###.###.###.###. #.#o#O#.#Oo+$<1@*,####X$:#.# XX.@XX+#X",
" ################ -#.-#,-=o:<$21#=#-####1@:## XXX+XXX+#X",
" ################ #.-o#oo+$#,<3--,,++##4X$2, XX.@XXX@+#X",
" ###############, -#,#,=,$o%@X5,,-,###,,1<+ XXX+XXXX@+#X",
" +###+###+###+### #o#O.,$%$<11####,####,X$ XX.@XXXXX@+#X",
" ##############=+ -#o$1$,3@1X,+-###6#,6#1 XXX+XXXXXXX+#X",
" ##@+<,@+<,@+<,@, +o#&:$11X@###+,##-6### XX.@XXX.+.XX+#X",
" #@.oo++,,++,,+++ -##,o&o.#-=#-##6-,+++ XXX+XXXo<+@@X+#X",
" +@ O             #-#-,#+#####++#,+,## XX.@XXX.,,@@@X+#X",
" #@. .  . . . . ..XXXXXXXXXXXXXXXXXXX XXX+XXXX@@@@@@X+#X",
" +@ ..  X X .. X o # # #.-X$1$@$@$@$ XX.@XXXXX++X+@@X+#X",
" #@. +  @@@ @X X @X . O #X,11#,2#2* XXX+XXXXXXX++@+XX++X",
" +@ ..  @ X +@ X @+. O O.#X@X+#+:: XX.@XXX+.+XXX@@XXX+#X",
" #@. +  . . . .. X. .   #X+XX#:#+ XXX+XXXo<+@+XXXXXXX++X",
" +@ .. . . . # # # . O O.#X$1+#+ XX.@XXX+@,@@@+XXXX.@+#X",
" +@. +  + + # # # . O   -X,1X++ XXX+XXXX+@+@@@@XXXX+X++X",
" +@ .. + + # # # O O   O.#X@X+ XX.@XXXXX@+@@@:XXX.@XX+#X",
" +@. +  + # # # O     O #X#XX XXX+XXXXXXX<:@@XXXX+XX<++X",
" +@ .. + # # . . O O O .,#X@ XX.@XXX.++XXX@@XXX.@XX@=,#X",
" +@. o.+++++++++++++++++.X+ XXX+XXX.@+@.XXXXXXX+XX@++++X",
" +@..#$*+,+#+#+#+#+#+#+#@, XX.@XXX@+@@@@@XXXX.@XX@++,++X",
" +@.=$o<#@=<=<=<*$=$#@=<, XXX+XXXX+@:@+@+XXXX+XX@++++++X",
" +<#<2$2$:$2$2$2<2<2<,@, XX.@XXXXX@@@+@:XXX.@XX@++#++++X",
" +=$7<1<X37<1<1$7<1$X@X XXX+XXX@@XX@+@+XXXX+XX@++++++++X",
" ++,,,,,,++,##,,,,,#:+++++++++++++++:+++++++++++:++6:++X",
".XXXXXXXXXXXXXXXXXXXXXXXXXXXXXXXXXXXXXXXXXXXXXXXXXXXXXXX"};
