/* XPM */
static char * image_name[] = {
"56 46 29 1",
" 	c #FFFFFFFFFFFF",
".	c #B6B6AEAEB6B6",
"X	c #030303030404",
"o	c #A6A69E9EA6A6",
"O	c #8E8E8A8A8E8E",
"+	c #38386D6DA6A6",
"@	c #9E9E9A9A9E9E",
"#	c #BEBEB6B6BEBE",
"$	c #A7A7A3A3A7A7",
"%	c #000000001111",
"&	c #A6A679798E8E",
"*	c #797986869E9E",
"=	c #8E8E86867979",
"-	c #AEAEAEAEB6B6",
";	c #717179798686",
":	c #AEAE9E9E5959",
">	c #96969696AEAE",
",	c #AEAEB2B2CFCF",
"<	c #C7C7BABAC7C7",
"1	c #BEBEC3C3CFCF",
"2	c #EFEFF3F3F7F7",
"3	c #5151A2A24949",
"4	c #868679798686",
"5	c #AEAEA6A67171",
"6	c #717175757171",
"7	c #AEAE61616161",
"8	c #79799292B6B6",
"9	c #F7F7B2B2AEAE",
"0	c #51515555FFFF",
"                                                       .",
" ......................................................X",
" ...............oOO+O+O+O+OO@o.........................X",
" .......#.....OO++++++++++X+X++$........#....#....#....X",
" o..#$...$..O++X@O@+%+%+#&*+OXXX+$..#@#..$...$...$...$.X",
" ..........OX+%+X+X.O%+X=*&OX+XXXX$...-................X",
" @.@.$.@#@+X+X+o@%+O+++&++.;:%+X+XX@.$.@#@#@#@#@#@#@#@.X",
" ..#..@..+X+%+@.O...#+;.&-:>;&%+%+XX@.@......#@.......$X",
" @.@#@#@+%+X++#O++O..,.O-;,;%+;X+X+XX@#@.@#>#@,@#@#@#@.X",
" #.#>..+X+%+%++++&O....,O,;:OO%+X+%+XX@,@...@...@..,@..X",
" @.@.@*X+%+++++&;# . ..O.O<&.O+XXXOX+X+@.>#@.@#>.@.@.@#X",
" .>#..X+X+%+%++#  .......#;&O+X+OX++XX%+@.@...@.@.@...@X",
" @.@.++%++++&12. . . ..O.O#3,%+%OXX+OXXX.@.>#@.@.>.@.>#X",
" .@.o+%+%++O-     . .....-&#&OO+X+%+X+XX+.@.@.>.@#>.@.@X",
" @.@*X+o@O+& # . . . ....O.O.*+X+X+%+%XXX@.@.@.@.@.@.@.X",
" @@.++X@@.#+      . .....,;O*&X+%+%+X+X+X+@.>@@.o@@.>@@X",
" @.OOX+O++ - . . . . ..O.O.O.X+X+X+X+%XXX+.@.@.@.@.@.@.X",
" @@4O.%+#++ - . . ....#...O.O+%+%+%+%+X+XX>o@@@o@o@@@o@X",
" @#+;:-X+. + . . . . ..O.O.O#X+%+X+X+X+%XX.@.@.>.@.@.@.X",
" @@>4,O.%..#......#.......&=O+%+X+%+XX%+X%@@oo@@@@>$@>@X",
" @@+:;<4@X+&*.. . -....O#*.*.O+X+%+%+XXXXX@o.oo&#>@&<@@%",
" @o+;>O..O%+X+X......#..&=O*OOO+%+XXX#X+XXo@@o@>@@o>@o@X",
" @@+4$.O.X+X+%+%+O.O.O#O.*#O&+;+O+OX   .X+*@o@@$;.@@@@oX",
" o>+54@>O+%+%+X+X+....OO;:O*6&+O++X  X   .X+3o@>$>@o@o@X",
" O@+;5;o@X+X+%+%+%&X.O.*,;*+O+;+&%  X+ X   .%+3$@3o>@3>X",
" @>+;;:*@+X+%+X+X+X+X+*&OOO;OO++X  X +X  X@  .%+4o@ooo@X",
" @>7+;+O&*+%+X+%+X+%+X++;+5+&+O%  X  %  X @X   .%+:;>3$X",
" @o8+O>;O=++X+%+%+X+%+%&5;+;+*X     X  X.X  X    .%+&o@X",
" *@*:+&+*&&=+%+X+%+X+XO+;+@+OX  ..    X+   X @ .   .%+OX",
" o@o@%&*&:*;&+%+X+%+%+Oo+;+OX  ..O..   .X X @+ X X*  .X+",
" :@*@+++*+;+@X+X+X+%++&+O+>%  .O  . ..    +XX X X @X   X",
" o;@@@%++;+O;+%+%+X&O;+++OX  .. .O .O .     +X  .X    XO",
" ;$;o*:+++&+O%+%+XO+;+&+&%  .O ..  O .   +#   XO X   X.X",
" o6o5>;+%++>++X+%++O+++++.    .O .. .   +9.+.  @X   X.XO",
" Oo*@&oO++++&%+%@+&+>++;%  ..   .O .   +#9  #+.    X.X.+",
" ;:o;O*@&+%+++%+++++++++X .  ..   .   +#9X99 9X   X.X.+X",
" Oo;oO@*>O+++++%++++++++%. O=  ..    +O&O2.9.X   X.X.+%X",
" ;:O;:;5;&&++%++++++0+%+X+@. =O  ..  .OX+&+#X   X.X.+XOX",
" O>OoOO&>*@@>++%+%+%+X+%+%XO@..O=  ..  .&XOX   X.X.+%O@X",
" O;:>;*O**OO;&&+%+%+X+%+%+XXX;@.2&O  ..  .X   X.X.+X@7OX",
" 3&;o&5&@O&*$**=$++%+%+%+X+X+XXO@..O3  .#    X.X.+%O@3OX",
" &&;5;**;:*7;=>;*&OOO;:;&OOOOO+XXOo##OO  .  X.X.+XO*>&OX",
" O>OOO:;>;@**:;O>*@O>O&*:;>O4&O;+XXOo..O*  X.X.+%O@=&*OX",
" *;5;>;4;:OO@;>O;:*&O;O;>;O@=**OOO+XXO@.. X.X.+X*7O;@O;X",
" 7>=&;5>;&*&*7OOO;O6OOO@4*;4;@=;OO*O+X+O@.X..+%O@**:;O:X",
".XXXX%%X%XXXXXXXXXXXXXXXXXX%%XXXXXXXXXXXX+X+XXXXXXXXXXXX"};
