/* XPM */
static char * image_name[] = {
"56 46 25 1",
" 	c #FFFFFAFAFFFF",
".	c #BEBEB6B6BEBE",
"X	c #080804040808",
"o	c #C7C7BABAC7C7",
"O	c #AEAEA6A6AEAE",
"+	c #F7F7B2B2AEAE",
"@	c #DFDFBABA8E8E",
"#	c #B6B6AEAEB6B6",
"$	c #9E9E9A9A9E9E",
"%	c #000000001414",
"&	c #EFEFF3F3F7F7",
"*	c #AEAEAEAEB6B6",
"=	c #A6A69E9EA6A6",
"-	c #717179798686",
";	c #BEBEC3C3CFCF",
":	c #69698686BEBE",
">	c #38386D6DA6A6",
",	c #51515555FFFF",
"<	c #FFFFFFFFD7D7",
"1	c #CFCFC7C7CFCF",
"2	c #A6A679798E8E",
"3	c #5959A2A2D7D7",
"4	c #96969696AEAE",
"5	c #AEAEB2B2CFCF",
"6	c #79799292B6B6",
"                                                       .",
" ......................................................X",
" .o.o.o.o.o.o.o.o.o.o.o.o.o.o.o.o.o.o.o.o.o.o.o.o.o.o..X",
" ....................................................o.X",
" Oo.o                     .o.Oo.oO.o.Oo.oO.o.Oo.oO...O.X",
" .... OXXOXXOXXXXXXXXXX+XXX.o.......o.......o......o.o.X",
" O.O. X+XXOXXOXXXOXXOX+XXOXO.O.OoO.O.O.OoO.O.O.OoO.O.O.X",
" ..o. XXOXXOXOXXXOXOXOXXOXX..oO...o..oO...o..oO....o..OX",
" O.O. XXX@XOXXOOXOX#XOX+XXX$$O.OoO.O.O.OoO.O.O.OoO.O.OoX",
" .o.O OOXO%XOXO@OX@XO+OXXOX$$...O...O.o.O...O.o.O.o.O..X",
" O.O. X$XX+XO@+& +++O+XX$XX$$OoO.OoO.O.O.OoO.O.O.O.OoO.X",
" .O.. XXXXXXX%XOOX%XX.XOOXX$$.O.O.O.o.OoO.O..oO.O.O...OX",
" OoO. XX@XO+@O@OXX@+OX@X@XX$$O.OoO.O.O.O.OoO.O.OoO.OoO.X",
" .O.O O%+OXOX%X+XOXOXXO+XOX$$oO.O.O.OoO.O.O.OoO.O.O.O.OX",
" O.O. XXO+@@%OX+%OXX@+OXOXX$$O.OoO.O.O.OoO.O.O.OoO.O.O.X",
" OO.O XXO@$+O*O +XX+++=XXXX$$OO.OOOoOOO.OOOoOOO.OOOoOOOX",
" O.O. OOXXO++#OXO@++OO%@O$X$$OoO.O.O.OoO.O.O.OoO.O.O.O.X",
" OOOO XXXXO#+#O@+++o+-XX%XX$$=OOOOOOOOOOO;-OOOOOOOOOOOOX",
" O.O. OO@%XO@$X%X+O+#%OOOOX$$OoO.O.O.O.O:+:*.O.O.OoO.OoX",
" OOOO XXXXX@X%@X+++*-XXXXXX$$=OOOOOOOOO:+O:OOOOOOOOOOOOX",
" OOO. OO@OXXO@X%X+.=%XO@O$X$$OOO.OOOoO:+O-*#.OOO.OOO.OOX",
" OOOO XX%XXXO=+X%#-XXXXXXXX$$OOOOOOO*-+O#:#OOOOOOOOOOOOX",
" OOOO X%XXXXX@X%XX%XX#XXXXX$$OOOOOOO:+#OXOOOOOOOOOOOOOOX",
" OOOO .#####%%-O+#-XXOXO#OX$$OOOO:::+#O%-:XOOOOOOOOOOOOX",
" $OOO XXXXXXOX#-%::%XOXXXXX$$$O-: :+OOX@&#.%:$OOO$OOO$OX",
" OOOO $$$$$OOX::+::XXOX$$$X$$O:o X+O@XO O O.$XOOOOOOOOOX",
" OO$O$XXXXXXXXXX%XXXXXXXXXX$O>o X+OOXO O+O O.$X$OOO$O$OX",
" OOOOOOO$$$O=$O=$O$$$$$$$.     X+O.XO @O@OO O.$XOOOOOOOX",
" $O$O$OO$$$$$$$$$$$$$$$-   ..OX+OOX@ O+O@$-# O.$X$O$O$OX",
" OOOOOO=$$$$$$$$$$$$$$:  $$:-X+O@XO O O@,-# #-$.$XOOOOOX",
" $O$O$O$OO===OO=OOOOOO. $..;%+OOX@ O O O<# O-:%-o$X$O$OX",
" O$OOO$OO==OO==OO=$O#>  :o.X+O@XO O O O O O :%:%OoX>OO$X",
" $O$O$O$O$O$O===O=O$O=  O:X $=XO O O<O O O O -:: .:X#$OX",
" O$=$O$===$O$O$O$=$O$$  ..$::-O<O.O.O O O+OO# # +.=X$O$X",
" $O$O$O$O$O$O$=$O===O$.  . O # O.--:-1 O+*@+$= . $::O$OX",
" $$O$$==$$$O$2=O$$==$$$.    . O @,3::-O1O++OO . $:X$$$$X",
" $O$O$========O$O==$OOO$:.     + +=-:: O.OOO . $:X$$O$OX",
" $$42$$$=2$$$$$=2$$$O=>$=:-$..    ; ; . . . ..$:X$$$$$$X",
" $O$O==$O$O$=$=$O$OO$-oo-%54$$-4$.....#.$.O$$-%X$$O$=$=X",
" $$$$$$$$$$$$$=$$O=O,o::%X$$$4==$$$$:::::-%-%::$$$$$$$$X",
" $$$O24$==24O$24O-%6$6:%X$$$O$$$O$$4O$$$#4=4#$$4O$$2O=$X",
" 42$=$=$=$=$$$$$=#$:XXX>$$$$$$$$$$$$$$$$$$4$$$$$$$4$4$$X",
" $O4$$$24$=$$24$$$OOOO===$==24$$$$=$$$$$$$O$$$$$$2O$$$$X",
" $$$$$$=$$$$=$$$$$$$$$$$$$$$$$$42$$$$$$$$$$$$$42=$$$$$$X",
" $$$$24$$$24$$$24$$$$$$$$$$$$$$$=$$24$24$$24=$$$$$$$=24X",
".XXX%XXXX%XXXXXXXXXXXXXXXXXXXXXXXXX%XXXXXXXXXXXXXXXX%XXX"};
