/* XPM */
static char * image_name[] = {
"56 46 18 1",
" 	c #FFFFFAFAFFFF",
".	c #BEBEB6B6BEBE",
"X	c #010101010101",
"o	c #C7C7BABAC7C7",
"O	c #AEAEA6A6AEAE",
"+	c #69698686BEBE",
"@	c #9E9E9A9A9E9E",
"#	c #717179798686",
"$	c #000000001414",
"%	c #96969696AEAE",
"&	c #BEBEC3C3CFCF",
"*	c #AEAEB2B2CFCF",
"=	c #B6B6AEAEB6B6",
"-	c #AEAEAEAEB6B6",
";	c #F7F7B2B2AEAE",
":	c #38386D6DA6A6",
">	c #A6A69E9EA6A6",
",	c #A6A679798E8E",
"                                                       .",
" ......................................................X",
" .o..o.o..o..o.o..o..o.o..o..o.o..o..o.o..o..o.o..o..o.X",
" ..o....o..o....o..o....o..o....o..o....o..o....o..o...X",
" O...O.......o.......o.......o.......o.......o...O...OoX",
" .o.o.o.+++++++++++X+XX+X+XXXXXXXXXX+++++++++++...o.o..X",
" O.O.O..+++++@+++X++XX+XXX+XXXXXXXXXX+X++@++++XOoO.O.O.X",
" .....O.+++#++X+++XX+X+XX+XXXXX+XX++XXX+$#+%@+X.......OX",
" OoO.Oo.++++&#$+X+.+XXXXXXXX.XXXXXXXXXXXX++++@XO.OoO.OoX",
" ...O...+O+%++++X+XXXXXXX++XX+XXXXXX+XX++XX+++XoO...O..X",
" OoO.O..++++++XX++XX+.+XX+XXXXXXXXXXXXXXXX++@+XO.OoO.O.X",
" .O..oO*+++#X++++X++X++XXXX++X+XXXXXX+XX++++++X.O.O..oOX",
" O.OoO..+++$+$XXX++++XXXXXXXXXXXXX+X+XX+XX++++XOoO.O.O.X",
" .O.O.O.++OO+=+X++X++XXX++++X+.XX++XXX+X+XX+++X.O.OoO.OX",
" O.O.O..+O-+O+X++X+XX+++++++XXXXXXX++X++X+XX++XO.O.O.O.X",
" OOoOOO.+-O++++++++.++++X+X+++XXX+++X+X+X+++++X.OOO.OOOX",
" O.O.O..%@++O+%@@%XX++O-+XX++XXXXX+++XXX+XX+++XOoO.OoO.X",
" OOOOOO.@@%+++@+@@+@@X@OXOOXO+XXX++X+++XX+++++XOOOOOOOOX",
" O.O.O.oOOOO-.OO.....+OOOOOX+XXXO+O+++++X++@%+XO.O.O.O.X",
" OOOOOO.OO.O....; ... .....OOXX++++++@%@+XX@+@XOOOOOOOOX",
" OOO.OO.OO;.;. ....;...O..OXOXX+++%+@++@X+@+%+XO.OOOoOOX",
" OOOOOOo...+++;.++++++++++++XXX++@@@%+@@++++++XOOOOOOOOX",
" OOOOOO...+...o;.++OO+++++++XXX++++#++++++++++XOOOOOOOOX",
" OOOOOO.;o;o;....;.;*...*..OXXXXX++++++++++#++XOOOOOOOOX",
" @OOO@O..;.;o;o;o;.;..;O;...XX+O.+-+-O%@O%@%++XOO@OOO@OX",
" OOOOOO.;o;.;;;;;;;;;;.;.;..XX..O.OOO+O@%@++%@XOOOOOOOOX",
" OO@O@O.o;;; ;; ;;; ;; ;;; ;XX   . ...%@@@@%@+X@OOO@O@OX",
" OOOOOO.;.; ;  ; ; ;  ; ; ; XX+    . o.@@@@@@@XOOOOOOOOX",
" @O@O@O.o..;             ;..XXXXXXXXXXXXXXX+:>X@O@O@O@OX",
" OOOOOO.XX+.         .+XXXXXXXXXXXXXXXXXXXXXXXXOOOOOOOOX",
" @O@O@O.XXXXX#&    .+XXXXXXXXXXX++@OOOO@++XXXXX@O@O@O@OX",
" O@OOO@.XXXXX$XXXXXXXXXXXXXXXXXX@O@@@@@@OO@+XXXOOO@OOO@X",
" @O@O@O.XXXXXXXXXXXXXXX+X++.X+X+O@>+XX+@@@O@++X@O@>@O@OX",
" O@>@O@O+X+XX+@+.X@X+O@ XO@ XX+O@O@@@+XX:@@O@++O@O@O@O@X",
" @O@O@O@.+OX+@+.+X+@O@O.+@O@+XO@>@O@@+X+XX:>O@O@O@O@>@OX",
" @@O@@@O.@.X@@@.+X+@ +@.+@@O.X@O@@@O@@+X+XX+@@@O@@@O@@@X",
" @O@>@O@O@.++@O +X+@.#-@O@O +X+@O@O@O@@X@+XX@@O@O@>>>@OX",
" @@@@@@@@@ X:@@;.++@>**#:@@;XX:@@@@@@@@+Xo+X:@>@@@@@@@@X",
" @>>>@>@O@.++>@@O+@@@@%$+>O;+X+>>@>@>@O@+X.+X>@@>@O@>>>X",
" @@@@@@@@@@o@@@@@@%@@@o$+@@@o+:@@@@@@@@@@+XX+XX@@>,@@@@X",
" @@,O%,%O@@@O@@@>>@@>@ ++@@@O+O>O@@,O%@@O@OX ;+X@@%@>@@X",
" @@%@@>@@@>:@@@@@@@@@@@.@@@@@@@@@@>%@@@@@@@$#O;+X@@@>@@X",
" @O@@@@@,@O>>,%@@,O@@@@@@@>>@@@,@@>@@,%@@@O@$+O;+X@@,@@X",
" @@@@,@@%@@@@@@@%@%@@%,@@@@@@@%@%@@@@@@,@@@@@$#O;+X@@@@X",
" @@@@%@@@@,%@@@,@@@@,@%@@,%@,@@@@,%@@@@%@@@@@>$+=;+X@@@X",
".XXXXXXXXXXXXXXXXXXXXXXXXXXXXXXXXXXXXXXXXXXXXXXXXXXXXXXX"};
