/* XPM */
static char *Printing[] = {
/* width height ncolors chars_per_pixel */
"56 46 9 1",
/* colors */
"` c #000000",
"a c #9A9B97",
"b c #567390",
"c c #B6B6B6",
"d c #A6A2A6",
"e c #E8AF72",
"f c #C1C3C9",
"g c #FFFFFF",
"h c #B2AEB6",
/* pixels */
"gggggggggggggggggggggggggggggggggggggggggggggggggggggggc",
"gcccccccccccccccccccccccccccccccccccccccccccccccccccccc`",
"gcccccccccccccccccccccccccccccccccccccccccccccccccccccc`",
"gcccccccccccccccccccccccccccccccccccccccccccccccccccccc`",
"gdcccdcccdcccdcccdcccdcccdcccdcccdcccdcccdcccdcccdcccdc`",
"gcccccccccccccccccccccccccccccccccccccccccccccccccccccc`",
"gdcdcdcdcdcdcdcdcdcdcdcdcdcdcdcdcdcdcdcdcdcdcdcdcdcdcdc`",
"gcccccdcccccccdcccccccdcccccccdcccccccdcccccccdcccccccd`",
"gdcdcdcdcdcdcdcdcdcdcdcdcddaadcdcdcdcdcdcdcdcdcdcdcdcdc`",
"gcccdcccdcccdcccdcccdcdaaacgggacdcccdcccdcccdcccdcccdcc`",
"gdcdcdcdcdcdcdcdcddaaaacggggcccbcdcdcdcdcdcdcdcdcdcdcdc`",
"gcdcccdcdcdcccdaaaacgggcagcacaacbcdcccdcdcdcccdcdcdcccd`",
"gdcdcdcdcdcddaacggggcaa``cgaacccgacdcdcdcdcdcdcdcdcdcdc`",
"gcdcdcdcddaacgggcca```bcc`ggagggggacdcdcdcdcdcdcdcdcdcd`",
"gdcdcdcdcbdgggca``bccbcgcgbgggegaggacdcdcdcdcdcdcdcdcdc`",
"gddcdddcdaaggcbbcbbgcgcgcgcbgggegccgcadcdddcdddcdddcddd`",
"gdcdcdcdcbgbggcbcgcgcgdgdgccbgggcgggggcacdcdcdcdcdcdcdc`",
"gddddddddbggbggcbgcgdgagagcccgggggggggggcaddddddddddddd`",
"gdcdcdcdcbgggbggcccgagagaccgggggggggggggggcacdcdcdcdcdc`",
"gddddddddbggggbggcagagcccggggggcgcgggggggggccaddddddddd`",
"gdddcdddcbggcggbggccccggggggcgcgcgccgggggccagbddcdddcdd`",
"gddddddddbgggcggbggcgggggcgcgcgcgcggggccccgcg`ddddddddd`",
"gddddddddbggcgcggbggggcgcgcgcgcggggccccgcgcag`ddddddddd`",
"gddddddddbgggcgcggccgggcgcgcgggggcccgcgcgabbg`ddddddddd`",
"gadddadddbggcgcgcgggccgggcggggcccgcgcccggbgcg`dddadddad`",
"gddddddddbgggcgcgccgggccgggcccgcgcgaccgcgdcgg`ddddddddd`",
"gddadadadbggcgcgcgcgcgggaccgcgcgcccggacggbfhg`dadddadad`",
"gddddddddbgggcgcgcgcgcggacgcgaccgggggbgcgdccg`ddddddddd`",
"gadadadadbggcgcgcgcgcgcgbggcagggggcgcfcggbhcg`dadadadad`",
"gddddddddbcggcgcgcgcgcggacgagggcgcgcgbgcgabag`ddddddddd`",
"gadadadadabfggcgcgcgcgcgbggcggcgcgcgdhcggaacgbdadadadad`",
"gdadddaddddbbggggcgcgcggacgcgggcgcgadbgcgcgcg`adddaddda`",
"gadadadadadadbcgggcgcgcgbggcggcgaaddcacgcgccbbdadadadad`",
"gdadadadadadaabagggcgcggdcgagcaadccccagccbbbadadadadada`",
"gadadadadadadadbbcggcgcgbggcbadccccccacbbadadadadadadad`",
"gaadaaadaaadadadabaggcggacgadccccccdbbbaaaadaaadaaadaaa`",
"gadadadadadadadadabbcgggbggaccccdabbaadadadadadadadadad`",
"gaaaaaaaaaaaaaaaaaaabaggacgacdabbbadaaaaaaaaaaaaaaaaaaa`",
"gadadadadadadadadadaabbcbgcabbbadadadadadadadadadadadad`",
"gaaaaaaaaaaaaaaaaaaaaaabaabbaaaaaaaaaaaaaaaaaaaaaaaaaaa`",
"gaaadaaadaaadaaadaaadaaadaaadaaadaaadaaadaaadaaadaaadaa`",
"gaaaaaaaaaaaaaaaaaaaaaaaaaaaaaaaaaaaaaaaaaaaaaaaaaaaaaa`",
"gadaaaaaaadaaaaaaadaaaaaaadaaaaaaadaaaaaaadaaaaaaadaaaa`",
"gaaaaaaaaaaaaaaaaaaaaaaaaaaaaaaaaaaaaaaaaaaaaaaaaaaaaaa`",
"gaaaaaaaaaaaaaaaaaaaaaaaaaaaaaaaaaaaaaaaaaaaaaaaaaaaaaa`",
"c```````````````````````````````````````````````````````"
};
