/* XPM */
static char * image_name[] = {
"56 46 22 1",
" 	c #FFFFFFFFFFFF",
".	c #BEBEBABABEBE",
"X	c #030303030404",
"o	c #AEAEAAAAAEAE",
"O	c #9E9E9A9A9E9E",
"+	c #C7C7BABAC7C7",
"@	c #69698686BEBE",
"#	c #DFDFBABA8E8E",
"$	c #717179798686",
"%	c #79799292B6B6",
"&	c #000000001414",
"*	c #AEAEAEAEB6B6",
"=	c #AEAEB2B2CFCF",
"-	c #96969696AEAE",
";	c #38386D6DA6A6",
":	c #51515555FFFF",
">	c #A6A69E9EA6A6",
",	c #F7F7B2B2AEAE",
"<	c #868679798686",
"1	c #B6B6AEAEB6B6",
"2	c #BEBEC3C3BEBE",
"3	c #5959A2A2D7D7",
"                                                       .",
" ......................................................X",
" ......................................................X",
" ......................................................X",
" o...o...o...o...o...ooOOOOOOOOOoo...o...o...o...o...o.X",
" ......+.....+....ooOOoo.O.OoOoOOOOo..+.....+.....+....X",
" o.o+o.o.o.o.o..oOOoo.o.o.O.O.OOOO@O@o.o.o.o.o.o.o.o.o.X",
" .....o........oOo.+...o.o.O.OoOOOOOO@O.+.....o+......oX",
" o.o.o.o.o.o..oO..ooo#O.o.o.ooo#Oo#o@O@O.o.o.o.o.o.o.o.X",
" ...o...o....oO..oo@$$oo...o%&$X@&$$o@O@@...o...o...o..X",
" o.o.o.o.o..oO..oo$*@=$*o..#X@&@&$&&&o%O@@.o.o.o.o.o.o.X",
" .o...o.o..oo..o*$-$=;-$ ...$X@&@&@&@Xo@@$@...o.o.o...oX",
" o.o.o.o.o.Oo..O$:%*->=-, .o&@&$&X&XXXXo<@&@.o.o.o.o.o.X",
" .o.o.o.o.oO..#;%o-OOOO> ...$X@&X@X@XXX&+@@@o.1.o.o.o.oX",
" o.o.o.1.oOo..>$@*.+O1OO, .o&@&@XXXXXXXX@o<&@o.o.o.o.o.X",
" oo.ooo.ooO..o@&*. ,OooO ..o@X@&$#ooo@XXX.@@@oo.ooo.oooX",
" o.o.o.o.Oo..O&>.  ,OooO, .#&$&X@.oO@OOXX@O@X@.o.o.o.o.X",
" ooooooooO...*$.   ,OOOO ..o@&@&$oOoOOOOXXo@@XoooooooooX",
" o.o.o.ooO...O- . .ooOOOo .oX@X&&1oO@O@o$&o$&@Oo.o.o.o.X",
" oooooooOo.o..+. .o*$*$o ..#@X@&$oOO*$*$*X@o@X@ooooooooX",
" ooo.oooO.o.o.. . o$-;=o. .oX$&X&o1O$-@*-XXoX@Xo.ooo.ooX",
" oooooooOO.O...2oo@@-;$ ...o@&X&$#O-*-=$oXXO@X@ooooooooX",
" oooooooO.O.o..oo%@@@@++...#&@X@&.OO$-;*OXXoX$&ooooooooX",
" oooooooOO.O+..1$@&@&+.....1$XXXXoOO=@-$oXXo@&XooooooooX",
" OoooOooOoO.O.Oo@&@X@Xo.o.oo&&@X$.$-$=;=>XXoX@XooOoooOoX",
" oooooooOOoOoO.o#oX@&$Xo...o@XXXX11;o:<$oXX*$XXooooooooX",
" ooOoOoOOOOoO.O1O.oX@&&$1.O#XX@X$1@>@o@3>XXo&@XOoooOoOoX",
" oooooooOOOOoOoO.O.$X@X&1Oo#XXXX&o>@@@@$OXXO@XXooooooooX",
" OoOoOoOO@OOOoo.O.O1XX@Xo.oOXXXX@#$*@@@*:XXoXX@OoOoOoOoX",
" oooooooOOOO1$oOOOooX@XXoOo#XXX&$*=$@@-%XX%OXX@ooooooooX",
" OoOoOoOoO$*o$&oo.OoXX@XooOoXXXX@1o111$&XXO@XXoOoOoOoOoX",
" oOoooOoo>-Oo+XXoOO#X@XX#OooXXXXXXXXXX&XX@@XX@OoooOoooOX",
" OoOoOoOoO$=$1$&Xoo$&XXXoO$1XXXXXXXXXXXXXO@XXOoOoOoOoOoX",
" oOoOoOo-**@;@1XXXX&XX&$o>ooXXXXXXXXXXXXO@XX@oOoOoOoOoOX",
" OoOoOoOoOo>@>@oXXXXXX&1oO$1XXXXXXXXXXXO@XXXoOoOoOoOoOoX",
" OOoOOOoOOO1@@@<oXXXXX@o*@$oXXXXXXXXX@O@XXXoOOOoOOOoOOOX",
" OoOoOoOoOoO1@@*$1$&X@oo$*@.XXXXXXX@@O@XXXoOoOoOoOoOoOoX",
" OOOOOOOOOOOOo@@@$*#o1@$%:$oOOOOOOOO@XXXXOOOOOOOOOOOOOOX",
" OoOoOoOoOoOoO1@&@@$$@@@@%X@X$&@X@X@X@XXoOoOoOoOoOoOoOoX",
" OOOOOOOOOOOOOO*@@&@@@@@@@@@@&@X@X@XXXXOOOOOOOOOOOOOOOOX",
" OOOoOOOoOOOoOOOo=$@&@&%&@&@X@X@X@X@X@OOoOOOoOOOoOOOoOOX",
" OOOOOOOOOOOOOOOO>o=@&@&@X@X@X@X@XX@OOOOOOOOOOOOOOOOOOOX",
" OoOOOOOOOoOOOOOOOoO>O@@X$&@X@X@@@oOOOOOOOoOOOOOOOoOOOOX",
" OOOOOOOOOOOOOOOOOOOOOOOO*OOOOOOOOOOOOOOOOOOOOOOOOOOOOOX",
" OOOOOOOOOOOOOOOOOOOOOOOOOOOOOOOOOOOOOOOOOOOOOOOOOOOOOOX",
".XXXXXXXXXXXXXXXXXXXXXXXXXXXXXXXXXXXXXXXXXXXXXXXXXXXXXXX"};
