/* XPM */
static char * image_name[] = {
"56 46 19 1",
" 	c #FFFFFAFAFFFF",
".	c #BEBEB6B6BEBE",
"X	c #010101010101",
"o	c #C7C7BABAC7C7",
"O	c #AEAEA6A6AEAE",
"+	c #F7F7B2B2AEAE",
"@	c #9E9E9A9A9E9E",
"#	c #BEBEC3C3CFCF",
"$	c #96969696AEAE",
"%	c #AEAEAEAEB6B6",
"&	c #A6A69E9EA6A6",
"*	c #B6B6AEAEB6B6",
"=	c #38386D6DA6A6",
"-	c #69698686BEBE",
";	c #717179798686",
":	c #000000001414",
">	c #DFDFBABA8E8E",
",	c #CFCFC7C7CFCF",
"<	c #A6A679798E8E",
"                                                       .",
" ......................................................X",
" .o.o.o.o.o.o.o.o.o.o.o.o.o.o.o.o.o.o.o.o.o.o.o.o.o.o..X",
" ......................................................X",
" O.o.Oo.oO..oO..oO..oO..oO..oO..oO..oO..oO..oO..oO..oO.X",
" ..........       ............................o........X",
" O.O.O.O.O. +++++@XOoO.OoO.OoO.OoO.OoO.OoO.O.O.O.OoO.OoX",
" ..o.oO.o.. +.+.+@X@..O...o...O...o...O...o.o.O.o...o.OX",
" O.O.O.O.O. ++o+.@X@.OoO.O.OoO.OoO.O.OoO.O.O.O.O.O.O.O.X",
" o..O..oO.. +.+.+@X@O...O...O.o.O..oO...O...O.o.Oo..Oo.X",
" O.OoO.O.Oo ++o+o@X@oOoO.OoO.O.O.O.O.OoO.OoO.O.O.O.O.O.X",
" .O..       +.+.+O.     O.O...O.O.O.o.O.O.O.o.O.O.Oo..OX",
" O.O. ++++++++o+.+.+.+.@X@.OoO.OoO.O.O.OoO.O.O.OoO.O.O.X",
" .O.O +o+.+o+.+.+.+.+.+@X@O.O.O.O.OoO.O.O.O.OoO.O.O.O.OX",
" OoO. ++.+.+.+o+o+o+.+o@X@.OoO.O.O.O.OoO.O.O.O.O.O.OoO.X",
" OO.O +.+.+o+.+#+.+o+.+@X@O.OOOoOOO.OOO.OOOoOOOoOOO.OOOX",
" O.O. ++o+.+#+.+.+#+.+o@X@.O.O.O.O.OoO.OoO.O.O.O.OoO.O.X",
" OOOO OO@O$%+o+.+$@$@@@@X@OOOOOOOOOOOOOOOOOOOOOOOOOOOOOX",
" O.O.OXXXXXo++.+o@XXXXXXX@oO.OoO.OoO.O.O.O.O.O.O.O.O.O.X",
" OOOOO@@@@@ +.+.+&X@@@@@@@OOOOOOOOOOOOOOOOOOOOOOOOOOOOOX",
" OOOoOOO.OO ++o+.@X@.*OO.OOO.OOO.OOO.OOO.OOOoOOOoOOO.OOX",
" OOOOOOOOOO +.+.+@X@OO*=--=-----;---;---;--=;OOOOOOOOOOX",
" OOOOOOOOOO ++o+.@X@OOO-                     -OOOOOOOOOX",
" OOOOOOOOOO *$@$@@X@OOO- X @@@@@ - @-XXXXXXXX -OOOOOOOOX",
" @OOO@OOO@OOXXXXXXX@O@O-  .@   @ .-XXX-@@@OO;: -O@OOO@OX",
" OOOOOOOOOOO@@&@&@@@OOO- @@  .  .-X@ @@@&OOO*@X -OOOOOOX",
" OO@O@O@OOO@O@O@OOO@O@O- @  . . @X@ . -@O&OOO>@X -O@O@OX",
" OOOOOOOOOOOOOOOOOOOOOO- @ . @@.-X XX-X&OOO>O.O-X =OOOOX",
" @O@O@O@O@O@O@O@O@O@O@O- @. @. @XX X-X-OO@.>oO.&X -&O@OX",
" OOOOOOOOOOOOOOOOOOOOOO- @ .@. @XX X&OO.. ;@O...X X@OOOX",
" @O@O@O@O@O@O@&@O@&@O@O- @. .o.@XX XOOOO X :.>*oX X-O@OX",
" O@OOO@OO&@OOO@OOO@OOO@- @ - . -XX X@>Oo; X-*o..X X=@O@X",
" @O@O@&@O@O@&@O@O@O@O@O= @. . .XXX XO@>O$X-....@X XX&@OX",
" O@O@&&O@O&&&O@O@&&&@O&- -.. - XXX X@>OO&....o.-X :;@O@X",
" @O@O@O@O@&@O@&&&&&&O@O-  . . .XXX X;*.>*oO...@XX XX&@OX",
" @@&@@&&@@@O@@@O@@&&@$$; @.o...X@ .::;&,O...o@XXX X=@@@X",
" @O@O@&&&&&&&@O@&@&&O@O= .. . -X X -X:;&.*.&;:X-X XX&@OX",
" @@$<@@@@@@@@$<@&@@@@@&- @o. .XX@ @X&-:X:XXX:-@@X :;@@@X",
" @O@O&&@&@&&&&O@&@O@&@O- X@..XXXX@--...&;--@...@X X:&@OX",
" @@@@@@@&<@@@@@@@$<@&@@-    . . . . . . , . . . . :;@@@X",
" @@@&@<$O$@@&@@<O&@@&@@=-XXXXXXXXXXXXXXXXXXXXXXXXXXX&@@X",
" @<@@$@@@@$<&@@$@@@@@@&&&-X-X-X-X-X-X-X-X-X-X-X-X-X=@@@X",
" @O$@@@@@@O&@<$@@@&@@<@@@@@-@-@-@-@-@-@-@-@-@-@-@-&-&@@X",
" @@@@<@&<@@@@@@@$<@@@$@@@@@@@@@@@@@@@@$@@@$@@@@@@@@@@@@X",
" @@@@&@@@@@<$@@@@&@@@@@@@@@@@@@@@@$@@@@@@@@@@@@@@@@@@@@X",
".XXXXXXXXXXXXXXXXXXXXXXXXXXXXXXXXXXXXXXXXXXXXXXXXXXXXXXX"};
