/* XPM */
static char * image_name[] = {
"56 46 27 1",
" 	c #FFFFFAFAFFFF",
".	c #BEBEB6B6BEBE",
"X	c #070705050808",
"o	c #C7C7BABAC7C7",
"O	c #A7A7A4A4A7A7",
"+	c #69698686BEBE",
"@	c #9E9E9A9A9E9E",
"#	c #38386D6DA6A6",
"$	c #A6A69E9EA6A6",
"%	c #96969696AEAE",
"&	c #717179798686",
"*	c #000000001414",
"=	c #DFDFBABA8E8E",
"-	c #B6B6AEAEB6B6",
";	c #EFEFF3F3F7F7",
":	c #CFCFC7C7CFCF",
">	c #79799292B6B6",
",	c #51515555FFFF",
"<	c #BEBEC3C3BEBE",
"1	c #797986869E9E",
"2	c #DFDFAEAE6969",
"3	c #AEAEAEAEB6B6",
"4	c #5959A2A2D7D7",
"5	c #868679798686",
"6	c #BEBEC3C3CFCF",
"7	c #A6A679798E8E",
"8	c #8E8E8A8A8E8E",
"                                                       .",
" ......................................................X",
" .o.o.o.o.o.o.o.o.o.o.o.o.o.o.o.o.o.o.o.o.o.o.o.o.o.o..X",
" ......................................................X",
" O.o.Oo.oO.o.Oo.oO.o.Oo.oO.o.Oo.oO.o.Oo.oO.o.Oo.oO..oO.X",
" ......                                           o....X",
" OoO.O. +@++ @+@+@+@+@+@+@+@+@+++++++++++ +++X +++XO.OoX",
" ....o. @+@+ @@+@+@+@+@+@+@+@+@+@+@+@++++ +++X +++X.o..X",
" .o.... +@++ @+@#$+@+@#$+@+@+@+@+%+&++++X +++X +++X....X",
" O...Oo.XXXXXXX*XXXXX*XXXXXXXXXXXXX*XXXXXXXXXXXXXXX.O..X",
" ...o.. X.......o.o..o.o..o..o................ @@@X....X",
" OoO... X..o..o....o.......o....o...o..o...... $#@X...OX",
" ...=-. X....o...oXXXXXXXXXX@X+..o...o...o.o.. +$+XOo..X",
";=.O.O. Xo.o...X X@X.@X@      +XX++o...o...... @+@X-=.OX",
" .O...O X....XX  .X+XX@OOOO X+X..X+X+....o.o.o +@&*..O.X",
" O:=.O. X..XX.XX.. . @X>,&=O X+X+.XXX++o...... @++X.O<OX",
" .O-O.=;X.XOOX&++    X++>+;O=OX+    XX+..o.o.. +@#XOo=.X",
" O.O:@. XXOOX@*++   O@X++. OOX@... . XX+...... $+&X.O-OX",
" OO:O=O XOO   +++  OOX@X. OOX&*..   ..X+X@o.o. &++*=@=.X",
" O.=oO.X$@=O   X+OO-+&X . OX+*+..  +X@.X@X+... +++*.O:OX",
" OOO=-OX@@@=  XXOOO=&+*@  OX&*+++  +X   XX++.. +++XO:$OX",
" O.=-XX XOOO :+&12O **@X+O=+*$X+&O X@O @.XX++. ++&*.=.OX",
" OOOX   @O=@  *++   &+X&++O*OX+++3O@XOOX .XX+. +++*O=@=X",
" O:X +& XO-&O-+&-OO-**$*OOO@X+X3&OOX@=O@  OXX+;+++XOO.OX",
" OOX&+3 &&&#oO-*$@  @@X++=OXX+&.--X$XO=@  OX&+ +++*=O=OX",
" O=**& %**45O  @O@  XX++&OOX+++  O@X=O@@@ OX*+;++&X=$OOX",
" O=X++  &+,++  X@@OO&++;-O=X&-+OO=X&-OX*@O=X++ +++*OO=OX",
" =@X++   X*+..@X$O  +*.$$=O*+OO  $*#&&X=O@OX++;+++XO=O$X",
" OO@*+++ XXX+&6XX&  XX@ OO$X*O= &*+++*%$OOX*X+ +++*OO=@X",
" @=@OX++++X@*+.X*++&OX   O=++ ,&++++*.OO$XXXO.;++&X=$@OX",
" OOOX@X++3OX@X@OX+++-X  OOO&* >+6X&  X $X$XOX. +++*@=O=X",
" @=$OX@X+ XXX@XO$X+3OXX O=*+  ++&**  . XOX@X@. +++XO$@@X",
" OO@OOXOX  XXX@OOX&+O+XOO=X. ++;**   . @X@X@.. +++XOOO=X",
" OOOO@OX@@@ XXXO=**++&X O@*  +OXX @@ .XX+X@... ++&XO@=@X",
" OOOOOO X@X@  XX@@$**+  XX.&+3@XOOOOX@XX+...o. +++*OO7O*",
" OO@OOO XX@X@ .@X@XOX++&X*++O@XX O@X@X++..o...;+++XO@=@X",
" =@7$OO X.XXX@ XXX.XX.*** X-OXXX@OXXX+X.....o. +++*$$@@X",
" 8OOOOO X...XX++XXX.XX@XO &OXXX@@XXX++....o... ++&XO@O@X",
" @@@7@@ X....XXX+XXX++XXX@ *XX@X@XX++...o..o.. +++*$O@@X",
" $$OOOO X      @X+XXXX@X@X @X@X@XX@           ;+++X$@=@X",
" @@@7@@ XXXXXXXXX XX@XX+X XX@XXX++XXXXXXXXXXXXXX*XX$@@@X",
" @@@@@@@@@@@@@@X@X+XX@X+X+XXXX@@X++@@@@@@@@@@@$@O$@@@@@X",
" @@@@@@@@@@@@@@@XXXXXXXXXXXXXXXXX+@@@@@@@@@@@@@@@@@@@@@X",
" @@7@@7@@@@@@@@@@@@@@@@@@@@@@@@@@@@@@@@@@@@@@@@@@@@@7@@X",
" @@@@@@@@7@@@@@@@@@@@@@@@@@@@@@@@@@@@@@@@@7%@@@@7@@@%@@X",
".XXXXXXXXXXXXXXXXXXXXXXXXXXXXXXXXXXXXXXXXXXXXXXXXXXXXXXX"};
