/* XPM */
static char *Template[] = {
/* width height ncolors chars_per_pixel */
"56 46 5 1",
/* colors */
"` c #000000",
"a c #9A9B97",
"b c #B6B6B6",
"c c #A6A2A6",
"d c #FFFFFF",
/* pixels */
"dddddddddddddddddddddddddddddddddddddddddddddddddddddddb",
"dbbbbbbbbbbbbbbbbbbbbbbbbbbbbbbbbbbbbbbbbbbbbbbbbbbbbbb`",
"dbbbbbbbbbbbbbbbbbbbbbbbbbbbbbbbbbbbbbbbbbbbbbbbbbbbbbb`",
"dbbbbbbbbbbbbbbbbbbbbbbbbbbbbbbbbbbbbbbbbbbbbbbbbbbbbbb`",
"dcbbbcbbbcbbbcbbbcbbbcbbbcbbbcbbbcbbbcbbbcbbbcbbbcbbbcb`",
"dbbbbbbbbbbbbbbbbbbbbbbbbbbbbbbbbbbbbbbbbbbbbbbbbbbbbbb`",
"dcbcbcbcbcbcbcbcbcbcbcbcbcbcbcbcbcbcbcbcbcbcbcbcbcbcbcb`",
"dbbbbbcbbbbbbbcbbbbbbbcbbbbbbbcbbbbbbbcbbbbbbbcbbbbbbbc`",
"dcbcbcbcbcbcbcbcbcbcbcbcbcbcbcbcbcbcbcbcbcbcbcbcbcbcbcb`",
"dbbbcbbbcbbbcbbbcbbbcbbbcbbbcbbbcbbbcbbbcbbbcbbbcbbbcbb`",
"dcbcbcbcbcbcbcbcbcbcbcbcbcbcbcbcbcbcbcbcbcbcbcbcbcbcbcb`",
"dbcbbbcbcbcbbbcbcbcbbbcbcbcbbbcbcbcbbbcbcbcbbbcbcbcbbbc`",
"dcbcbcbcbcbcbcbcbcbcbcbcbcbcbcbcbcbcbcbcbcbcbcbcbcbcbcb`",
"dbcbcbcbcbcbcbcbcbcbcbcbcbcbcbcbcbcbcbcbcbcbcbcbcbcbcbc`",
"dcbcbcbcbcbcbcbcbcbcbcbcbcbcbcbcbcbcbcbcbcbcbcbcbcbcbcb`",
"dccbcccbcccbcccbcccbcccbcccbcccbcccbcccbcccbcccbcccbccc`",
"dcbcbcbcbcbcbcbcbcbcbcbcbcbcbcbcbcbcbcbcbcbcbcbcbcbcbcb`",
"dcccccccccccccccccccccccccccccccccccccccccccccccccccccc`",
"dcbcbcbcbcbcbcbcbcbcbcbcbcbcbcbcbcbcbcbcbcbcbcbcbcbcbcb`",
"dcccccccccccccccccccccccccccccccccccccccccccccccccccccc`",
"dcccbcccbcccbcccbcccbcccbcccbcccbcccbcccbcccbcccbcccbcc`",
"dcccccccccccccccccccccccccccccccccccccccccccccccccccccc`",
"dcccccccccccccccccccccccccccccccccccccccccccccccccccccc`",
"dcccccccccccccccccccccccccccccccccccccccccccccccccccccc`",
"dacccacccacccacccacccacccacccacccacccacccacccacccacccac`",
"dcccccccccccccccccccccccccccccccccccccccccccccccccccccc`",
"dccacacacccacacacccacacacccacacacccacacacccacacacccacac`",
"dcccccccccccccccccccccccccccccccccccccccccccccccccccccc`",
"dacacacacacacacacacacacacacacacacacacacacacacacacacacac`",
"dcccccccccccccccccccccccccccccccccccccccccccccccccccccc`",
"dacacacacacacacacacacacacacacacacacacacacacacacacacacac`",
"dcacccacccacccacccacccacccacccacccacccacccacccacccaccca`",
"dacacacacacacacacacacacacacacacacacacacacacacacacacacac`",
"dcacacacacacacacacacacacacacacacacacacacacacacacacacaca`",
"dacacacacacacacacacacacacacacacacacacacacacacacacacacac`",
"daacaaacaaacaaacaaacaaacaaacaaacaaacaaacaaacaaacaaacaaa`",
"dacacacacacacacacacacacacacacacacacacacacacacacacacacac`",
"daaaaaaaaaaaaaaaaaaaaaaaaaaaaaaaaaaaaaaaaaaaaaaaaaaaaaa`",
"dacacacacacacacacacacacacacacacacacacacacacacacacacacac`",
"daaaaaaaaaaaaaaaaaaaaaaaaaaaaaaaaaaaaaaaaaaaaaaaaaaaaaa`",
"daaacaaacaaacaaacaaacaaacaaacaaacaaacaaacaaacaaacaaacaa`",
"daaaaaaaaaaaaaaaaaaaaaaaaaaaaaaaaaaaaaaaaaaaaaaaaaaaaaa`",
"dacaaaaaaacaaaaaaacaaaaaaacaaaaaaacaaaaaaacaaaaaaacaaaa`",
"daaaaaaaaaaaaaaaaaaaaaaaaaaaaaaaaaaaaaaaaaaaaaaaaaaaaaa`",
"daaaaaaaaaaaaaaaaaaaaaaaaaaaaaaaaaaaaaaaaaaaaaaaaaaaaaa`",
"b```````````````````````````````````````````````````````"
};
