/* XPM */
static char * image_name[] = {
"56 46 29 1",
" 	c #FFFFFAFAFFFF",
".	c #B6B6AEAEB6B6",
"X	c #030303030404",
"o	c #A7A7A4A4A7A7",
"O	c #8E8E8A8A8E8E",
"+	c #38386D6DA6A6",
"@	c #9E9E9A9A9E9E",
"#	c #A6A69E9EA6A6",
"$	c #BEBEB6B6BEBE",
"%	c #000000001111",
"&	c #A6A679798E8E",
"*	c #797986869E9E",
"=	c #8E8E86867979",
"-	c #AEAEAEAEB6B6",
";	c #AEAEB2B2CFCF",
":	c #717179798686",
">	c #96969696AEAE",
",	c #AEAE9E9E5959",
"<	c #BEBEC3C3CFCF",
"1	c #EFEFF3F3F7F7",
"2	c #5151A2A24949",
"3	c #AEAEA6A67171",
"4	c #868679798686",
"5	c #C7C7BABAC7C7",
"6	c #AEAE61616161",
"7	c #51515555FFFF",
"8	c #69698686BEBE",
"9	c #717175757171",
"0	c #79799292B6B6",
"                                                       .",
" ......................................................X",
" ...............oOO+O+O+O+OO@#.........................X",
" ....$....$...OO++++++++++X+X++o....$....$...$....$....X",
" o...o..$o..O++X@O@+%+%+$&*+OXXX+o...o...o...o...o...o.X",
" ..........OX+%+X+X.O%+X=*&OX+XXXXo....$...............X",
" @$@$@$@.@+X+X+#@%+O+++&++.*=X+X+XX@$@.@.o.@$@$@$@$@$@.X",
" $.-..@.$+X+%+@.O...;+:.&-=*&&%+%+XX>$@$.....-@-.-....#X",
" @.@$>.@+%+X++$O++O..$;O-*o*X+:X+X+XX@.>.@.@.@.@$@.@.@.X",
" ...@.$+X+%+%++++&O.....O;:,OOX+%+%+XX@.@$-$@...@...@$.X",
" @.@.@OX+X+++++&:; . ..O.O.:$O+XXXOX+X+@.@.@.@$>.@.@.@.X",
" .@...X+%+%+%++;  ........>&O+X+OX++XXX+@.>$..@.@.@;..@X",
" @.#.++%++++&<1. . . ..O.O.2$%+XOXX+OXXX.@.@.>.#.@$@.@.X",
" .@.#+X+%++O-     . ......&;O&O+X+%+%+XX+.#.>$@.@.>.@.@X",
" @.@*X+#@O+& . . . . ....O.O.O+%+X+X+%+XX#.@.@.>.#.@.>.X",
" @@.++X@#.$+      . $.....:3:&X+%+%+X+%+X+@.@o@.@#@.o@@X",
" @.OOX+O++ - . . . . ..O.O;:;X+X+X+%+XXXX+.@.@.#.@.@.@$X",
" @@4O.%+.++ . . . .$......O$O+X+%+X+%+X+XX>@@@#@@#@>@@@X",
" @.+:3#%+- + $ . . . ..O$O.O.X+%+%+X+X+%XX.o.#o#.#.#.#.X",
" @@>4;O$X;...-.......-$...:&O+%+X+%+XX%+XX@@@@#>@@@#@@@X",
" @@+OO.OOX+&*.. . .$...O.O;2$&+X+%+X+X+XXX@@.@@#.@@@5@@X",
" @@+O>O..O%+X+X....-..$;6OO&O*O+%+XX%+%+XX@#>@#@@##@@@@X",
" @#+:#.O.X+X+%+X+O$O.O-O;O.O&+:+O+O+XXXXXXo@@#@&o:;@>#@X",
" @@+:,@@O+%+X+%+%+....@O:,*@:>+6++++X+X+XX@#&@-*##@@#@@X",
" O>+>=:>@X+%+X+X+X&X.O.O$:@+O+&+:++++%XXXX@>#2##@2##@2>X",
" @#+*&O*@+X+%+%+%+X+X+&OO>:=&O++++++:&OOO**,**42,&>@#>oX",
" @@6+:+OO:+X+X+X+%+%+X++O+O+:+:++7+%,      1    +*>,4*@X",
" #@8+,*&OO++X+%+X+X+%+XO:O+O+>++++++&1+++++++++$%2@o@>@X",
" 2>2&+:+*&&=+%+X+%+X+XO+:+>+&++++%+%O + :+%%X%+$%&>:#,@X",
" ###-%6>:,*:&+%+%+X+%+:>+4+:++++++++: +O%XXXX%+.X*#>@@@X",
" &@O>+++>+:+OX+X+X+%++O+O+&+:+7X+%+%, ++XXXXXX+.X,@:#:#X",
" @*@@@%++9+>:+%+%+XOO&+++&++++++++%%&1+XXXXXX%+.%O9o>#OX",
" =@*@:O+++&+OX+%+%O+&+O+&++++%+%+%+X* +%XXXXXX+$XO@,&2oX",
" #:@Oo&+%++O++%+X++:++++++++++++%XXXO +++++++++.XO*>&>&X",
" *#O@:#=++++&%+X@+@+&+++++7X+%+%+X+XO.$.$.$.$...XO@2-6>X",
" :,@&,*@&+%+++%++++++++++%++++%XXXXXO+XX%XX%XX%XX*6#:@*X",
" O>*O*@*>@+++++%+++++7X++++%+%+%+%O               -Oo*>X",
" O&2OO&3:&&++%++++++++++%+%+X%XXXXO ..............+>:,OX",
" &#&>:#*#O>@>++%+%+%+%+%+%+%+XXX+O& OOO+O+O+XXX+O.X=>&@X",
" **&2*&,:OO:&@&+%+%+%+%+%+%XXX+O:,*.............&OX+***X",
" *,:-:O*#*O:#9*&-++%+%+%+%+++OO>>:OXXXXXXXXXXXXXXXX+&6*X",
" 3::>4>O:3:3OO@9*&>:,:&OOOO:OO6O4>6O++++++++++++++++*@=X",
" :>@&:3:>:#:O3:OO,O&*>=&:@@O:*@&OO8@&:O&*Oo&*OO&*OO=O*OX",
" *O&2:&2:&,04:@O*:>:O:*:,OO:O&*9*O=:OOO*OOO*=*&*O>:*:,*X",
" &:@&>O&>::&:>4OOO*3&@O>:OOOO&*,:,&*:O6*OO:O@:2&O6*>O::X",
".XXX%X%%X%%%%XXXXXX%XXXXXXXXXXXXX%X%%XXXXXXX%X%%XXXXX%XX"};
