/* XPM */
static char * image_name[] = {
"56 46 28 1",
" 	c #FFFFFFFFFFFF",
".	c #B6B6AEAEB6B6",
"X	c #030303030404",
"o	c #BEBEB6B6BEBE",
"O	c #9E9E9A9A9E9E",
"+	c #AEAEAEAEB6B6",
"@	c #F7F7B2B2AEAE",
"#	c #96969696AEAE",
"$	c #AEAEB2B2CFCF",
"%	c #A7A7A4A4A7A7",
"&	c #38386D6DA6A6",
"*	c #AEAE61616161",
"=	c #8E8E8A8A8E8E",
"-	c #5151A2A24949",
";	c #000000001414",
":	c #A6A69E9EA6A6",
">	c #8E8E86867979",
",	c #A6A679798E8E",
"<	c #AEAE9E9E5959",
"1	c #DFDFBABA8E8E",
"2	c #717179798686",
"3	c #FFFFFFFFD7D7",
"4	c #797986869E9E",
"5	c #868679798686",
"6	c #EFEFF3F3F7F7",
"7	c #717175757171",
"8	c #AEAEA6A67171",
"9	c #79799292B6B6",
"                                                       .",
" ......................................................X",
" ......................................................X",
" ....o...o...o...o...o...o...o...o...o...o...o....o....X",
" Oo..O.o+O.o.O.o+O.o.O.o+O.o.O.o+O.o.O.o+O.o.O.o.O...OoX",
" ...+o......+o......+o......+o......+o......+o..+o.+o..X",
" OoO.O.OoO.O.O.OoO.O.O.OoO.@.O.OoO.O.O.OoO.O.O.OoO.O.OoX",
" .....O.......O.......O.......O.......O...XXXXXXXXX...OX",
" O.O.#.O.#oO.O.#oO.#.O.@$Oo@$O.O.#oO.O.#oOX      %X&.O.X",
" ...O.o.O...O...O..oO..oO..oO@$@O...O...OoX @@@@O*X&=..X",
" O.#.O.#oO.#oO$O.O.#.O.@.@.@oO.OoO.#oO.O.#X @.%o%-;&=#.X",
" .O...O.O$Oo..O.:.Oo.o#@#.:@.@O@#.:..$:@OoX @..o>,;&=oOX",
" OoOo#oO.O.O.#.O.O$O.@.@.@o .@.@.@oO.O.:.OX @...%,X&=#.X",
" .#.O.O.O.O.O.O.#.O.O.O %@O@O O@O.#.O.#@OoX @...<=X&=.OX",
" O.O.O.#.O.O.#.OoO.O.@o@%@. .@. o@.O.O.O.@X @...%>X&=O.X",
" O#.O#O.OO#.OO:.OOO.#@: =@@ O 1@O@O.O@O@O#X @..o%2;&=OOX",
" O.O.O.O.O.O.O.O.O.O.@@ @3@ @3@ @ .@o#o@.@X @...<:X&=O.X",
" OOOOO:O#O:OOO:OO#OO@              @:@O@:OX @...%=X&=O#X",
" O.O.O.:.O.:.#.O.O.OXXXXXXXXXXXXXXXX.@%@.@X @...%*X&=O.X",
" OO:#:OO#:O#OOOO#:OOX             %X&@:@:@X @...>4X&,OOX",
" OOO.OO:%:O:%:O:.O:OX @@@@@@@@@@@<,X&@% .@X @...%=X&=#OX",
" O:O#%,O::OO:#%,::OOX @.........%%=X& %@O X @...<,X&=OOX",
" OOOOO:#O:,:OOO:OO:OX @..........<,X&@@3@@X @..o%,X&=#:X",
" O:O:O+5:2%OXXXXXXXXX %<%<%<%<...%4X& @6@ X @...O>X&=OOX",
" -#O#-::%-$OX      %X<,,,,,,:@o..<,X@     X @...%2;&=-%X",
" #:O:%,O#OO:X @@@@O*XXXXXXXX @...%4XXXXXXXX @..o<=X&,:OX",
" OO-:-#-%OO-; @...<4X&&&&&&X @...%<      %X @o..:,X&4,OX",
" #::#:::O:#:X @.o.%=X&=====X @o.o>@@@@@@O*X @...<2X&4OOX",
" -:,O=:,O<O2X @...<,X&,4O=#X @....o.o...<=X @...%<;&==OX",
" :OOOOOOOO#%X @...%4;&4OOOOX @..........%=X @...:2;&2OOX",
" ,O2OXXXXXXXX @...%*XXXXXXXX @...o......<,X @.o.<,X&=5:X",
" O=:OX        @...<O      %X %<%%<%%>%<%%4X @.o.:=X&##=X",
" 4O=OX @@@@@@@@...%@@@@@@<=X%*2*2,7,*O2*,*X @...<,X&=4OX",
" O<#=X @.o.o......o%.....%=XX;XXXXXX;;XXXXX @...O,;&<O=X",
" 2O2:X @.................<,X&&&&&&&&&&&&&&X @.o.<OX&22:X",
" #5#=X @......o..........:2X&==,=,=O=,=,==X @...:=;&#*=X",
" >O<OX %<%<%<%<%%<%%<%<%>%*X&,#4:4%2:4O4O=X <%<%>,X&=4:X",
"6*4#2XO*,,,=,,,*2,,*2,,,==,;&====282=<====X:,2,,=,X&===X",
" 4O4:X;XXXXXXXXXXXXXXXXXXXXX&=%4O=5##2#4O>XXXXXXXXX&=4#X",
" 2<=4,&&&&&&&&&&&&&&&&&&&&&&&2<2<#2<==2<=2=&&&&&&&&&=*=X",
" =2=O<2=========,4==,4======#52#O2#2#==2#==,4=,4==,42#=X",
"68===2=#=====,=4,==44===#=#2>#,,==*==5#2<4,42<4,=4#282<X",
" 2#2#<,,28:2824=44%7==,2<2#=,24=44OO<2##2#O4=2=282O5#2=X",
" 4==,42-=2=22=2<>>=O>2==2===2<=2>,822,285=2<4,=44=5#2==X",
" =,4>=#,==#<#=2,4<2=42#>,=2==29=2=2#=O=2#<22#=28282==2=;",
".XXX;XXXXXXXXX;;XXX;XXXXXXXXX;XXX;XXXXXXXX;;X;XX;X;XXXXX"};
