/* XPM */
static char *Unicorn[] = {
/* width height ncolors chars_per_pixel */
"56 46 9 1",
/* colors */
"` c #000000",
"a c #9A9B97",
"b c #B6B6B6",
"c c #AEAAAE",
"d c #A6A2A6",
"e c #E8AF72",
"f c #C1C3C9",
"g c #FFFFFF",
"h c #B2AEB6",
/* pixels */
"gggggggggggggggggggggggggggggggggggggggggggggggggggggggb",
"gbfbbfbbfbbfbbfbbfbbfbbfbbfbbfbbfbbfbbfbbfbbfbbfbbfbbfb`",
"gbbfbbfbbfbbfbbfbbfbbfbbfbbfbbfbbfbbfbbfbbfbbfbbfbbfbbf`",
"gbbfbbbbbfbbbbbfbbbbbfbbbbbfbbbbbfbbbbbfbbbbbfbbbbbfbfb`",
"gcfbfcbbbcbb`cfbfcbbb`b`bbbfbcbfbcfbbbbfbcfbfcbbbbbbbcb`",
"gbbfbbffffbfb`bbbfb`fb`fb`fbbfeffbbfbbfbfffbbfbfbbffbfb`",
"gcfcbhbcbcfcbc`cbc``b``c`cf`fcfcbcfc``````fcbcbcfcbcbcf`",
"gbbbfbcbfbbfffc`f`b``bc``b`bfbcbfbb``bc`````fb`fbffefbc`",
"gcfcbcbcbcbcbcbc```````cb``c`cbcbc```cfc```````cfcbcfcb`",
"gffbcbfecfbbcbf``````````bb`cfbfcb``cbbb``````bbcbbfcbf`",
"gcbcbcbhfcfcfcb`bc```c``````b`bcbc``bcfcb````cfcfcbcbcb`",
"gbcbfbcbcbcbbb``c````b`````b`bcbcbc``bcbcbcfbfcbcbcbbbc`",
"gcfcbcbcbcehbb```````c```````b`cbcf```fcbcbcbcecfcbcbcf`",
"gbcbcbcbcfcfc```````h```````c`cfcbcb``````cbcfcbcbcfcbc`",
"ghbcfcbcbcbcb```b``c``````````b`bcbcf```````fcfcbcbcfcb`",
"gccbcccfcccbc``b``cb````````cb`bcccbcccbc````ccbcccfccc`",
"gcbcbcbcehfcbcfcbcfcb``````````b`cfcbcbcbcb```bcfcbdbcb`",
"gccccccchccccccchcccc````````cc`cccc````cccc``cccccbccc`",
"gcfcbcfcfcbcfcbcfcbcb```````````b`````````bc``bcfcbcbcf`",
"gccccccccccccccccccc``````````cc``````````````ccccccccc`",
"gcccfcccbcccbcccbccc`````````````````````````cccbcccfcc`",
"gcccccccccccccccccc`````cc`````````````````ccbccbcccccc`",
"gccccccccbcchcccccc```````c`````````````````ccccccccccc`",
"gccccccccccchcccccb``c`````````````c````````cccbccccccc`",
"gacccaccbacb``````h`h``````c```````c````````bacccabccac`",
"gcccccccccch``````c`c`````c`````````c```````ccccccccccc`",
"gccacccaccca``f```h`c`````c`````````c``````dcacccccccac`",
"gcccccccbcch``cch``h`c````c```````cc`c`````cccccccccccc`",
"gacahacacaca``hdcdcdcd```a`````acac``d`````abacacacccac`",
"gcccbccccccc``cccccccc```cccccccbccc``c`````cccbccccccc`",
"gacccabaccca``hccdcac````dcccdcacaccc``a`````acacdcacac`",
"gcacccaccbah```cccccc```ccaccbaccccccc``cc````ccccdcbca`",
"gacacabacacac```cdcac```cacacacabaca`````dc```cacacacac`",
"gcabccdbacccdc```caca``cababacacaca````caca``cacdcccaca`",
"gabacacacacacdc``aba```acacabababa```acdba```dcccacdccc`",
"gcacacaccdacccac`aac``abdcacdcacd``cacdcca``ddacadacaaa`",
"gacacacacahacacabaca``cacacacacd```abacah``abacdcacdcdb`",
"gddadadddaadaacaaba``adadaddadda``aadaaca``acaddadadaaa`",
"gacahacacdhahacacac``acacdhacac```cdcacd``cdcacacacdcac`",
"gaddaddacadacaddca``acddadaadda```caada```daaadaddadaca`",
"gaadcaadcdadcaaac``acdaahaddhad``ddaha``ccdahadabaddcda`",
"gddaadadaaadaada```caddadadaaadaadada```dadaacddaadaada`",
"gacaddaaadcaaddadacadadadacdaddadacadddaadcdadaaaccaada`",
"gdddaadadadadadddaddaaaadadadaadadddaaddadaddaacadaaaca`",
"gadadddaddadaadaadaddaddaaadadaaaaaadaaadaaaaadaadacaaa`",
"b```````````````````````````````````````````````````````"
};
