/* XPM */
static char * image_name[] = {
"56 46 20 1",
" 	c #FFFFFAFAFFFF",
".	c #BEBEB6B6BEBE",
"X	c #030303030404",
"o	c #C7C7BABAC7C7",
"O	c #AEAEA6A6AEAE",
"+	c #F7F7B2B2AEAE",
"@	c #9E9E9A9A9E9E",
"#	c #A6A69E9EA6A6",
"$	c #69698686BEBE",
"%	c #B6B6AEAEB6B6",
"&	c #AEAEAEAEB6B6",
"*	c #96969696AEAE",
"=	c #717179798686",
"-	c #000000001414",
";	c #DFDFBABA8E8E",
":	c #38386D6DA6A6",
">	c #79799292B6B6",
",	c #AEAEB2B2CFCF",
"<	c #BEBEC3C3CFCF",
"1	c #A6A679798E8E",
"                                                       .",
" ......................................................X",
" .o.o.o.o.o.o.o.o.o.o.o.o.o.o.o.o.o.o.o.o.o.o.o.o.o.o..X",
" ....................................................o.X",
" O.o.Oo.oO.o.Oo.oO.o.Oo.oO.o.Oo.oO.o.Oo.oO.o.Oo.oO.o.O.X",
" o..o.......o.......o.......o.......o.......o..........X",
" O.O.O.OoO.O.O.OoO.O.O.OoO.O.O.OoO.O.O.OoO.O.O.OoO.OoO.X",
" ...o.O.....o.O.....o.O.....o.O.....o.O.....o.O...o...OX",
" OoO.O.OoO.O.OoO.OoO.O.OoO.O.OoO.OoO.O.OoO.O.O.OoO.O.OoX",
" ...O.o.O..oO...O...O.o.O..oO...O...O.o.O.o.O.o.O..oO..X",
" O.O.O.O.O.O.OoO.OoO.O.O.O.O.OoO.OoO.O.O.O.OoO.O.O.O.OoX",
" .Oo.oO.OoO.o.O.O.O..O.o++ + ++++...o.OoO.O...O.O.O.o.OX",
" O.O.O.O.O.O.O.OoO...++++ + + ++o+o+.O.O.OoO.OoO.OoO.O.X",
" .O.O.OoO.O.OoO.O.o+++++ +   +o++@+.+.OOO.O.O.O.O.O.O.OX",
" OoO.O.O.OoO.O.O..++o+o++ + +.#+$@.+$O+.O%.O.O.OoO.O.OoX",
" OO.OOO.OOO.OOOo+++o+.+O#@.@.@@$$O&*=+@O+OOoOOO.OOOoOOOX",
" O.OoO.OoO.O.O.+++o+.O=-X-XXX-XX-X=$&#=+.+OO.OoO.O.O.O.X",
" OOOOOOOOOOO%O++o.;$$--@OOO$XXXXXX--X-:o#+oOOOOOOOOOOOOX",
" O.O.O.O.O.OO++.O=-XX=$#@  O$XXXX>$$$XXX=o=+OO.O.O.O.O.X",
" OOOOOOOOOOO++.O$--X$$$@@   $XX$X$O@$$$---$##@OOOOOOOOOX",
" OOO.OOO.OO++;=$*XX$*$-XX+ +$XX$X$OO*$$.$XXXXX@OoOOOoOOX",
" OOOOOOOOO++.:$#@X$@@$XXX$$=-XX$X$@@O$$ .O$X$$=@OOOOOOOX",
" OOOOOOOO++;=,Oo.@$O@@$XXX--XXO$X$O.@$$   .O$-$$@OOOOOOX",
" OOOOOOO.+o:*.   <=..O$XXXXXX@.-=@@O@$$     .@$XX$OOOOOX",
" @OOO@Oo+O=,o    .$%@@O$XXX$@$X$*oO#@=<     .@$$O@OOO@OX",
" OOOOO.+ =*.      $=O.#@$XXXXX$@@O.O@$     +o*=OOOOOOOOX",
" OO@O@+ $*#       o$o@@O@@O@O@@..@OO=<    +.@$%O%OO@O@OX",
" OOOOO+.@#@        <=@O.@.O@O@#OoO#=*    +o*=OOOOOOOOOOX",
" @O@O@+o...         <=%@@O%@OO@#O#@#    +.*=,O%@O@O@O@OX",
" OOOOO@.++o. + +     <=@OOO@.O@#==@    +o*=*O#O#OOOOOOOX",
" @O@O@O@@@@$@.. + + + <.=#=#==:$o+    .O@$&#%#O#O@O@O@OX",
" O@OOO@;OOO#*=$@O. . . o o + + +   +.O@$#OO%O%@OOO@OOO@X",
" @O@O@O@O#O;O%@$$@O.. . o . o < +oO@$$@OOOO@####O@#@O@OX",
" O@O@O@O@O@O#*;OO@$$=@O...o....O@$$@#OOO#O@O@#@#@O@O@O@X",
" @O@#@#@#@###@O@OOOO*=$$$$$=$$$$@@#OOOO#O@#@O@O@O@#@O@OX",
" @@O@@##@#@#@@@O#@#O%%%OOO#.%OOOOO%O#@@#@@@O@@@#@@##@@@X",
" @O@#####@O@O@O@###@O@O##O%@OOOOO#O@O@O@O@O@O@O####@O@OX",
" @@@@@@@@@@@@@@#@@@@@@@@#@@@@@@@@@@@@@@@@@@1@#1@@@@@@@@X",
" @#@###@#@#@###@#@O@O@#@O@O@#@O@#@#@O1O@####O@O@#@###@OX",
" @@#@@#1@@##1@@@#@@@@@@@@@@@#@@@@@@@@@@@@@@@@@@@@@#1@@@X",
" @@1O@@#O@1@O#@1O@1*O@@@#@1@#@1@#@@1O@@1O@1@#@1###@@O@@X",
" @@*@@1@@@*@@@@*@#@@@#1@@@@@@@@@@@@@#@@#@@#@@@#@@@1@@@@X",
" @O@@@*@@@#@@1@@@@O@@@@@@@O@@@@@1###@@1@@@#@@@@@@@O*@1@X",
" @@@1@@#1@@@#@*@1@@*1@@*1@*1@#1#@@@@@@*@@@@@*1@*1@@@*@@X",
" @@@*@@@*@@1*@@@@*@@#@@@#@@@@@*@@@1#@1#@1*@@@#@@#@@@@@@X",
".XXXXXXXXXXXXXXXXXXXXXXXXXXXXXXXXXXXXXXXXXXXXXXXXXXXXXXX"};
