/* XPM */
static char *window3d[] = {
/* width height ncolors chars_per_pixel */
"56 46 9 1",
/* colors */
"` c #000000",
"a c #9A9B97",
"b c #308A5F",
"c c #B6B6B6",
"d c #AEAAAE",
"e c #75818D",
"f c #A6A2A6",
"g c #C1C3C9",
"h c #FFFFFF",
/* pixels */
"hhhhhhhhhhhhhhhhhhhhhhhhhhhhhhhhhhhhhhhhhhhhhhhhhhhhhhhc",
"hccccdccdccccdccdccccdccdccccdccdccccdccdccccdccdcccccd`",
"hcdcccccccdcccccccdcccccccdcccccccdcccccccdcccccccdcccc`",
"hcchhhhhhhhhhhhhhhhhhhhhhhhhhhhhhhhhhhhhhhhhhhhhhhhhgdc`",
"hddhcccccccccccccccccccccccccccccccccccccccccccccccgcdc`",
"hcchcggggggggggggggggggggggcggggggggggggggggggggcgcgccc`",
"hdchcgg```````````````````hcg``````````````````bhcggcdc`",
"hcchcggcegfggfgfggfggfgfgfhcggfggfgfggfgfggfggfghcggdcd`",
"hddhcggdgggggggggggggggggghcgdgggggggggggggggggghcggcdc`",
"hcchccgcgfghhgfgfgfgfgfgfghgggggghggfgfgfgfgfgfghccgdcd`",
"hdchcggffgghgggggggggggggghcgfgfhhgggggggggggggghgggcdc`",
"hcdhcgggfghhfgfgfgfgfgfgfghggggghhfgfgfgfgfgfgfghcggdcd`",
"hdchcggdgggggfgggggggggggghfgfgggggggggggggggggghcggcdc`",
"hcdhggggfggfggfgfgfgfgfgfghgggggfgfgfgfgfgfgfgfghcggdcd`",
"hdchcggdggfggfgggggggggggghggfgggggggggfgggggggghgggcfd`",
"hddhcggcfggfggfgfgfgfgfgfghggfgfgfgfgfggfgfgfgfghcggddd`",
"hfchcggdgggggfgggggggggggghggfgggggggggfgggggggghgggcac`",
"hddhgggdffgfggfgfgfgfgfgfghdhfgfgfgfgfgggfgfgfgghdggddd`",
"hddhcggdgggggggggggggggggghfgfgggggggggfgggggggghgggcdc`",
"hfdhgggdfgfgfgfgfgfgfgfgfghggegfgfgfgfggfgfgfgfghcggdfd`",
"hdahcggdgggggggggggggggggfhggdgggggggggfgggggggghgggcda`",
"hddhdggdghghghghghghghghhhhgggghghhhghhhhhhghghhhdggadd`",
"hddhcggggggggggggggggggggggdggggggggggggggggggggggggddd`",
"hadhgggdfdfdfdfdfdfdfdfdfagggdddfdddfdfddddfdfdfgccgdad`",
"hadhcggd``````````````````hcga`````````````````bhcggdad`",
"hddhgggfgggggggggggggggggghggfgggggggggggggggggghgggddd`",
"hdfhcggafgggggfgfgfgfgfgfghdgagfggggfgfgfgfgfgfghcggdad`",
"hddhgggcfghhgggggggggggfgghggfggghgggggggggggggghcggadd`",
"hadhcggaggghggfgfgfgfgfggfhggfgfhhgfgfgfgfgfgfgghgggdad`",
"hddhcggdfgggfggggggggggggghggfgghgggggggggggggfghcggddf`",
"hadhcggagggggfgfgfgfgfgfgfhcgagfgfgfggfgfgfgfggghgggdad`",
"hdahgggdfggfgggggggggggggghdgfggggggfgggggggggfghdggada`",
"hadhcggaggfggfgfgfgfgfgfgfhggeggfgfgggfgfgfgfggghgggdad`",
"hdahgggdfggfgggggggggggggghggfggggfgfgggggggfgfghcggada`",
"hadhccgagggggfgfgfgfgfgfgfhcgagfgfggggfgfgfggggghgggdad`",
"haahgchdffgfgggggggggggggghggeggggfgfgggggggfgfghdggaaa`",
"hadhcggagggggfgfgfgfgfgfgfhcgagfgfggggfgfgfggggghgggded`",
"haahcggegfgfgggggggggggggghcgeggggfgfgggggggfgfghcggaaa`",
"hadhcgg`gggggfgggggggggggghggagggggggggggggfgggghgggdad`",
"haahcgghhhhhhhhhhhhhhhhhhhhgghhhhhhhhhhhhhhhhhhhgcggaaa`",
"haahcgggcgcggcgfgfgfgfgcfggggcgcgfcgfgfgfgggcgfggcggdaa`",
"haahgggggggggggghggghgggggggggggghgggghghgggggggggggaaa`",
"hadh````````````````````````````````````````````````aaa`",
"haaaaaaaaaaaaaaaaaaaaaaaaaaaaaaaaaaaaaaaaaaaaaaaaaaaaaa`",
"haaaaaaaaaaaaaaaeaaaaaaaaaaaaaaaaaaaaaaaaaaaaaaaaaaaaaa`",
"d```````````````````````````````````````````````````````"
};
