/* XPM */
static char * image_name[] = {
"56 46 23 1",
" 	c #FFFFFFFFFFFF",
".	c #B6B6AEAEB6B6",
"X	c #A7A7A4A4A7A7",
"o	c #000005050505",
"O	c #BEBEB6B6BEBE",
"+	c #38386D6DA6A6",
"@	c #717179798686",
"#	c #69698686BEBE",
"$	c #AEAEAEAEB6B6",
"%	c #EFEFF3F3F7F7",
"&	c #000000001111",
"*	c #969696969696",
"=	c #8E8E8A8A8E8E",
"-	c #A6A69E9EA6A6",
";	c #AEAEA6A67171",
":	c #79799292B6B6",
">	c #F7F7B2B2AEAE",
",	c #DFDFBABA8E8E",
"<	c #717175757171",
"1	c #FFFFFFFFD7D7",
"2	c #797986869E9E",
"3	c #51515555FFFF",
"4	c #696969697171",
"                                                       .",
" X.X.X.X.X.X.X.X.X.X.X.X.X.X.X.X.X.X.X.X.X.X.X.X.X.X.X.o",
" .X    .O.O..O.O..O..O.O..O..O.O..O..O.O..O..O.O..O..O.o",
" . +@##o$O$O.o O$OO$O.o $O$O$O.o O$OO$O.o $O$O$O.o $O..o",
" . ##@#oO.O$Xo $$$OOX$o XO$OX$Oo .O$XO$Oo O$$$OX    .O$o",
" X ##@#oO$O.Oo O.O$.$Oo $O.O$O.o O$OO$O.o $O.OO%####o$Oo",
" XXo&&&oX.X$Xo $XOXOX.o XOX$$$Xo $XOX$XOo XOX$X #@@#oOXo",
" X..o .XO$OO.o OO$O$.Xo O$..OX.o OO$.XO.o O$.$$ ##@#oX.o",
" .XOo X.X.XX    $OXOX.o XOXOX.Xo $XOX.X$o XOX.XXoo&&o.Xo",
" X..o .O$O$ @###oO$XO.o O$.X$..o O.X$O.Xo $XO$OX.o XO..o",
" XX.o X.XOX +##@o.X.X$o XOX$XOXo .XOXOX.o X.XOX.Xo .X.Xo",
" X.Xo .X$X. ####oX$O.Xo .X$OOX.o X$O$X$Xo $O$X.X.o ..X.o",
" XX.o XOX.XXooooo.XOX.o X.X$X.Xo .XOX.X    OX.X$$o .XOXo",
" X.Xo .X$XOX.o XOX.X$Xo .XOXOX.o XOX$X ####o$XOX.o X$X.o",
" *X.o X.X.X$Xo .X$XOXOo X$X.X$Xo .X$$$ #@#@oX.X$Xo OX.Xo",
" XXXo XX$XOXXo XXX.XXXo XXOXXX.o X.XXX ##@#oXXOXXo XXX.o",
" XX.o XOX.X$Xo .X.XOX$o X.X$XOXo .X.X.Xoo&ooX.X.Xo .X.Xo",
" XXXo XXXXXXXo XXXXXXXo XXXXXXXo XXXXXXXo XXXXXXXo XXXXo",
" *X.o X.X.XOXo .X$X$X.o X.X.XX    .OX.X.o X.XOX.Xo .X.Xo",
" XXXo XXXXXXXo XXXXXXXo XXXXX @###oXXXXXo XXXXXXXo XXXXo",
" XXXo XXXXX.Xo .XXXOX    $X$X +##@o.XXX.o X.XXX$Xo .XXXo",
" XXXo XXXXXXXo XXXXX ####oXXX ####oXXXXXo XXXXXXXo XXXXo",
" *XXo XXXXXXXo XXXXX #@##oXXXXoooooXXXXXo XXXXXXXo XXXXo",
" XXXo XXXXXXXo XXXXX #@@#oXXXXXo XXXXXXXo XXXXXXXo XXXXo",
" X*Xo XXX*XXXo X*XXXXo&&ooXXXXXo XXX*XXXo XXXXXX*o X*XXo",
" XXXo XXXXXXXo XXXXXXXo XXXXXXXo XXXXXXXo XXXXXXXo XXXXo",
" *XXo XX*X*XXo XXX*X*Xo XX*XXX*o X*X*X*Xo *XXX*X*o X*X*o",
" *XXo *XXXXX*o XXXXXXXo XXXX*XXo XXXXXXXo XX*XXXXo XXXXo",
" X*Xo XX*X*XXo X*X*X=Xo *X*XXX*o X*X=X*Xo *XXX*X*o X*X*o",
" =XXo *XXXXX*o XXXXXXXo XXXX=XXo XXXXXXXo XX*XXXXo XXXXo",
" **-o *X=X=X*o X*X=X*Xo *X*X*X*o X*X*X*Xo *X=X*X=o X*X=o",
" XXX;XX;XX:;XX;XX;XX;XX;XX;X:X;XX;XX;XX;XX;XX;XX;XXX;XXo",
" ; > > > ;@> > > > > > > , @@: > > , > > > ><> > >1> >;o",
" >; X ; X## X ; X ; X ; X +###@ ; X @ X $<X%# ; X $<X Xo",
" X X1X X23#; X X1X X1X X ;:@+#+O@. X4X ; @ X#X X1@@##;>o",
" X; X <#@2#2X ; @ ; X X1X ###@# @ ; # X X#4#2 ; $+#@# Xo",
" X X2@###@@# # X2X X1X X ;###@#X## X2X1# ######< ####*;o",
" >$4###4#2####4#@##<#@<2###@#@:#@## 4###@####4####@## >o",
" Xo&o&o&o&&ooo&&o&o&o&&ooo&o&&&&oooo&oooooooo&ooooooooXo",
" ;X#@###@###@#@ #2##+##@####@###@## ######+#@2X###@## Xo",
" X X*#@###@# X X2X X X X X####@##X X2*2X2@##+# X ###@X,o",
" >; X X#### X ; X ; X ; X @@##X## X1X @%X#.#@2X1X#@#@ Xo",
" X X1X #%#@X X X1X X1X X1X #+# #%; X ; . X X#$ X X # X;&",
" X; X ; X%# ; ; X ; X ; X .@X:; X ; X X ; ; # X ; X2X >o",
" ;>X,X>X;>@$X>X;>X>X;>X,X;>#;>X;>X>;>;>XX>X;>;>;X>;X,X;o",
".ooooooooo&oooooooooooooooooooooooooooooooooooo&oooooooo"};
