/* XPM */
static char * title_inactive_xpm[] = {
"32 32 3 1",
" 	c None",
".	c #3E3D3D",
"+	c #202020",
"................................",
"................................",
"................................",
"................................",
"................................",
"................................",
"................................",
"................................",
"................................",
"................................",
"................................",
"................................",
"................................",
"................................",
"................................",
"................................",
"................................",
"................................",
"................................",
"................................",
"................................",
"................................",
"................................",
"................................",
"................................",
"................................",
"................................",
"................................",
"................................",
"................................",
"................................",
"++++++++++++++++++++++++++++++++"};
