/* XPM */
static char * close_inactive_xpm[] = {
"22 22 4 1",
" 	c None",
".	c #767675",
"+	c #767776",
"@	c #767775",
"                      ",
"                      ",
"                      ",
"                      ",
"                      ",
"        .    .        ",
"       ...  .+.       ",
"      ..........      ",
"       ........       ",
"        ......        ",
"        ....@.        ",
"       ........       ",
"      ..........      ",
"       ...  ...       ",
"        .    .        ",
"                      ",
"                      ",
"                      ",
"                      ",
"                      ",
"                      ",
"                      "};
