/* XPM */
static char * iconify_activeup_xpm[] = {
"22 22 3 1",
" 	c None",
".	c #636562",
"+	c #FFFFFF",
"                      ",
"                      ",
"                      ",
"                      ",
"                      ",
"                      ",
"                      ",
"                      ",
"                      ",
"                      ",
"                      ",
"                      ",
"     ............     ",
"     ............     ",
"     ............     ",
"     ............     ",
"     ++++++++++++     ",
"                      ",
"                      ",
"                      ",
"                      ",
"                      "};
