/* XPM */
static char * title_inactive_xpm[] = {
"14 22 8 1",
" 	c None",
".	c #CCCCCC",
"+	c #CBCBCB",
"@	c #CACACA",
"#	c #C6C6C6",
"$	c #C7C7C7",
"%	c #888888",
"&	c #606060",
"..............",
"..............",
"..............",
".+.+++++++++..",
"++++++++++++++",
"++++++++++++++",
"++++++++++++++",
"++++++++++++++",
"++++++++++++++",
"++++++++++++++",
"++++++++++++++",
"++++++++++++++",
"@+@++@@+++@++@",
"@@@@@@@@@@@@@@",
"@@@@@@@@@@@@@@",
"@@@@@@@@@@@@@@",
"@@@@@@@@@@@@@@",
"@@@@@@@@@@@@@@",
"@@@@@@@@@@@@@@",
"#$$$#$$#$$$#$$",
"%%%%%%%%%%%%%%",
"&&&&&&&&&&&&&&"};
