/* XPM */
static char * close_activeup_xpm[] = {
"28 28 3 1",
" 	c None",
".	c #18413C",
"+	c #3D9B8D",
"                            ",
"                            ",
"                            ",
"                            ",
"                            ",
"                            ",
"                            ",
"                            ",
"         ..........         ",
"         .++++++++.         ",
"         .++++++++.         ",
"         .++++++++.         ",
"         .++++++++.         ",
"         .++++++++.         ",
"         .++++++++.         ",
"         .++++++++.         ",
"         .++++++++.         ",
"         ..........         ",
"                            ",
"                            ",
"                            ",
"                            ",
"                            ",
"                            ",
"                            ",
"                            ",
"                            ",
"                            "};
