/* XPM */
static char * close_activeup_xpm[] = {
"11 11 2 1",
" 	c None",
".	c #E2E2E2",
"..       ..",
"...     ...",
" ...   ... ",
"  ... ...  ",
"   .....   ",
"    ...    ",
"   .....   ",
"  ... ...  ",
" ...   ... ",
"...     ...",
"..       .."};
