/* XPM */
static char * close_activedown_xpm[] = {
"28 28 6 1",
" 	c None",
".	c #348277",
"+	c #1D4D46",
"@	c #18413C",
"#	c #30796E",
"$	c #388C80",
"                            ",
"                            ",
"                            ",
"                            ",
"                            ",
"                            ",
"                            ",
"                            ",
"                            ",
"         .+@@@@@@+.         ",
"         #@$$$$$$@#         ",
"         #@$$$$$$@#         ",
"         #@$$$$$$@#         ",
"         #@$$$$$$@#         ",
"         #@$$$$$$@#         ",
"         #@$$$$$$@#         ",
"         #@@@@@@@@#         ",
"         ##########         ",
"                            ",
"                            ",
"                            ",
"                            ",
"                            ",
"                            ",
"                            ",
"                            ",
"                            ",
"                            "};
