/* XPM */
static char * iconify_activedown_xpm[] = {
"11 10 2 1",
" 	c None",
".	c #BCBEC5",
"           ",
"           ",
"           ",
"           ",
"           ",
"           ",
"           ",
"...........",
"...........",
"..........."};
