/* XPM */
static char * iconify_inactive_xpm[] = {
"28 28 10 1",
" 	c None",
".	c #383C4A",
"+	c #3D4150",
"@	c #63687B",
"#	c #6B7184",
"$	c #454A5A",
"%	c #7E8395",
"&	c #808597",
"*	c #585D6F",
"=	c #181C2A",
"............................",
"............................",
"............................",
"............................",
"............................",
".....+@###############@+....",
".....+#$$$$$$$$$$$$$$$#+....",
".....+#$%&&&&&%$$$$$$$#+....",
".....+#$&*****&$$$$$$$#+....",
".....+#$&*****&$$$$$$$#+....",
".....+#$&*****&$$$$$$$#+....",
".....+#$&*****&$$$$$$$#+....",
".....+#$&*****&$$$$$$$#+....",
".....+#$%&&&&&%$$$$$$$#+....",
".....+#$$$$$$$$$$$$$$$#+....",
".....+#$$$$$$$$$$$$$$$#+....",
".....+#$$$$$$$$$$$$$$$#+....",
".....+#$$$$$$$$$$$$$$$#+....",
".....+#$$$$$$$$$$$$$$$#+....",
".....+#$$$$$$$$$$$$$$$#+....",
".....+@###############@+....",
".....+++++++++++++++++++....",
"............................",
"............................",
"............................",
"............................",
"............................",
"============================"};
