/* XPM */
static char * iconify_activeup_xpm[] = {
"11 10 2 1",
" 	c None",
".	c #E2E2E2",
"           ",
"           ",
"           ",
"           ",
"           ",
"           ",
"           ",
"...........",
"...........",
"..........."};
