/* XPM */
static char * maximize_activeup_xpm[] = {
"28 28 6 1",
" 	c None",
".	c #18413C",
"+	c #348277",
"@	c #1A4A42",
"#	c #3D9B8D",
"$	c #398F82",
"                            ",
"                            ",
"                            ",
"                            ",
"                            ",
"      .................     ",
"      .+++++++++++++++.     ",
"      .+@@@@@@@@@@@@@+.     ",
"      .+@###########@+.     ",
"      .+@###########@+.     ",
"      .+@...........@+.     ",
"      .+@$$$$$$$$$$$@+.     ",
"      .+@$$$$$$$$$$$@+.     ",
"      .+@$$$$$$$$$$$@+.     ",
"      .+@$$$$$$$$$$$@+.     ",
"      .+@$$$$$$$$$$$@+.     ",
"      .+@$$$$$$$$$$$@+.     ",
"      .+@$$$$$$$$$$$@+.     ",
"      .+@@@@@@@@@@@@@+.     ",
"      .+++++++++++++++.     ",
"      .................     ",
"                            ",
"                            ",
"                            ",
"                            ",
"                            ",
"                            ",
"                            "};
