/* XPM */
static char * maximize_activedown_xpm[] = {
"11 11 2 1",
" 	c None",
".	c #BCBEC5",
"...........",
"...........",
"...........",
"..       ..",
"..       ..",
"..       ..",
"..       ..",
"..       ..",
"..       ..",
"...........",
"..........."};
