/* XPM */
static char * FileManager_xpm[] = {
"38 34 13 1",
" 	c None",
".	c #D8D8D8",
"+	c #4E5B56",
"@	c #999999",
"#	c #EEAA99",
"$	c #AAAAAA",
"%	c #AA9988",
"&	c #888888",
"*	c #384345",
"=	c #000000",
"-	c #FFFFFF",
";	c #5577AA",
">	c #69726E",
".....................................+",
".@#$$$$$$$%%%%%%%%%%%%%%%%%%%%&&%%%&&*",
".$$=================================%*",
".@#$$$$$%%%%%%%%%%%%%%%%%%%%&%&&%&%&&*",
".$---------------$%----------------$%*",
".@-;;&;&&&&%%%%%%=%-;&;;;;&%&%&&-&%=&*",
".$-;&;;;%&&&==--==$-;%&;%&;%&&---%-=%*",
".@-;&&&&&&&@@@@$==%-;&&&&&&@@@@@-&@=&*",
".$-;;;;&;;%&&=@@==%-;&;;;==&&&@=-===%*",
".@-&&&&&&&@@@@@$==%-;&&&&&@@@@@=-===&*",
".$-;&;;;;%&==@@@==$-=%&&=%&&@@@=-===%*",
".@-&&&&&&@@@@@$$==%-&&&&&@@@@@$=-===&*",
".$-;&;;;;%=%&&@$==%-===%&&&&@@@=-===%*",
".@-&&&&&@@@@@$$$==%-&&&&@@@@@$$=-===&*",
".$-&&==&&%=%&&@$==%-=%&&&&@@@@@=-===%*",
".@-&&&&@@@@$$$$$==%-&&&@@@@@$$$=-===&*",
".$-&&=&==@@@@@$$==%-=%&&=&=&==$=-===%*",
".@-&&&@@@@@$$$$#@=%-&&@@@@@$$$$=-===&*",
".$-&&===&==@@$$$@=%-=%=%&&=%&&$=-===%*",
".@-&&@@@@@$$$$##@=%-&@@@@@$$$$#=-===&*",
".$-&=%==%&&@$$$$@=%-=&==%&&==$$=-===%*",
".@-&@@@@@$$$$###==%-@@@@@$$$$##=-===&*",
".$-&&==&==&==$$#@=%-=%&&&===%&&=-&==&*",
".@-@@@@@$$$$$###==%-@@@@$$$$###=-===&*",
".$-&&==&==$$$$##@=%-=%&&&$$$$$#@-&@=%*",
".@$===============%$================&*",
".$%$$$$$$$$%$%$%%%%%%%%%%%%%%%%&&%&%&*",
".@-----%----%----%----%----&------=&&*",
".$-====$====%====%====%====%=======&&*",
".@#%%%%%%%%%%%%%%%%%%&%&&&&&&&&&&&&&&*",
".$-----$----$----%----%----%------=&&*",
".@-====%====%====%====&====&=======&&*",
".@%$$$$$$$%$%%%%%%%%%%%%%%%%%%&%&%&&&*",
">*************************************"};
