/* XPM */
static char * Media_xpm[] = {
"38 34 13 1",
" 	c None",
".	c #D8D8D8",
"+	c #4E5B56",
"@	c #AAAAAA",
"#	c #FFFFFF",
"$	c #EEAA99",
"%	c #000000",
"&	c #5577AA",
"*	c #999999",
"=	c #384345",
"-	c #AA9988",
";	c #888888",
">	c #69726E",
".....................................+",
".@@@@@@@@@@@@@@@#$#####%&&@@@********=",
".@@@@@@@@@@@@@@#$#######%&&**********=",
".@@@@@@@@@@@@@#$#########%&&*********=",
".@@@@@@-&#-@@#$##########%&&&********=",
".@@@@@*#&##@#;##########%&&&&&****;*;=",
".@@*@@-#%#&#$&;########%&@&&&&*****;*=",
".@*@-#-#%#&##&&;######%&#@#&&%#######=",
".--##&-#%#%#&#&&;####%&##@@#%;&*&*#;#=",
".##&#%##%#%#%##&&;##%&##@@@;;#*#;#;#;=",
".&%#&#%%#%#%#%&#&&;%&#%&#@;&#*#*#*#;#=",
".##$%#-##%#%#-###&&&&#@%&;&*##;#;#;#;=",
".@-#&#--#%#&#--**#&&&&#@;&*******;*;#=",
".@@-#-*-#%#&#@#####&&&&;&####*&&&&&#%=",
".@@*--@-#%##-*##**-@%%&;---$-%&&&&#%%=",
".@*@*@*@#&#-*@##*-*-------$-&%&*;#%%%=",
".@@@@*@*#&-***##-*--*----$-&&%&*#%%#%=",
".@*@*@*@-#-@*@##*-------$-&*&%&#%%%%&=",
".@@@@@**@*****##------*#-&**&%#%%#%&*=",
".@@@*@*@*@***@##----**;%**;*&#%%%%%%&=",
".@&##########*##---**&&*****#%%#%&%%%=",
".@&#&@&@*&*@#*##---&&&**;*;#%%%%&*&%%=",
".@&#@&*&#####*##----******#%%#%&*&&&%=",
".@&#&@&@*@###@*%%%%%%%%%%#%%%%&*&*&&&=",
".@&#@&@&****###&&&&&&&&&#%%#%%%&&&&&%=",
".@&#*@*@#######%****;*;#%%%%&%%%&&&%#=",
".@&############%******#%%#%&*&%%%&%%%=",
".@@&%%%%%%%%%%%%**;;;#%%%%&;&&&%%%#%%=",
".@@@@***********;;;;#%%#%&;&;&&&%%%%;=",
".*@@*@*@******;*;*;#%%%%%%&&&&&%#%%;;=",
".@@**********;;;;;#%%#%&%%%&&&%#%%***=",
".@**********;*;;;#%%%%&*&%%%&%#%%****=",
".*********;;;;;;#%%#%&;&&&%%%#%%*****=",
">====================================="};
