/* XPM */
static char * Paint_xpm[] = {
"40 36 80 1",
" 	c None",
".	c #485354",
"+	c #485254",
"@	c #475355",
"#	c #475254",
"$	c #485355",
"%	c #475354",
"&	c #485255",
"*	c #475255",
"=	c #465153",
"-	c #D8D8D8",
";	c #898989",
">	c #475153",
",	c #465051",
"'	c #AAAAAA",
")	c #999999",
"!	c #AA9988",
"~	c #5577AA",
"{	c #000000",
"]	c #626C6F",
"^	c #455052",
"/	c #444E50",
"(	c #444F51",
"_	c #434D4F",
":	c #888888",
"<	c #424B4E",
"[	c #434C4E",
"}	c #414A4C",
"|	c #40494A",
"1	c #3F4848",
"2	c #3F4749",
"3	c #3D4647",
"4	c #3C4546",
"5	c #3C4446",
"6	c #3B4344",
"7	c #3C4345",
"8	c #3A4243",
"9	c #3B4243",
"0	c #3A4142",
"a	c #394042",
"b	c #393F40",
"c	c #393F41",
"d	c #373D3F",
"e	c #373E3E",
"f	c #363C3D",
"g	c #FFFFFF",
"h	c #363C3E",
"i	c #353B3C",
"j	c #353B3B",
"k	c #34393A",
"l	c #EEAA99",
"m	c #34393B",
"n	c #333839",
"o	c #323737",
"p	c #303536",
"q	c #2F3334",
"r	c #303435",
"s	c #2F3233",
"t	c #2F3333",
"u	c #2D3131",
"v	c #2C2F30",
"w	c #2B2E2F",
"x	c #2A2D2E",
"y	c #292B2C",
"z	c #282A2A",
"A	c #272A2A",
"B	c #262828",
"C	c #272929",
"D	c #262728",
"E	c #262727",
"F	c #252626",
"G	c #232424",
"H	c #232323",
"I	c #222223",
"J	c #212121",
"K	c #222221",
"L	c #212222",
"M	c #212122",
"N	c #212221",
"O	c #222122",
".+@#.$$%#&.%**@#&@&+*$%&$@+*%@+++.$.@*%*",
"=-------------------------------------;>",
",-'''')''!!~~~{~{{{{~{{{{{{~{~!!'''''']^",
"/-')')')!!~~{{~~~{~{{{{{~{{{{{{!!)')')](",
"_-'')'''!~:~~~~{{{{{{{'{{{{{{{{{!''')']_",
"<-')')'!~:{~~{{~{{{~~{{~{{{{{~{{{!')')][",
"}-)'''!~~~{~{{~~~{{~{{{{{{{{{{{{{~!''']}",
"|-')')!~~~~~~~{~~{{{{~{~{{{{{{{{{{!)')]|",
"1-)')!~{{{{~~~~{{{{{{{{{{{{{~~{{~{~!)']2",
"3-')'!~~~~~{~~~~{{~~~{{{{~{{~~~~~{{!')]3",
"4-)''!~~~~~{~{{~~~~~~~~{{{{{{~~{{{{:')]5",
"6-')!:~~~~~~'~{~~~{~{~{~~{{{~~~{~{{~!)]7",
"8-))!:~~:~~~~{~~{~~~{~~{~{{{~{{~~~{~!)]9",
"0-')!:~~:~:~:::{:){)){))~{{{~~~~~~{~!)]a",
"b-))!::::::::::~:)'{'{'{{{{)'~'~~~{~!)]c",
"d-))!:)'))'''')~))))){~~{{{)~))~~~{~!)]e",
"f-))!)''''g''''g''''')'){{~~~~~~::{~!)]h",
"i-))!)'''')'))~))~)~~~{{{{::~~~~~:{~!)]j",
"k-)))!'~~l~~~~~~~~~~~~~{{{~~:~:~:~{:')]m",
"n-)))!'''''~~)~~~~~~~~~{{{~~~~~~~~{!):]n",
"o-)))!l''~l'lg''''''''){{{):~~):){~!))]o",
"p-):):!'lll''l'll)l'''~{{)')))))~{:'):]p",
"q-))):!l'lllllll'l'l''~{{')'):):{:!)))]r",
"s-):):)!lglllgllgllglg{{lg'l)''{::):):]t",
"u-))))):!llllllgglgglg{{~gggg~~:))))))]u",
"v-):):):!:gggggglggl''{{{{{:g{):):):):]v",
"w-:))):))!~'gggggg~~{{{{{{{:'~:))):)))]w",
"x-):):):):!~~ll''~{{{{{{{{):'~):):):):]x",
"y-:):):):):!!~l{{{{{{{{{{):::::):):):)]y",
"z-):):):):)::!g{~{{{{{~{~:):~~):):):):]A",
"B-:):::):::)::'~'~{{{!'{::::{~:):):::)]C",
"D-):):):):):):'~:'~{~:'~~:)'{~):):):):]E",
"F-::::::::::::::::~{::g{~::g~~::::::::]F",
"G-):):):):):):):):'{::'~~:):):):::):):]G",
"H]]]]]]]]]]]]]]]]]]]]]]]]]]]]]]]]]]]]]]I",
"JJKLLMMMNMLMNNNLJNMJMNMNJLNJNMMOMNMKJMJM"};
