/* XPM */
static char * Viewer_xpm[] = {
"38 34 172 2",
"  	c None",
". 	c #D8D8D8",
"+ 	c #4E5B56",
"@ 	c #848484",
"# 	c #898989",
"$ 	c #384345",
"% 	c #AA9789",
"& 	c #A59789",
"* 	c #888888",
"= 	c #A99789",
"- 	c #9F9789",
"; 	c #9F988D",
"> 	c #8B8B8B",
", 	c #A09A92",
"' 	c #939093",
") 	c #A09A96",
"! 	c #8A898A",
"~ 	c #A0988A",
"{ 	c #A09789",
"] 	c #A39789",
"^ 	c #929092",
"/ 	c #949090",
"( 	c #B1AEB1",
"_ 	c #A09DA0",
": 	c #A3A0A3",
"< 	c #ABA6AB",
"[ 	c #9B989B",
"} 	c #A6A2A6",
"| 	c #A09C9D",
"1 	c #9D9B9D",
"2 	c #9F998E",
"3 	c #A89789",
"4 	c #A29789",
"5 	c #858485",
"6 	c #989493",
"7 	c #A89B93",
"8 	c #B4AFB4",
"9 	c #F1ACA0",
"0 	c #FFFAFF",
"a 	c #9A9798",
"b 	c #A19FA1",
"c 	c #A29C9A",
"d 	c #858585",
"e 	c #968E88",
"f 	c #A39E9D",
"g 	c #9E9A9E",
"h 	c #A6A3A6",
"i 	c #AB9C93",
"j 	c #939193",
"k 	c #948D88",
"l 	c #8E8D8E",
"m 	c #9B9698",
"n 	c #8F8E8F",
"o 	c #AB9D95",
"p 	c #A19A91",
"q 	c #928F92",
"r 	c #5C7CB1",
"s 	c #9D988F",
"t 	c #999284",
"u 	c #8E8B84",
"v 	c #AA978B",
"w 	c #969292",
"x 	c #EEAB9F",
"y 	c #ABA098",
"z 	c #8D8D95",
"A 	c #5F7786",
"B 	c #959295",
"C 	c #A59A8F",
"D 	c #AA978A",
"E 	c #A69588",
"F 	c #A29B97",
"G 	c #B0ADB0",
"H 	c #000007",
"I 	c #010101",
"J 	c #959598",
"K 	c #A39A91",
"L 	c #A99688",
"M 	c #AA9C93",
"N 	c #BDA48A",
"O 	c #6F839E",
"P 	c #386DA6",
"Q 	c #9F978A",
"R 	c #989184",
"S 	c #8F8D8A",
"T 	c #253044",
"U 	c #9D9A9D",
"V 	c #9A999A",
"W 	c #AEA6A0",
"X 	c #6180AE",
"Y 	c #C19F96",
"Z 	c #928E84",
"` 	c #9C9488",
" .	c #E3AA9C",
"..	c #C8C6C8",
"+.	c #5F7DAE",
"@.	c #8F8C89",
"#.	c #9B9890",
"$.	c #B09795",
"%.	c #030303",
"&.	c #292723",
"*.	c #37342F",
"=.	c #A0998B",
"-.	c #EBAB9E",
";.	c #B1A39B",
">.	c #1E1D1A",
",.	c #738289",
"'.	c #C8A299",
").	c #9597A1",
"!.	c #9E9B9B",
"~.	c #6D8084",
"{.	c #DFA99C",
"].	c #B4A49E",
"^.	c #B1B3B7",
"/.	c #EAE5E6",
"(.	c #AEA098",
"_.	c #EAE6EA",
":.	c #617983",
"<.	c #E4AA9D",
"[.	c #8D8D93",
"}.	c #ACABAC",
"|.	c #918E8F",
"1.	c #8A8A8D",
"2.	c #ABA9AB",
"3.	c #F4C6BD",
"4.	c #8D8C91",
"5.	c #6B8195",
"6.	c #B29790",
"7.	c #B3AFB3",
"8.	c #657D8F",
"9.	c #88887F",
"0.	c #99998E",
"a.	c #8E8E8E",
"b.	c #8F8D8D",
"c.	c #C5ACAB",
"d.	c #5D7CAF",
"e.	c #9D978A",
"f.	c #8B8A83",
"g.	c #9C998F",
"h.	c #8E8C87",
"i.	c #8D8D92",
"j.	c #9C988D",
"k.	c #999999",
"l.	c #898981",
"m.	c #A39B91",
"n.	c #5C7CB0",
"o.	c #BEAEA6",
"p.	c #929089",
"q.	c #919191",
"r.	c #9B998D",
"s.	c #939089",
"t.	c #A59B92",
"u.	c #918F91",
"v.	c #A49A91",
"w.	c #8F8F8F",
"x.	c #97948B",
"y.	c #A79C93",
"z.	c #8C8C93",
"A.	c #5D7CAE",
"B.	c #97938B",
"C.	c #9A998E",
"D.	c #909090",
"E.	c #8D8C89",
"F.	c #A69C92",
"G.	c #9A989A",
"H.	c #9E9C9E",
"I.	c #9E9B9E",
"J.	c #9C9A9C",
"K.	c #908F90",
"L.	c #8A8A8A",
"M.	c #929292",
"N.	c #989898",
"O.	c #69726E",
". . . . . . . . . . . . . . . . . . . . . . . . . . . . . . . . . . . . . + ",
". @ # @ # @ # @ # @ # @ # @ # @ # @ # @ # @ # @ # @ # @ # @ # @ # @ # @ # $ ",
". % # % # % # % # % # % # % # % # & * = * = # = # % # % # % # % # % # % # $ ",
". @ % @ % @ % @ % @ % @ % @ - @ ; > , ' ) ! ~ @ { @ % @ % @ % @ % @ % @ % $ ",
". % # % @ % # % @ % # ] @ - ^ / ( _ : < [ < } | 1 2 * - @ 3 * % @ % # % @ $ ",
". @ % @ % @ % @ % @ 4 5 6 7 ( 8 9 9 0 9 0 9 9 9 9 [ a b c d % @ % @ % @ % $ ",
". % @ % @ % @ % @ e d f [ 9 9 9 9 0 9 0 9 0 9 9 8 9 g 9 h i j k @ % @ % # $ ",
". @ % @ % @ % @ - l m 9 9 9 9 9 0 9 0 0 0 9 8 9 9 n 9 ( 9 ( o p % @ % @ % $ ",
". % @ % @ % @ - ' [ 9 9 8 9 8 9 9 0 9 0 9 ( q 9 r n ( 9 r o 9 ( s % @ % @ $ ",
". t % t % u v w x 9 9 8 9 ( 9 o q n ( n ( n n r r o y z A 9 n B 9 C D t E $ ",
". t @ t @ F G 9 9 9 8 9 ( o A H I H I I I H I I H I A r J q A 9 ( 9 K k @ $ ",
". t L t k M 9 9 8 ( N r r H H O _ o o r I I I I I I H H I H P 8 q 9 8 Q - $ ",
". R @ t S 9 9 ( o A H I I A T U V 0 0 W T I I I I X r r r I I I A 8 A Y @ $ ",
". Z % `  .9 ( o r H H I r r T O V 0 ....r I I r I r _ n r r r H H H +.@.k $ ",
". #.M 9 9 N A r z I I r z r H I I 9 ..$.r I I r I r _ _ z r r ( r I %.&.*.$ ",
". =.-.9 ;.P r q n I r n n r I I I T r A H I I r I r n n _ r r 0 ( _ r >.,.$ ",
". '.9 N A )._ 8 ( n r o n n r I I I H H I I B r I r o ( n r r 0 0 0 ( !.~.$ ",
". {.].P z ( 0 0 0 ^.A ( ( o r I I I I I I n ( H A n n o n r r 0 0 0 0 /.t $ ",
". o A ).8 0 0 0 0 ( r (.n n o r I I I r n r I r z 8 o q n A ^.0 0 0 0 _.t $ ",
". :.z ( 0 0 0 0 0 0 r A o ( q n r I I I I I r n n o ( o n r 0 0 0 0 0 <.t $ ",
". [.q 0 0 0 0 0 0 0 8 r 8 n n o n n o n _ n n ( ( n o B A ^.0 0 0 0 9 }.u $ ",
". |.n 0 0 0 0 0 0 0 0 ^.A n o ( n ( o n o n q o 8 o q A z 0 0 0 0 9 8 1.~.$ ",
". 2.( 0 3.0 3.0 0 0 0 0 ^.A (.n n o : n _ o n q o q n q 0 0 0 0 9 ( 4.5.u $ ",
". 6.7.( 0 9 0 9 0 3.0 3.0 ^.A n B o _ n ( o n q A A n 0 0 0 0 9 8 z 8.9.0.$ ",
". a.b.r n ( ( 0 c.0 c.0 c.0 ^.( A q A q A A P r 8 9 0 0 0 0 ( _ n d.e.0.u $ ",
". f.g.h.i.A r n W ( 0 ( 0 ( 0 8 0 8 0 9 0 9 0 9 0 0 0 9 ( _ n r q j.0.9.k.$ ",
". k.9.0.l.m.l n.r n _ o.( 0 ( 0 8 0 ( 0 8 0 ^.0 9 8 _ n r r n o p.k.9.k.R $ ",
". 9.q.9.a.9.r.s.t.l r r A n _ ( ( ( 8 ( ( ( ( _ n r r n u.v.o f.w.9.k.9.k.$ ",
". k.9.k.9.a.9.a.9.0.x.y.z.A n.r r r r A r n.A.n.l n B.C.9.a.9.D.9.k.9.k.9.$ ",
". * k.* k.* k.* w.* a.* C.E.F.G.H.I.J.H.1 K.V L.0.* a.* a.* k.* k.* k.* k.$ ",
". * 9.k.9.* 9.k.9.* 9.M.9.* 9.w.9.* 9.w.9.* 9.* 9.w.9.k.9.* 9.k.9.* 9.k.9.$ ",
". * k.* k.* k.* k.* k.* N.* N.* k.* k.* k.* k.* k.* k.* k.* k.* k.* k.* k.$ ",
". * 9.* * * 9.* * * 9.* * * 9.* * * 9.* * * 9.* * * 9.* * * 9.* * * 9.* * $ ",
"O.$ $ $ $ $ $ $ $ $ $ $ $ $ $ $ $ $ $ $ $ $ $ $ $ $ $ $ $ $ $ $ $ $ $ $ $ $ "};
