/* XPM */
static char * Web_xpm[] = {
"38 34 25 1",
" 	c None",
".	c #D8D8D8",
"+	c #4E5B56",
"@	c #848484",
"#	c #898989",
"$	c #000000",
"%	c #3963A5",
"&	c #384345",
"*	c #AA9789",
"=	c #949494",
"-	c #A2A2A2",
";	c #FFFFFF",
">	c #848483",
",	c #567382",
"'	c #567381",
")	c #8C8C8C",
"!	c #999284",
"~	c #AD9B8D",
"{	c #C3B1A3",
"]	c #9A9384",
"^	c #7B7B7B",
"/	c #999999",
"(	c #88887F",
"_	c #888888",
":	c #69726E",
".....................................+",
".@#@#@#$%$%$%$#@$%$@#@#$%$$$$@#@#@#@#&",
".*#*#%$%$%#=$%#%%%#%%=#=$%$%$$#*#*#*#&",
".@*@%$%$%@*@*@=@%@*@*@=@*$%$%$$@*@*@*&",
".*#%$%$%%=#%%=#=@=#=@=#$%=$%$%$$@*#*@&",
".@%$%$%$%%%%=@*@=@*@=@*@=$%$%$%$$@*@*&",
".*$%$%%%%%-=-;-;-=-=-=-=-%$$$=$%$%@*#&",
".$%$%$%$%%=;;>=>=>=>,>=>%$%'$%%$$$%@*&",
".%$%%%%=>;>;>;>;>=>=>=>=$%$=$$%=$$$*@&",
".$%$%%=$;;;;;$;$=$=$=$=$=$%$%$%$%$$%*&",
".%@=-%);););););)=)=)=)=)%$%$%$%$%$$@&",
".$=!==%;;;;;;=;~===~===~=$%$%$%$%$%$%&",
".%@%%;);););););)=)=)=)=$%$%$%$%$$$$%&",
".$%=%%;=;=;=;===========%$%$%$%$%$%$$&",
".=$%{;%;,;~;];];~=~=~=~=$%$%$%$%$%$$$&",
".==$====================%$%$%$%$$$%$$&",
".==%$%==~=;=;===~===~===~%$%$%$%$%$$$&",
".====$%$%$================%$%$$$%$%$$&",
".===$%$%$%$%============%=%=%=%$$$$$$&",
".===%$%$%$%$%============%=%%%%$%$%$$&",
".^==$%$%$%$%$^$==^===^%=%^%=%%%%$$$$$&",
".===%$%$%$%$%$%$%========%%%%%%%$%$$$&",
".==^=%$%$%$%$%$%$%$^%^%^%=%%%%$%$$$$%&",
".====%%$%$%$%$%$%$===%=%=%%%%%%%%$$$%&",
".^=^=^=%$%$%$%$%$^%^%^%^%%%%$%$%$%$$!&",
".=======%$%$%$%$%==%=%=%%%%%%%%$$$$%/&",
".%=^%^%^$%$%$%$%%^%^%^%^%%$%$%$%$%$/!&",
".%%%=%^=%$%$%$^==%%%=%%%%%%%%$$$$$%(/&",
"./%%%^%^$%$%$^%^%^%^%%%%$%$%$%$%$$(/(&",
"._%$%%^%%$%$%%^%%%%%%%%%%%%$$$$$$_/_/&",
"._(%%%%^$%$^%^%^%%%%%%$%$%$%$%$$(_(/(&",
"._/_%$%%%$%%%%%%%%%%$%%%%$$$$$$_/_/_/&",
"._(__%%%%%$%%%%%%$%%%%$%$%$%$$(___(__&",
":&&&&&&&&&&&&&&&&&&&&&&&&&&&&&&&&&&&&&"};
